0
SECTION
2
HEADER
9
$ACADVER
1
AC1021
9
$HANDSEED
5
E9
9
$INSUNITS
70
0
9
$CLAYER
8
0
9
$VIEWCTR
10
0
20
0
0
ENDSEC
0
SECTION
2
CLASSES
0
ENDSEC
0
SECTION
2
TABLES
0
TABLE
2
VPORT
5
1
330
0
100
AcDbSymbolTable
70
1
0
VPORT
5
19
330
1
100
AcDbSymbolTableRecord
100
AcDbViewportTableRecord
2
*Active
70
0
10
0
20
0
11
1
21
1
12
0
22
0
13
0
23
0
14
10
24
10
15
10
25
10
16
0
26
0
36
1
17
0
27
0
37
0
40
200
41
2
42
50
43
0
44
0
50
0
51
0
71
0
72
100
73
1
74
3
75
0
76
1
77
0
78
0
281
0
65
1
110
0
120
0
130
0
111
1
121
0
131
0
112
0
122
1
132
0
79
0
146
0
348
10020
60
7
61
5
292
1
282
1
141
0
142
0
63
250
421
3358443
0
ENDTAB
0
TABLE
2
LTYPE
5
2
330
0
100
AcDbSymbolTable
70
3
0
LTYPE
5
12
330
2
100
AcDbSymbolTableRecord
100
AcDbLinetypeTableRecord
2
ByBlock
70
0
3

72
65
73
0
40
0
0
LTYPE
5
13
330
2
100
AcDbSymbolTableRecord
100
AcDbLinetypeTableRecord
2
ByLayer
70
0
3

72
65
73
0
40
0
0
LTYPE
5
14
330
2
100
AcDbSymbolTableRecord
100
AcDbLinetypeTableRecord
2
Continuous
70
0
3
Solid line
72
65
73
0
40
0
0
ENDTAB
0
TABLE
2
LAYER
5
3
330
0
100
AcDbSymbolTable
70
5
0
LAYER
5
15
330
3
100
AcDbSymbolTableRecord
100
AcDbLayerTableRecord
2
0
62
7
70
0
6
Continuous
390
1
0
LAYER
5
1A
330
3
100
AcDbSymbolTableRecord
100
AcDbLayerTableRecord
2
surface
62
7
70
0
6
Continuous
390
1
0
LAYER
5
23
330
3
100
AcDbSymbolTableRecord
100
AcDbLayerTableRecord
2
object
62
7
70
0
6
Continuous
390
1
0
LAYER
5
B8
330
3
100
AcDbSymbolTableRecord
100
AcDbLayerTableRecord
2
wall
62
7
70
0
6
Continuous
390
1
0
LAYER
5
C0
330
3
100
AcDbSymbolTableRecord
100
AcDbLayerTableRecord
2
window-door
62
7
70
0
6
Continuous
390
1
0
ENDTAB
0
TABLE
2
STYLE
5
4
330
0
100
AcDbSymbolTable
70
1
0
STYLE
5
16
330
4
100
AcDbSymbolTableRecord
100
AcDbTextStyleTableRecord
2
Standard
70
0
40
0
41
1
50
0
71
0
42
1
3
txt
4

0
ENDTAB
0
TABLE
2
VIEW
5
5
330
0
100
AcDbSymbolTable
70
0
0
ENDTAB
0
TABLE
2
UCS
5
6
330
0
100
AcDbSymbolTable
70
0
0
ENDTAB
0
TABLE
2
APPID
5
7
330
0
100
AcDbSymbolTable
70
1
0
APPID
5
17
330
7
100
AcDbSymbolTableRecord
100
AcDbRegAppTableRecord
2
ACAD
70
0
0
ENDTAB
0
TABLE
2
DIMSTYLE
5
8
330
0
100
AcDbSymbolTable
70
1
100
AcDbDimStyleTable
0
DIMSTYLE
105
18
330
8
100
AcDbSymbolTableRecord
100
AcDbDimStyleTableRecord
2
Standard
70
0
340
16
0
ENDTAB
0
TABLE
2
BLOCK_RECORD
5
9
330
0
100
AcDbSymbolTable
70
23
0
BLOCK_RECORD
5
C
330
9
100
AcDbSymbolTableRecord
100
AcDbBlockTableRecord
2
*Model_Space
70
0
280
1
281
0
0
BLOCK_RECORD
5
F
330
9
100
AcDbSymbolTableRecord
100
AcDbBlockTableRecord
2
*Paper_Space
70
0
280
1
281
0
0
BLOCK_RECORD
5
1B
330
9
100
AcDbSymbolTableRecord
100
AcDbBlockTableRecord
2
surface-1
70
0
280
1
281
0
0
BLOCK_RECORD
5
24
330
9
100
AcDbSymbolTableRecord
100
AcDbBlockTableRecord
2
Kitchen_bench-1
70
0
280
1
281
0
0
BLOCK_RECORD
5
2A
330
9
100
AcDbSymbolTableRecord
100
AcDbBlockTableRecord
2
shower_cabin-1
70
0
280
1
281
0
0
BLOCK_RECORD
5
31
330
9
100
AcDbSymbolTableRecord
100
AcDbBlockTableRecord
2
Refrigator-1
70
0
280
1
281
0
0
BLOCK_RECORD
5
39
330
9
100
AcDbSymbolTableRecord
100
AcDbBlockTableRecord
2
Wahsing_machine-1
70
0
280
1
281
0
0
BLOCK_RECORD
5
43
330
9
100
AcDbSymbolTableRecord
100
AcDbBlockTableRecord
2
Induction_cooker_4-1
70
0
280
1
281
0
0
BLOCK_RECORD
5
4E
330
9
100
AcDbSymbolTableRecord
100
AcDbBlockTableRecord
2
Washstand-1
70
0
280
1
281
0
0
BLOCK_RECORD
5
58
330
9
100
AcDbSymbolTableRecord
100
AcDbBlockTableRecord
2
Warderobe_2_door-1
70
0
280
1
281
0
0
BLOCK_RECORD
5
5E
330
9
100
AcDbSymbolTableRecord
100
AcDbBlockTableRecord
2
Warderobe_2_door-2
70
0
280
1
281
0
0
BLOCK_RECORD
5
64
330
9
100
AcDbSymbolTableRecord
100
AcDbBlockTableRecord
2
Sink_with_dryer_plate-1
70
0
280
1
281
0
0
BLOCK_RECORD
5
76
330
9
100
AcDbSymbolTableRecord
100
AcDbBlockTableRecord
2
TV-1
70
0
280
1
281
0
0
BLOCK_RECORD
5
7C
330
9
100
AcDbSymbolTableRecord
100
AcDbBlockTableRecord
2
Warderobe_2_door-3
70
0
280
1
281
0
0
BLOCK_RECORD
5
82
330
9
100
AcDbSymbolTableRecord
100
AcDbBlockTableRecord
2
WC_tank-1
70
0
280
1
281
0
0
BLOCK_RECORD
5
8B
330
9
100
AcDbSymbolTableRecord
100
AcDbBlockTableRecord
2
Coffee_table-1
70
0
280
1
281
0
0
BLOCK_RECORD
5
90
330
9
100
AcDbSymbolTableRecord
100
AcDbBlockTableRecord
2
Three_seater_sofa-1
70
0
280
1
281
0
0
BLOCK_RECORD
5
A3
330
9
100
AcDbSymbolTableRecord
100
AcDbBlockTableRecord
2
Double_bed-1
70
0
280
1
281
0
0
BLOCK_RECORD
5
AB
330
9
100
AcDbSymbolTableRecord
100
AcDbBlockTableRecord
2
Table_with_four_chairs-1
70
0
280
1
281
0
0
BLOCK_RECORD
5
B9
330
9
100
AcDbSymbolTableRecord
100
AcDbBlockTableRecord
2
wall-1
70
0
280
1
281
0
0
BLOCK_RECORD
5
C1
330
9
100
AcDbSymbolTableRecord
100
AcDbBlockTableRecord
2
window-door-1
70
0
280
1
281
0
0
BLOCK_RECORD
5
DD
330
9
100
AcDbSymbolTableRecord
100
AcDbBlockTableRecord
2
Window-1
70
0
280
1
281
0
0
BLOCK_RECORD
5
E3
330
9
100
AcDbSymbolTableRecord
100
AcDbBlockTableRecord
2
Window-2
70
0
280
1
281
0
0
ENDTAB
0
ENDSEC
0
SECTION
2
BLOCKS
0
BLOCK
5
D
330
C
100
AcDbEntity
8
0
100
AcDbBlockBegin
2
*Model_Space
70
0
10
0
20
0
30
0
3
*Model_Space
1

0
ENDBLK
5
E
100
AcDbEntity
8
0
100
AcDbBlockEnd
0
BLOCK
5
10
330
F
100
AcDbEntity
8
0
100
AcDbBlockBegin
2
*Paper_Space
70
0
10
0
20
0
30
0
3
*Paper_Space
1

0
ENDBLK
5
11
100
AcDbEntity
8
0
100
AcDbBlockEnd
0
BLOCK
5
1C
330
1B
100
AcDbEntity
8
0
100
AcDbBlockBegin
2
surface-1
70
0
10
0
20
0
30
0
3
surface-1
1

0
LWPOLYLINE
5
1E
330
1B
100
AcDbEntity
8
0
100
AcDbPolyline
90
7
70
0
43
0
38
0
39
0
10
415.2639936991928
20
-711.9005382404505
10
278.62574004401245
20
-711.9005382404505
10
278.62574004401245
20
-797.130340025365
10
86.52047252880857
20
-797.130340025365
10
86.52047252880857
20
-278.3108323346557
10
415.2639936991928
20
-278.3108323346557
10
415.2639936991928
20
-711.9005382404505
0
LWPOLYLINE
5
1F
330
1B
100
AcDbEntity
8
0
100
AcDbPolyline
90
5
70
0
43
0
38
0
39
0
10
415.2639936991928
20
-534.000237689399
10
415.2639936991928
20
-278.3108323346557
10
570.1657763082833
20
-278.3108323346557
10
570.1657763082833
20
-534.000237689399
10
415.2639936991928
20
-534.000237689399
0
LWPOLYLINE
5
20
330
1B
100
AcDbEntity
8
0
100
AcDbPolyline
90
6
70
0
43
0
38
0
39
0
10
570.1657763082833
20
-667.2563563531144
10
711.5390189515142
20
-667.2563563531144
10
711.5390189515142
20
-503.5610227662153
10
570.1657763082833
20
-503.5610227662153
10
570.1657763082833
20
-534.000237689399
10
570.1657763082833
20
-667.2563563531144
0
LWPOLYLINE
5
21
330
1B
100
AcDbEntity
8
0
100
AcDbPolyline
90
5
70
0
43
0
38
0
39
0
10
415.2639936991928
20
-667.2563563531144
10
570.1657763082833
20
-667.2563563531144
10
570.1657763082833
20
-534.000237689399
10
415.2639936991928
20
-534.000237689399
10
415.2639936991928
20
-667.2563563531144
0
ENDBLK
5
1D
100
AcDbEntity
8
0
100
AcDbBlockEnd
0
BLOCK
5
25
330
24
100
AcDbEntity
8
0
100
AcDbBlockBegin
2
Kitchen_bench-1
70
0
10
0
20
0
30
0
3
Kitchen_bench-1
1

0
LWPOLYLINE
5
27
330
24
100
AcDbEntity
8
0
100
AcDbPolyline
90
7
70
0
43
0
38
0
39
0
10
133.93266133585934
20
-723.8321017060401
10
133.93239076506
20
-749.5361247130735
10
230.99574174351136
20
-749.5361247130735
10
230.99574174351136
20
-790.1217446106517
10
93.34690615288139
20
-790.1217446106517
10
93.34704143828105
20
-723.8316958498411
10
133.93266133585934
20
-723.8321017060401
0
LWPOLYLINE
5
28
330
24
100
AcDbEntity
8
0
100
AcDbPolyline
90
5
70
0
43
0
38
0
39
0
10
133.93266133585934
20
-657.5422558733289
10
133.93239076506
20
-683.2464818084618
10
93.34677086748172
20
-683.2460759522628
10
93.34704143828105
20
-657.5418500171298
10
133.93266133585934
20
-657.5422558733289
0
ENDBLK
5
26
100
AcDbEntity
8
0
100
AcDbBlockEnd
0
BLOCK
5
2B
330
2A
100
AcDbEntity
8
0
100
AcDbBlockBegin
2
shower_cabin-1
70
0
10
0
20
0
30
0
3
shower_cabin-1
1

0
LWPOLYLINE
5
2D
330
2A
100
AcDbEntity
8
0
100
AcDbPolyline
90
6
70
0
43
0
38
0
39
0
10
704.8298777689454
20
-660.2480315092006
10
643.9514479225779
20
-660.2474227249021
10
643.9520567068764
20
-599.3689928785346
10
704.8304865532439
20
-599.3696016628331
10
704.8298777689454
20
-660.2480315092006
10
704.8298777689454
20
-660.2480315092006
0
LWPOLYLINE
5
2E
330
2A
100
AcDbEntity
8
0
100
AcDbPolyline
90
6
70
0
43
0
38
0
39
0
10
703.4770237723594
20
-660.2480315092006
10
645.3043019191639
20
-660.2474227249021
10
645.3049107034624
20
-600.7218468751206
10
703.4776325566579
20
-600.7224556594191
10
703.4770237723594
20
-660.2480315092006
10
703.4770237723594
20
-660.2480315092006
0
LWPOLYLINE
5
2F
330
2A
100
AcDbEntity
8
0
100
AcDbPolyline
90
62
70
0
43
0
38
0
39
0
10
668.3029551465247
20
-647.7337938272814
10
668.3399813473716
20
-647.0587221083264
10
668.4513484990973
20
-646.3918814665849
10
668.6364010690158
20
-645.7416274514617
10
668.8929286884209
20
-645.1161126219496
10
669.2175148578713
20
-644.5230497885966
10
669.6058537782649
20
-643.9696262883652
10
670.0529248401544
20
-643.4624633756565
10
670.5531640582719
20
-643.0076582037333
10
671.1005440230199
20
-642.6108453689726
10
671.6885153213993
20
-642.2771238167352
10
672.30996846275
20
-642.0109062241085
10
672.957263354524
20
-641.8157537532771
10
673.6222984387355
20
-641.6940692533361
10
674.2967241287506
20
-641.6467439364679
10
674.3908657738612
20
-641.6460184853445
10
674.9722839966666
20
-641.673445824785
10
675.6407697469356
20
-641.774473574266
10
676.2938270938266
20
-641.9493751648579
10
676.9232573714476
20
-642.1961386512417
10
677.5212768375898
20
-642.5114984597095
10
678.0806211112058
20
-642.891259017256
10
678.5945959461089
20
-643.3304814399847
10
679.0570345985443
20
-643.8236728319448
10
679.4622329216388
20
-644.3648753083008
10
679.8050164642464
20
-644.947610589205
10
680.0808701211643
20
-645.5648473742999
10
680.286091955523
20
-646.2090209397207
10
680.4181001048808
20
-646.8720839459183
10
680.4757654750576
20
-647.545702749681
10
680.4786411157982
20
-647.733929112681
10
680.4593627804152
20
-648.2215920924565
10
680.368669902163
20
-648.8915591858183
10
680.2039504580375
20
-649.5472587793707
10
679.9670108943844
20
-650.180452222724
10
679.6609583192474
20
-650.7832874753224
10
679.289872685988
20
-651.3484236965834
10
678.8586067646379
20
-651.8690923548859
10
678.3725805054462
20
-652.339056103042
10
677.8376816642731
20
-652.752540717086
10
677.2603184338786
20
-653.104298118113
10
676.6474438114271
20
-653.3897133689586
10
676.0065438607312
20
-653.6049403007792
10
675.3456154222463
20
-653.7472484521885
10
674.672963172216
20
-653.8152559723941
10
674.3907304884615
20
-653.8217044546179
10
673.9969012838089
20
-653.8091485345299
10
673.3256133080072
20
-653.7288025044212
10
672.6674290520232
20
-653.5743092256423
10
672.0306215998503
20
-653.3472624118816
10
671.423109297685
20
-653.0506030989565
10
670.8523093053525
20
-652.6882907983797
10
670.3250662630969
20
-652.265088096132
10
669.8476892310471
20
-651.7863410529775
10
669.4260227777818
20
-651.2578676691223
10
669.0653864935218
20
-650.6860078967292
10
668.7704915090114
20
-650.0776372857679
10
668.5453205438064
20
-649.44016307153
10
668.3927651692732
20
-648.7815256492286
10
668.3144002831154
20
-648.1100028087496
10
668.3029551465247
20
-647.7337938272814
10
668.3029551465247
20
-647.7337938272814
0
ENDBLK
5
2C
100
AcDbEntity
8
0
100
AcDbBlockEnd
0
BLOCK
5
32
330
31
100
AcDbEntity
8
0
100
AcDbBlockBegin
2
Refrigator-1
70
0
10
0
20
0
30
0
3
Refrigator-1
1

0
LWPOLYLINE
5
34
330
31
100
AcDbEntity
8
0
100
AcDbPolyline
90
5
70
0
43
0
38
0
39
0
10
231.1756713250573
20
-749.299375263671
10
271.7612912226356
20
-749.299375263671
10
271.7612912226356
20
-789.8849951612493
10
231.1756713250573
20
-789.8849951612493
10
231.1756713250573
20
-749.299375263671
0
LWPOLYLINE
5
35
330
31
100
AcDbEntity
8
0
100
AcDbPolyline
90
2
70
0
43
0
38
0
39
0
10
237.939941307987
20
-783.1207251783195
10
264.9970212397059
20
-756.0636452466007
0
LWPOLYLINE
5
36
330
31
100
AcDbEntity
8
0
100
AcDbPolyline
90
18
70
0
43
0
38
0
39
0
10
246.05706528750267
20
-762.8279152295304
10
245.8917238100289
20
-763.47652035848
10
245.43537737214746
20
-763.9663511324446
10
244.80020027249242
20
-764.1774156125143
10
244.7042112909167
20
-764.1807692261164
10
244.14144884978901
20
-764.0585044494574
10
243.62059110197828
20
-763.6379378291724
10
243.36480901621667
20
-763.0194041969418
10
243.35135729433074
20
-762.8279152295304
10
243.43675668983133
20
-762.353828533897
10
243.8193811923163
20
-761.8045274091153
10
244.41816595939156
20
-761.5053659753966
10
244.7042112909167
20
-761.4750612329444
10
245.08719689197284
20
-761.530036064942
10
245.66223208039543
20
-761.8727032194065
10
246.00320940834297
20
-762.4487409855326
10
246.05706528750267
20
-762.8279152295304
10
246.05706528750267
20
-762.8279152295304
0
LWPOLYLINE
5
37
330
31
100
AcDbEntity
8
0
100
AcDbPolyline
90
18
70
0
43
0
38
0
39
0
10
259.5856052533621
20
-776.3564551953898
10
259.4202637758884
20
-777.0050603243394
10
258.96391733800687
20
-777.494891098304
10
258.3287402383518
20
-777.7059555783734
10
258.2327512567761
20
-777.7093091919758
10
257.66998881564837
20
-777.5870444153169
10
257.14913106783763
20
-777.166477795032
10
256.893348982076
20
-776.5479441628012
10
256.8798972601902
20
-776.3564551953898
10
256.9652966556908
20
-775.8823684997562
10
257.34792115817567
20
-775.3330673749746
10
257.9467059252509
20
-775.0339059412559
10
258.2327512567761
20
-775.003601198804
10
258.61573685783225
20
-775.0585760308014
10
259.19077204625484
20
-775.4012431852659
10
259.53174937420243
20
-775.9772809513922
10
259.5856052533621
20
-776.3564551953898
10
259.5856052533621
20
-776.3564551953898
0
ENDBLK
5
33
100
AcDbEntity
8
0
100
AcDbBlockEnd
0
BLOCK
5
3A
330
39
100
AcDbEntity
8
0
100
AcDbBlockBegin
2
Wahsing_machine-1
70
0
10
0
20
0
30
0
3
Wahsing_machine-1
1

0
LWPOLYLINE
5
3C
330
39
100
AcDbEntity
8
0
100
AcDbPolyline
90
5
70
0
43
0
38
0
39
0
10
664.4068709217568
20
-509.99979607756643
10
704.992490819335
20
-509.99979607756643
10
704.992490819335
20
-550.5854159751448
10
664.4068709217568
20
-550.5854159751448
10
664.4068709217568
20
-509.99979607756643
0
LWPOLYLINE
5
3D
330
39
100
AcDbEntity
8
0
100
AcDbPolyline
90
81
70
0
43
0
38
0
39
0
10
692.8168048500615
20
-530.2926060263555
10
692.7890630126076
20
-530.9682731393574
10
692.7055747061409
20
-531.6393302566535
10
692.5663770231106
20
-532.3010763595677
10
692.3722098654259
20
-532.9488278481906
10
692.1243966556619
20
-533.5780117401301
10
691.8247890101748
20
-534.1842463197033
10
691.4756601972942
20
-534.7633800113557
10
691.0796140753514
20
-535.3115008392359
10
690.639507436088
20
-535.824918223372
10
690.1584078792753
20
-536.3001387417729
10
689.6396434388373
20
-536.7339281316796
10
689.0867110442821
20
-537.123228481698
10
688.5033223175653
20
-537.4652021493308
10
687.8934211705509
20
-537.7572761232501
10
687.2612113610546
20
-537.997266751354
10
686.6111006010046
20
-538.1833870602695
10
685.9476758099174
20
-538.3143558344767
10
685.275644082518
20
-538.389606705737
10
684.699680870546
20
-538.4097300058712
10
684.5996882228706
20
-538.4091051218222
10
683.9244100471151
20
-538.3731570098452
10
683.2544273481976
20
-538.2814444398642
10
682.5944599813092
20
-538.13403924152
10
681.9491721383799
20
-537.9318353696959
10
681.3231098608508
20
-537.6762392236542
10
680.7206214004991
20
-537.3691674881051
10
680.1458226345621
20
-537.0129444299037
10
679.6026169238621
20
-536.6101815449153
10
679.0946438051544
20
-536.1638031597155
10
678.6253321475922
20
-535.6769386999636
10
678.1979176221812
20
-535.1529082100196
10
677.8154653207257
20
-534.5952165651421
10
677.4807283486882
20
-534.007647300821
10
677.1962189841638
20
-533.3941829204336
10
676.9640937033546
20
-532.7590447095168
10
676.7860565268763
20
-532.1066754389885
10
676.6632742421555
20
-531.44168648125
10
676.5963169621123
20
-530.7687773636715
10
676.5825568910302
20
-530.2926060263555
10
676.5850019031618
20
-530.0926354937944
10
676.6291626160289
20
-529.4178453785779
10
676.7291581539896
20
-528.7490499084424
10
676.8846921784477
20
-528.0909514034863
10
677.0948825839291
20
-527.4482188943358
10
677.3582168621776
20
-526.8253695212294
10
677.6727243543971
20
-526.2267273180722
10
678.036017213115
20
-525.6563709342233
10
678.4454062579616
20
-525.1181426353271
10
678.8979550250767
20
-524.6156584240067
10
679.3905357253791
20
-524.1523488714836
10
679.9197857261511
20
-523.7314160933751
10
680.4821261336024
20
-523.3558350535964
10
681.0737750312057
20
-523.028363013505
10
681.6907143215831
20
-522.7514676527582
10
682.3286873976094
20
-522.5272483249762
10
682.9832203629294
20
-522.3573368629517
10
683.6496767091944
20
-522.2427880272498
10
684.3233559508617
20
-522.1840804822214
10
684.699680870546
20
-522.1754820468399
10
684.9995856276498
20
-522.1809438837611
10
685.6737865185021
20
-522.2333369354379
10
686.3412947098707
20
-522.3415935128191
10
686.9974079373437
20
-522.5052956787595
10
687.6374797514793
20
-522.7234488364767
10
688.257015354493
20
-522.9944829985959
10
688.8517323805511
20
-523.3163482592207
10
689.417585594699
20
-523.6866157285592
10
689.9507660252457
20
-524.1025598227445
10
690.4476488181806
20
-524.5612526842139
10
690.9048911890568
20
-525.0594691715498
10
691.3193202036819
20
-525.5938269605584
10
691.687967748948
20
-526.1607381526532
10
692.0080949506466
20
-526.7563940721228
10
692.277320001913
20
-527.376718646882
10
692.4936122282868
20
-528.017422516677
10
692.6554048002752
20
-528.6740106444073
10
692.7616843813144
20
-529.3418362916658
10
692.8121680646805
20
-530.0161823649986
10
692.8168048500615
20
-530.2926060263555
10
692.8168048500615
20
-530.2926060263555
0
LWPOLYLINE
5
3E
330
39
100
AcDbEntity
8
0
100
AcDbPolyline
90
2
70
0
43
0
38
0
39
0
10
670.359428506735
20
-530.5631768256727
10
679.2206221843728
20
-536.3128063111631
0
LWPOLYLINE
5
3F
330
39
100
AcDbEntity
8
0
100
AcDbPolyline
90
2
70
0
43
0
38
0
39
0
10
690.1110968568896
20
-524.272405741548
10
699.0399332343568
20
-530.0220352270384
0
LWPOLYLINE
5
40
330
39
100
AcDbEntity
8
0
100
AcDbPolyline
90
2
70
0
43
0
38
0
39
0
10
684.970251669863
20
-544.6328583901666
10
690.7198811553533
20
-535.7040220126994
0
LWPOLYLINE
5
41
330
39
100
AcDbEntity
8
0
100
AcDbPolyline
90
2
70
0
43
0
38
0
39
0
10
678.6794805857385
20
-524.8135473401825
10
684.3614673713994
20
-515.9523536625445
0
ENDBLK
5
3B
100
AcDbEntity
8
0
100
AcDbBlockEnd
0
BLOCK
5
44
330
43
100
AcDbEntity
8
0
100
AcDbBlockBegin
2
Induction_cooker_4-1
70
0
10
0
20
0
30
0
3
Induction_cooker_4-1
1

0
LWPOLYLINE
5
46
330
43
100
AcDbEntity
8
0
100
AcDbPolyline
90
6
70
0
43
0
38
0
39
0
10
93.34690615288139
20
-723.8318987779405
10
93.34690615288139
20
-683.2462788803622
10
131.99990647363683
20
-683.2462788803622
10
131.99990647363683
20
-723.8318987779405
10
93.34690615288139
20
-723.8318987779405
10
93.34690615288139
20
-723.8318987779405
0
LWPOLYLINE
5
47
330
43
100
AcDbEntity
8
0
100
AcDbPolyline
90
6
70
0
43
0
38
0
39
0
10
131.99990647363683
20
-720.1115502873292
10
131.99990647363683
20
-686.9666273709736
10
133.93252605045967
20
-686.9666273709736
10
133.93252605045967
20
-720.1115502873292
10
131.99990647363683
20
-720.1115502873292
10
131.99990647363683
20
-720.1115502873292
0
LWPOLYLINE
5
48
330
43
100
AcDbEntity
8
0
100
AcDbPolyline
90
6
70
0
43
0
38
0
39
0
10
94.63536429922982
20
-722.4790447813546
10
94.63536429922982
20
-684.5991328769481
10
126.84614153094287
20
-684.5991328769481
10
126.84614153094287
20
-722.4790447813546
10
94.63536429922982
20
-722.4790447813546
10
94.63536429922982
20
-722.4790447813546
0
LWPOLYLINE
5
49
330
43
100
AcDbEntity
8
0
100
AcDbPolyline
90
52
70
0
43
0
38
0
39
0
10
103.01013932239528
20
-689.6723353641455
10
103.68419105985362
20
-689.7213246946571
10
104.34388170625954
20
-689.8680900154277
10
104.97513782582894
20
-690.1094668642255
10
105.565233474146
20
-690.4389584175116
10
106.10326813132923
20
-690.8480219838785
10
106.58017191911574
20
-691.3269908599933
10
106.98840528649862
20
-691.8657102859229
10
107.32181476564926
20
-692.4536962968147
10
107.5754503324622
20
-693.0802514557422
10
107.74580999210525
20
-693.7343875771886
10
107.83106112106475
20
-694.4049604317892
10
107.84178972850219
20
-694.7455378513428
10
107.83139343615437
20
-695.0809472287868
10
107.74678091959333
20
-695.7516014940417
10
107.57706968803114
20
-696.4059062758345
10
107.32405935580891
20
-697.0327150627767
10
106.9912351298093
20
-697.621033399338
10
106.5835423471471
20
-698.1601616598731
10
106.10714236231411
20
-698.6396307130708
10
105.56954749839508
20
-699.0492723492989
10
104.9798147384023
20
-699.3794148046793
10
104.3488221652097
20
-699.6214794517437
10
103.68930169921407
20
-699.7690069684746
10
103.0153037523595
20
-699.8187256885254
10
103.01013932239528
20
-699.81874033854
10
102.34119869960887
20
-699.7704900881972
10
101.68134847904986
20
-699.6244486059655
10
101.04982766896421
20
-699.3837680592407
10
100.45937869881419
20
-699.054910257362
10
99.9209151662044
20
-698.6464103455548
10
99.44353624843598
20
-698.1679153721892
10
99.03475167476398
20
-697.6296148178014
10
98.70076181043527
20
-697.0419583205049
10
98.44650359516567
20
-696.4156557172824
10
98.2755136756922
20
-695.76168462135
10
98.18961281470575
20
-695.091195668724
10
98.17855655898825
20
-694.7455378513428
10
98.18864186917136
20
-694.4152099021067
10
98.27261341091662
20
-693.7444756038469
10
98.44166785785296
20
-693.090000631516
10
98.69406465610496
20
-692.4629438041753
10
99.02629470382982
20
-691.8742890574915
10
99.43345222529683
20
-691.3347561642688
10
99.90935371650869
20
-690.8547924089104
10
100.44651646981441
20
-690.4445828635528
10
101.03589803529115
20
-690.1138118721848
10
101.66662918081477
20
-689.8710669474518
10
102.32598587218382
20
-689.722811319508
10
102.99992892971574
20
-689.6723643279887
10
103.01013932239528
20
-689.6723353641455
10
103.01013932239528
20
-689.6723353641455
0
LWPOLYLINE
5
4A
330
43
100
AcDbEntity
8
0
100
AcDbPolyline
90
61
70
0
43
0
38
0
39
0
10
118.47136650777742
20
-688.657694866706
10
119.14614673474495
20
-688.6985040279297
10
119.81095824207671
20
-688.8210073440473
10
120.45587536443594
20
-689.0236588496401
10
121.07158204765335
20
-689.302774154719
10
121.64974847666059
20
-689.6531239554354
10
122.18311220879747
20
-690.0685345021874
10
122.6654972864979
20
-690.5422065869825
10
123.09161207787582
20
-691.0670894164203
10
123.45693645805665
20
-691.6359702445691
10
123.75768001708587
20
-692.24148571319
10
123.9908036966026
20
-692.8761168501268
10
124.15412575207483
20
-693.5321946634376
10
124.24647746487841
20
-694.2019661216975
10
124.26929288094578
20
-694.7455378513428
10
124.26794804554328
20
-694.8777450204999
10
124.2188387829022
20
-695.5520741457325
10
124.09867406561835
20
-696.2174142351971
10
123.90786687557272
20
-696.866028240262
10
123.64800935392134
20
-697.490187533422
10
123.32161182643529
20
-698.0822678179662
10
122.93203079928458
20
-698.6348181200391
10
122.48333498717324
20
-699.1405296078553
10
121.98033400082568
20
-699.5922420120639
10
121.42866707633345
20
-699.9830071062615
10
120.83490959350854
20
-700.3062179906897
10
120.20672762383134
20
-700.5559806934701
10
119.55287975754129
20
-700.727633920705
10
118.88297740900634
20
-700.8182736059185
10
118.47136650777742
20
-700.8333808359795
10
118.20701791694023
20
-700.8271468828829
10
117.5349378873243
20
-700.7543791276674
10
116.8767456748144
20
-700.6002190041842
10
116.24218231734483
20
-700.3671496586005
10
115.64023109622048
20
-700.0594747148621
10
115.07878268242519
20
-699.6829051811503
10
114.56464958374386
20
-699.243908644332
10
114.10368730442246
20
-698.7493558671083
10
113.70084336063081
20
-698.2064028532968
10
113.36034760427617
20
-697.6223187831054
10
113.08572471517755
20
-697.0045147922586
10
112.87968123642105
20
-696.3605792955628
10
112.74402604023652
20
-695.6982244460945
10
112.67946905683914
20
-695.0252010925708
10
112.67344013460905
20
-694.7455378513428
10
112.68554457996555
20
-694.3491071414486
10
112.76240914726031
20
-693.6773802004519
10
112.9103075138865
20
-693.017653982143
10
113.1283395271135
20
-692.3776794646496
10
113.4145783003068
20
-691.7651718069752
10
113.76611719793925
20
-691.1876689701706
10
114.17933079058668
20
-690.6525680503764
10
114.64986112878296
20
-690.1671136512183
10
115.17260791175346
20
-689.7384146282483
10
115.74158133573508
20
-689.3733191584804
10
116.34976853884575
20
-689.0781699876572
10
116.98907808121879
20
-688.8584584077348
10
117.65038622410901
20
-688.7182627909908
10
118.32384997056334
20
-688.6596481479278
10
118.47136650777742
20
-688.657694866706
10
118.47136650777742
20
-688.657694866706
0
LWPOLYLINE
5
4B
330
43
100
AcDbEntity
8
0
100
AcDbPolyline
90
61
70
0
43
0
38
0
39
0
10
103.01013932239528
20
-706.2447968223232
10
103.68491956018329
20
-706.2856058646478
10
104.34973122394808
20
-706.4081083900559
10
104.99464897242734
20
-706.6107579553693
10
105.61035716205208
20
-706.8898699788546
10
106.18852635106703
20
-707.2402152517249
10
106.72189442060704
20
-707.6556202516841
10
107.20428533024085
20
-708.1292864149814
10
107.63040735622195
20
-708.6541633775626
10
107.99574004090124
20
-709.2230388718704
10
108.29649249224599
20
-709.8285499214749
10
108.52962486495585
20
-710.4631778554691
10
108.69295498968029
20
-711.1192536395988
10
108.78531360223786
20
-711.7890241247111
10
108.80813333826347
20
-712.3326398069601
10
108.80678926314187
20
-712.4648028390442
10
108.75768352787026
20
-713.1391322026416
10
108.63752071567376
20
-713.8044726277362
10
108.44671416891674
20
-714.4530868149745
10
108.18685672852718
20
-715.0772461423562
10
107.86045880440548
20
-715.6693262078268
10
107.47087782262338
20
-716.221876532604
10
107.0221828665064
20
-716.7275887924786
10
106.51918330118474
20
-717.1793028118763
10
105.96751856428347
20
-717.5700710162931
10
105.37376397498963
20
-717.8932872618143
10
104.74558478851708
20
-718.143057047672
10
104.09173925904685
20
-718.3147192600695
10
103.42183829081597
20
-718.4053693351738
10
103.01013932239528
20
-718.4204827915968
10
102.7458789244821
20
-718.4142528379928
10
102.07379805945766
20
-718.3414930342417
10
101.41560435697238
20
-718.1873393902838
10
100.78103881515295
20
-717.9542759844182
10
100.17908471927382
20
-717.6466066223612
10
99.61763227582179
20
-717.2700430767466
10
99.10349344969069
20
-716.8310532190283
10
98.64252397211538
20
-716.3365071166877
10
98.2396712110828
20
-715.7935606228124
10
97.89916528409134
20
-715.2094824640674
10
97.62453167791392
20
-714.5916832365143
10
97.41847690568
20
-713.9477513568398
10
97.28281121459389
20
-713.2853986512181
10
97.21824522560468
20
-712.6123761710944
10
97.21221294922691
20
-712.3326398069601
10
97.22431337159526
20
-711.9362821786814
10
97.30117188861254
20
-711.2645545656133
10
97.44906557977384
20
-710.6048273090976
10
97.66709380978887
20
-709.9648515168151
10
97.95332881446467
20
-709.3523421091155
10
98.30486384209371
20
-708.7748369116019
10
98.71807312869458
20
-708.2397326558043
10
99.18859860277581
20
-707.7542735369551
10
99.71133982147484
20
-707.3255677045336
10
100.28030791686803
20
-706.9604638906634
10
100.88849026681021
20
-706.6653047223933
10
101.52779596930361
20
-706.445582017984
10
102.18910179653562
20
-706.3053756182171
10
102.86256469828407
20
-706.2467516642714
10
103.01013932239528
20
-706.2447968223232
10
103.01013932239528
20
-706.2447968223232
0
LWPOLYLINE
5
4C
330
43
100
AcDbEntity
8
0
100
AcDbPolyline
90
52
70
0
43
0
38
0
39
0
10
119.1155955809516
20
-707.2594373197627
10
119.78964729650363
20
-707.3084268514581
10
120.44933762427644
20
-707.4551935068399
10
121.08059252384874
20
-707.6965734671763
10
121.6706853187813
20
-708.0260700711916
10
122.20871499262836
20
-708.4351401457075
10
122.68561165280636
20
-708.9141160963353
10
123.09383583319038
20
-709.4528424777706
10
123.42723499166209
20
-710.0408343433434
10
123.68085990368616
20
-710.667393829352
10
123.85120982753045
20
-711.3215325122708
10
123.93645290250493
20
-711.9921064261234
10
123.94717834435863
20
-712.3326398069601
10
123.9367795340541
20
-712.6680932500516
10
123.85216406351611
20
-713.3387471652277
10
123.68245147363723
20
-713.9930516146866
10
123.42944105448805
20
-714.6198603650903
10
123.09661711643884
20
-715.2081788520921
10
122.68892418453493
20
-715.7473069881373
10
122.21252284470557
20
-716.226774673474
10
121.67492549288545
20
-716.6364129889641
10
121.08518943017651
20
-716.9665494448184
10
120.45419360615085
20
-717.2086055286743
10
119.79467056575896
20
-717.3561214165002
10
119.1206717238855
20
-717.4058278945865
10
119.1155955809516
20
-717.4058422941573
10
118.44656737174813
20
-717.3575816168316
10
117.78671854108507
20
-717.2115336285761
10
117.15519913911919
20
-716.9708492902073
10
116.5647512402976
20
-716.6419895432308
10
116.02628855470056
20
-716.2334885217641
10
115.54891044833636
20
-715.754992744345
10
115.14012723009358
20
-715.216691166423
10
114.80613924811098
20
-714.6290336096486
10
114.55188365012543
20
-714.0027299522117
10
114.380896860049
20
-713.348758041689
10
114.29499956829761
20
-712.6782686305776
10
114.28394517484475
20
-712.3326398069601
10
114.29403220720042
20
-712.0022828551676
10
114.37800755909524
20
-711.3315490314787
10
114.54706615932525
20
-710.6770751398163
10
114.79946726416159
20
-710.0500200537397
10
115.13170214917767
20
-709.4613680456973
10
115.53886450027284
20
-708.9218388090794
10
116.01477071782585
20
-708.4418797464082
10
116.55193755198059
20
-708.0316755475797
10
117.1413220945256
20
-707.70090983765
10
117.7720549109871
20
-707.4581691789075
10
118.43141205200203
20
-707.3099153764384
10
119.1053550080511
20
-707.2594663684839
10
119.1155955809516
20
-707.2594373197627
10
119.1155955809516
20
-707.2594373197627
0
ENDBLK
5
45
100
AcDbEntity
8
0
100
AcDbBlockEnd
0
BLOCK
5
4F
330
4E
100
AcDbEntity
8
0
100
AcDbBlockBegin
2
Washstand-1
70
0
10
0
20
0
30
0
3
Washstand-1
1

0
LWPOLYLINE
5
51
330
4E
100
AcDbEntity
8
0
100
AcDbPolyline
90
99
70
0
43
0
38
0
39
0
10
602.310872478462
20
-521.2780663482046
10
602.310872478462
20
-511.3571144923411
10
602.3351639952546
20
-511.13341695037
10
602.6654483042641
20
-510.55387574973656
10
603.2367140345709
20
-510.2015370099723
10
603.8633400822441
20
-510.0944958573274
10
641.3440247722581
20
-510.0944958573274
10
641.7770003461485
20
-510.144230607287
10
642.388343792014
20
-510.4228188260323
10
642.8103675201348
20
-510.94136533390576
10
642.8964923760402
20
-511.3571144923411
10
642.8964923760402
20
-521.2780663482046
10
642.8878790231322
20
-521.7523289206231
10
642.8460633104744
20
-522.4273846628768
10
642.7693831618285
20
-523.099374205178
10
642.6580395510402
20
-523.7664981367383
10
642.5124680354284
20
-524.4270001830797
10
642.3333177793409
20
-525.0791973484145
10
642.1214590532566
20
-525.7215164298952
10
641.8778995518906
20
-526.3524991947629
10
641.603778681857
20
-526.9708204037403
10
641.3003364059998
20
-527.5752947261537
10
640.9688836701698
20
-528.1648782007782
10
640.6107754618301
20
-528.7386651709103
10
640.2273871715227
20
-529.2958817165982
10
639.820094585981
20
-529.8358765960405
10
639.3902006734695
20
-530.358061678084
10
638.9390420063751
20
-530.8619904200731
10
638.4679565221027
20
-531.3473460583176
10
637.9781005287714
20
-531.8137537304946
10
637.4707217532696
20
-532.2610389800376
10
636.9469180286637
20
-532.6889754633462
10
636.4078249071927
20
-533.0974867122975
10
635.854395854114
20
-533.4863584987518
10
635.2876940575968
20
-533.8556214599438
10
634.7086465634725
20
-534.2052104606925
10
634.1181326675271
20
-534.5350654020494
10
633.5170028398722
20
-534.8451545015723
10
632.9060997386082
20
-535.1355171821514
10
632.2862080046339
20
-535.4061615654156
10
631.6580830039118
20
-535.6571085732159
10
631.0224529991613
20
-535.8883908528226
10
630.3800064480272
20
-536.1000049132308
10
629.7314290832139
20
-536.2920087704466
10
629.077388171102
20
-536.4644867028144
10
628.4185239556227
20
-536.6175142068784
10
627.7554361971531
20
-536.7510621613586
10
627.0887459763076
20
-536.8652745655824
10
626.419042890924
20
-536.9602437424418
10
625.7468933217997
20
-537.0359846175429
10
625.0728697777333
20
-537.0926804924283
10
624.3975178078178
20
-537.1303975252187
10
623.7213755233888
20
-537.1492314166187
10
623.4538835214057
20
-537.1515757890463
10
621.8274824467098
20
-537.1515757890463
10
621.6921070823175
20
-537.1511610179846
10
621.015829374508
20
-537.1380657962777
10
620.3401757650706
20
-537.1062027042142
10
619.6656883949677
20
-537.0553165761266
10
618.992905647591
20
-536.9854223643281
10
618.3223936770598
20
-536.8963443335992
10
617.6547166395376
20
-536.7880467499476
10
616.9904742046717
20
-536.6603670765243
10
616.3302451224815
20
-536.5133395551446
10
615.6746653270509
20
-536.3468025271619
10
615.0243648669459
20
-536.1607183443951
10
614.3799838369775
20
-535.9550735221195
10
613.7421966411173
20
-535.7298102781511
10
613.1117005109411
20
-535.4848814540907
10
612.4892173102721
20
-535.2202507465325
10
611.8754955338063
20
-534.9358932752762
10
611.2713124652532
20
-534.6317965443582
10
610.6774764504275
20
-534.3079618540065
10
610.0948292287062
20
-533.9644062234298
10
609.5242482520348
20
-533.6011648852357
10
608.9666780873301
20
-533.2182534398501
10
608.4231152696723
20
-532.8157082519305
10
607.894513019027
20
-532.3937123343671
10
607.3820227727003
20
-531.952291759989
10
606.8866866810502
20
-531.4917073536564
10
606.4097615194314
20
-531.0120876670626
10
605.9523738933703
20
-530.5138044967523
10
605.5158799902251
20
-529.9971227729976
10
605.1015596300174
20
-529.4625006087132
10
604.7107271183902
20
-528.9104788900194
10
604.3447559630731
20
-528.3416729724925
10
604.0050244592653
20
-527.7568181000619
10
603.6929286708366
20
-527.156763359886
10
603.4097693649876
20
-526.542527459391
10
603.1567994178345
20
-525.9152581930211
10
602.9351944057469
20
-525.2762371479895
10
602.746007914255
20
-524.626882195176
10
602.5901399210015
20
-523.9687364078072
10
602.4683061692642
20
-523.3034504902256
10
602.381010444635
20
-522.6327586811275
10
602.3285217582327
20
-521.9584486477169
10
602.3108866281639
20
-521.28232648329
10
602.310872478462
20
-521.2780663482046
10
602.310872478462
20
-521.2780663482046
0
LWPOLYLINE
5
52
330
4E
100
AcDbEntity
8
0
100
AcDbPolyline
90
92
70
0
43
0
38
0
39
0
10
604.0851404949844
20
-521.2780663482046
10
604.0851404949844
20
-512.6198007700546
10
604.1025815624321
20
-512.4857491724152
10
604.4302546920576
20
-511.9058558601055
10
605.0077934251046
20
-511.56471568735003
10
605.5636746278533
20
-511.4773832126376
10
639.7916248111758
20
-511.4773832126376
10
640.1700022871398
20
-511.51712556262623
10
640.7840964022123
20
-511.7885680811555
10
641.1994074959912
20
-512.3113347843505
10
641.2701589440446
20
-512.6799351302028
10
641.2701589440446
20
-521.2780663482046
10
641.2573368817261
20
-521.7721396996849
10
641.2065290453374
20
-522.4465624075501
10
641.117325524229
20
-523.1169870784365
10
640.9900819133172
20
-523.7812446156822
10
640.8254009403818
20
-524.4372254086866
10
640.6243501108897
20
-525.082990195577
10
640.3880295388574
20
-525.7167027045878
10
640.1178169204063
20
-526.3367250662184
10
639.8153136416106
20
-526.9416549983877
10
639.4819947053036
20
-527.5301722383792
10
639.119653501755
20
-528.1012830274224
10
638.7298819940811
20
-528.654041858478
10
638.3144446333768
20
-529.1877848467697
10
637.8748595426152
20
-529.7018272540715
10
637.4128220796188
20
-530.1957901985477
10
636.9298396577112
20
-530.6692993815503
10
636.427353949279
20
-531.1220643527832
10
635.9067388149101
20
-531.553864735559
10
635.3693427532307
20
-531.9645957913406
10
634.8164121025593
20
-532.3541666536734
10
634.2491037534503
20
-532.7224892481539
10
633.6685476734476
20
-533.0695573265535
10
633.0758138444332
20
-533.3953941463888
10
632.4719120731752
20
-533.7000389697546
10
631.8577436836949
20
-533.9834200639564
10
631.2342687766761
20
-534.2456941844089
10
630.6023173647459
20
-534.4868323311676
10
629.962750040625
20
-534.7069811153825
10
629.3163173849014
20
-534.9060736153159
10
628.6638227384055
20
-535.084298085748
10
628.0059966931276
20
-535.2417132169405
10
627.3435475488152
20
-535.3783787121773
10
626.6771636893332
20
-535.4943516122692
10
626.0075285659077
20
-535.5897780459214
10
625.3352969803668
20
-535.6647626783308
10
624.6611077861905
20
-535.7194241060009
10
623.985583245015
20
-535.753868643694
10
623.3093333674781
20
-535.768218819368
10
623.0842161668384
20
-535.7686207910363
10
622.0492828594502
20
-535.7686207910363
10
621.9564808900379
20
-535.7684219961372
10
621.2802001202842
20
-535.7556254136061
10
620.6046037725348
20
-535.7226452382489
10
619.9303083402735
20
-535.6693261928277
10
619.2579463069885
20
-535.5955300973254
10
618.5881661249068
20
-535.5011346331164
10
617.9216325146365
20
-535.3860321086051
10
617.2590285696565
20
-535.2501216141228
10
616.6010762631408
20
-535.0932352646107
10
615.9484830064487
20
-534.9153737441678
10
615.301990383975
20
-534.7164779437937
10
614.6624165138717
20
-534.4963499498094
10
614.0305224472988
20
-534.2550627391792
10
613.4071963845245
20
-533.9924362591
10
612.7932706421011
20
-533.708531864253
10
612.1897148319504
20
-533.4032031585057
10
611.5974789345698
20
-533.0764631975069
10
611.0175740698548
20
-532.7283107887076
10
610.4510833568418
20
-532.3587357109623
10
609.8991492868545
20
-531.9677578288082
10
609.362977045932
20
-531.55543372338
10
608.8438371661996
20
-531.1218647523655
10
608.3430671508024
20
-530.6672066334186
10
607.8620716454618
20
-530.1916805977905
10
607.4024070987241
20
-529.6955092960801
10
606.9655743907149
20
-529.1791285172058
10
606.5531885873422
20
-528.643026624019
10
606.1669814957147
20
-528.0877732777241
10
605.8085935521847
20
-527.5141757384048
10
605.4797536450455
20
-526.9231461615144
10
605.1822056386188
20
-526.315765990709
10
604.9174883960729
20
-525.6933799564883
10
604.6871572000528
20
-525.0574678088399
10
604.4926721098218
20
-524.4096965784132
10
604.3350954020616
20
-523.7519759081333
10
604.2153383956622
20
-523.086329514527
10
604.1341982802119
20
-522.4148817129312
10
604.0918091518101
20
-521.7398796622754
10
604.0851404949844
20
-521.2780663482046
10
604.0851404949844
20
-521.2780663482046
0
LWPOLYLINE
5
53
330
4E
100
AcDbEntity
8
0
100
AcDbPolyline
90
58
70
0
43
0
38
0
39
0
10
604.0851404949844
20
-521.2780663482046
10
604.7032924020587
20
-521.0034106505911
10
605.324860938071
20
-520.7365781367354
10
605.9498011851429
20
-520.4777415891924
10
606.5780623697401
20
-520.2270736831556
10
607.2095899090821
20
-519.9847524799419
10
607.8443467101811
20
-519.7510215536611
10
608.4822358784127
20
-519.5259810687106
10
609.1231813723289
20
-519.3097991807431
10
609.7671223130567
20
-519.1027106602023
10
610.4139593793129
20
-518.9048546467844
10
611.0635843949758
20
-518.7163541044106
10
611.7159214250539
20
-518.5374649683074
10
612.370840157183
20
-518.3682727925184
10
613.0282250831428
20
-518.2089318531757
10
613.6879691037811
20
-518.0596599875246
10
614.3499171545718
20
-517.9204876895589
10
615.0139602438153
20
-517.79168266503
10
615.679930918019
20
-517.6732481015684
10
616.34769632487
20
-517.5653923686659
10
617.0170919376803
20
-517.4681665539481
10
617.6879627758678
20
-517.3817056434902
10
618.3601419766592
20
-517.3060867820014
10
619.0334596808921
20
-517.241385888479
10
619.7077443350825
20
-517.1876913057989
10
620.3828166072449
20
-517.1450273613917
10
621.0584999448824
20
-517.1134867224916
10
621.7346099495537
20
-517.0930420312887
10
622.4109657632318
20
-517.083792151407
10
623.0873822979161
20
-517.0856498868427
10
623.7636749060189
20
-517.0987313819785
10
624.4396629509754
20
-517.1228789607786
10
625.1151578456306
20
-517.1582291213438
10
625.7899863408873
20
-517.2045903792423
10
626.4639639203172
20
-517.2620115520175
10
627.136918467899
20
-517.3303864857058
10
627.8086823739188
20
-517.4096112046806
10
628.4790748045687
20
-517.4997078507039
10
629.1479481571157
20
-517.6004637768823
10
629.8151395844864
20
-517.711816001703
10
630.4804870011078
20
-517.8337037619322
10
631.1438583192426
20
-517.9659241933713
10
631.8051131434852
20
-518.108354245122
10
632.4641011671895
20
-518.260929936937
10
633.1207055603404
20
-518.4234572065955
10
633.774809703001
20
-518.5957716089011
10
634.4262991502922
20
-518.7777229081889
10
635.0750662687019
20
-518.9691555223862
10
635.7210103385376
20
-519.1699090714197
10
636.3640315772827
20
-519.3798370085743
10
637.0040495966136
20
-519.5987504560607
10
637.6409877696349
20
-519.8264697130068
10
638.2747737989155
20
-520.0628206913971
10
638.9053422667575
20
-520.3076272025974
10
639.5326307590685
20
-520.5607206372491
10
640.1565791897422
20
-520.8219400680913
10
640.777148499207
20
-521.0910885259023
10
641.1962254731311
20
-521.2780663482046
0
LWPOLYLINE
5
54
330
4E
100
AcDbEntity
8
0
100
AcDbPolyline
90
15
70
0
43
0
38
0
39
0
10
623.8234832332728
20
-521.819207946839
10
623.5609271269739
20
-522.4236352906846
10
622.974056986538
20
-522.7424807172057
10
622.6406829840578
20
-522.7812224238113
10
622.3037508901746
20
-522.7416339004012
10
621.7178435807552
20
-522.4210778325576
10
621.4578150921429
20
-521.819207946839
10
621.4578270382385
20
-521.8156114325116
10
621.7229130499027
20
-521.2122350791182
10
622.3107479257055
20
-520.8951142122689
10
622.6406829840578
20
-520.8571934698667
10
622.981049215879
20
-520.8976230013551
10
623.5659821880936
20
-521.2198978562187
10
623.8234832332728
20
-521.819207946839
10
623.8234832332728
20
-521.819207946839
0
LWPOLYLINE
5
55
330
4E
100
AcDbEntity
8
0
100
AcDbPolyline
90
13
70
0
43
0
38
0
39
0
10
622.6406829840578
20
-513.7020839673233
10
623.2453774370038
20
-513.9573867979356
10
623.3799500504922
20
-514.3033599261059
10
623.3799500504922
20
-521.2179319880563
10
623.3584215997657
20
-521.3625622907037
10
622.87073318335
20
-521.789523697212
10
622.6406829840578
20
-521.819207946839
10
622.2156356725752
20
-521.7099422250707
10
621.9014159176234
20
-521.2179319880563
10
621.9014159176234
20
-514.3033599261059
10
622.1972102833126
20
-513.8222472844474
10
622.6406829840578
20
-513.7020839673233
10
622.6406829840578
20
-513.7020839673233
0
LWPOLYLINE
5
56
330
4E
100
AcDbEntity
8
0
100
AcDbPolyline
90
15
70
0
43
0
38
0
39
0
10
623.8234832332728
20
-513.7020839673233
10
623.5609074836029
20
-514.3065027076103
10
622.9740403334465
20
-514.6253554918083
10
622.6406829840578
20
-514.6640984442956
10
622.3037326331689
20
-514.6245300374287
10
621.7178330041688
20
-514.3039644341716
10
621.4578150921429
20
-513.7020839673233
10
621.4578270268987
20
-513.698490865444
10
621.7228974628524
20
-513.0951051613063
10
622.3107230749795
20
-512.7779718880835
10
622.6406829840578
20
-512.7400694903511
10
622.9810259039737
20
-512.7804987679083
10
623.5659579120809
20
-513.1027774637274
10
623.8234832332728
20
-513.7020839673233
10
623.8234832332728
20
-513.7020839673233
0
ENDBLK
5
50
100
AcDbEntity
8
0
100
AcDbBlockEnd
0
BLOCK
5
59
330
58
100
AcDbEntity
8
0
100
AcDbBlockBegin
2
Warderobe_2_door-1
70
0
10
0
20
0
30
0
3
Warderobe_2_door-1
1

0
LWPOLYLINE
5
5B
330
58
100
AcDbEntity
8
0
100
AcDbPolyline
90
6
70
0
43
0
38
0
39
0
10
408.3790491397676
20
-704.9196086899675
10
278.505065467517
20
-704.9183234786708
10
278.50547132371594
20
-664.3327035810925
10
408.37945499596646
20
-664.3339887923892
10
408.3790491397676
20
-704.9196086899675
10
408.3790491397676
20
-704.9196086899675
0
LWPOLYLINE
5
5C
330
58
100
AcDbEntity
8
0
100
AcDbPolyline
90
2
70
0
43
0
38
0
39
0
10
343.44205730364223
20
-704.918999905669
10
343.4424631598412
20
-664.3333800080907
0
ENDBLK
5
5A
100
AcDbEntity
8
0
100
AcDbBlockEnd
0
BLOCK
5
5F
330
5E
100
AcDbEntity
8
0
100
AcDbBlockBegin
2
Warderobe_2_door-2
70
0
10
0
20
0
30
0
3
Warderobe_2_door-2
1

0
LWPOLYLINE
5
61
330
5E
100
AcDbEntity
8
0
100
AcDbPolyline
90
6
70
0
43
0
38
0
39
0
10
415.31262880036996
20
-537.1380472490804
10
497.6222952336537
20
-537.1380472490804
10
497.6222952336537
20
-577.7236671466586
10
415.31262880036996
20
-577.7236671466586
10
415.31262880036996
20
-537.1380472490804
10
415.31262880036996
20
-537.1380472490804
0
LWPOLYLINE
5
62
330
5E
100
AcDbEntity
8
0
100
AcDbPolyline
90
2
70
0
43
0
38
0
39
0
10
456.4674620170119
20
-537.1380472490804
10
456.4674620170119
20
-577.7236671466586
0
ENDBLK
5
60
100
AcDbEntity
8
0
100
AcDbBlockEnd
0
BLOCK
5
65
330
64
100
AcDbEntity
8
0
100
AcDbBlockBegin
2
Sink_with_dryer_plate-1
70
0
10
0
20
0
30
0
3
Sink_with_dryer_plate-1
1

0
LWPOLYLINE
5
67
330
64
100
AcDbEntity
8
0
100
AcDbPolyline
90
25
70
0
43
0
38
0
39
0
10
193.32261357248314
20
-790.1220151814512
10
135.42046251860472
20
-790.1214063971527
10
135.15145082416535
20
-790.0963097846975
10
134.53800034110463
20
-789.8254278078058
10
134.10191650321133
20
-789.3156030980912
10
133.93277781680263
20
-788.6668768051051
10
133.93239076506
20
-788.6332670009081
10
133.93272897855917
20
-751.0239258958188
10
133.93906899899804
20
-750.7870840362779
10
134.0690435304495
20
-750.1264502576366
10
134.52773099542668
20
-749.6548088130237
10
135.1908630121963
20
-749.5408209373247
10
135.62379647429157
20
-749.5357864995744
10
193.32301942868207
20
-749.5363952838728
10
193.36353008361777
20
-749.5364025127528
10
194.03667017040817
20
-749.5858940155698
10
194.58081655784116
20
-749.9557482508341
10
194.7827693827233
20
-750.5958285760116
10
194.81115882492662
20
-751.0921773799466
10
194.8108206114274
20
-788.6338757852066
10
194.7198170249129
20
-789.1401915522355
10
194.3519573435637
20
-789.7011247598051
10
193.77831675238622
20
-790.0487613102648
10
193.32261357248314
20
-790.1220151814512
10
193.32261357248314
20
-790.1220151814512
0
LWPOLYLINE
5
68
330
64
100
AcDbEntity
8
0
100
AcDbPolyline
90
22
70
0
43
0
38
0
39
0
10
162.20703929370626
20
-782.0045529884363
10
137.44981115618344
20
-782.0043500603368
10
137.18208998395244
20
-781.9706301411525
10
136.6265922874631
20
-781.6051200495095
10
136.3437899854174
20
-780.9972900656802
10
136.29995290178522
20
-780.5837857212217
10
136.30022347258455
20
-753.3237776900149
10
136.30100417000818
20
-753.2669279600269
10
136.44145935156155
20
-752.6095157800784
10
136.85748110978864
20
-752.0869611599727
10
137.4501493696826
20
-751.9033486362996
10
162.20737750720536
20
-751.9035515643991
10
162.51945754312908
20
-751.9499048767128
10
163.0590119852318
20
-752.3390938981848
10
163.3228319752589
20
-752.9557165430236
10
163.35730340430348
20
-753.3240482608144
10
163.35703283350415
20
-780.584056292021
10
163.3544557307681
20
-780.6870051241882
10
163.19657404677412
20
-781.340257601858
10
162.76133511033515
20
-781.8463818030926
10
162.20703929370626
20
-782.0045529884363
10
162.20703929370626
20
-782.0045529884363
0
LWPOLYLINE
5
69
330
64
100
AcDbEntity
8
0
100
AcDbPolyline
90
15
70
0
43
0
38
0
39
0
10
164.91274728687813
20
-787.4836793173092
10
164.16867758875583
20
-787.8218928164557
10
163.64705168560585
20
-787.8232284615644
10
163.35696519080426
20
-787.5512543744387
10
157.40447524852596
20
-775.2402830055065
10
157.36779460224017
20
-775.1213805056188
10
157.55858465070276
20
-774.5061813767678
10
157.67511369054301
20
-774.428570607555
10
158.41918338866526
20
-774.0903571084085
10
158.8068062891718
20
-774.0482333449105
10
159.23089578661683
20
-774.3609279077257
10
165.1833180861953
20
-786.6719669193576
10
165.1234492709051
20
-787.3024570175113
10
164.91274728687813
20
-787.4836793173092
10
164.91274728687813
20
-787.4836793173092
0
LWPOLYLINE
5
6A
330
64
100
AcDbEntity
8
0
100
AcDbPolyline
90
14
70
0
43
0
38
0
39
0
10
168.09195417885502
20
-785.9278972212353
10
165.9273877843176
20
-787.0101804185041
10
165.65005421307615
20
-787.0608617632657
10
165.1833180861953
20
-786.7396096191869
10
164.1010348889265
20
-784.5750432246493
10
164.0649188955715
20
-784.2136228986888
10
164.37160568824368
20
-783.8309735265271
10
166.53617208278126
20
-782.7486903292585
10
166.9785640104579
20
-782.7395455937523
10
167.2802417809035
20
-783.0192611285755
10
168.3625249781723
20
-785.1838275231131
10
168.3332817789053
20
-785.702448648368
10
168.09195417885502
20
-785.9278972212353
10
168.09195417885502
20
-785.9278972212353
0
LWPOLYLINE
5
6B
330
64
100
AcDbEntity
8
0
100
AcDbPolyline
90
14
70
0
43
0
38
0
39
0
10
163.22167979114568
20
-788.2953240725609
10
161.05704575390837
20
-789.3776072698297
10
160.77977243013282
20
-789.4282941547714
10
160.31297605578607
20
-789.1070364705125
10
159.23076050121716
20
-786.9424700759749
10
159.19463712477625
20
-786.581079086923
10
159.50133130053433
20
-786.1984003778527
10
161.5982549952426
20
-785.1837598804133
10
162.11946927182242
20
-785.2168377190424
10
162.27468199353558
20
-785.3866879799011
10
163.35696519080426
20
-787.6188970742679
10
163.25326548970162
20
-788.2371766384442
10
163.0863943914871
20
-788.3629667723902
10
163.22167979114568
20
-788.2953240725609
0
LWPOLYLINE
5
6C
330
64
100
AcDbEntity
8
0
100
AcDbPolyline
90
24
70
0
43
0
38
0
39
0
10
156.59289813597405
20
-766.4466643849981
10
156.70405679137667
20
-765.782611137073
10
157.0272269245267
20
-765.1919547426637
10
157.5254708322936
20
-764.739042659541
10
158.14438228088454
20
-764.4740231690074
10
158.62217913085294
20
-764.417451032819
10
158.8160562895447
20
-764.4265997434871
10
159.46637643815973
20
-764.6008473655762
10
160.02348126951256
20
-764.9789735171913
10
160.42694340283043
20
-765.5180250465273
10
160.6312889384115
20
-766.159521046407
10
160.6514601257319
20
-766.446732027698
10
160.61479802550087
20
-766.8326796196449
10
160.37888372944906
20
-767.4632515827944
10
159.94940972674078
20
-767.9818286120895
10
159.37435242607046
20
-768.3320285582065
10
158.71618905651474
20
-768.4738637522968
10
158.62211148815317
20
-768.4760130225768
10
158.04767794598382
20
-768.3935494691012
10
157.44264702246568
20
-768.0981926695251
10
156.96723831301318
20
-767.621364856033
10
156.67368825644053
20
-767.0154543652333
10
156.59289813597405
20
-766.4466643849981
10
156.59289813597405
20
-766.4466643849981
0
LWPOLYLINE
5
6D
330
64
100
AcDbEntity
8
0
100
AcDbPolyline
90
15
70
0
43
0
38
0
39
0
10
157.60753863341353
20
-766.446732027698
10
157.82467837172027
20
-765.8193669937207
10
158.38324430628444
20
-765.4603847142943
10
158.62217913085294
20
-765.4320915302585
10
159.04424238666212
20
-765.5237801783167
10
159.5245421100359
20
-765.982353666023
10
159.63681962829241
20
-766.446732027698
10
159.6184925465995
20
-766.6396763036593
10
159.28581097007526
20
-767.2142594507824
10
158.6692105733036
20
-767.4602980215664
10
158.62217913085294
20
-767.4613725251373
10
158.032431294555
20
-767.2724824702553
10
157.64793549958847
20
-766.731126674637
10
157.60753863341353
20
-766.446732027698
10
157.60753863341353
20
-766.446732027698
0
LWPOLYLINE
5
6E
330
64
100
AcDbEntity
8
0
100
AcDbPolyline
90
14
70
0
43
0
38
0
39
0
10
192.71389691671925
20
-785.7928823923761
10
170.0535924739047
20
-785.7926118215768
10
169.7273848625644
20
-785.715493958754
10
169.3253759214217
20
-785.1995385104264
10
169.30952277578245
20
-785.0485421234545
10
169.4892609011514
20
-784.5676362121826
10
170.0535924739047
20
-784.3044724253323
10
192.71389691671925
20
-784.3047429961315
10
193.07018567826572
20
-784.3977123495306
10
193.4483983031128
20
-784.931232314064
10
193.4579666148415
20
-785.0488126942539
10
193.25554236497544
20
-785.5550462187268
10
192.71389691671925
20
-785.7928823923761
10
192.71389691671925
20
-785.7928823923761
0
LWPOLYLINE
5
6F
330
64
100
AcDbEntity
8
0
100
AcDbPolyline
90
14
70
0
43
0
38
0
39
0
10
192.71416748751858
20
-755.3536674691924
10
170.05386304470403
20
-755.353396898393
10
169.72765569415327
20
-755.276278365979
10
169.32568673383452
20
-754.7603014779825
10
169.30986098928156
20
-754.6093272002707
10
169.48961529021796
20
-754.1284023876954
10
170.05393068740386
20
-753.8652575021486
10
192.7142351302184
20
-753.8655280729478
10
193.07054565699627
20
-753.9585094755358
10
193.4487405396825
20
-754.492041941301
10
193.45830482834072
20
-754.6095977710702
10
193.2558172704899
20
-755.1158369265381
10
192.71416748751858
20
-755.3536674691924
10
192.71416748751858
20
-755.3536674691924
0
LWPOLYLINE
5
70
330
64
100
AcDbEntity
8
0
100
AcDbPolyline
90
15
70
0
43
0
38
0
39
0
10
192.71416748751858
20
-760.4268699563896
10
167.14522695204425
20
-760.4265993855904
10
167.01072110333598
20
-760.4140510881584
10
166.48594599685384
20
-760.0237045322282
10
166.40115725392195
20
-759.682529687468
10
166.47094622034075
20
-759.3714596986387
10
166.97782111807555
20
-758.9579995208932
10
167.14522695204425
20
-758.9384599893458
10
192.71416748751858
20
-758.938730560145
10
193.27873794603528
20
-759.2021734872712
10
193.45823718564083
20
-759.6828002582674
10
193.44230700645016
20
-759.8341558826726
10
193.04004634687823
20
-760.3499161272463
10
192.71416748751858
20
-760.4268699563896
10
192.71416748751858
20
-760.4268699563896
0
LWPOLYLINE
5
71
330
64
100
AcDbEntity
8
0
100
AcDbPolyline
90
15
70
0
43
0
38
0
39
0
10
192.7140998448187
20
-765.5000724435869
10
167.14515930934442
20
-765.4998018727877
10
167.0106534606361
20
-765.4872535753559
10
166.485878354154
20
-765.0969070194255
10
166.40108961122212
20
-764.7557321746654
10
166.47087857764092
20
-764.4446621858359
10
166.97775347537572
20
-764.0312020080903
10
167.14515930934442
20
-764.011662476543
10
192.7140998448187
20
-764.0119330473424
10
193.27867030333562
20
-764.2753759744687
10
193.458169542941
20
-764.7560027454647
10
193.4422393637504
20
-764.90735836987
10
193.0399787041785
20
-765.4231186144438
10
192.7140998448187
20
-765.5000724435869
10
192.7140998448187
20
-765.5000724435869
0
LWPOLYLINE
5
72
330
64
100
AcDbEntity
8
0
100
AcDbPolyline
90
15
70
0
43
0
38
0
39
0
10
192.71403220211891
20
-770.5732749307842
10
167.1450916666446
20
-770.5730043599849
10
167.01058581793626
20
-770.5604560625532
10
166.48581071145412
20
-770.1701095066225
10
166.40102196852234
20
-769.8289346618626
10
166.47081093494114
20
-769.5178646730333
10
166.97768583267595
20
-769.1044044952878
10
167.1450916666446
20
-769.0848649637404
10
192.71403220211891
20
-769.0851355345396
10
193.27860266063578
20
-769.3485784616661
10
193.45810190024116
20
-769.829205232662
10
193.44217172105056
20
-769.9805608570673
10
193.03991106147868
20
-770.496321101641
10
192.71403220211891
20
-770.5732749307842
10
192.71403220211891
20
-770.5732749307842
0
LWPOLYLINE
5
73
330
64
100
AcDbEntity
8
0
100
AcDbPolyline
90
15
70
0
43
0
38
0
39
0
10
192.71396455941908
20
-775.6464774179815
10
167.1450240239447
20
-775.6462068471823
10
167.0105181778821
20
-775.6336585320972
10
166.485758964186
20
-775.2432984010762
10
166.40102196852234
20
-774.9021371490599
10
166.47082150118126
20
-774.5910446377344
10
166.9777100394386
20
-774.1776012430689
10
167.1450916666446
20
-774.1580674509377
10
192.71403220211891
20
-774.1583380217369
10
193.27861883620312
20
-774.4217998501668
10
193.45810190024116
20
-774.9024077198593
10
193.44214426904887
20
-775.053785439178
10
193.03984368065102
20
-775.5695242466375
10
192.71396455941908
20
-775.6464774179815
10
192.71396455941908
20
-775.6464774179815
0
LWPOLYLINE
5
74
330
64
100
AcDbEntity
8
0
100
AcDbPolyline
90
15
70
0
43
0
38
0
39
0
10
192.71396455941908
20
-780.7196799051787
10
167.1450240239447
20
-780.7194093343795
10
167.01051817523648
20
-780.7068610369478
10
166.4857430687544
20
-780.3165144810174
10
166.4009543258225
20
-779.9753396362572
10
166.47074329224137
20
-779.6642696474278
10
166.9776181899761
20
-779.2508094696822
10
167.1450240239447
20
-779.2312699381349
10
192.71396455941908
20
-779.2315405089342
10
193.278535017936
20
-779.4949834360606
10
193.45803425754139
20
-779.9756102070565
10
193.44210407835072
20
-780.1269658314619
10
193.0398434187788
20
-780.6427260760356
10
192.71396455941908
20
-780.7196799051787
10
192.71396455941908
20
-780.7196799051787
0
ENDBLK
5
66
100
AcDbEntity
8
0
100
AcDbBlockEnd
0
BLOCK
5
77
330
76
100
AcDbEntity
8
0
100
AcDbBlockBegin
2
TV-1
70
0
10
0
20
0
30
0
3
TV-1
1

0
LWPOLYLINE
5
79
330
76
100
AcDbEntity
8
0
100
AcDbPolyline
90
5
70
0
43
0
38
0
39
0
10
408.3061979520514
20
-357.50521422730105
10
408.30552152505305
20
-426.5569114940424
10
381.24844159333423
20
-426.5566409232432
10
381.24911802033256
20
-357.5049436565018
10
408.3061979520514
20
-357.50521422730105
0
LWPOLYLINE
5
7A
330
76
100
AcDbEntity
8
0
100
AcDbPolyline
90
7
70
0
43
0
38
0
39
0
10
392.07134120872155
20
-417.92522949692545
10
392.0718823503202
20
-366.1364903682192
10
397.48329833666406
20
-366.1365580109191
10
397.48323069396423
20
-374.48028503486285
10
397.48282483776524
20
-412.1710003078467
10
397.4827571950654
20
-417.9252971396252
10
392.07134120872155
20
-417.92522949692545
0
ENDBLK
5
78
100
AcDbEntity
8
0
100
AcDbBlockEnd
0
BLOCK
5
7D
330
7C
100
AcDbEntity
8
0
100
AcDbBlockBegin
2
Warderobe_2_door-3
70
0
10
0
20
0
30
0
3
Warderobe_2_door-3
1

0
LWPOLYLINE
5
7F
330
7C
100
AcDbEntity
8
0
100
AcDbPolyline
90
6
70
0
43
0
38
0
39
0
10
563.0664043903992
20
-530.3136429060024
10
415.06891215288505
20
-530.3121547666062
10
415.06931800908404
20
-489.7265348690279
10
563.0668102465982
20
-489.7280230084241
10
563.0664043903992
20
-530.3136429060024
10
563.0664043903992
20
-530.3136429060024
0
LWPOLYLINE
5
80
330
7C
100
AcDbEntity
8
0
100
AcDbPolyline
90
2
70
0
43
0
38
0
39
0
10
489.0676582716422
20
-530.3128988363044
10
489.06806412784107
20
-489.72727893872604
0
ENDBLK
5
7E
100
AcDbEntity
8
0
100
AcDbBlockEnd
0
BLOCK
5
83
330
82
100
AcDbEntity
8
0
100
AcDbBlockBegin
2
WC_tank-1
70
0
10
0
20
0
30
0
3
WC_tank-1
1

0
LWPOLYLINE
5
85
330
82
100
AcDbEntity
8
0
100
AcDbPolyline
90
123
70
0
43
0
38
0
39
0
10
618.8698053966739
20
-637.3846636814984
10
618.8698053966739
20
-639.1433738770602
10
618.8690220022934
20
-639.4139431838845
10
618.8598696371371
20
-640.0903012915632
10
618.8394651059702
20
-640.766411628459
10
618.8062959260644
20
-641.442013425774
10
618.7585735545852
20
-642.1167395866673
10
618.6940188722476
20
-642.7900583867176
10
618.6097302551757
20
-643.4611842439216
10
618.5019234525168
20
-644.128922378207
10
618.3655890149696
20
-644.7914019856357
10
618.19382367564
20
-645.445549649643
10
617.9769567705464
20
-646.0860793079887
10
617.7010907871615
20
-646.7033246598079
10
617.3467277921379
20
-647.2786842314906
10
616.8900574857053
20
-647.7756815783989
10
616.3181897216309
20
-648.1318370450609
10
615.6623454969117
20
-648.2840585405407
10
615.519800687628
20
-648.2885992512814
10
595.8067563190757
20
-648.2883963231818
10
595.3711910357727
20
-648.2566419032917
10
594.7220041483433
20
-648.0733433682193
10
594.1405637057032
20
-647.7311591104932
10
593.6523762202787
20
-647.2647094848628
10
593.2568628364395
20
-646.7168385973499
10
592.9402253772689
20
-646.1195470918974
10
592.6869821336732
20
-645.4925610477841
10
592.4842765904057
20
-644.8473657818406
10
592.3222481715588
20
-644.1907215367665
10
592.19348521183
20
-643.526722616307
10
592.0923516749137
20
-642.8579397762011
10
592.0145361583513
20
-642.1860329521539
10
591.9566835784199
20
-641.5121060670388
10
591.9161152584279
20
-640.8369129875466
10
591.8906980620861
20
-640.160976287147
10
591.8786519119512
20
-639.4846664231931
10
591.8771889578923
20
-639.1431033062609
10
591.8771889578923
20
-637.3843931106992
10
591.8820833901666
20
-636.7789888105027
10
591.8987817188624
20
-636.1027764613607
10
591.9269916745864
20
-635.4269461773663
10
591.9665200988791
20
-634.7516832343998
10
592.0172971526879
20
-634.0771727690318
10
592.0793997376722
20
-633.4036107650177
10
592.152906042882
20
-632.7311980034808
10
592.2380666752658
20
-632.0601620777537
10
592.3351050485498
20
-631.3907412248258
10
592.4443657542349
20
-630.7232068549141
10
592.5662499649159
20
-630.0578621881469
10
592.7012213616902
20
-629.3950492526792
10
592.8497943672787
20
-628.7351531235421
10
593.012537753008
20
-628.0786093766712
10
593.1900930736915
20
-627.4259170809268
10
593.3831657082592
20
-626.7776472387932
10
593.5925258429318
20
-626.1344548498156
10
593.8190083540778
20
-625.4970926929906
10
594.0635109530306
20
-624.8664268967577
10
594.3269897840657
20
-624.2434542477148
10
594.6104514715421
20
-623.629320999551
10
594.9149404088168
20
-623.0253426562359
10
595.2415199012021
20
-622.4330237912224
10
595.59124567102
20
-621.8540764051721
10
595.9651963712345
20
-621.2904805174585
10
596.3643276999803
20
-620.7444383050458
10
596.7893446413916
20
-620.2183043356277
10
597.2409475906748
20
-619.7148177786971
10
597.7193428625603
20
-619.2367294961196
10
598.224456165218
20
-618.7869758058275
10
598.7557639254799
20
-618.3685046523533
10
599.3121413809947
20
-617.9840033184416
10
599.8921177826041
20
-617.636127819694
10
600.4935030894151
20
-617.3267398174196
10
601.1138491282932
20
-617.0573687239197
10
601.7504241341032
20
-616.8289643115728
10
602.4002489545123
20
-616.6415293371355
10
603.0604387547571
20
-616.4946875946557
10
603.7281783224064
20
-616.3872412012197
10
604.400922877634
20
-616.3176034192658
10
605.0764366087049
20
-616.2839615339029
10
605.4059318518514
20
-616.280006049358
10
605.7527530329112
20
-616.2868666719774
10
606.4277874456586
20
-616.3287513447062
10
607.0991716126894
20
-616.4103255488743
10
607.7642521838288
20
-616.5330615309285
10
608.4201132523158
20
-616.6980839689368
10
609.0637185016992
20
-616.90581771134
10
609.6920175037758
20
-617.1560579246179
10
610.3021350416211
20
-617.4478393239315
10
610.8916319450982
20
-617.7793200960872
10
611.4582884935867
20
-618.1485024351123
10
612.0007021357783
20
-618.5524740040447
10
612.5177034851208
20
-618.9885115464143
10
613.0089101664341
20
-619.4534289043689
10
613.4741172431654
20
-619.9443752302266
10
613.9137659493279
20
-620.4583482436327
10
614.3282398193119
20
-620.9928410901217
10
614.7184489135232
20
-621.5453054756096
10
615.0852730851288
20
-622.113574931447
10
615.4296282030853
20
-622.6957421731425
10
615.752507846433
20
-623.2900942714157
10
616.0549439072661
20
-623.8951094003842
10
616.3378965490451
20
-624.509481851174
10
616.6022862403481
20
-625.1320716646678
10
616.848982282326
20
-625.7618849331997
10
617.0787955795106
20
-626.3980552864823
10
617.2924745232626
20
-627.0398269737665
10
617.490703056357
20
-627.6865397046408
10
617.6741001698842
20
-628.3376152492574
10
617.8432202383087
20
-628.9925457005833
10
617.9985537213333
20
-629.6508832465436
10
618.1405278523232
20
-630.3122312734012
10
618.2695069941999
20
-630.9762366121295
10
618.38579237673
20
-631.6425827387019
10
618.4896209348399
20
-632.3109837410769
10
618.5810860764941
20
-632.9811887102098
10
618.6603358437285
20
-633.6529476424391
10
618.727293159608
20
-634.3260428530623
10
618.7818685965237
20
-635.0002546118454
10
618.8237804970661
20
-635.6753714283341
10
618.8526053236303
20
-636.3511726799619
10
618.8676834283194
20
-637.0274189677491
10
618.8698053966739
20
-637.3846636814984
10
618.8698053966739
20
-637.3846636814984
0
LWPOLYLINE
5
86
330
82
100
AcDbEntity
8
0
100
AcDbPolyline
90
117
70
0
43
0
38
0
39
0
10
618.5476908600867
20
-638.2053725585274
10
618.5476908600867
20
-639.8468579552849
10
618.5459003719989
20
-640.234648031812
10
618.5336906297425
20
-640.9109557465326
10
618.5085749660182
20
-641.5869044917977
10
618.4686078664715
20
-642.2621338814631
10
618.4114027187004
20
-642.9361158043757
10
618.3338372277094
20
-643.6080499030625
10
618.2318334979561
20
-644.2766954507715
10
618.0999321403151
20
-644.9400649823001
10
617.9305527379879
20
-645.5948210368772
10
617.7129448884152
20
-646.2350699504223
10
617.4317310808392
20
-646.8498295921455
10
617.0655782527526
20
-647.4175971236236
10
616.5907337522549
20
-647.8969174007749
10
616.0013742654758
20
-648.2230787852426
10
615.3390319975172
20
-648.3460300814892
10
615.2620820012785
20
-648.3472454720333
10
596.0000791551879
20
-648.3470425439339
10
595.7229940224202
20
-648.3353384767263
10
595.0621434309896
20
-648.1989855239998
10
594.4570449060295
20
-647.9009303629738
10
593.943211993326
20
-647.4633191969874
10
593.5289883812077
20
-646.9297052676304
10
593.2021972560242
20
-646.3380276950235
10
592.9456408320696
20
-645.7124441845525
10
592.7443026147134
20
-645.0668462142035
10
592.5866882494745
20
-644.4091406924699
10
592.4642419977329
20
-643.7439537382352
10
592.3706164713035
20
-643.0740811797913
10
592.3009891857926
20
-642.4012777268314
10
592.2516801200063
20
-641.7266723863873
10
592.219790676417
20
-641.0510138864248
10
592.20303070462
20
-640.3748070215505
10
592.1992358517798
20
-639.8465873844855
10
592.1993034944794
20
-638.205101987728
10
592.2036291926345
20
-637.6691405510509
10
592.2210244094299
20
-636.9929481459125
10
592.2513845653148
20
-636.3172132342357
10
592.294501727951
20
-635.642172001204
10
592.3503309877169
20
-634.9680630484708
10
592.4189636748097
20
-634.2951373506763
10
592.5005588434249
20
-633.6236605928942
10
592.5953870118651
20
-632.9539249162833
10
592.7038521810837
20
-632.286262983931
10
592.8263379711561
20
-631.6210317014792
10
592.9633308791535
20
-630.9586366787458
10
593.1155060520107
20
-630.2995653160779
10
593.2834099753763
20
-629.6443262725535
10
593.4678584275932
20
-628.9935527922584
10
593.6695726365058
20
-628.3479247776885
10
593.8894969601008
20
-627.7082734295914
10
594.1284964765948
20
-627.0755054487404
10
594.3876325417086
20
-626.450717718358
10
594.6679129424119
20
-625.835130402611
10
594.9704203422277
20
-625.2301610301686
10
595.2963208156787
20
-624.637472976864
10
595.6466004084066
20
-624.058866930215
10
596.0223254547984
20
-623.4964589418862
10
596.4244538076423
20
-622.9526272532605
10
596.853625149876
20
-622.4298864972526
10
597.3102981567506
20
-621.9310049586984
10
597.7945773621432
20
-621.4588867897388
10
598.3061575429317
20
-621.0165094472605
10
598.8442368709984
20
-620.6067891020348
10
599.4073960496287
20
-620.2323018015938
10
599.9937407109778
20
-619.8952772074772
10
600.6010042257813
20
-619.5975911666023
10
601.2264281311318
20
-619.340232315251
10
601.8671631380066
20
-619.1237748151838
10
602.5202009926036
20
-618.9478641776343
10
603.1826778809868
20
-618.8117057119326
10
603.8519066614538
20
-618.7139221890893
10
604.5254884064523
20
-618.6528369660813
10
605.2013281718423
20
-618.6264213102697
10
605.4059318518514
20
-618.6249078816404
10
605.8776351321594
20
-618.633837118606
10
606.5525028242278
20
-618.6783217708663
10
607.223614122048
20
-618.762114714325
10
607.888314453354
20
-618.8869020327967
10
608.543705231405
20
-619.0537905222915
10
609.1866850643021
20
-619.2634523464999
10
609.8142253375729
20
-619.5155873951022
10
610.4233235859681
20
-619.809488668813
10
611.0114365934783
20
-620.1434093782427
10
611.5763809447519
20
-620.5151977504099
10
612.1164983355204
20
-620.922229464128
10
612.6306807620958
20
-621.3615850221407
10
613.1182926786366
20
-621.8302695898763
10
613.579248216214
20
-622.3252058075204
10
614.0138205873056
20
-622.8434724038456
10
614.4225714960985
20
-623.3823494619668
10
614.806247919216
20
-623.939368921221
10
615.165679258291
20
-624.5123404899886
10
615.5019590740962
20
-625.0992057785579
10
615.8160141974895
20
-625.69826508189
10
616.1088828999418
20
-626.3079669427364
10
616.381538176581
20
-626.9269766293945
10
616.6349021081717
20
-627.5541329129339
10
616.8698458599881
20
-628.1884226887345
10
617.0871948518036
20
-628.8289574089094
10
617.2876444835476
20
-629.4749821543094
10
617.4719167273181
20
-630.1258077892662
10
617.6405333128598
20
-630.7808655414143
10
617.7940701003267
20
-631.439621951443
10
617.9329306220343
20
-632.1016285827441
10
618.0574623655796
20
-632.7664801687235
10
618.1679677459456
20
-633.4338068538739
10
618.2646106289733
20
-634.1032820495968
10
618.3474610917478
20
-634.7746037706542
10
618.4164846628071
20
-635.4474875411754
10
618.4715219273899
20
-636.1216591980391
10
618.5121486788578
20
-636.7968517757174
10
618.5378259817508
20
-637.472776462711
10
618.5476169994379
20
-638.1491156593554
10
618.5476908600867
20
-638.2053725585274
10
618.5476908600867
20
-638.2053725585274
0
LWPOLYLINE
5
87
330
82
100
AcDbEntity
8
0
100
AcDbPolyline
90
113
70
0
43
0
38
0
39
0
10
618.5476908600867
20
-638.7916318379479
10
618.5476908600867
20
-640.3158247932014
10
618.5441940439523
20
-640.8208965784455
10
618.5277495480234
20
-641.4971109851881
10
618.4959785351923
20
-642.1727745096954
10
618.446400029776
20
-642.847358931619
10
618.3757998991889
20
-643.5200585453616
10
618.2799969671398
20
-644.1896177917924
10
618.1533801790249
20
-644.8540122299297
10
617.9881985182624
20
-645.5098336372848
10
617.773570714307
20
-646.1510784064951
10
617.4940469092476
20
-646.7665955860504
10
617.1287225689296
20
-647.3348914949559
10
616.6551140156678
20
-647.8155067095604
10
616.0687823373419
20
-648.1474539937539
10
615.4089944545531
20
-648.2843952546635
10
615.2620820012785
20
-648.2885992512814
10
596.0000791551879
20
-648.2883963231818
10
595.7928137041906
20
-648.2822620965701
10
595.1274353405731
20
-648.168769618249
10
594.5088332361117
20
-647.899589255678
10
593.9746124200683
20
-647.4872285183762
10
593.5399045088386
20
-646.9703185628639
10
593.1968152938161
20
-646.3880386555612
10
592.9290218523859
20
-645.7672357458032
10
592.7209264882667
20
-645.1238137286394
10
592.560105021307
20
-644.4669027550593
10
592.4372503359598
20
-643.8018018899533
10
592.3454046313389
20
-643.1316897024072
10
592.279312759227
20
-642.4585340970161
10
592.2349376955538
20
-641.7835890761336
10
592.209157367123
20
-641.107671928309
10
592.1994400849253
20
-640.4313286720535
10
592.1992358517798
20
-640.315554222402
10
592.1992358517798
20
-638.7913612671485
10
592.2018612739678
20
-638.4020596212224
10
592.2185001148794
20
-637.7258515296153
10
592.2499704320671
20
-637.0501703493744
10
592.2960170841811
20
-636.3753253784867
10
592.356512424456
20
-635.701621990615
10
592.4315562083775
20
-635.0293841606625
10
592.5212898907268
20
-634.35894965655
10
592.626112708376
20
-633.6907089419951
10
592.7463769527283
20
-633.0250752430463
10
592.8826049732779
20
-632.3625256874186
10
593.035399771228
20
-631.7036009974828
10
593.205443637567
20
-631.0489173929917
10
593.3934966988334
20
-630.3991801129292
10
593.6003945930327
20
-629.7551987242958
10
593.8270443673764
20
-629.1179042809905
10
594.0744175081534
20
-628.4883682253254
10
594.3435387968436
20
-627.8678226575364
10
594.6354694650304
20
-627.2576812002391
10
594.9512829461223
20
-626.6595591212937
10
595.2920314795738
20
-626.0752906288361
10
595.6587020381812
20
-625.5069403282084
10
596.0521606841687
20
-624.9568048088977
10
596.4730856928595
20
-624.4273993909362
10
596.9218917491971
20
-623.9214245237006
10
597.3986899307586
20
-623.4417484535988
10
597.9030848701116
20
-622.9911947392218
10
598.4342389313272
20
-622.5725329669505
10
598.9908064187266
20
-622.1883093650769
10
599.5709406301783
20
-621.8406929351468
10
600.1723984514686
20
-621.5314330929644
10
600.7925427000071
20
-621.2615915028757
10
601.4285041672035
20
-621.0314721098924
10
602.0774907262312
20
-620.8411342943797
10
602.7366331881881
20
-620.689635811211
10
603.4033124737809
20
-620.5757432797685
10
604.0751561993898
20
-620.4978023186467
10
604.7501062208844
20
-620.4541818079698
10
605.341468358914
20
-620.4422642979541
10
605.4263716605246
20
-620.4425867966053
10
606.102387869327
20
-620.4638742390017
10
606.7763494933827
20
-620.5205659204532
10
607.4461127202685
20
-620.6146073093768
10
608.1092419909678
20
-620.747548515094
10
608.7630851011138
20
-620.920446390273
10
609.4047696950631
20
-621.1340748137051
10
610.0314893458694
20
-621.3882683334559
10
610.6404229554107
20
-621.682535353609
10
611.2290382434678
20
-622.0155915855253
10
611.7951794446687
20
-622.3855684229906
10
612.3371058739988
20
-622.7901953123393
10
612.8535616167892
20
-623.2268780246483
10
613.3437719728859
20
-623.6928445382524
10
613.8073859724811
20
-624.1852927122576
10
614.2444732133463
20
-624.7014408017711
10
614.6554033902012
20
-625.2386568124655
10
615.0407720558603
20
-625.7945036745681
10
615.4013384259804
20
-626.3667588822432
10
615.7379651675653
20
-626.9534233068773
10
616.0515498110015
20
-627.5527267404024
10
616.3430282287245
20
-628.1630921043843
10
616.613329167847
20
-628.7831305069251
10
616.8633337973076
20
-629.411630364728
10
617.0938700736078
20
-630.0475321920258
10
617.305701772156
20
-630.689909589768
10
617.4995209435315
20
-631.3379515113328
10
617.675942586199
20
-631.9909460994028
10
617.835500499767
20
-632.6482661544278
10
617.9786434148073
20
-633.3093561410697
10
618.1057305715733
20
-633.9737205371982
10
618.2169749438431
20
-634.6409211760388
10
618.3125281756684
20
-635.310549331213
10
618.3923651893954
20
-635.9822323550355
10
618.4563209544397
20
-636.6556126124832
10
618.5039989690915
20
-637.3303398662596
10
618.5347199132
20
-638.0060498476436
10
618.5474126344297
20
-638.6823358052469
10
618.5476908600867
20
-638.7916318379479
10
618.5476908600867
20
-638.7916318379479
0
LWPOLYLINE
5
88
330
82
100
AcDbEntity
8
0
100
AcDbPolyline
90
49
70
0
43
0
38
0
39
0
10
618.8696701112742
20
-651.8646658631568
10
618.8696701112742
20
-655.323507676228
10
618.8310775131949
20
-655.9215667603206
10
618.6951279176549
20
-656.5835709398781
10
618.4642378130022
20
-657.2187416104435
10
618.1449641106396
20
-657.8144385039543
10
617.7460641957866
20
-658.3600707964873
10
617.2773593683239
20
-658.8470970762645
10
616.7490137258098
20
-659.2687204026597
10
616.1711753598031
20
-659.6194980659086
10
615.5539719617918
20
-659.8952176234242
10
614.9074855472672
20
-660.0927889095923
10
614.241778248602
20
-660.2103951498095
10
613.5870458254055
20
-660.247828581101
10
597.1595426729618
20
-660.2476256530016
10
596.6565308530733
20
-660.2313312904881
10
595.9867726077473
20
-660.1395332199116
10
595.3330371421355
20
-659.9674441646682
10
594.7053506200848
20
-659.7164900089572
10
594.1137992795079
20
-659.3893550200203
10
593.568462049868
20
-658.9899402897386
10
593.0794786898348
20
-658.5232640434299
10
592.6570441287408
20
-657.9956283065329
10
592.3111709385819
20
-657.4149595824016
10
592.0510713420576
20
-656.7911726433567
10
591.8841595808076
20
-656.1362872434361
10
591.8147031678795
20
-655.464042752018
10
591.8125901795554
20
-655.3232371054288
10
591.8125901795554
20
-651.8643952923575
10
591.8455460659161
20
-651.4070855641339
10
592.0132574499148
20
-650.753102590185
10
592.3138824564885
20
-650.1484948145281
10
592.7297439239089
20
-649.6163912458535
10
593.2397438862947
20
-649.1735528936154
10
593.8224319984865
20
-648.8318324721511
10
594.4567079460965
20
-648.5993355779009
10
595.121792209042
20
-648.4806755347742
10
595.4846417824886
20
-648.4642673427379
10
615.1976861510409
20
-648.4644702708375
10
615.4140033493857
20
-648.4702747303975
10
616.0830745981955
20
-648.5639444151295
10
616.7258101329387
20
-648.7719439063686
10
617.3214926397013
20
-649.0904969429873
10
617.8490947332998
20
-649.5122377425502
10
618.2872172336804
20
-650.0261970214198
10
618.614535704198
20
-650.6168053718768
10
618.8122523083657
20
-651.2623615658588
10
618.8696701112742
20
-651.8646658631568
10
618.8696701112742
20
-651.8646658631568
0
LWPOLYLINE
5
89
330
82
100
AcDbEntity
8
0
100
AcDbPolyline
90
18
70
0
43
0
38
0
39
0
10
605.3411301454148
20
-657.0234363656382
10
604.688378585199
20
-656.8709084514658
10
604.1843663903499
20
-656.4310416025974
10
603.9882807629899
20
-655.7938934079947
10
603.9882761488288
20
-655.792339228745
10
604.1826273042673
20
-655.1562184017795
10
604.6855866288461
20
-654.7151661409173
10
605.3380063230063
20
-654.5612497710587
10
605.3411301454148
20
-654.5612420918517
10
605.991087072849
20
-654.7123741784368
10
606.4961540487955
20
-655.1510423912625
10
606.6939702536204
20
-655.7876612314147
10
606.6939841420008
20
-655.792339228745
10
606.5013464556127
20
-656.4258516750941
10
605.9994459618408
20
-656.868097030594
10
605.3473639033105
20
-657.023421039983
10
605.3411301454148
20
-657.0234363656382
10
605.3411301454148
20
-657.0234363656382
0
ENDBLK
5
84
100
AcDbEntity
8
0
100
AcDbBlockEnd
0
BLOCK
5
8C
330
8B
100
AcDbEntity
8
0
100
AcDbBlockBegin
2
Coffee_table-1
70
0
10
0
20
0
30
0
3
Coffee_table-1
1

0
LWPOLYLINE
5
8E
330
8B
100
AcDbEntity
8
0
100
AcDbPolyline
90
6
70
0
43
0
38
0
39
0
10
165.5149026007585
20
-358.57180431820944
10
239.81973193624316
20
-358.57180431820944
10
239.81973193624316
20
-395.7242189859518
10
165.5149026007585
20
-395.7242189859518
10
165.5149026007585
20
-358.57180431820944
10
165.5149026007585
20
-358.57180431820944
0
ENDBLK
5
8D
100
AcDbEntity
8
0
100
AcDbBlockEnd
0
BLOCK
5
91
330
90
100
AcDbEntity
8
0
100
AcDbBlockBegin
2
Three_seater_sofa-1
70
0
10
0
20
0
30
0
3
Three_seater_sofa-1
1

0
LWPOLYLINE
5
93
330
90
100
AcDbEntity
8
0
100
AcDbPolyline
90
7
70
0
43
0
38
0
39
0
10
93.34690615288139
20
-420.11617654439624
10
93.34690615288139
20
-284.830776885802
10
228.6323058114757
20
-284.830776885802
10
228.6323058114757
20
-332.18066676630997
10
140.69679603338938
20
-332.18066676630997
10
140.69679603338938
20
-420.11617654439624
10
93.34690615288139
20
-420.11617654439624
0
LWPOLYLINE
5
94
330
90
100
AcDbEntity
8
0
100
AcDbPolyline
90
3
70
0
43
0
38
0
39
0
10
93.34690615288139
20
-284.830776885802
10
228.6323058114757
20
-284.830776885802
10
93.34690615288139
20
-284.830776885802
0
LWPOLYLINE
5
95
330
90
100
AcDbEntity
8
0
100
AcDbPolyline
90
3
70
0
43
0
38
0
39
0
10
140.69679603338938
20
-332.18066676630997
10
228.6323058114757
20
-332.18066676630997
10
140.69679603338938
20
-332.18066676630997
0
LWPOLYLINE
5
96
330
90
100
AcDbEntity
8
0
100
AcDbPolyline
90
3
70
0
43
0
38
0
39
0
10
100.11117613581109
20
-291.5950468687317
10
221.868035828546
20
-291.5950468687317
10
100.11117613581109
20
-291.5950468687317
0
LWPOLYLINE
5
97
330
90
100
AcDbEntity
8
0
100
AcDbPolyline
90
3
70
0
43
0
38
0
39
0
10
228.6323058114757
20
-284.830776885802
10
228.6323058114757
20
-332.18066676630997
10
228.6323058114757
20
-284.830776885802
0
LWPOLYLINE
5
98
330
90
100
AcDbEntity
8
0
100
AcDbPolyline
90
3
70
0
43
0
38
0
39
0
10
221.868035828546
20
-291.5950468687317
10
221.868035828546
20
-332.18066676630997
10
221.868035828546
20
-291.5950468687317
0
LWPOLYLINE
5
99
330
90
100
AcDbEntity
8
0
100
AcDbPolyline
90
3
70
0
43
0
38
0
39
0
10
140.69679603338938
20
-291.5950468687317
10
140.69679603338938
20
-332.18066676630997
10
140.69679603338938
20
-291.5950468687317
0
LWPOLYLINE
5
9A
330
90
100
AcDbEntity
8
0
100
AcDbPolyline
90
3
70
0
43
0
38
0
39
0
10
181.28241593096772
20
-291.5950468687317
10
181.28241593096772
20
-332.18066676630997
10
181.28241593096772
20
-291.5950468687317
0
LWPOLYLINE
5
9B
330
90
100
AcDbEntity
8
0
100
AcDbPolyline
90
3
70
0
43
0
38
0
39
0
10
93.34690615288139
20
-420.11617654439624
10
93.34690615288139
20
-284.830776885802
10
93.34690615288139
20
-420.11617654439624
0
LWPOLYLINE
5
9C
330
90
100
AcDbEntity
8
0
100
AcDbPolyline
90
3
70
0
43
0
38
0
39
0
10
100.11117613581109
20
-413.35190656146654
10
100.11117613581109
20
-291.5950468687317
10
100.11117613581109
20
-413.35190656146654
0
LWPOLYLINE
5
9D
330
90
100
AcDbEntity
8
0
100
AcDbPolyline
90
3
70
0
43
0
38
0
39
0
10
140.69679603338938
20
-420.11617654439624
10
140.69679603338938
20
-332.18066676630997
10
140.69679603338938
20
-420.11617654439624
0
LWPOLYLINE
5
9E
330
90
100
AcDbEntity
8
0
100
AcDbPolyline
90
3
70
0
43
0
38
0
39
0
10
93.34690615288139
20
-420.11617654439624
10
140.69679603338938
20
-420.11617654439624
10
93.34690615288139
20
-420.11617654439624
0
LWPOLYLINE
5
9F
330
90
100
AcDbEntity
8
0
100
AcDbPolyline
90
3
70
0
43
0
38
0
39
0
10
100.11117613581109
20
-413.35190656146654
10
140.69679603338938
20
-413.35190656146654
10
100.11117613581109
20
-413.35190656146654
0
LWPOLYLINE
5
A0
330
90
100
AcDbEntity
8
0
100
AcDbPolyline
90
3
70
0
43
0
38
0
39
0
10
100.11117613581109
20
-332.18066676630997
10
140.69679603338938
20
-332.18066676630997
10
100.11117613581109
20
-332.18066676630997
0
LWPOLYLINE
5
A1
330
90
100
AcDbEntity
8
0
100
AcDbPolyline
90
3
70
0
43
0
38
0
39
0
10
100.11117613581109
20
-372.76628666388825
10
140.69679603338938
20
-372.76628666388825
10
100.11117613581109
20
-372.76628666388825
0
ENDBLK
5
92
100
AcDbEntity
8
0
100
AcDbBlockEnd
0
BLOCK
5
A4
330
A3
100
AcDbEntity
8
0
100
AcDbBlockBegin
2
Double_bed-1
70
0
10
0
20
0
30
0
3
Double_bed-1
1

0
LWPOLYLINE
5
A6
330
A3
100
AcDbEntity
8
0
100
AcDbPolyline
90
6
70
0
43
0
38
0
39
0
10
576.8754586324508
20
-332.7857983589829
10
576.8742410638538
20
-454.69918325912283
10
419.90191541298844
20
-454.6976274770268
10
419.90313298158543
20
-332.78424257688687
10
576.8754586324508
20
-332.7857983589829
10
576.8754586324508
20
-332.7857983589829
0
LWPOLYLINE
5
A7
330
A3
100
AcDbEntity
8
0
100
AcDbPolyline
90
6
70
0
43
0
38
0
39
0
10
569.0268085285575
20
-339.55872660749077
10
569.0262673869588
20
-390.3559590420991
10
545.480452360679
20
-390.35568847129974
10
545.4809258595778
20
-339.55845603669144
10
569.0268085285575
20
-339.55872660749077
10
569.0268085285575
20
-339.55872660749077
0
LWPOLYLINE
5
A8
330
A3
100
AcDbEntity
8
0
100
AcDbPolyline
90
6
70
0
43
0
38
0
39
0
10
569.026199744259
20
-397.12888729060694
10
569.0257262453601
20
-447.92611972521524
10
545.4798435763805
20
-447.92591679711575
10
545.4803847179792
20
-397.12868436250744
10
569.026199744259
20
-397.12888729060694
10
569.026199744259
20
-397.12888729060694
0
LWPOLYLINE
5
A9
330
A3
100
AcDbEntity
8
0
100
AcDbPolyline
90
5
70
0
43
0
38
0
39
0
10
529.7825433685941
20
-455.0373291155694
10
529.7835580090916
20
-353.4428642463528
10
506.23794591091126
20
-333.25922961508815
10
506.23774298281177
20
-353.5780820033116
10
529.7835580090916
20
-353.5783525741109
0
ENDBLK
5
A5
100
AcDbEntity
8
0
100
AcDbBlockEnd
0
BLOCK
5
AC
330
AB
100
AcDbEntity
8
0
100
AcDbBlockBegin
2
Table_with_four_chairs-1
70
0
10
0
20
0
30
0
3
Table_with_four_chairs-1
1

0
LWPOLYLINE
5
AE
330
AB
100
AcDbEntity
8
0
100
AcDbPolyline
90
5
70
0
43
0
38
0
39
0
10
175.16305144821047
20
-502.72232093103173
10
175.16305144821047
20
-509.4658922478137
10
149.08902287311082
20
-509.4658922478137
10
149.08902287311082
20
-502.72232093103173
10
175.16305144821047
20
-502.72232093103173
0
LWPOLYLINE
5
AF
330
AB
100
AcDbEntity
8
0
100
AcDbPolyline
90
5
70
0
43
0
38
0
39
0
10
175.16305144821047
20
-509.4186776433329
10
177.8146452815189
20
-527.6262660844843
10
146.7531175199057
20
-527.6262660844843
10
149.10167205797887
20
-509.4186776433329
10
175.16305144821047
20
-509.4186776433329
0
LWPOLYLINE
5
B0
330
AB
100
AcDbEntity
8
0
100
AcDbPolyline
90
5
70
0
43
0
38
0
39
0
10
131.60115275814314
20
-502.72232093103173
10
131.60115275814314
20
-509.4658922478137
10
105.71652374256547
20
-509.4658922478137
10
105.71652374256547
20
-502.72232093103173
10
131.60115275814314
20
-502.72232093103173
0
LWPOLYLINE
5
B1
330
AB
100
AcDbEntity
8
0
100
AcDbPolyline
90
5
70
0
43
0
38
0
39
0
10
131.60115275814314
20
-509.4658922478137
10
134.25274659145157
20
-527.6734806889651
10
103.31744010771979
20
-527.6734806889651
10
105.66599464579298
20
-509.4658922478137
10
131.60115275814314
20
-509.4658922478137
0
LWPOLYLINE
5
B2
330
AB
100
AcDbEntity
8
0
100
AcDbPolyline
90
5
70
0
43
0
38
0
39
0
10
175.16305144821047
20
-590.6785293752658
10
175.16305144821047
20
-597.4221006920478
10
149.27842243263285
20
-597.4221006920478
10
149.27842243263285
20
-590.6785293752658
10
175.16305144821047
20
-590.6785293752658
0
LWPOLYLINE
5
B3
330
AB
100
AcDbEntity
8
0
100
AcDbPolyline
90
5
70
0
43
0
38
0
39
0
10
149.27842243263285
20
-590.6785293752658
10
146.62682859932443
20
-572.4709409341144
10
177.56206744035637
20
-572.4709409341144
10
175.21351290228318
20
-590.6785293752658
10
149.27842243263285
20
-590.6785293752658
0
LWPOLYLINE
5
B4
330
AB
100
AcDbEntity
8
0
100
AcDbPolyline
90
5
70
0
43
0
38
0
39
0
10
105.71652374256547
20
-590.6785293752658
10
103.06492990925699
20
-572.4709409341144
10
134.00016875028894
20
-572.4709409341144
10
131.65161421221575
20
-590.6785293752658
10
105.71652374256547
20
-590.6785293752658
0
LWPOLYLINE
5
B5
330
AB
100
AcDbEntity
8
0
100
AcDbPolyline
90
5
70
0
43
0
38
0
39
0
10
131.60115275814314
20
-590.6785293752658
10
131.60115275814314
20
-597.4221006920478
10
105.70326577339893
20
-597.4221006920478
10
105.70326577339893
20
-590.6785293752658
10
131.60115275814314
20
-590.6785293752658
0
LWPOLYLINE
5
B6
330
AB
100
AcDbEntity
8
0
100
AcDbPolyline
90
5
70
0
43
0
38
0
39
0
10
187.78964365454607
20
-519.871165834455
10
187.78964365454607
20
-580.5631724000929
10
93.08986389353004
20
-580.5631724000929
10
93.08986389353004
20
-519.871165834455
10
187.78964365454607
20
-519.871165834455
0
ENDBLK
5
AD
100
AcDbEntity
8
0
100
AcDbBlockEnd
0
BLOCK
5
BA
330
B9
100
AcDbEntity
8
0
100
AcDbBlockBegin
2
wall-1
70
0
10
0
20
0
30
0
3
wall-1
1

0
LWPOLYLINE
5
BC
330
B9
100
AcDbEntity
8
0
100
AcDbPolyline
90
21
70
0
43
0
38
0
39
0
10
249.49331443883096
20
-284.830776885802
10
93.34690615288139
20
-284.830776885802
10
93.34690615288139
20
-790.1217446106517
10
271.9236337022259
20
-790.1217446106517
10
271.9236337022259
20
-667.012030921331
10
278.6879036851556
20
-667.012030921331
10
278.6879036851556
20
-704.8919428257374
10
408.5618873574062
20
-704.8919428257374
10
408.5618873574062
20
-641.9165892846618
10
415.3261573403359
20
-641.9165892846618
10
415.3261573403359
20
-660.2477609384013
10
472.59246701581884
20
-660.2477609384013
10
472.59246701581884
20
-673.7763009042607
10
422.0904273232656
20
-673.7763009042607
10
422.0904273232656
20
-718.4204827915968
10
285.4521736680853
20
-718.4204827915968
10
285.4521736680853
20
-803.6502845765111
10
79.81836618702198
20
-803.6502845765111
10
79.81836618702198
20
-271.3022369199425
10
249.49331443883096
20
-271.3022369199425
10
249.49331443883096
20
-284.830776885802
0
LWPOLYLINE
5
BD
330
B9
100
AcDbEntity
8
0
100
AcDbPolyline
90
31
70
0
43
0
38
0
39
0
10
576.992209932356
20
-496.55242735150205
10
718.3654525755871
20
-496.55242735150205
10
718.3654525755871
20
-673.7763009042607
10
526.0301998809637
20
-673.7763009042607
10
526.0301998809637
20
-660.2477609384013
10
563.4636699664966
20
-660.2477609384013
10
563.4636699664966
20
-619.2359920318984
10
576.992209932356
20
-619.2359920318984
10
576.992209932356
20
-660.2477609384013
10
704.8369126097277
20
-660.2477609384013
10
704.8369126097277
20
-510.08096731736146
10
576.992209932356
20
-510.08096731736146
10
576.992209932356
20
-572.5625291496833
10
563.4636699664966
20
-572.5625291496833
10
563.4636699664966
20
-537.1380472490804
10
415.3261573403359
20
-537.1380472490804
10
415.3261573403359
20
-595.2431264024467
10
408.5618873574062
20
-595.2431264024467
10
408.5618873574062
20
-479.5538168843997
10
415.3261573403359
20
-479.5538168843997
10
415.3261573403359
20
-530.3737772661507
10
563.4636699664966
20
-530.3737772661507
10
563.4636699664966
20
-284.830776885802
10
415.3261573403359
20
-284.830776885802
10
415.3261573403359
20
-300.32095514671107
10
408.5618873574062
20
-300.32095514671107
10
408.5618873574062
20
-284.830776885802
10
377.3380171162026
20
-284.830776885802
10
377.3380171162026
20
-271.3022369199425
10
576.992209932356
20
-271.3022369199425
10
576.992209932356
20
-496.55242735150205
0
LWPOLYLINE
5
BE
330
B9
100
AcDbEntity
8
0
100
AcDbPolyline
90
5
70
0
43
0
38
0
39
0
10
415.3261573403359
20
-432.8803540021846
10
408.5618873574062
20
-432.8803540021846
10
408.5618873574062
20
-346.99441802892613
10
415.3261573403359
20
-346.99441802892613
10
415.3261573403359
20
-432.8803540021846
0
ENDBLK
5
BB
100
AcDbEntity
8
0
100
AcDbBlockEnd
0
BLOCK
5
C2
330
C1
100
AcDbEntity
8
0
100
AcDbBlockBegin
2
window-door-1
70
0
10
0
20
0
30
0
3
window-door-1
1

0
LWPOLYLINE
5
C4
330
C1
100
AcDbEntity
8
0
100
AcDbPolyline
90
5
70
0
43
0
38
0
39
0
10
414.9879438411894
20
-481.5830978792786
10
408.9001008565527
20
-481.5830978792786
10
408.9001008565527
20
-479.89203038354617
10
414.9879438411894
20
-479.89203038354617
10
414.9879438411894
20
-481.5830978792786
0
LWPOLYLINE
5
C5
330
C1
100
AcDbEntity
8
0
100
AcDbPolyline
90
5
70
0
43
0
38
0
39
0
10
414.9879438411894
20
-430.8510730073058
10
408.9001008565527
20
-430.8510730073058
10
408.9001008565527
20
-432.5421405030381
10
414.9879438411894
20
-432.5421405030381
10
414.9879438411894
20
-430.8510730073058
0
LWPOLYLINE
5
C6
330
C1
100
AcDbEntity
8
0
100
AcDbPolyline
90
6
70
0
43
0
38
0
39
0
10
412.95866284631046
20
-503.5669753238002
10
412.95866284631046
20
-456.21708544329215
10
410.9293818514315
20
-456.21708544329215
10
410.9293818514315
20
-503.5669753238002
10
412.95866284631046
20
-503.5669753238002
10
412.95866284631046
20
-503.5669753238002
0
LWPOLYLINE
5
C7
330
C1
100
AcDbEntity
8
0
100
AcDbPolyline
90
5
70
0
43
0
38
0
39
0
10
470.5631860209399
20
-673.4380874051142
10
470.5631860209399
20
-660.5859744375476
10
472.25425351667235
20
-660.5859744375476
10
472.25425351667235
20
-673.4380874051142
10
470.5631860209399
20
-673.4380874051142
0
LWPOLYLINE
5
C8
330
C1
100
AcDbEntity
8
0
100
AcDbPolyline
90
5
70
0
43
0
38
0
39
0
10
528.0594808758424
20
-673.4380874051142
10
528.0594808758424
20
-660.5859744375476
10
526.36841338011
20
-660.5859744375476
10
526.36841338011
20
-673.4380874051142
10
528.0594808758424
20
-673.4380874051142
0
LWPOLYLINE
5
C9
330
C1
100
AcDbEntity
8
0
100
AcDbPolyline
90
127
70
0
43
0
38
0
39
0
10
472.25425351667235
20
-728.2560695602757
10
472.9306623753177
20
-728.2517714247988
10
473.6069688070482
20
-728.2392929927669
10
474.28307459075444
20
-728.2186220510802
10
474.9588730812622
20
-728.1895832467276
10
475.6342521747284
20
-728.1520373963496
10
476.3091234888752
20
-728.1062696017534
10
476.98338747200916
20
-728.0522768402977
10
477.6568981063687
20
-727.9895828500219
10
478.32959018069715
20
-727.918650915739
10
479.00136453343333
20
-727.8394933742004
10
479.6720667171937
20
-727.7517136524518
10
480.341627544211
20
-727.6556183641218
10
481.0099597951319
20
-727.551317895894
10
481.6768942555638
20
-727.4384241511203
10
482.34237036221344
20
-727.3172319319009
10
483.00630824453066
20
-727.1878750647447
10
483.6685110696737
20
-727.0499109913624
10
484.3289527257344
20
-726.9037507945917
10
484.9875401769131
20
-726.749448065964
10
485.64405776721065
20
-726.5865632951936
10
486.2985235555216
20
-726.4156229691181
10
486.9507870170367
20
-726.2364620247199
10
487.6006993449926
20
-726.0489512350686
10
488.24826004829384
20
-725.8534735086317
10
488.8932494973846
20
-725.6496723390522
10
489.53563716061916
20
-725.4378134776335
10
490.1753544412299
20
-725.2180218059926
10
490.8121579014218
20
-724.9899252680818
10
491.44611870805414
20
-724.7540439619787
10
492.07701705884114
20
-724.5100901884688
10
492.7047942336175
20
-724.2582132264059
10
493.3294198088427
20
-723.9986183229136
10
493.9506167623435
20
-723.7309224527339
10
494.56849842852654
20
-723.4556613863747
10
495.18280904587965
20
-723.172520622993
10
495.7935343625464
20
-722.8817271853965
10
496.4006059364909
20
-722.5833809794666
10
497.0037944670236
20
-722.2772598281156
10
497.60321492835106
20
-721.9638242907104
10
498.19853277995213
20
-721.6426650664122
10
498.78986495053874
20
-721.3142253921073
10
499.3770161684378
20
-720.9783688585931
10
499.9598962238485
20
-720.6351528559734
10
500.53852442449767
20
-720.2848159138917
10
501.1125951557495
20
-719.9270596462674
10
501.68229534401354
20
-719.5623838377578
10
502.2472609857214
20
-719.1904155571095
10
502.8076345271914
20
-718.8115647346573
10
503.36320566515036
20
-718.4257060660224
10
503.9139113268216
20
-718.0329342249621
10
504.45975368166836
20
-717.6334313187598
10
505.00045641673813
20
-717.2269989746665
10
505.53622350783536
20
-716.8140817732766
10
506.0666126394007
20
-716.3942790821933
10
506.59189129336477
20
-715.9680995981917
10
507.1117347732856
20
-715.5353073940246
10
507.6262045843163
20
-715.0961408046134
10
508.1351893066332
20
-714.6506289484771
10
508.6385355191854
20
-714.1987560075386
10
509.136354233933
20
-713.7408005426146
10
509.62826761985974
20
-713.2765074429312
10
510.1145667620137
20
-712.8063372154598
10
510.59479565197813
20
-712.3299687061557
10
511.0692133339567
20
-711.8478126599266
10
511.5375255448659
20
-711.3597245945156
10
511.99976581732955
20
-710.8658820880011
10
512.4558743842483
20
-710.3663710439245
10
512.905646628217
20
-709.8611468047523
10
513.3492704898647
20
-709.3505151485209
10
513.7862894570935
20
-708.8342193442877
10
514.2170660528132
20
-708.3127039424307
10
514.641139493709
20
-707.7857235911023
10
515.0587493336868
20
-707.2536065665577
10
515.4696537618927
20
-706.7162949519524
10
515.8738253052488
20
-706.173900428777
10
516.2713015720658
20
-705.6265805634449
10
516.6617692043196
20
-705.0742385623984
10
517.0455419106297
20
-704.5172237680317
10
517.422069430437
20
-703.9552861138756
10
517.7917547584409
20
-703.3888240390397
10
518.1542283164433
20
-702.8177205718089
10
518.5095766121794
20
-702.242156544116
10
518.8577630318182
20
-701.6622319738135
10
519.1985318817037
20
-701.0779177472982
10
519.5321887753898
20
-700.4895131095376
10
519.8581613789686
20
-699.8968169408387
10
520.1768919348312
20
-699.3001954167594
10
520.4880235500407
20
-698.699576320875
10
520.7916055188152
20
-698.0951060893368
10
521.0876958313875
20
-697.486930976735
10
521.375916308295
20
-696.874986895833
10
521.656652565707
20
-696.2595734451487
10
521.9294322894659
20
-695.6405923452012
10
522.1945073267261
20
-695.0182729681602
10
522.4517842836115
20
-694.3926893847758
10
522.7010114270759
20
-693.76385535309
10
522.9425236650991
20
-693.1320180160138
10
523.1758323638744
20
-692.4971058202921
10
523.4012388875847
20
-691.8593456751703
10
523.6186648593475
20
-691.2188206719129
10
523.8278104301605
20
-690.5755442315659
10
524.0290456826333
20
-689.9297495884923
10
524.221976460748
20
-689.2814256164695
10
524.4067428450144
20
-688.6307279515499
10
524.5835014030808
20
-687.977808876785
10
524.7516863408594
20
-687.3226289578993
10
524.9118016735442
20
-686.6654310438246
10
525.0636965871354
20
-686.0062843379668
10
525.2070751674185
20
-685.34523284478
10
525.3423200912962
20
-684.6824697519526
10
525.4691966583698
20
-684.0180536965294
10
525.5875935477884
20
-683.352074364988
10
525.6978053780842
20
-682.6846917668878
10
525.7995808803801
20
-682.0159704667153
10
525.892874453051
20
-681.3460133185589
10
525.9779510469341
20
-680.6749633033259
10
526.0546129238855
20
-680.0028996701772
10
526.1227444542776
20
-679.3299178467882
10
526.1826476365629
20
-678.6561540611593
10
526.2342566067639
20
-677.9817035723213
10
526.277233296636
20
-677.3066480572443
10
526.3119916937353
20
-676.631120240861
10
526.3385378353164
20
-675.9552193476471
10
526.356581349751
20
-675.2790378795819
10
526.3662924914777
20
-674.6026858774791
10
526.36841338011
20
-674.1419096968381
0
LWPOLYLINE
5
CA
330
C1
100
AcDbEntity
8
0
100
AcDbPolyline
90
2
70
0
43
0
38
0
39
0
10
472.25425351667235
20
-728.6217459955529
10
472.25425351667235
20
-673.7763009042607
0
LWPOLYLINE
5
CB
330
C1
100
AcDbEntity
8
0
100
AcDbPolyline
90
5
70
0
43
0
38
0
39
0
10
563.801883465643
20
-570.5332481548044
10
576.6539964332096
20
-570.5332481548044
10
576.6539964332096
20
-572.2243156505368
10
563.801883465643
20
-572.2243156505368
10
563.801883465643
20
-570.5332481548044
0
LWPOLYLINE
5
CC
330
C1
100
AcDbEntity
8
0
100
AcDbPolyline
90
5
70
0
43
0
38
0
39
0
10
563.801883465643
20
-621.2652730267773
10
576.6539964332096
20
-621.2652730267773
10
576.6539964332096
20
-619.5742055310449
10
563.801883465643
20
-619.5742055310449
10
563.801883465643
20
-621.2652730267773
0
LWPOLYLINE
5
CD
330
C1
100
AcDbEntity
8
0
100
AcDbPolyline
90
111
70
0
43
0
38
0
39
0
10
515.7938977584959
20
-572.2243156505368
10
515.7988008843658
20
-572.9007190607533
10
515.8129555043229
20
-573.5769910821124
10
515.8366862335313
20
-574.2529955997184
10
515.8699972455363
20
-574.928594922029
10
515.91265457288
20
-575.6036693681538
10
515.9651482136794
20
-576.278050438
10
516.0270738207234
20
-576.9516296541311
10
516.0984744962998
20
-577.6242716793545
10
516.1796954762913
20
-578.2957983610131
10
516.2703324745023
20
-578.9661181750546
10
516.3704972884157
20
-579.6350817859249
10
516.4804232444048
20
-580.3025104118814
10
516.5997617224655
20
-580.9683196651011
10
516.7285684917597
20
-581.6323634713289
10
516.8671219955479
20
-582.294441946018
10
517.0150501844894
20
-582.9544879787873
10
517.1723374710207
20
-583.6123677310372
10
517.3392935227419
20
-584.2678607400499
10
517.5156039429833
20
-584.9208984743217
10
517.7011929514779
20
-585.5713604376074
10
517.8961702280124
20
-586.2190712076421
10
518.1005667653019
20
-586.863870809366
10
518.3141324956541
20
-587.5056910182825
10
518.536828657612
20
-588.1444016076393
10
518.7688421391713
20
-588.7797874899758
10
519.0099812523715
20
-589.4117652934283
10
519.2601067572732
20
-590.040240305445
10
519.5191687995559
20
-590.6650858956781
10
519.7873548025243
20
-591.2860704750437
10
520.0644131787628
20
-591.9031463649505
10
520.3502341584276
20
-592.5162124407226
10
520.6447583656034
20
-593.1251463489161
10
520.9481162203053
20
-593.7297285603248
10
521.2601201221639
20
-594.3298933972849
10
521.5806278900841
20
-594.9255597493434
10
521.9095720689882
20
-595.5166098943154
10
522.246985435348
20
-596.1028674501905
10
522.5928335100914
20
-596.6841883584332
10
522.9468971524543
20
-597.2605412768087
10
523.309102071928
20
-597.8318132161971
10
523.6793723975281
20
-598.397892339477
10
524.0578404647547
20
-598.9585239135735
10
524.4442257685853
20
-599.5137271376266
10
524.8384331694133
20
-600.0634036639791
10
525.2403811807271
20
-600.6074462957358
10
525.6500517673408
20
-601.1456988899957
10
526.0674363131102
20
-601.6779914768409
10
526.4923029846566
20
-602.204330035753
10
526.9245653599255
20
-602.7246118424455
10
527.3641358367215
20
-603.2387352613192
10
527.8110383923113
20
-603.7464989693322
10
528.2651461706294
20
-604.2478281543548
10
528.7262866144886
20
-604.7426951633995
10
529.1943676945946
20
-605.2310026557981
10
529.6692962934994
20
-605.712654359944
10
530.151122859512
20
-606.1874059502235
10
530.6396372494587
20
-606.6552715382367
10
531.1347078819135
20
-607.1161933147234
10
531.6362373875734
20
-607.5700792762563
10
532.14413264927
20
-608.0168323822452
10
532.65845082176
20
-608.4561758509369
10
533.178923998774
20
-608.888208136257
10
533.7054505125977
20
-609.3128416613959
10
534.2379276057384
20
-609.729990029854
10
534.7763011456213
20
-610.1395016608967
10
535.3205224634385
20
-610.5412085005361
10
535.8703741331478
20
-610.9351717684732
10
536.4257489202962
20
-611.3213100055589
10
536.986538460937
20
-611.6995431167619
10
537.5527373895734
20
-612.0696303396171
10
538.1241711564521
20
-612.4315805072915
10
538.7006821738137
20
-612.7853865723082
10
539.2821574092311
20
-613.1309742767252
10
539.8685156456474
20
-613.4682126807755
10
540.4597137368719
20
-613.7968919078779
10
541.0555241422405
20
-614.1171320255812
10
541.6558290921726
20
-614.4288656178326
10
542.2605096848672
20
-614.7320272119962
10
542.8695697807161
20
-615.026291502369
10
543.4827652276715
20
-615.3118352836833
10
544.0999663669131
20
-615.5886139642889
10
544.7210497393355
20
-615.8565705082864
10
545.3459959382997
20
-616.1153905566392
10
545.974584960878
20
-616.3652299542591
10
546.6066724633024
20
-616.6060806606583
10
547.2421308623484
20
-616.8378955586694
10
547.8809420094904
20
-617.0603047821562
10
548.5228601678905
20
-617.2735762750467
10
549.1677532162421
20
-617.4776765149353
10
549.8155237323772
20
-617.6724552352081
10
550.4660715269331
20
-617.8577446718327
10
551.1191904543041
20
-618.0337536634788
10
551.7747477059656
20
-618.2004562266618
10
552.432688083403
20
-618.3574907837226
10
553.0928027072687
20
-618.5051130017798
10
553.7549449619155
20
-618.6433589994713
10
554.4190285848877
20
-618.7719600066742
10
555.0848935061119
20
-618.8909886301443
10
555.7523728781193
20
-619.0006034611123
10
556.4213675619883
20
-619.100560238094
10
557.0917298386837
20
-619.1908842258484
10
557.7632939677928
20
-619.2717912150607
10
558.4359581549825
20
-619.3429820962604
10
559.1095663967019
20
-619.4045923313636
10
559.78396799407
20
-619.4568184442145
10
560.4590589745642
20
-619.4992162693095
10
561.1346737157619
20
-619.532210403662
10
561.810685662181
20
-619.5557296936224
10
562.4869645441295
20
-619.569566952679
10
563.1437876390039
20
-619.5742055310449
0
LWPOLYLINE
5
CE
330
C1
100
AcDbEntity
8
0
100
AcDbPolyline
90
2
70
0
43
0
38
0
39
0
10
515.4739477883033
20
-572.2243156505368
10
563.4636699664966
20
-572.2243156505368
0
LWPOLYLINE
5
CF
330
C1
100
AcDbEntity
8
0
100
AcDbPolyline
90
5
70
0
43
0
38
0
39
0
10
379.36729811108154
20
-284.4925633866555
10
379.36729811108154
20
-271.640450419089
10
377.6762306153491
20
-271.640450419089
10
377.6762306153491
20
-284.4925633866555
10
379.36729811108154
20
-284.4925633866555
0
LWPOLYLINE
5
D0
330
C1
100
AcDbEntity
8
0
100
AcDbPolyline
90
5
70
0
43
0
38
0
39
0
10
247.46403344395208
20
-284.4925633866555
10
247.46403344395208
20
-271.640450419089
10
249.15510093968447
20
-271.640450419089
10
249.15510093968447
20
-284.4925633866555
10
247.46403344395208
20
-284.4925633866555
0
LWPOLYLINE
5
D1
330
C1
100
AcDbEntity
8
0
100
AcDbPolyline
90
151
70
0
43
0
38
0
39
0
10
249.15510093968447
20
-349.60955244702654
10
249.83151607366813
20
-349.60598625397506
10
250.50785782784703
20
-349.5954562092849
10
251.18405425867581
20
-349.57794571692216
10
251.86003289338282
20
-349.55343981093637
10
252.5357207747419
20
-349.52192515475133
10
253.21104450548484
20
-349.48339003852345
10
253.8859302922657
20
-349.43782437461084
10
254.56030398909138
20
-349.3852196912056
10
255.2340911401368
20
-349.3255691241861
10
255.90721702186636
20
-349.2588674072423
10
256.5796066843868
20
-349.1851108603446
10
257.2511849919639
20
-349.10429737661735
10
257.92187666263396
20
-349.01642640768745
10
258.5916063068535
20
-348.9214989475835
10
259.2602984651262
20
-348.81951751525554
10
259.9278776445592
20
-348.71048613579705
10
260.5942683542996
20
-348.5944103204439
10
261.2593871161622
20
-348.47125497859844
10
261.92316613412424
20
-348.3410730741329
10
262.585530946482
20
-348.2038779387966
10
263.2464065504528
20
-348.05968060024844
10
263.9057180962996
20
-347.9084934571792
10
264.5633909154813
20
-347.7503302540157
10
265.219350547499
20
-347.58520605496227
10
265.8735227654292
20
-347.41313721745206
10
266.5258336001345
20
-347.2341413650994
10
267.176209363152
20
-347.0482373602242
10
267.82457666825985
20
-346.8554452760292
10
268.47086245172693
20
-346.65578636850614
10
269.11499399125574
20
-346.44928304814493
10
269.75689892363164
20
-346.2359588515183
10
270.39650526109347
20
-346.0158384128135
10
271.03374140644496
20
-345.7889474353764
10
271.66853616693106
20
-345.555312663338
10
272.30081876690224
20
-345.31496185338347
10
272.9305188592956
20
-345.0679237467248
10
273.55755363674376
20
-344.81419663208874
10
274.18186215038196
20
-344.55383399540756
10
274.8033777661427
20
-344.28687355912433
10
275.42203191542507
20
-344.01334788901687
10
276.0377565033165
20
-343.73329039661144
10
276.6504839134879
20
-343.4467353134848
10
277.26014701216457
20
-343.1537176661312
10
277.86667915121694
20
-342.8542732514335
10
278.4700141704142
20
-342.5484386127715
10
279.07008639888403
20
-342.2362510167989
10
279.6668306558297
20
-341.9177484309225
10
280.260182250543
20
-341.59296950150383
10
280.85007698176724
20
-341.26195353281497
10
281.43645113645266
20
-340.92474046676153
10
282.0192414879538
20
-340.58137086339826
10
282.5983852937151
20
-340.23188588224946
10
283.17382029249325
20
-339.8763272644482
10
283.7454847011638
20
-339.5147373157084
10
284.3133172111576
20
-339.1471588901338
10
284.8772569845773
20
-338.7736353748751
10
285.4372436500365
20
-338.39421067563495
10
285.99321729827227
20
-338.0089292030283
10
286.5451184775732
20
-337.61783585979276
10
287.09288818907044
20
-337.22097602885015
10
287.6364669226294
20
-336.81839428117564
10
288.1757444110146
20
-336.41006881845
10
288.71071419554556
20
-335.99611629977215
10
289.24131907768236
20
-335.5765840086026
10
289.7675022891562
20
-335.15151965902373
10
290.2892074873312
20
-334.72097138884493
10
290.8063787507379
20
-334.28498775349334
10
291.3189605748145
20
-333.8436177206711
10
291.8268978678944
20
-333.3969106657628
10
292.33013594747797
20
-332.944916367972
10
292.82862053682715
20
-332.4876850071691
10
293.32229776191554
20
-332.02526716142756
10
293.8111141487712
20
-331.5577138052232
10
294.2950166212439
20
-331.085076308275
10
294.7739524992322
20
-330.6074064350015
10
295.2478694973999
20
-330.1247563445639
10
295.71671572441244
20
-329.6371785914694
10
296.1804396827252
20
-329.14472612670585
10
296.63898967861337
20
-328.6474517607662
10
297.09224619930194
20
-328.1453477714834
10
297.5402272907889
20
-327.63853195320297
10
297.9828831085368
20
-327.1270589112945
10
298.4201642119746
20
-326.61098365870635
10
298.8520215682236
20
-326.0903616196243
10
299.2784065565481
20
-325.5652486334176
10
299.699270973554
20
-325.03570095884027
10
300.114567039151
20
-324.5017752784453
10
300.5242474032953
20
-323.9635287031738
10
300.92826515352874
20
-323.4210187770806
10
301.3265738233258
20
-322.87430348215105
10
301.7191274012621
20
-322.3234412431726
10
302.10588034101335
20
-321.7684909326143
10
302.4867875721932
20
-321.2095118754728
10
302.86180451203734
20
-320.64656385404123
10
303.23088707793744
20
-320.079707112555
10
303.5939917008276
20
-319.50900236167126
10
303.9510753394258
20
-318.93451078273335
10
304.3020954953264
20
-318.3562940317779
10
304.646968278345
20
-317.7743896691901
10
304.9856720742117
20
-317.18887334147007
10
305.3181890911736
20
-316.59982186951754
10
305.6444792941931
20
-316.00729885036833
10
305.9645032827345
20
-315.411368367532
10
306.27822231087106
20
-314.8120949923076
10
306.58559830816654
20
-314.20954378450006
10
306.8865939013066
20
-313.60378029249233
10
307.181172436459
20
-312.9948705526246
10
307.4692980023367
20
-312.382881087837
10
307.75093545393275
20
-311.76787890552566
10
308.02605043689596
20
-311.14993149457183
10
308.29460941251443
20
-310.52910682149695
10
308.55657968326693
20
-309.90547332570196
10
308.81192941890276
20
-309.2790999137481
10
309.0606276830086
20
-308.65005595263904
10
309.3026444600124
20
-308.0184112620652
10
309.53795068257966
20
-307.38423610557294
10
309.7665182593472
20
-306.74760118062346
10
309.9883201029414
20
-306.1085776075058
10
310.2033301582235
20
-305.4672369170766
10
310.4115234307009
20
-304.8236510372929
10
310.61287601504387
20
-304.1778922785163
10
310.80736512363944
20
-303.53003331756094
10
310.99496911511903
20
-302.8801471804675
10
311.17566752278657
20
-302.2283072239845
10
311.34944108287664
20
-301.574587115743
10
311.51627176256903
20
-300.9190608131136
10
311.67614278768286
20
-300.2618025407403
10
311.82903866997395
20
-299.6028867667454
10
311.97494523395625
20
-298.9423881776097
10
312.11384964316676
20
-298.2803816517288
10
312.24574042579445
20
-297.6169422316593
10
312.3706074995895
20
-296.95214509506474
10
312.4884421959727
20
-296.2860655243811
10
312.5992372832611
20
-295.6187788752247
10
312.70298698892833
20
-294.95036054356837
10
312.79968702081885
20
-294.2808859317203
10
312.88933458723227
20
-293.6104304131399
10
312.9719284158015
20
-292.939069296133
10
313.0474687710824
20
-292.2668777864744
10
313.11595747078115
20
-291.59393094900565
10
313.1773979005424
20
-290.9203036682664
10
313.23179502722735
20
-290.24607060821876
10
313.27915541061
20
-289.57130617112836
10
313.31937226458814
20
-288.8960782400735
10
313.35254625421607
20
-288.22046823116534
10
313.3787038973036
20
-287.54455077651005
10
313.39785804587797
20
-286.8683990905084
10
313.4100231843743
20
-286.19208591816374
10
313.41521543107564
20
-285.51568349027616
10
313.4156657775168
20
-285.34898760919424
0
LWPOLYLINE
5
D2
330
C1
100
AcDbEntity
8
0
100
AcDbPolyline
90
2
70
0
43
0
38
0
39
0
10
249.15510093968447
20
-350.12783081311863
10
249.15510093968447
20
-284.830776885802
0
LWPOLYLINE
5
D3
330
C1
100
AcDbEntity
8
0
100
AcDbPolyline
90
151
70
0
43
0
38
0
39
0
10
377.6762306153491
20
-349.0913417236343
10
376.9998154814295
20
-349.0877755202557
10
376.3234737278156
20
-349.077245438264
10
375.6472772985982
20
-349.05973488260565
10
374.9712986670641
20
-349.03522888832305
10
374.29561079092497
20
-349.00371411984315
10
373.62028706790335
20
-348.9651788683346
10
372.9454012917685
20
-348.91961304717444
10
372.27102760890597
20
-348.86700818557983
10
371.59724047550145
20
-348.8073574204571
10
370.92411461542036
20
-348.7406554865274
10
370.25172497885427
20
-348.66689870479127
10
369.58014670180506
20
-348.5860849694032
10
368.90945506647216
20
-348.4982137330167
10
368.239725462605
20
-348.40328599068266
10
367.5710333498749
20
-348.3013042623674
10
366.90345422132026
20
-348.19227257417356
10
366.2370635679095
20
-348.07619643833664
10
365.57194484950065
20
-347.9530408618409
10
364.9081658972098
20
-347.82285861996496
10
364.24580115610644
20
-347.68566313821174
10
363.5849256289817
20
-347.54146544519085
10
362.9256141655556
20
-347.39027794052885
10
362.26794143432704
20
-347.23211436957183
10
361.6119818957265
20
-347.06698979742526
10
360.95780977658654
20
-346.89492058240563
10
360.30549904593016
20
-346.7159243489905
10
359.6551233920832
20
-346.53001996034226
10
359.00675620111
20
-346.33722749048445
10
358.3604705365638
20
-346.1375681962082
10
357.7163391205449
20
-345.93106448877836
10
357.07443431605276
20
-345.7177399055201
10
356.43482811061625
20
-345.49761908134786
10
355.7975921011833
20
-345.27072772031005
10
355.1627974802454
20
-345.0370925672146
10
354.5305150231748
20
-344.7967413793975
10
353.90081507674444
20
-344.54970289869567
10
353.2737805032952
20
-344.2959752798531
10
352.6494721426514
20
-344.0356122781457
10
352.0279566819739
20
-343.7686514825029
10
351.4093026895295
20
-343.4951254592146
10
350.7935782598906
20
-343.21506762029105
10
350.18085100903915
20
-342.9285121977657
10
349.57118807039734
20
-342.6354942185621
10
348.9646560917384
20
-342.3360494799645
10
348.3613212329337
20
-342.03021452572636
10
347.76124916449345
20
-341.7180266228481
10
347.16450506685186
20
-341.39952373905544
10
346.5711536303534
20
-341.07474452100263
10
345.9812590558923
20
-340.7437282732269
10
345.3948850561573
20
-340.40651493787306
10
344.8120948574354
20
-340.0631450752086
10
344.23295120192716
20
-339.7136598449446
10
343.65751635052476
20
-339.3581009883762
10
343.08585208600704
20
-338.99651081135335
10
342.51801971660274
20
-338.62893216809215
10
341.9540800798762
20
-338.25540844583077
10
341.3940935468875
20
-337.8759835503365
10
340.83812002658163
20
-337.4907018922653
10
340.2862189703612
20
-337.0996083743736
10
339.738449376795
20
-336.70274837957953
10
339.1948708432805
20
-336.3001663619175
10
338.65559346226036
20
-335.8918407585124
10
338.12062377905494
20
-335.4778881098557
10
337.59001899194885
20
-335.0583556993193
10
337.06383586896953
20
-334.63329124087727
10
336.5421307525235
20
-334.2027428722132
10
336.02495956386446
20
-333.766759148611
10
335.51237780735295
20
-333.3253890376127
10
335.00444057446845
20
-332.878681914426
10
334.50120254753796
20
-332.4266875580632
10
334.00271800314243
20
-331.9694561481883
10
333.50904081516666
20
-331.507038262654
10
333.0202244574569
20
-331.03948487570244
10
332.5363220060537
20
-330.5668473568066
10
332.0573861409652
20
-330.0891774701271
10
331.58346914745124
20
-329.6065273745558
10
331.1146229167869
20
-329.11894962432063
10
330.65089894647446
20
-328.62649717012033
10
330.1923490231234
20
-328.12922273738053
10
329.73909247348837
20
-327.62711877500254
10
329.29111134465705
20
-327.1203029903985
10
328.84845548119694
20
-326.6088299886163
10
328.41117432372556
20
-326.09275478227795
10
327.97931690518766
20
-325.5721327952365
10
327.5529318464017
20
-325.0470198665255
10
327.1320673508629
20
-324.51747225455927
10
326.71677119878024
20
-323.9835466415483
10
326.30709074033376
20
-323.4453001380895
10
325.903072888136
20
-322.90279028789223
10
325.50476410888433
20
-322.3560750725958
10
325.11221041419213
20
-321.80521291664195
10
324.7254573505905
20
-321.2502626921551
10
324.34454998868927
20
-320.6912837237889
10
323.969532911493
20
-320.1283357934958
10
323.60045020186766
20
-319.5614791451742
10
323.2373454291524
20
-318.99077448914727
10
322.88026163491924
20
-318.41628300642986
10
322.5292413178791
20
-317.8380663527348
10
322.1843684555568
20
-317.25616203712156
10
321.8456644880818
20
-316.67064580919373
10
321.5131472950229
20
-316.0815944371128
10
321.1868569117841
20
-315.489071517619
10
320.86683273928156
20
-314.8931411339349
10
320.5531135238348
20
-314.293867857082
10
320.2457373362868
20
-313.69131674659724
10
319.9447415503704
20
-313.08555335060635
10
319.65016282034713
20
-312.47664370520334
10
319.3620370579455
20
-311.86465433309326
10
319.080399408624
20
-311.2496522414493
10
318.80528422719493
20
-310.6317049189429
10
318.53672505284044
20
-310.0108803318982
10
318.2747545835609
20
-309.3872469195327
10
318.01940465009295
20
-308.7608735882377
10
317.77070618934385
20
-308.1318297048618
10
317.528689217385
20
-307.50018508895477
10
317.2933828020561
20
-306.8660100039377
10
317.06481503522957
20
-306.2293751471613
10
316.84301300479257
20
-305.59035163882095
10
316.6280027664002
20
-304.94901100969423
10
316.41980931506305
20
-304.3054251876765
10
316.21845655663077
20
-303.6596664830833
10
316.0239672792357
20
-303.01180757269947
10
315.8363631247655
20
-302.3619214825531
10
315.65566456043376
20
-301.71008156939666
10
315.48189085052076
20
-301.05636150088213
10
315.31506002835835
20
-300.4008352344178
10
315.1551888686345
20
-299.7435769947016
10
315.00229286009517
20
-299.084661249927
10
314.8563861787222
20
-298.4241626866618
10
314.7174816614664
20
-297.7621561834056
10
314.58559078061944
20
-297.0987167828346
10
314.4607236189018
20
-296.43391966274794
10
314.34288884535397
20
-295.76784010573266
10
314.2320936921088
20
-295.10055346757133
10
314.12834393213063
20
-294.4321351444183
10
314.031643858001
20
-293.76266053877697
10
313.941996261832
20
-293.09220502431606
10
313.85940241638815
20
-292.4208439095644
10
313.7838620574959
20
-291.74865240053214
10
313.71537336781535
20
-291.07570556230894
10
313.6539329620509
20
-290.40207827969385
10
313.5995358736739
20
-289.72784521691926
10
313.55217554322365
20
-289.05308077653154
10
313.5119586781371
20
-288.3778528461545
10
313.47878477181723
20
-287.7022428328104
10
313.4526272275255
20
-287.02632537405526
10
313.43347319347225
20
-286.3501736846058
10
313.42130818543905
20
-285.67386050978763
10
313.4161160853379
20
-284.99745808072817
10
313.4156657775168
20
-284.830776885802
0
LWPOLYLINE
5
D4
330
C1
100
AcDbEntity
8
0
100
AcDbPolyline
90
97
70
0
43
0
38
0
39
0
10
377.6762306153491
20
-349.60955244702654
10
377.67623061534897
20
-348.93312544873356
10
377.6762306153491
20
-348.2566984504406
10
377.67623061534897
20
-347.58027145214766
10
377.6762306153491
20
-346.9038444538547
10
377.6762306153492
20
-346.2274174555617
10
377.6762306153491
20
-345.5509904572687
10
377.6762306153491
20
-344.87456345897573
10
377.6762306153492
20
-344.1981364606828
10
377.67623061534897
20
-343.5217094623899
10
377.6762306153491
20
-342.84528246409684
10
377.6762306153491
20
-342.16885546580386
10
377.6762306153491
20
-341.4924284675109
10
377.6762306153491
20
-340.8160014692179
10
377.6762306153491
20
-340.13957447092497
10
377.6762306153491
20
-339.463147472632
10
377.67623061534897
20
-338.786720474339
10
377.6762306153491
20
-338.110293476046
10
377.6762306153491
20
-337.43386647775304
10
377.6762306153492
20
-336.75743947946006
10
377.6762306153492
20
-336.08101248116714
10
377.6762306153492
20
-335.40458548287415
10
377.67623061534897
20
-334.7281584845812
10
377.6762306153491
20
-334.0517314862882
10
377.6762306153491
20
-333.3753044879952
10
377.6762306153492
20
-332.6988774897023
10
377.6762306153491
20
-332.0224504914093
10
377.6762306153492
20
-331.3460234931163
10
377.6762306153491
20
-330.66959649482334
10
377.6762306153491
20
-329.99316949653036
10
377.6762306153491
20
-329.3167424982374
10
377.6762306153491
20
-328.64031549994445
10
377.67623061534897
20
-327.96388850165147
10
377.67623061534897
20
-327.2874615033585
10
377.67623061534897
20
-326.6110345050655
10
377.6762306153491
20
-325.9346075067725
10
377.6762306153491
20
-325.2581805084796
10
377.6762306153491
20
-324.5817535101866
10
377.6762306153491
20
-323.90532651189363
10
377.67623061534897
20
-323.22889951360065
10
377.67623061534897
20
-322.5524725153076
10
377.67623061534897
20
-321.8760455170147
10
377.6762306153491
20
-321.19961851872176
10
377.6762306153491
20
-320.5231915204288
10
377.6762306153491
20
-319.8467645221358
10
377.6762306153491
20
-319.1703375238428
10
377.6762306153491
20
-318.49391052554984
10
377.6762306153491
20
-317.8174835272569
10
377.6762306153491
20
-317.14105652896393
10
377.6762306153491
20
-316.46462953067095
10
377.67623061534897
20
-315.78820253237797
10
377.6762306153491
20
-315.1117755340849
10
377.6762306153491
20
-314.435348535792
10
377.6762306153491
20
-313.7589215374991
10
377.6762306153491
20
-313.0824945392061
10
377.6762306153491
20
-312.4060675409131
10
377.6762306153491
20
-311.72964054262013
10
377.6762306153492
20
-311.05321354432715
10
377.6762306153492
20
-310.37678654603417
10
377.6762306153491
20
-309.70035954774124
10
377.6762306153491
20
-309.02393254944826
10
377.6762306153491
20
-308.3475055511553
10
377.6762306153491
20
-307.6710785528623
10
377.6762306153491
20
-306.9946515545693
10
377.6762306153491
20
-306.3182245562764
10
377.6762306153491
20
-305.6417975579834
10
377.6762306153491
20
-304.9653705596904
10
377.6762306153492
20
-304.28894356139745
10
377.6762306153491
20
-303.61251656310446
10
377.6762306153492
20
-302.9360895648115
10
377.6762306153491
20
-302.25966256651856
10
377.6762306153491
20
-301.5832355682256
10
377.6762306153491
20
-300.9068085699326
10
377.6762306153491
20
-300.2303815716396
10
377.6762306153491
20
-299.55395457334663
10
377.6762306153491
20
-298.8775275750537
10
377.6762306153491
20
-298.2011005767607
10
377.6762306153491
20
-297.52467357846774
10
377.6762306153491
20
-296.84824658017476
10
377.6762306153491
20
-296.1718195818818
10
377.6762306153491
20
-295.4953925835888
10
377.6762306153491
20
-294.81896558529587
10
377.6762306153491
20
-294.1425385870029
10
377.6762306153491
20
-293.4661115887099
10
377.6762306153491
20
-292.78968459041704
10
377.6762306153491
20
-292.11325759212394
10
377.6762306153491
20
-291.436830593831
10
377.6762306153491
20
-290.76040359553804
10
377.6762306153491
20
-290.08397659724506
10
377.6762306153491
20
-289.4075495989521
10
377.6762306153491
20
-288.7311226006591
10
377.6762306153491
20
-288.0546956023661
10
377.6762306153491
20
-287.3782686040732
10
377.6762306153491
20
-286.7018416057802
10
377.6762306153491
20
-286.0254146074872
10
377.67623061534897
20
-285.34898760919424
10
377.6762306153491
20
-284.830776885802
0
LWPOLYLINE
5
D5
330
C1
100
AcDbEntity
8
0
100
AcDbPolyline
90
5
70
0
43
0
38
0
39
0
10
408.9001008565527
20
-643.9458702795406
10
414.9879438411894
20
-643.9458702795406
10
414.9879438411894
20
-642.2548027838083
10
408.9001008565527
20
-642.2548027838083
10
408.9001008565527
20
-643.9458702795406
0
LWPOLYLINE
5
D6
330
C1
100
AcDbEntity
8
0
100
AcDbPolyline
90
5
70
0
43
0
38
0
39
0
10
408.9001008565527
20
-593.2138454075678
10
414.9879438411894
20
-593.2138454075678
10
414.9879438411894
20
-594.9049129033002
10
408.9001008565527
20
-594.9049129033002
10
408.9001008565527
20
-593.2138454075678
0
LWPOLYLINE
5
D7
330
C1
100
AcDbEntity
8
0
100
AcDbPolyline
90
111
70
0
43
0
38
0
39
0
10
360.89211514940536
20
-642.2548027838083
10
360.8970182520215
20
-641.5783993733751
10
360.91117279452664
20
-640.902127350296
10
360.93490342182787
20
-640.2261228290757
10
360.9682142646581
20
-639.5505234984207
10
361.0108713765906
20
-638.8754490384209
10
361.06336480983936
20
-638.2010679523315
10
361.1252901251011
20
-637.5274887093057
10
361.1966905363408
20
-636.8548466560619
10
361.277911158308
20
-636.1833199314011
10
361.36854776585204
20
-635.5130000643926
10
361.4687122437322
20
-634.8440364032499
10
361.57863775821835
20
-634.1766077049575
10
361.69797577023763
20
-633.5107983680559
10
361.8267821518985
20
-632.8467544867169
10
361.9653351537417
20
-632.1846759075289
10
362.1132628239853
20
-631.5246297584691
10
362.2705495776616
20
-630.8667498781522
10
362.437505201658
20
-630.2112567600884
10
362.61381507195784
20
-629.5582188775477
10
362.7994035234488
20
-628.9077567548942
10
362.9943803634878
20
-628.2600458534957
10
363.1987763392668
20
-627.6152460743807
10
363.41234150746476
20
-626.973425678351
10
363.6350371086896
20
-626.3347148927465
10
363.86705016565344
20
-625.6993288553109
10
364.10818872836757
20
-625.0673508422976
10
364.35831368956354
20
-624.4388756137007
10
364.6173751966035
20
-623.8140298006713
10
364.88556081014525
20
-623.19304505304
10
365.16261867326835
20
-622.5759689332458
10
365.4484391524774
20
-621.9629026239714
10
365.7429628731339
20
-621.3539684795935
10
366.046320391401
20
-620.7493860993278
10
366.3583238377152
20
-620.149221026182
10
366.67883116703086
20
-619.5535544380923
10
367.00777492513913
20
-618.9625040582223
10
367.3451880203367
20
-618.3762463463321
10
367.69103571108684
20
-617.7949252105302
10
368.04509898910527
20
-617.2185720685674
10
368.407303564365
20
-616.647299910511
10
368.77757356626836
20
-616.0812205744135
10
369.15604145376216
20
-615.5205888788852
10
369.5424264740254
20
-614.9653854580855
10
369.9366336123002
20
-614.41570874339
10
370.33858138211787
20
-613.8716659325128
10
370.7482518629326
20
-613.3334132578119
10
371.1656362070592
20
-612.8011205138798
10
371.590502697585
20
-612.274781809236
10
372.0227649122024
20
-611.7544998688215
10
372.46233524839516
20
-611.2403763288427
10
372.90923778594714
20
-610.7326126049612
10
373.36334546016354
20
-610.2312833265116
10
373.82448581857665
20
-609.7364162380807
10
374.29256683134207
20
-609.2481086807309
10
374.76749538041355
20
-608.7664569264062
10
375.24932200380584
20
-608.291705394305
10
375.7378363744297
20
-607.8238397868521
10
376.23290700297974
20
-607.3629180062695
10
376.7344365193987
20
-606.9090320560803
10
377.2423318860435
20
-606.4622790695657
10
377.7566500937058
20
-606.0229356432816
10
378.2771233181102
20
-605.5909034156415
10
378.80364989069363
20
-605.1662699632968
10
379.3361270531006
20
-604.7491216825262
10
379.8745007400817
20
-604.3396102449501
10
380.4187221430546
20
-603.9379035217354
10
380.9685739057798
20
-603.5439403840043
10
381.5239487929213
20
-603.1578022904333
10
382.0847384396529
20
-602.7795693355195
10
382.65093753649256
20
-602.4094823699558
10
383.222371416664
20
-602.0475323819367
10
383.79888255084205
20
-601.6937265073344
10
384.3803579057724
20
-601.3481390033244
10
384.96671631241185
20
-601.0109008953445
10
385.55791452388365
20
-600.6822218856823
10
386.1537250498657
20
-600.3619819927467
10
386.7540301200551
20
-600.0502486316229
10
387.3587108319621
20
-599.7470872739357
10
387.96777108468524
20
-599.4528233080837
10
388.58096664472185
20
-599.1672797701716
10
389.1981678941798
20
-598.8905013349885
10
389.81925137342665
20
-598.6225450372729
10
390.4441977081754
20
-598.3637253166097
10
391.0727868273996
20
-598.1138861627651
10
391.70487442180405
20
-597.8730356973034
10
392.34033290783583
20
-597.6412210361389
10
392.9791441635503
20
-597.418812124205
10
393.62106239627946
20
-597.2055408554639
10
394.26595551332576
20
-597.0014408317445
10
394.9137261155409
20
-596.8066623978048
10
395.5642739654316
20
-596.6213731568141
10
396.2173929423737
20
-596.4453643489182
10
396.8729502379052
20
-596.2786619563444
10
397.5308906714253
20
-596.1216276338664
10
398.1910053264432
20
-595.9740055555684
10
398.85314760709804
20
-595.835759680762
10
399.5172312655748
20
-595.7071588566557
10
400.1830962017613
20
-595.5881303179051
10
400.8505755846359
20
-595.478515551317
10
401.519570286656
20
-595.3785588955702
10
402.18993256579637
20
-595.2882349273214
10
402.861496694755
20
-595.2073279341945
10
403.53416088729415
20
-595.1361371029403
10
404.2077691239161
20
-595.0745268131685
10
404.882170715473
20
-595.0223006196418
10
405.557261694243
20
-594.9799027650131
10
406.23287642886925
20
-594.946908494377
10
406.90888837229676
20
-594.9233891189481
10
407.5851672500308
20
-594.9095516653663
10
408.2420050299134
20
-594.9049129033002
0
LWPOLYLINE
5
D8
330
C1
100
AcDbEntity
8
0
100
AcDbPolyline
90
2
70
0
43
0
38
0
39
0
10
360.57216517921273
20
-642.2548027838083
10
408.5618873574062
20
-642.2548027838083
0
LWPOLYLINE
5
D9
330
C1
100
AcDbEntity
8
0
100
AcDbPolyline
90
5
70
0
43
0
38
0
39
0
10
414.9879438411894
20
-298.2916741518322
10
408.9001008565527
20
-298.2916741518322
10
408.9001008565527
20
-299.9827416475646
10
414.9879438411894
20
-299.9827416475646
10
414.9879438411894
20
-298.2916741518322
0
LWPOLYLINE
5
DA
330
C1
100
AcDbEntity
8
0
100
AcDbPolyline
90
5
70
0
43
0
38
0
39
0
10
414.9879438411894
20
-349.023699023805
10
408.9001008565527
20
-349.023699023805
10
408.9001008565527
20
-347.3326315280726
10
414.9879438411894
20
-347.3326315280726
10
414.9879438411894
20
-349.023699023805
0
LWPOLYLINE
5
DB
330
C1
100
AcDbEntity
8
0
100
AcDbPolyline
90
6
70
0
43
0
38
0
39
0
10
412.95866284631046
20
-276.30779670731056
10
412.95866284631046
20
-323.6576865878186
10
410.9293818514315
20
-323.6576865878186
10
410.9293818514315
20
-276.30779670731056
10
412.95866284631046
20
-276.30779670731056
10
412.95866284631046
20
-276.30779670731056
0
ENDBLK
5
C3
100
AcDbEntity
8
0
100
AcDbBlockEnd
0
BLOCK
5
DE
330
DD
100
AcDbEntity
8
0
100
AcDbBlockBegin
2
Window-1
70
0
10
0
20
0
30
0
3
Window-1
1

0
LWPOLYLINE
5
E0
330
DD
100
AcDbEntity
8
0
100
AcDbPolyline
90
6
70
0
43
0
38
0
39
0
10
207.142220075708
20
-271.640450419089
10
132.73525026348113
20
-271.640450419089
10
132.73525026348113
20
-284.4925633866555
10
207.142220075708
20
-284.4925633866555
10
207.142220075708
20
-271.640450419089
10
207.142220075708
20
-271.640450419089
0
LWPOLYLINE
5
E1
330
DD
100
AcDbEntity
8
0
100
AcDbPolyline
90
2
70
0
43
0
38
0
39
0
10
207.142220075708
20
-278.0665069028723
10
132.73525026348113
20
-278.0665069028723
0
ENDBLK
5
DF
100
AcDbEntity
8
0
100
AcDbBlockEnd
0
BLOCK
5
E4
330
E3
100
AcDbEntity
8
0
100
AcDbBlockBegin
2
Window-2
70
0
10
0
20
0
30
0
3
Window-2
1

0
LWPOLYLINE
5
E6
330
E3
100
AcDbEntity
8
0
100
AcDbPolyline
90
6
70
0
43
0
38
0
39
0
10
488.70495811515747
20
-271.640450419089
10
434.5907982517197
20
-271.640450419089
10
434.5907982517197
20
-284.4925633866555
10
488.70495811515747
20
-284.4925633866555
10
488.70495811515747
20
-271.640450419089
10
488.70495811515747
20
-271.640450419089
0
LWPOLYLINE
5
E7
330
E3
100
AcDbEntity
8
0
100
AcDbPolyline
90
2
70
0
43
0
38
0
39
0
10
488.70495811515747
20
-278.0665069028723
10
434.5907982517197
20
-278.0665069028723
0
ENDBLK
5
E5
100
AcDbEntity
8
0
100
AcDbBlockEnd
0
ENDSEC
0
SECTION
2
ENTITIES
0
INSERT
5
22
330
C
100
AcDbEntity
8
surface
100
AcDbBlockReference
2
surface-1
10
0
20
0
41
1
42
1
43
1
50
0
66
0
70
1
71
1
44
0
45
0
0
INSERT
5
29
330
C
100
AcDbEntity
8
object
100
AcDbBlockReference
2
Kitchen_bench-1
10
0
20
0
41
1
42
1
43
1
50
0
66
0
70
1
71
1
44
0
45
0
0
INSERT
5
30
330
C
100
AcDbEntity
8
object
100
AcDbBlockReference
2
shower_cabin-1
10
0
20
0
41
1
42
1
43
1
50
0
66
0
70
1
71
1
44
0
45
0
0
INSERT
5
38
330
C
100
AcDbEntity
8
object
100
AcDbBlockReference
2
Refrigator-1
10
0
20
0
41
1
42
1
43
1
50
0
66
0
70
1
71
1
44
0
45
0
0
INSERT
5
42
330
C
100
AcDbEntity
8
object
100
AcDbBlockReference
2
Wahsing_machine-1
10
0
20
0
41
1
42
1
43
1
50
0
66
0
70
1
71
1
44
0
45
0
0
INSERT
5
4D
330
C
100
AcDbEntity
8
object
100
AcDbBlockReference
2
Induction_cooker_4-1
10
0
20
0
41
1
42
1
43
1
50
0
66
0
70
1
71
1
44
0
45
0
0
INSERT
5
57
330
C
100
AcDbEntity
8
object
100
AcDbBlockReference
2
Washstand-1
10
0
20
0
41
1
42
1
43
1
50
0
66
0
70
1
71
1
44
0
45
0
0
INSERT
5
5D
330
C
100
AcDbEntity
8
object
100
AcDbBlockReference
2
Warderobe_2_door-1
10
0
20
0
41
1
42
1
43
1
50
0
66
0
70
1
71
1
44
0
45
0
0
INSERT
5
63
330
C
100
AcDbEntity
8
object
100
AcDbBlockReference
2
Warderobe_2_door-2
10
0
20
0
41
1
42
1
43
1
50
0
66
0
70
1
71
1
44
0
45
0
0
INSERT
5
75
330
C
100
AcDbEntity
8
object
100
AcDbBlockReference
2
Sink_with_dryer_plate-1
10
0
20
0
41
1
42
1
43
1
50
0
66
0
70
1
71
1
44
0
45
0
0
INSERT
5
7B
330
C
100
AcDbEntity
8
object
100
AcDbBlockReference
2
TV-1
10
0
20
0
41
1
42
1
43
1
50
0
66
0
70
1
71
1
44
0
45
0
0
INSERT
5
81
330
C
100
AcDbEntity
8
object
100
AcDbBlockReference
2
Warderobe_2_door-3
10
0
20
0
41
1
42
1
43
1
50
0
66
0
70
1
71
1
44
0
45
0
0
INSERT
5
8A
330
C
100
AcDbEntity
8
object
100
AcDbBlockReference
2
WC_tank-1
10
0
20
0
41
1
42
1
43
1
50
0
66
0
70
1
71
1
44
0
45
0
0
INSERT
5
8F
330
C
100
AcDbEntity
8
object
100
AcDbBlockReference
2
Coffee_table-1
10
0
20
0
41
1
42
1
43
1
50
0
66
0
70
1
71
1
44
0
45
0
0
INSERT
5
A2
330
C
100
AcDbEntity
8
object
100
AcDbBlockReference
2
Three_seater_sofa-1
10
0
20
0
41
1
42
1
43
1
50
0
66
0
70
1
71
1
44
0
45
0
0
INSERT
5
AA
330
C
100
AcDbEntity
8
object
100
AcDbBlockReference
2
Double_bed-1
10
0
20
0
41
1
42
1
43
1
50
0
66
0
70
1
71
1
44
0
45
0
0
INSERT
5
B7
330
C
100
AcDbEntity
8
object
100
AcDbBlockReference
2
Table_with_four_chairs-1
10
0
20
0
41
1
42
1
43
1
50
0
66
0
70
1
71
1
44
0
45
0
0
INSERT
5
BF
330
C
100
AcDbEntity
8
wall
100
AcDbBlockReference
2
wall-1
10
0
20
0
41
1
42
1
43
1
50
0
66
0
70
1
71
1
44
0
45
0
0
INSERT
5
DC
330
C
100
AcDbEntity
8
window-door
100
AcDbBlockReference
2
window-door-1
10
0
20
0
41
1
42
1
43
1
50
0
66
0
70
1
71
1
44
0
45
0
0
INSERT
5
E2
330
C
100
AcDbEntity
8
window-door
100
AcDbBlockReference
2
Window-1
10
0
20
0
41
1
42
1
43
1
50
0
66
0
70
1
71
1
44
0
45
0
0
INSERT
5
E8
330
C
100
AcDbEntity
8
window-door
100
AcDbBlockReference
2
Window-2
10
0
20
0
41
1
42
1
43
1
50
0
66
0
70
1
71
1
44
0
45
0
0
ENDSEC
0
SECTION
2
OBJECTS
0
DICTIONARY
5
A
330
0
100
AcDbDictionary
281
1
3
ACAD_GROUP
350
B
0
DICTIONARY
5
B
330
A
100
AcDbDictionary
281
0
0
ENDSEC
0
EOF