0
SECTION
2
HEADER
9
$ACADVER
1
AC1021
9
$HANDSEED
5
6D
9
$INSUNITS
70
0
9
$CLAYER
8
0
9
$VIEWCTR
10
0
20
0
0
ENDSEC
0
SECTION
2
CLASSES
0
ENDSEC
0
SECTION
2
TABLES
0
TABLE
2
VPORT
5
1
330
0
100
AcDbSymbolTable
70
1
0
VPORT
5
19
330
1
100
AcDbSymbolTableRecord
100
AcDbViewportTableRecord
2
*Active
70
0
10
0
20
0
11
1
21
1
12
0
22
0
13
0
23
0
14
10
24
10
15
10
25
10
16
0
26
0
36
1
17
0
27
0
37
0
40
200
41
2
42
50
43
0
44
0
50
0
51
0
71
0
72
100
73
1
74
3
75
0
76
1
77
0
78
0
281
0
65
1
110
0
120
0
130
0
111
1
121
0
131
0
112
0
122
1
132
0
79
0
146
0
348
10020
60
7
61
5
292
1
282
1
141
0
142
0
63
250
421
3358443
0
ENDTAB
0
TABLE
2
LTYPE
5
2
330
0
100
AcDbSymbolTable
70
3
0
LTYPE
5
12
330
2
100
AcDbSymbolTableRecord
100
AcDbLinetypeTableRecord
2
ByBlock
70
0
3

72
65
73
0
40
0
0
LTYPE
5
13
330
2
100
AcDbSymbolTableRecord
100
AcDbLinetypeTableRecord
2
ByLayer
70
0
3

72
65
73
0
40
0
0
LTYPE
5
14
330
2
100
AcDbSymbolTableRecord
100
AcDbLinetypeTableRecord
2
Continuous
70
0
3
Solid line
72
65
73
0
40
0
0
ENDTAB
0
TABLE
2
LAYER
5
3
330
0
100
AcDbSymbolTable
70
5
0
LAYER
5
15
330
3
100
AcDbSymbolTableRecord
100
AcDbLayerTableRecord
2
0
62
7
70
0
6
Continuous
390
1
0
LAYER
5
1A
330
3
100
AcDbSymbolTableRecord
100
AcDbLayerTableRecord
2
surface
62
7
70
0
6
Continuous
390
1
0
LAYER
5
24
330
3
100
AcDbSymbolTableRecord
100
AcDbLayerTableRecord
2
object
62
7
70
0
6
Continuous
390
1
0
LAYER
5
2A
330
3
100
AcDbSymbolTableRecord
100
AcDbLayerTableRecord
2
wall
62
7
70
0
6
Continuous
390
1
0
LAYER
5
31
330
3
100
AcDbSymbolTableRecord
100
AcDbLayerTableRecord
2
window-door
62
7
70
0
6
Continuous
390
1
0
ENDTAB
0
TABLE
2
STYLE
5
4
330
0
100
AcDbSymbolTable
70
1
0
STYLE
5
16
330
4
100
AcDbSymbolTableRecord
100
AcDbTextStyleTableRecord
2
Standard
70
0
40
0
41
1
50
0
71
0
42
1
3
txt
4

0
ENDTAB
0
TABLE
2
VIEW
5
5
330
0
100
AcDbSymbolTable
70
0
0
ENDTAB
0
TABLE
2
UCS
5
6
330
0
100
AcDbSymbolTable
70
0
0
ENDTAB
0
TABLE
2
APPID
5
7
330
0
100
AcDbSymbolTable
70
1
0
APPID
5
17
330
7
100
AcDbSymbolTableRecord
100
AcDbRegAppTableRecord
2
ACAD
70
0
0
ENDTAB
0
TABLE
2
DIMSTYLE
5
8
330
0
100
AcDbSymbolTable
70
1
100
AcDbDimStyleTable
0
DIMSTYLE
105
18
330
8
100
AcDbSymbolTableRecord
100
AcDbDimStyleTableRecord
2
Standard
70
0
340
16
0
ENDTAB
0
TABLE
2
BLOCK_RECORD
5
9
330
0
100
AcDbSymbolTable
70
11
0
BLOCK_RECORD
5
C
330
9
100
AcDbSymbolTableRecord
100
AcDbBlockTableRecord
2
*Model_Space
70
0
280
1
281
0
0
BLOCK_RECORD
5
F
330
9
100
AcDbSymbolTableRecord
100
AcDbBlockTableRecord
2
*Paper_Space
70
0
280
1
281
0
0
BLOCK_RECORD
5
1B
330
9
100
AcDbSymbolTableRecord
100
AcDbBlockTableRecord
2
surface-1
70
0
280
1
281
0
0
BLOCK_RECORD
5
25
330
9
100
AcDbSymbolTableRecord
100
AcDbBlockTableRecord
2
Kitchen_bench-1
70
0
280
1
281
0
0
BLOCK_RECORD
5
2B
330
9
100
AcDbSymbolTableRecord
100
AcDbBlockTableRecord
2
wall-1
70
0
280
1
281
0
0
BLOCK_RECORD
5
32
330
9
100
AcDbSymbolTableRecord
100
AcDbBlockTableRecord
2
Window-1
70
0
280
1
281
0
0
BLOCK_RECORD
5
38
330
9
100
AcDbSymbolTableRecord
100
AcDbBlockTableRecord
2
window-door-1
70
0
280
1
281
0
0
BLOCK_RECORD
5
54
330
9
100
AcDbSymbolTableRecord
100
AcDbBlockTableRecord
2
Window-2
70
0
280
1
281
0
0
BLOCK_RECORD
5
5A
330
9
100
AcDbSymbolTableRecord
100
AcDbBlockTableRecord
2
Double_Window-1
70
0
280
1
281
0
0
BLOCK_RECORD
5
61
330
9
100
AcDbSymbolTableRecord
100
AcDbBlockTableRecord
2
Window-3
70
0
280
1
281
0
0
BLOCK_RECORD
5
67
330
9
100
AcDbSymbolTableRecord
100
AcDbBlockTableRecord
2
Window-4
70
0
280
1
281
0
0
ENDTAB
0
ENDSEC
0
SECTION
2
BLOCKS
0
BLOCK
5
D
330
C
100
AcDbEntity
8
0
100
AcDbBlockBegin
2
*Model_Space
70
0
10
0
20
0
30
0
3
*Model_Space
1

0
ENDBLK
5
E
100
AcDbEntity
8
0
100
AcDbBlockEnd
0
BLOCK
5
10
330
F
100
AcDbEntity
8
0
100
AcDbBlockBegin
2
*Paper_Space
70
0
10
0
20
0
30
0
3
*Paper_Space
1

0
ENDBLK
5
11
100
AcDbEntity
8
0
100
AcDbBlockEnd
0
BLOCK
5
1C
330
1B
100
AcDbEntity
8
0
100
AcDbBlockBegin
2
surface-1
70
0
10
0
20
0
30
0
3
surface-1
1

0
LWPOLYLINE
5
1E
330
1B
100
AcDbEntity
8
0
100
AcDbPolyline
90
12
70
0
43
0
38
0
39
0
10
278.81337479626484
20
-247.84831829418488
10
373.8615418762935
20
-247.84831829418488
10
436.917886865971
20
-174.59168220323593
10
512.956420529994
20
-174.59168220323593
10
512.956420529994
20
-730.5075472225255
10
431.8177413153354
20
-730.5075472225255
10
384.52548257307717
20
-673.9422965700207
10
384.52548257307717
20
-592.3399677598497
10
435.0632884839217
20
-539.0202642759311
10
435.0632884839217
20
-485.23691119650033
10
278.81337479626484
20
-485.23691119650033
10
278.81337479626484
20
-247.84831829418488
0
LWPOLYLINE
5
1F
330
1B
100
AcDbEntity
8
0
100
AcDbPolyline
90
6
70
0
43
0
38
0
39
0
10
431.8177413153354
20
-730.5075472225255
10
431.8177413153354
20
-877.0208194044235
10
278.81337479626484
20
-877.0208194044235
10
278.81337479626484
20
-673.9422965700207
10
384.52548257307717
20
-673.9422965700207
10
431.8177413153354
20
-730.5075472225255
0
LWPOLYLINE
5
20
330
1B
100
AcDbEntity
8
0
100
AcDbPolyline
90
6
70
0
43
0
38
0
39
0
10
435.0632884839217
20
-539.0202642759311
10
384.52548257307717
20
-592.3399677598497
10
278.81337479626484
20
-592.3399677598497
10
278.81337479626484
20
-485.23691119650033
10
435.0632884839217
20
-485.23691119650033
10
435.0632884839217
20
-539.0202642759311
0
LWPOLYLINE
5
21
330
1B
100
AcDbEntity
8
0
100
AcDbPolyline
90
5
70
0
43
0
38
0
39
0
10
278.81337479626484
20
-673.9422965700207
10
384.52548257307717
20
-673.9422965700207
10
384.52548257307717
20
-592.3399677598497
10
278.81337479626484
20
-592.3399677598497
10
278.81337479626484
20
-673.9422965700207
0
LWPOLYLINE
5
22
330
1B
100
AcDbEntity
8
0
100
AcDbPolyline
90
5
70
0
43
0
38
0
39
0
10
431.8177413153354
20
-834.8287062128009
10
512.956420529994
20
-834.8287062128009
10
512.956420529994
20
-730.5075472225255
10
431.8177413153354
20
-730.5075472225255
10
431.8177413153354
20
-834.8287062128009
0
ENDBLK
5
1D
100
AcDbEntity
8
0
100
AcDbBlockEnd
0
BLOCK
5
26
330
25
100
AcDbEntity
8
0
100
AcDbBlockBegin
2
Kitchen_bench-1
70
0
10
0
20
0
30
0
3
Kitchen_bench-1
1

0
LWPOLYLINE
5
28
330
25
100
AcDbEntity
8
0
100
AcDbPolyline
90
7
70
0
43
0
38
0
39
0
10
311.18627048916755
20
-454.8858522947483
10
339.00524621990763
20
-454.8858522947483
10
339.00524621990763
20
-482.70482802548844
10
283.3672947584274
20
-482.70482802548844
10
283.3672947584274
20
-427.0668765640082
10
311.18627048916755
20
-427.0668765640082
10
311.18627048916755
20
-454.8858522947483
0
ENDBLK
5
27
100
AcDbEntity
8
0
100
AcDbBlockEnd
0
BLOCK
5
2C
330
2B
100
AcDbEntity
8
0
100
AcDbBlockBegin
2
wall-1
70
0
10
0
20
0
30
0
3
wall-1
1

0
LWPOLYLINE
5
2E
330
2B
100
AcDbEntity
8
0
100
AcDbPolyline
90
52
70
0
43
0
38
0
39
0
10
283.4924801492158
20
-243.04435210516243
10
371.7775296743846
20
-243.04435210516243
10
380.3526362134662
20
-233.0115312377901
10
387.3073801461512
20
-239.03897597945047
10
376.0307728738575
20
-252.3173440154091
10
283.4924801492158
20
-252.3173440154091
10
283.4924801492158
20
-482.7511929850396
10
437.424145859311
20
-482.7511929850396
10
437.424145859311
20
-539.7768940508479
10
424.399347787138
20
-553.3934017368135
10
421.1538006185516
20
-550.1478545682273
10
432.78764990418756
20
-537.9286940332165
10
432.78764990418756
20
-487.38768894016295
10
283.4924801492158
20
-487.38768894016295
10
283.4924801492158
20
-589.8542495483889
10
383.57129170551286
20
-589.8542495483889
10
403.07146639357063
20
-569.6211375797454
10
406.31701356215694
20
-572.8666847483316
10
386.88633994846646
20
-593.0965975347663
10
386.88633994846646
20
-614.6687759002091
10
382.2498439933431
20
-614.6687759002091
10
382.2498439933431
20
-594.4907455035122
10
283.4924801492158
20
-594.4907455035122
10
283.4924801492158
20
-671.4565783585599
10
382.2498439933431
20
-671.4565783585599
10
382.2498439933431
20
-651.2970939456836
10
386.88633994846646
20
-651.2970939456836
10
386.88633994846646
20
-672.9333950501859
10
406.7806631576693
20
-696.661126750125
10
403.07146639357063
20
-699.9066739187115
10
383.48454286619244
20
-676.0930743136832
10
283.4924801492158
20
-676.0930743136832
10
283.4924801492158
20
-872.216853215401
10
427.2238547580396
20
-872.216853215401
10
427.2238547580396
20
-834.6612359789019
10
429.54210273560125
20
-834.6612359789019
10
429.54210273560125
20
-731.1815082745622
10
421.1538006185516
20
-721.2345553122789
10
424.8629973826503
20
-717.9890081436924
10
432.94389981787526
20
-728.0218290110647
10
438.8290041337133
20
-728.0218290110647
10
438.8290041337133
20
-732.658324966188
10
434.1785986907246
20
-732.658324966188
10
434.1785986907246
20
-830.0247400237786
10
442.16728122140216
20
-830.0247400237786
10
442.16728122140216
20
-839.2977319340253
10
436.49684666828625
20
-839.2977319340253
10
436.49684666828625
20
-881.4898451256479
10
274.21948823896906
20
-881.4898451256479
10
274.21948823896906
20
-190.1882982167562
10
283.4924801492158
20
-190.1882982167562
10
283.4924801492158
20
-243.04435210516243
0
LWPOLYLINE
5
2F
330
2B
100
AcDbEntity
8
0
100
AcDbPolyline
90
15
70
0
43
0
38
0
39
0
10
517.6355258829449
20
-839.2977319340253
10
483.43209522199993
20
-839.2977319340253
10
483.43209522199993
20
-830.0247400237786
10
508.3625339726982
20
-830.0247400237786
10
508.3625339726982
20
-732.658324966188
10
475.4573221791878
20
-732.658324966188
10
475.4573221791878
20
-728.0218290110647
10
508.3625339726982
20
-728.0218290110647
10
508.3625339726982
20
-179.0607079244602
10
439.087117863535
20
-179.0607079244602
10
407.70796234869397
20
-215.3928466083214
10
400.75321841600896
20
-209.36540186666105
10
434.83387466406214
20
-169.7877160142135
10
517.6355258829449
20
-169.7877160142135
10
517.6355258829449
20
-839.2977319340253
0
ENDBLK
5
2D
100
AcDbEntity
8
0
100
AcDbBlockEnd
0
BLOCK
5
33
330
32
100
AcDbEntity
8
0
100
AcDbBlockBegin
2
Window-1
70
0
10
0
20
0
30
0
3
Window-1
1

0
LWPOLYLINE
5
35
330
32
100
AcDbEntity
8
0
100
AcDbPolyline
90
6
70
0
43
0
38
0
39
0
10
495.56116864060266
20
-170.01954081196965
10
458.46920099961585
20
-170.01954081196965
10
458.46920099961585
20
-178.82888312670403
10
495.56116864060266
20
-178.82888312670403
10
495.56116864060266
20
-170.01954081196965
10
495.56116864060266
20
-170.01954081196965
0
LWPOLYLINE
5
36
330
32
100
AcDbEntity
8
0
100
AcDbPolyline
90
2
70
0
43
0
38
0
39
0
10
495.56116864060266
20
-174.42421196933685
10
458.46920099961585
20
-174.42421196933685
0
ENDBLK
5
34
100
AcDbEntity
8
0
100
AcDbBlockEnd
0
BLOCK
5
39
330
38
100
AcDbEntity
8
0
100
AcDbBlockBegin
2
window-door-1
70
0
10
0
20
0
30
0
3
window-door-1
1

0
LWPOLYLINE
5
3B
330
38
100
AcDbEntity
8
0
100
AcDbPolyline
90
5
70
0
43
0
38
0
39
0
10
425.1512483361804
20
-552.3883948735811
10
422.1226428133342
20
-549.5178011328856
10
421.3252582389721
20
-550.3590933239427
10
424.35386376181816
20
-553.2296406996786
10
425.1512483361804
20
-552.3883948735811
0
LWPOLYLINE
5
3C
330
38
100
AcDbEntity
8
0
100
AcDbPolyline
90
5
70
0
43
0
38
0
39
0
10
405.09223679065155
20
-573.5515415658629
10
402.06363126780536
20
-570.6809478251676
10
402.8610158421676
20
-569.8397019990698
10
405.8896213650137
20
-572.7102493748059
10
405.09223679065155
20
-573.5515415658629
0
LWPOLYLINE
5
3D
330
38
100
AcDbEntity
8
0
100
AcDbPolyline
90
91
70
0
43
0
38
0
39
0
10
443.69088015721525
20
-571.8420655072089
10
443.3690080141049
20
-572.1757779088512
10
443.04145193656166
20
-572.503911978476
10
442.7082926347606
20
-572.8263550617385
10
442.3696147590198
20
-573.142997039685
10
442.0254888075697
20
-573.4537102245813
10
441.6759221235833
20
-573.7582892376086
10
441.3211132002634
20
-574.0567440474301
10
440.96116138374543
20
-574.3489758184312
10
440.5961400285653
20
-574.6348508894389
10
440.2260861963332
20
-574.9141807848202
10
439.851207846943
20
-575.1870008653807
10
439.4716161295836
20
-575.4532246685651
10
439.087323979697
20
-575.7126173845236
10
438.6985241344415
20
-575.9652026357846
10
438.3053622746884
20
-576.2109435188074
10
437.907877566773
20
-576.44962915252
10
437.50623307598266
20
-576.6812460159674
10
437.1005971990528
20
-576.9057997936425
10
436.6910100398327
20
-577.123062940062
10
436.2776543947832
20
-577.3330671608446
10
435.86069268853873
20
-577.5358182212285
10
435.4401507223074
20
-577.7310348119981
10
435.0162602896229
20
-577.918868751377
10
434.58913263854276
20
-578.0992208573375
10
434.15885403666005
20
-578.271920708373
10
433.7256361318723
20
-578.4371088496607
10
433.289548765935
20
-578.5945658313572
10
432.8507642362855
20
-578.744342012576
10
432.4094338528513
20
-578.8864423303482
10
431.9656384991757
20
-579.0206463608097
10
431.5195866219942
20
-579.1471479820436
10
431.0713629448154
20
-579.2657248020319
10
430.62113664642754
20
-579.3764547281305
10
430.16904862530043
20
-579.4793205594974
10
429.7152104989543
20
-579.5741675724962
10
429.2598051874103
20
-579.6611797622631
10
428.8029255531627
20
-579.7400853945167
10
428.3447505072986
20
-579.8110822024842
10
427.88540206212144
20
-579.8740418687139
10
427.42502225253884
20
-579.928954162352
10
426.9637622135481
20
-579.9759037120525
10
426.5017430691779
20
-580.0146778697326
10
426.0391263565075
20
-580.0455142009116
10
425.5760368088098
20
-580.0681666243142
10
425.11262507570837
20
-580.0828126289898
10
424.6490282601401
20
-580.0893639828555
10
424.18538775939123
20
-580.0878024931242
10
423.72184301028153
20
-580.0782433716358
10
423.25854039966646
20
-580.0604716836501
10
422.7956114576524
20
-580.0347448799725
10
422.33320972433967
20
-580.0008382021147
10
421.8714651004303
20
-579.9589239214458
10
421.41052301061984
20
-579.908950871634
10
420.95053049186606
20
-579.8508835393584
10
420.49160773083884
20
-579.7848904676127
10
420.0339353465232
20
-579.7107205572065
10
419.5776110125006
20
-579.628665514663
10
419.1228066497198
20
-579.5385661695525
10
418.6696503284003
20
-579.4405142915259
10
418.2182695349252
20
-579.3345879747303
10
417.76884829536243
20
-579.220633750635
10
417.3214701363663
20
-579.0989058191396
10
416.87632492034083
20
-578.9692500038809
10
416.4335257206027
20
-578.8317959618996
10
415.99319362620713
20
-578.6866316713738
10
415.5555343952451
20
-578.5335976233998
10
415.1206077594326
20
-578.3729627019679
10
414.68859513685857
20
-578.2046476945752
10
414.259638017037
20
-578.0286916257098
10
413.8338190691484
20
-577.8452710255167
10
413.41135010349365
20
-577.6542608272111
10
412.9923142364471
20
-577.455833053998
10
412.5768135861646
20
-577.2501045623117
10
412.1650762892093
20
-577.0369440045617
10
411.75714883307285
20
-576.8165811429612
10
411.3531412976913
20
-576.5891105170372
10
410.9532739092873
20
-576.3544381799779
10
410.5575973923385
20
-576.1127675095381
10
410.16620872937744
20
-575.8642122770304
10
409.7792841939131
20
-575.6087627852232
10
409.3969421086306
20
-575.3465045957307
10
409.0192341212986
20
-575.0776156374579
10
408.64626936722595
20
-574.8021843319123
10
408.27824430059434
20
-574.5201864579769
10
407.91519887286915
20
-574.2318068017139
10
407.55720644508244
20
-573.9371781207128
10
407.20436321090585
20
-573.6364013459829
10
406.85679742302784
20
-573.3295406579593
10
406.514629163874
20
-573.0166729398225
10
406.3293930063571
20
-572.8428531591223
0
LWPOLYLINE
5
3E
330
38
100
AcDbEntity
8
0
100
AcDbPolyline
90
2
70
0
43
0
38
0
39
0
10
443.82047021916094
20
-571.9649326500198
10
424.3801526938838
20
-553.5388949798853
0
LWPOLYLINE
5
3F
330
38
100
AcDbEntity
8
0
100
AcDbPolyline
90
5
70
0
43
0
38
0
39
0
10
437.4380553471764
20
-732.4265001684321
10
437.4380553471764
20
-728.2536538088209
10
438.5971793359572
20
-728.2536538088209
10
438.5971793359572
20
-732.4265001684321
10
437.4380553471764
20
-732.4265001684321
0
LWPOLYLINE
5
40
330
38
100
AcDbEntity
8
0
100
AcDbPolyline
90
5
70
0
43
0
38
0
39
0
10
476.84827096572485
20
-732.4265001684321
10
476.84827096572485
20
-728.2536538088209
10
475.6891469769439
20
-728.2536538088209
10
475.6891469769439
20
-732.4265001684321
10
476.84827096572485
20
-732.4265001684321
0
LWPOLYLINE
5
41
330
38
100
AcDbEntity
8
0
100
AcDbPolyline
90
127
70
0
43
0
38
0
39
0
10
438.5971793359572
20
-770.0008952135495
10
439.0608164978436
20
-769.9979491029117
10
439.5243834523051
20
-769.9893958961666
10
439.98781287474094
20
-769.9752272219769
10
440.4510316663659
20
-769.9553228865113
10
440.9139629868089
20
-769.9295874880352
10
441.3765462553904
20
-769.8982164465103
10
441.83871323547464
20
-769.8612076900995
10
442.3003638407612
20
-769.818234770175
10
442.76145337289677
20
-769.7696152403184
10
443.22191386265797
20
-769.7153575566235
10
443.6816394457504
20
-769.6551898924329
10
444.14058269816474
20
-769.5893224127531
10
444.59868383633545
20
-769.5178307809472
10
445.0558268740806
20
-769.4404489803503
10
445.51197029894365
20
-769.3573790798848
10
445.9670593645169
20
-769.268712809489
10
446.4209591538504
20
-769.1741468223531
10
446.87365176881815
20
-769.0739628907777
10
447.3250734390341
20
-768.9681977485004
10
447.7750763454177
20
-768.8565501379328
10
448.2236728662439
20
-768.7393809338034
10
448.67075982590416
20
-768.6165769954457
10
449.1162352264065
20
-768.4880497456531
10
449.560098731135
20
-768.3540616449079
10
450.00219979737767
20
-768.2143683297697
10
450.4425174975471
20
-768.0691519566055
10
450.88100481272807
20
-767.9184981241735
10
451.3174948811078
20
-767.7621518106657
10
451.75203648324316
20
-767.6004695117044
10
452.1844789580259
20
-767.4332540269631
10
452.6147820563523
20
-767.2606076780239
10
453.0429249247336
20
-767.082671149315
10
453.46871768130745
20
-766.8991819003018
10
453.89223800992124
20
-766.710507169104
10
454.3133106016029
20
-766.5164313845089
10
454.7319256875712
20
-766.317110156853
10
455.14803635497015
20
-766.1126119655462
10
455.56148543211384
20
-765.9027845216981
10
455.97235172683236
20
-765.687943510763
10
456.3804059319316
20
-765.4678083818922
10
456.78572819493684
20
-765.2426829470321
10
457.18818466898426
20
-765.0124737059655
10
457.58771352073825
20
-764.7772199961203
10
457.984327984472
20
-764.5370853150696
10
458.3778185799273
20
-764.2918651372904
10
458.7683134337972
20
-764.0419020347897
10
459.1555630437582
20
-763.786940385859
10
459.53966504810467
20
-763.5272611728283
10
459.92047529672425
20
-763.2627785071613
10
460.29795055706234
20
-762.993557281965
10
460.6720923161538
20
-762.7197223207143
10
461.04271117826306
20
-762.4411376509454
10
461.40994695640757
20
-762.1581080056362
10
461.7734964701541
20
-761.8703587756277
10
462.1335430621092
20
-761.5782386416417
10
462.48986417259596
20
-761.2815858898898
10
462.8425019596589
20
-760.9805638844746
10
463.1913800517807
20
-760.6751925843719
10
463.53639328815586
20
-760.36546114725
10
463.8776177607356
20
-760.0515605096195
10
464.2147944893221
20
-759.7333158085496
10
464.5481229950244
20
-759.4110426935806
10
464.87729071178796
20
-759.0845210331338
10
465.2024751986703
20
-758.7540323678793
10
465.5234747562123
20
-758.4194776640113
10
465.84031236898954
20
-758.0809786405098
10
466.1529470702882
20
-757.7385941790315
10
466.4612386073129
20
-757.3922936695508
10
466.7653158019423
20
-757.0422867043278
10
467.0648657428794
20
-756.6883973099045
10
467.3601369175452
20
-756.3309301985464
10
467.650813486983
20
-755.9697171964738
10
467.9370596508354
20
-755.6049833171076
10
468.21870966245933
20
-755.2366888619713
10
468.4957446907292
20
-754.8649103819387
10
468.76819051385644
20
-754.4897558792095
10
469.0358323439609
20
-754.1111590076832
10
469.2988852092344
20
-753.7293592203387
10
469.55697193950755
20
-753.3441851118093
10
469.81036876315375
20
-752.9559097878889
10
470.05882235677996
20
-752.5644530715758
10
470.3023920161812
20
-752.1699389121698
10
470.54105264480165
20
-751.772435865829
10
470.77462898018064
20
-751.3719239769487
10
471.0033305018345
20
-750.9686083597667
10
471.226764909655
20
-750.5623511589563
10
471.4452353339226
20
-750.1534033656076
10
471.65849714622027
20
-749.7417154797508
10
471.86658413473845
20
-749.3273878744671
10
472.0695360482571
20
-748.9105207983894
10
472.2670936677397
20
-748.4910703236117
10
472.4595213096334
20
-748.0692418067094
10
472.64649523128935
20
-747.6449678830713
10
472.8281880586251
20
-747.2184057733793
10
473.00453577581493
20
-746.7896062486302
10
473.1753658351553
20
-746.3585787391262
10
473.3409077957118
20
-745.9254926463118
10
473.5008267287079
20
-745.4902989247792
10
473.6553292009745
20
-745.0531531070251
10
473.80436148992237
20
-744.6141121470616
10
473.94771806728454
20
-744.1731852441997
10
474.0856526021971
20
-743.7305322664199
10
474.21789492466576
20
-743.2861455873726
10
474.34454105136604
20
-742.8401318861129
10
474.4656982999054
20
-742.3925955434165
10
474.58097885282405
20
-741.9435095294848
10
474.6907281819043
20
-741.4930403025005
10
474.7948429133163
20
-741.0412352971925
10
474.8931202158502
20
-740.5881246759395
10
474.98582239126495
20
-740.1338408571601
10
475.07278856670166
20
-739.6784240329853
10
475.153942438483
20
-739.2219356780436
10
475.22948594970626
20
-738.7644854691637
10
475.2992468708279
20
-738.3061176613767
10
475.3631939447058
20
-737.846902754909
10
475.4215087790353
20
-737.3869387544828
10
475.47405583633713
20
-736.9262799805804
10
475.520755859529
20
-736.4649918430744
10
475.56181585019556
20
-736.0031677179786
10
475.5971906625832
20
-735.5408728995696
10
475.62664857145717
20
-735.0781633724459
10
475.65047334012604
20
-734.6151301114824
10
475.66866910676083
20
-734.151841129026
10
475.6810368392588
20
-733.6883598295622
10
475.6876932366896
20
-733.22476163938
10
475.6891469769439
20
-732.9089275725626
0
LWPOLYLINE
5
42
330
38
100
AcDbEntity
8
0
100
AcDbPolyline
90
2
70
0
43
0
38
0
39
0
10
438.5971793359572
20
-770.2515441848834
10
438.5971793359572
20
-732.658324966188
0
LWPOLYLINE
5
43
330
38
100
AcDbEntity
8
0
100
AcDbPolyline
90
5
70
0
43
0
38
0
39
0
10
379.70357314470846
20
-234.19147309340946
10
386.38022005000516
20
-239.93840982978486
10
387.13638617532627
20
-239.05993294116763
10
380.4597856349891
20
-233.31299620479228
10
379.70357314470846
20
-234.19147309340946
0
LWPOLYLINE
5
44
330
38
100
AcDbEntity
8
0
100
AcDbPolyline
90
5
70
0
43
0
38
0
39
0
10
401.87474042259373
20
-208.43383709935767
10
408.5513409629309
20
-214.18077383573308
10
407.7951748376098
20
-215.05929708930984
10
401.1185279323131
20
-209.31236035293443
10
401.87474042259373
20
-208.43383709935767
0
LWPOLYLINE
5
45
330
38
100
AcDbEntity
8
0
100
AcDbPolyline
90
108
70
0
43
0
38
0
39
0
10
356.27276264573527
20
-212.40202852750951
10
356.5778329635398
20
-212.0528878354927
10
356.8878343322856
20
-211.7081192756806
10
357.2027265041754
20
-211.36781077390646
10
357.5226522062885
20
-211.03222977194037
10
357.84738401390257
20
-210.7012986223673
10
358.17685386900996
20
-210.37508379619447
10
358.5111061070377
20
-210.05377017190932
10
358.8500605983553
20
-209.7374218519805
10
359.19357589886476
20
-209.4260324970876
10
359.54159170711443
20
-209.1196800052926
10
359.8941696300118
20
-208.81858891640832
10
360.2511333825413
20
-208.52271208621238
10
360.6123913768788
20
-208.23209424483713
10
360.9778739449273
20
-207.94680623184178
10
361.34759880239324
20
-207.66703745233832
10
361.72142661021314
20
-207.3927764139434
10
362.0992485402919
20
-207.12404497161157
10
362.48098722017596
20
-206.8609064051709
10
362.86657760820617
20
-206.60344353254686
10
363.2560052523694
20
-206.35182267380225
10
363.6490998095925
20
-206.105971361721
10
364.0457778114569
20
-205.86594517722892
10
364.4459544315233
20
-205.63179780062342
10
364.8495435789498
20
-205.40358102087185
10
365.2565285128318
20
-205.18147653164812
10
365.66674676875334
20
-204.9654038986995
10
366.0801065091033
20
-204.75540442464904
10
366.49651769109687
20
-204.55152251149372
10
366.9158894168129
20
-204.35380077909235
10
367.3381360604784
20
-204.1622937162852
10
367.7632056678059
20
-203.97713719862963
10
368.190953629276
20
-203.79825698156816
10
368.62128649679016
20
-203.6256888901858
10
369.05411028192725
20
-203.45946713074937
10
369.48933050906294
20
-203.29962432536644
10
369.92685226461674
20
-203.1461915470813
10
370.3665996033636
20
-202.99925782556272
10
370.80847204937515
20
-202.85884544348698
10
371.25235503692545
20
-202.72492646097402
10
371.6981524352691
20
-202.59752615688956
10
372.1457678577335
20
-202.47666843553117
10
372.5951046897842
20
-202.36237585824495
10
373.04606611402266
20
-202.25466967369437
10
373.4985608764623
20
-202.1535965065795
10
373.9525011234774
20
-202.05922811912296
10
374.40777105491384
20
-201.97150187139357
10
374.86427329762796
20
-201.89043409140567
10
375.3219103528937
20
-201.81603992020973
10
375.7805846069888
20
-201.74833333017784
10
376.2401983400878
20
-201.68732714084825
10
376.7006537336814
20
-201.6330330322275
10
377.16185786324286
20
-201.58551386575806
10
377.6237102616511
20
-201.54477837700972
10
378.0861071557953
20
-201.51078345552708
10
378.5489503883663
20
-201.48353636850504
10
379.01214171884453
20
-201.46304326986655
10
379.4755828269589
20
-201.44930919687312
10
379.93917531631007
20
-201.4423380638845
10
380.4028207184008
20
-201.4421326532795
10
380.8664189645202
20
-201.44876420607415
10
381.329869466226
20
-201.4622008939611
10
381.7930737700833
20
-201.4824055363788
10
382.25593312135777
20
-201.50937630962096
10
382.71834871963256
20
-201.5431101711025
10
383.18022173014447
20
-201.58360283411645
10
383.6414532971536
20
-201.6308487402294
10
384.10194294531914
20
-201.6848539548413
10
384.56157880395074
20
-201.74569860904734
10
385.0202728787335
20
-201.8132732778173
10
385.4779263007672
20
-201.8875670640927
10
385.9344402756707
20
-201.9685676291088
10
386.38971611334273
20
-202.056261153577
10
386.84365526111947
20
-202.15063229772534
10
387.29615418494825
20
-202.25168644930204
10
387.7470933971813
20
-202.359486735749
10
388.1963967605491
20
-202.4739110464334
10
388.6439664992731
20
-202.59493760101458
10
389.0897051861223
20
-202.72254288660088
10
389.53351579849095
20
-202.8567016160306
10
389.97530177858687
20
-202.99738668698956
10
390.41492019919065
20
-203.14470539480232
10
390.8523152633288
20
-203.29849738193508
10
391.28739338584865
20
-203.45872556336366
10
391.7200603010431
20
-203.62535521878988
10
392.1502225598398
20
-203.79834962484063
10
392.5777559880945
20
-203.97774375850366
10
393.00255995561577
20
-204.16350771445178
10
393.4245773043525
20
-204.35551666424368
10
393.8437184271919
20
-204.5537255990315
10
394.2598949814047
20
-204.75808738624113
10
394.67296537419486
20
-204.96865779217967
10
395.08285616913304
20
-205.18535112755592
10
395.4895170320963
20
-205.4080458838273
10
395.8928653597153
20
-205.63668631467766
10
396.2927893831876
20
-205.8712663724869
10
396.68915234518465
20
-206.11181393497822
10
397.0819557379432
20
-206.35812990356123
10
397.4711243782725
20
-206.61014999843007
10
397.85653149338714
20
-206.86788700297376
10
398.2380659537041
20
-207.1313220697267
10
398.61574196210256
20
-207.40025874297714
10
398.98949348884264
20
-207.67462467311617
10
399.3591101181147
20
-207.9545364336778
10
399.7246423867259
20
-208.2397598185534
10
400.08605484691304
20
-208.53018643887543
10
400.4431650550089
20
-208.82588785091446
10
400.73601701601535
20
-209.07483266515345
0
LWPOLYLINE
5
46
330
38
100
AcDbEntity
8
0
100
AcDbPolyline
90
2
70
0
43
0
38
0
39
0
10
356.1113198565779
20
-212.26302637877495
10
380.32945373369057
20
-233.10903674772635
0
LWPOLYLINE
5
47
330
38
100
AcDbEntity
8
0
100
AcDbPolyline
90
5
70
0
43
0
38
0
39
0
10
425.3565987420328
20
-719.3082303378037
10
422.1552373798987
20
-721.9847867227772
10
421.4117288885351
20
-721.0955067985847
10
424.6130902506692
20
-718.4189504136111
10
425.3565987420328
20
-719.3082303378037
0
LWPOLYLINE
5
48
330
38
100
AcDbEntity
8
0
100
AcDbPolyline
90
5
70
0
43
0
38
0
39
0
10
405.69581583408956
20
-695.7924328679733
10
402.49445447195546
20
-698.4689892529468
10
403.2379629633191
20
-699.3582691771394
10
406.4393243254531
20
-696.6817127921659
10
405.69581583408956
20
-695.7924328679733
0
LWPOLYLINE
5
49
330
38
100
AcDbEntity
8
0
100
AcDbPolyline
90
97
70
0
43
0
38
0
39
0
10
446.6193373674307
20
-699.9870707585733
10
446.3190902657925
20
-699.6337741988452
10
446.01319858656575
20
-699.2853536246914
10
445.70172289360903
20
-698.9419159823995
10
445.38472754267514
20
-698.6035664028348
10
445.0622805588141
20
-698.2704080880644
10
444.7344535080987
20
-697.9425422072388
10
444.40130190020864
20
-697.6200882348892
10
444.0629190973925
20
-697.3031286235519
10
443.71938708045
20
-696.991757770594
10
443.3707906881765
20
-696.6860678189878
10
443.0172175885393
20
-696.3861484839715
10
442.65875813274727
20
-696.0920870074515
10
442.2955052093928
20
-695.8039681215894
10
441.92755409938354
20
-695.5218740213018
10
441.5550023323334
20
-695.2458843453585
10
441.1779495450502
20
-694.9760761657224
10
440.7964973427074
20
-694.7125239847242
10
440.4107491632427
20
-694.4552997396456
10
440.02077783779384
20
-694.2045239302199
10
439.62670251232726
20
-693.9602485399587
10
439.2286521912106
20
-693.722506346458
10
438.82673665041204
20
-693.4913590305491
10
438.42106686831085
20
-693.2668658223167
10
438.01175491857055
20
-693.0490835406388
10
437.59891386872346
20
-692.8380666364885
10
437.1826252346593
20
-692.6339347255634
10
436.763017524986
20
-692.4367162934832
10
436.3402276241079
20
-692.2464164274227
10
435.9143718572699
20
-692.0630804134485
10
435.48556711315075
20
-691.8867514260951
10
435.05393077897713
20
-691.7174705836956
10
434.6195464463174
20
-691.5553708784116
10
434.18255724933954
20
-691.4004318471086
10
433.7430946586179
20
-691.2526551189667
10
433.30127763244775
20
-691.1120739650203
10
432.8572253797174
20
-690.9787198738015
10
432.411043025974
20
-690.8526747902185
10
431.96284367661667
20
-690.7340020686938
10
431.51277204463224
20
-690.622642492338
10
431.0609481422082
20
-690.5186207356683
10
430.60749211366897
20
-690.421959918707
10
430.1525163581724
20
-690.3327235065485
10
429.69613254283274
20
-690.2509937526706
10
429.23848214566203
20
-690.1766864055235
10
428.7796858077113
20
-690.1098185362248
10
428.3198642765964
20
-690.0504058047379
10
427.85913332351527
20
-689.9985110580649
10
427.39761155409974
20
-689.9541988191386
10
426.93543205342576
20
-689.9173807493462
10
426.4727160514914
20
-689.8880668273162
10
426.00958490746257
20
-689.8662656557135
10
425.54615878888944
20
-689.85204241102
10
425.0825617423161
20
-689.8454354800497
10
424.6189190098536
20
-689.8463584137344
10
424.15535251760275
20
-689.8548140372052
10
423.6919843430736
20
-689.8708037181245
10
423.2289399615521
20
-689.8943825665065
10
422.7663468491362
20
-689.9255832161059
10
422.3043235712554
20
-689.9643118402416
10
421.8429927532752
20
-690.0105634645367
10
421.38247714465047
20
-690.0643314653296
10
420.922903127637
20
-690.1256323928092
10
420.4644086186671
20
-690.1945437567304
10
420.0071021723818
20
-690.270939244542
10
419.5511067648663
20
-690.3548049169365
10
419.09654537292124
20
-690.4461249054768
10
418.6435409362871
20
-690.5448813501491
10
418.19223490308127
20
-690.6511306642988
10
417.7427461000992
20
-690.7648212039805
10
417.2951856583477
20
-690.8858788982757
10
416.8496757227939
20
-691.0142770509476
10
416.4063381132198
20
-691.1499866421252
10
415.9652942503641
20
-691.2929762627903
10
415.52667612769244
20
-691.4432434802893
10
415.09062042043536
20
-691.600791482278
10
414.65722152352305
20
-691.7655059813183
10
414.22659814619806
20
-691.9373451632928
10
413.79886811707456
20
-692.1162645258701
10
413.3741482722172
20
-692.3022168288742
10
412.9525543374266
20
-692.4951520491911
10
412.5342008049878
20
-692.69501734079
10
412.1192026593625
20
-692.9017606462558
10
411.70770202508663
20
-693.1153806050011
10
411.29977601927067
20
-693.3357490021408
10
410.89553247372453
20
-693.562801242751
10
410.4950772814325
20
-693.7964698156595
10
410.0985142486069
20
-694.0366842969493
10
409.7059449445584
20
-694.2833713621787
10
409.31746855004883
20
-694.5364548076989
10
408.93318170483053
20
-694.795855581395
10
408.5531783551137
20
-695.0614918231302
10
408.17754960174057
20
-695.3332789151102
10
407.80638354986615
20
-695.6111295423289
10
407.43976516097246
20
-695.8949537631831
10
407.077776108056
20
-696.1846590902817
10
406.78015314311426
20
-696.4299974267622
0
LWPOLYLINE
5
4A
330
38
100
AcDbEntity
8
0
100
AcDbPolyline
90
2
70
0
43
0
38
0
39
0
10
446.76594336953167
20
-699.86448180552
10
424.7745794047861
20
-718.2506919753996
0
LWPOLYLINE
5
4B
330
38
100
AcDbEntity
8
0
100
AcDbPolyline
90
5
70
0
43
0
38
0
39
0
10
386.65451515071027
20
-613.2778271136722
10
382.4816687910993
20
-613.2778271136722
10
382.4816687910993
20
-614.4369511024529
10
386.65451515071027
20
-614.4369511024529
10
386.65451515071027
20
-613.2778271136722
0
LWPOLYLINE
5
4C
330
38
100
AcDbEntity
8
0
100
AcDbPolyline
90
5
70
0
43
0
38
0
39
0
10
386.65451515071027
20
-652.6880427322205
10
382.4816687910993
20
-652.6880427322205
10
382.4816687910993
20
-651.5289187434398
10
386.65451515071027
20
-651.5289187434398
10
386.65451515071027
20
-652.6880427322205
0
LWPOLYLINE
5
4D
330
38
100
AcDbEntity
8
0
100
AcDbPolyline
90
127
70
0
43
0
38
0
39
0
10
424.2289565607872
20
-614.4369511024529
10
424.2260104279999
20
-614.9005882641486
10
424.2174571620686
20
-615.3641552174679
10
424.20328839285764
20
-615.8275846369811
10
424.1833839061312
20
-616.2908034220363
10
424.15764833908156
20
-616.7537347330149
10
424.12627709716844
20
-617.216317987981
10
424.0892681098736
20
-617.6784849496516
10
424.04629488940725
20
-618.140135527035
10
423.9976750669899
20
-618.6012250282731
10
423.94341706456464
20
-619.0616854805671
10
423.88324900471514
20
-619.5214110119393
10
423.81738115412134
20
-619.9803542110544
10
423.7458891296901
20
-620.4384552880638
10
423.6685068541043
20
-620.8955982454904
10
423.5854365185303
20
-621.3517415910521
10
423.496769795816
20
-621.8068305686536
10
423.40220327039106
20
-622.2607302460024
10
423.3020188537299
20
-622.7134227535894
10
423.19625313927907
20
-623.1648442894807
10
423.084605017409
20
-623.6148470687835
10
422.96743529222215
20
-624.0634434535564
10
422.8446307449086
20
-624.5105302458412
10
422.71610295717824
20
-624.9560054909905
10
422.5821143129484
20
-625.399868831807
10
422.4424203672294
20
-625.8419696989358
10
422.2972034425925
20
-626.2822872171969
10
422.146548972937
20
-626.7207743131648
10
421.99020210572087
20
-627.1572641829966
10
421.8285192540293
20
-627.5918055795928
10
421.6613031338653
20
-628.024247808745
10
421.48865623780534
20
-628.4545506875047
10
421.3107190818105
20
-628.8826932948807
10
421.1272292962162
20
-629.308485820008
10
420.9385540350005
20
-629.7320059126453
10
420.7444776450618
20
-630.1530782254583
10
420.5451559044386
20
-630.571693067171
10
420.3406571282386
20
-630.9878034469282
10
420.1308291924215
20
-631.4012522742421
10
419.9159877005462
20
-631.8121183176916
10
419.6958520248985
20
-632.220172228132
10
419.47072613509204
20
-632.625494238529
10
419.2405163771849
20
-633.0279504169584
10
419.00526224126236
20
-633.4274790177808
10
418.7651270762882
20
-633.8240931882624
10
418.5199065037316
20
-634.2175835375326
10
418.2699430216978
20
-634.6080781486539
10
418.0149809422928
20
-634.9953274754914
10
417.75530138377485
20
-635.3794292463517
10
417.49081832582726
20
-635.7602392225765
10
417.2215967905287
20
-636.1377142617287
10
416.9477614764787
20
-636.511855762436
10
416.6691765328999
20
-636.8824744186184
10
416.38614663079807
20
-637.2497099990749
10
416.0983971080551
20
-637.6132592814893
10
415.8062767541354
20
-637.9733056951325
10
415.50962375031804
20
-638.329626595928
10
415.2086015617251
20
-638.6822642266688
10
414.90323004994605
20
-639.0311421334891
10
414.59349846591863
20
-639.3761552379463
10
414.27959765631294
20
-639.7173795521296
10
413.9613528437628
20
-640.0545561753888
10
413.63907963332474
20
-640.3878845889624
10
413.31255785775716
20
-640.7170521918038
10
412.9820691306055
20
-641.0422366158789
10
412.64751434797245
20
-641.3632360914428
10
412.3090152945041
20
-641.6800736722366
10
411.96663078869574
20
-641.992708324955
10
411.62033027925816
20
-642.3009998619991
10
411.2703233019305
20
-642.6050770425331
10
410.9164339353897
20
-642.9046270163274
10
410.5589668639666
20
-643.1998982394696
10
410.1977538929433
20
-643.4905748476804
10
409.83302007777775
20
-643.7768210934075
10
409.464725679361
20
-644.0584711792624
10
409.0929472851375
20
-644.3355063227045
10
408.7177928618403
20
-644.6079522551579
10
408.33919609493444
20
-644.8755942332248
10
407.95739641987893
20
-645.1386472616041
10
407.57222241864395
20
-645.3967341521993
10
407.1839472215413
20
-645.650131170242
10
406.7924906273706
20
-645.8985849563969
10
406.39797660631984
20
-646.1421548399242
10
406.0004736937227
20
-646.3808156912867
10
405.59996195173176
20
-646.6143922785213
10
405.1966464842867
20
-646.8430940643398
10
404.7903894282922
20
-647.0665287356205
10
404.381441788864
20
-647.2849994480641
10
403.9697540514644
20
-647.4982615470003
10
403.5554266014158
20
-647.7063488446229
10
403.1385596744144
20
-647.909301064296
10
402.7191093534425
20
-648.1068590102977
10
402.297280988672
20
-648.2992869857558
10
401.8730072095375
20
-648.4862612353966
10
401.44644524682815
20
-648.6679544078215
10
401.0176458604616
20
-648.8443024614462
10
400.58661849052794
20
-649.0151328728866
10
400.15353253300043
20
-649.1806751874599
10
399.71833893633584
20
-649.3405944603621
10
399.2811932436132
20
-649.495097286389
10
398.84215239732566
20
-649.6441299100939
10
398.4012256076917
20
-649.787486835585
10
397.95857273705656
20
-649.925421714428
10
397.5141861521631
20
-650.0576643533338
10
397.0681725446062
20
-650.1843108099449
10
396.6206362889411
20
-650.3054683801975
10
396.1715503477817
20
-650.4207492169382
10
395.7210811935978
20
-650.5304988448211
10
395.2692762466854
20
-650.634613829257
10
394.81616568400466
20
-650.7328914014024
10
394.36188191708413
20
-650.825593831061
10
393.9064651302265
20
-650.9125602016095
10
393.44997681372513
20
-650.9937142890515
10
392.9925266371539
20
-651.0692579961849
10
392.53415884794344
20
-651.13901903903
10
392.07494396218794
20
-651.2029662607747
10
391.61497997739866
20
-651.2612812188404
10
391.1543212073493
20
-651.3138283091064
10
390.69303307673295
20
-651.3605283986499
10
390.2312089549846
20
-651.4015884272469
10
389.76891413138856
20
-651.4369631688987
10
389.3062046027254
20
-651.4664210492899
10
388.84317133867637
20
-651.4902457569422
10
388.3798823523035
20
-651.5084414287801
10
387.9164010466661
20
-651.5208089315047
10
387.4528028542253
20
-651.5274651566033
10
387.1369889198004
20
-651.5289187434398
0
LWPOLYLINE
5
4E
330
38
100
AcDbEntity
8
0
100
AcDbPolyline
90
2
70
0
43
0
38
0
39
0
10
424.4795591671616
20
-614.4369511024529
10
386.88633994846646
20
-614.4369511024529
0
LWPOLYLINE
5
4F
330
38
100
AcDbEntity
8
0
100
AcDbPolyline
90
5
70
0
43
0
38
0
39
0
10
440.77633243486514
20
-839.0659071362691
10
440.77633243486514
20
-830.2565648215348
10
441.935456423646
20
-830.2565648215348
10
441.935456423646
20
-839.0659071362691
10
440.77633243486514
20
-839.0659071362691
0
LWPOLYLINE
5
50
330
38
100
AcDbEntity
8
0
100
AcDbPolyline
90
5
70
0
43
0
38
0
39
0
10
484.82304400853695
20
-839.0659071362691
10
484.82304400853695
20
-830.2565648215348
10
483.6639200197561
20
-830.2565648215348
10
483.6639200197561
20
-839.0659071362691
10
484.82304400853695
20
-839.0659071362691
0
LWPOLYLINE
5
51
330
38
100
AcDbEntity
8
0
100
AcDbPolyline
90
143
70
0
43
0
38
0
39
0
10
441.935456423646
20
-881.3081408491664
10
442.3990973201054
20
-881.3056094231263
10
442.86268292226964
20
-881.2980223955092
10
443.3261577744627
20
-881.2853694605371
10
443.7894660963317
20
-881.2676415655801
10
444.25255181719285
20
-881.2448309074402
10
444.7153586099454
20
-881.2169309271908
10
445.17782992448724
20
-881.183936303607
10
445.6399090205713
20
-881.1458429452289
10
446.1015390000432
20
-881.1026479811219
10
446.5626628384025
20
-881.054349750372
10
447.02322341563763
20
-881.0009477903805
10
447.4831635462839
20
-880.9424428240134
10
447.94242600866164
20
-880.8788367456639
10
448.4009535732498
20
-880.8101326062917
10
448.8586890301617
20
-880.736334597502
10
449.3155752156854
20
-880.6574480347242
10
449.77155503786173
20
-880.5734793395602
10
450.2265715010726
20
-880.4844360213681
10
450.6805565278853
20
-880.390274065931
10
451.133450872592
20
-880.2909997652969
10
451.58520860564886
20
-880.1866770025827
10
452.03577328132087
20
-880.0773176231514
10
452.4850886634267
20
-879.96293445643
10
452.93309874345664
20
-879.843541294093
10
453.3797477576186
20
-879.7191528679546
10
453.8249802028164
20
-879.5897848276284
10
454.26874085156487
20
-879.4554537180186
10
454.7109720535452
20
-879.3161685125679
10
455.1515803858862
20
-879.1718318540666
10
455.59054949524545
20
-879.0225857035716
10
456.02782537000496
20
-878.8684501181092
10
456.46335433716604
20
-878.7094459333402
10
456.8970830709811
20
-878.5455947411747
10
457.32895860064616
20
-878.376918867601
10
457.75892831708416
20
-878.203441350784
10
458.18692038958363
20
-878.0251396051708
10
458.6128587284056
20
-877.8419863413292
10
459.0367320153956
20
-877.6541045363542
10
459.45848915169097
20
-877.4615199944919
10
459.8780794238379
20
-877.2642591243905
10
460.2954525055884
20
-877.0623489196603
10
460.7105584590181
20
-876.8558169399605
10
461.12331756860453
20
-876.6446330955043
10
461.5336611364453
20
-876.4287936087594
10
461.94158651997907
20
-876.2084189857144
10
462.34704536140634
20
-875.9835389783909
10
462.74998968935074
20
-875.7541838157651
10
463.1503719165935
20
-875.520384188575
10
463.54814483740427
20
-875.2821712347948
10
463.94317549597304
20
-875.0394378103185
10
464.33549355660284
20
-874.7923451220936
10
464.7250595397853
20
-874.540936478006
10
465.1118277692444
20
-874.2852447588436
10
465.49575293286944
20
-874.025303227728
10
465.8767900783913
20
-873.7611455198557
10
466.2548148991525
20
-873.4926945255456
10
466.6298342799589
20
-873.2200614467758
10
467.00182967489445
20
-872.9433171104888
10
467.37075756771105
20
-872.6624966231282
10
467.7365747796564
20
-872.3776354204329
10
468.09923846492507
20
-872.088769261429
10
468.45861693824304
20
-871.7958258956455
10
468.8147268015547
20
-871.4989183439516
10
469.16755355340695
20
-871.1981172645233
10
469.51705568265334
20
-870.8934597236309
10
469.86319199089314
20
-870.5849830891507
10
470.2059215890057
20
-870.2727250284261
10
470.54509344652774
20
-869.9566061028968
10
470.8807585702833
20
-869.6367667575907
10
471.21289339975147
20
-869.3132633638863
10
471.5414583051295
20
-868.986134830548
10
471.86641395420224
20
-868.6554203624839
10
472.18771968144165
20
-868.3211579130148
10
472.5052042939001
20
-867.9832640365721
10
472.81896092917714
20
-867.6419064578599
10
473.1289514936333
20
-867.2971256305018
10
473.4351381908316
20
-866.9489623131788
10
473.7374835228659
20
-866.5974575726752
10
474.03593164612016
20
-866.2426372789032
10
474.330340078998
20
-865.8844580688301
10
474.6207943082611
20
-865.5230656012652
10
474.90725811985317
20
-865.1585022566285
10
475.1896956153761
20
-864.7908107422045
10
475.4680712171594
20
-864.420034096551
10
475.742325248823
20
-864.0461979812133
10
476.01232368735066
20
-863.6692769129934
10
476.278153732649
20
-863.2894051638814
10
476.5397812309993
20
-862.9066271842639
10
476.7971723871409
20
-862.520987778259
10
477.05029377352867
20
-862.1325321082159
10
477.29910615591314
20
-861.7413018150289
10
477.54343874675214
20
-861.347258273795
10
477.7834023319176
20
-860.9505396292716
10
478.0189651540951
20
-860.5511925541093
10
478.2500958834762
20
-860.1492640983424
10
478.4767636313154
20
-859.7448016925734
10
478.6989379641692
20
-859.337853150809
10
478.91649069112907
20
-858.9284151094166
10
479.12943814582707
20
-858.5165634767425
10
479.3378032063986
20
-858.1023751043213
10
479.54155753124144
20
-857.6858993840376
10
479.7406733186325
20
-857.2671860969936
10
479.9351233248517
20
-856.8462854133018
10
480.12488088286864
20
-856.4232478912572
10
480.30979659499405
20
-855.9980715516724
10
480.4899460584859
20
-855.5708544048127
10
480.6653270210286
20
-855.1416580754453
10
480.83591545924776
20
-854.7105346585458
10
481.0016880311689
20
-854.2775366194496
10
481.1626220976781
20
-853.8427167883326
10
481.31869574431244
20
-853.4061283538203
10
481.4698439606741
20
-852.9678100033079
10
481.61599970344844
20
-852.5278019066927
10
481.7572351622017
20
-852.0861903874861
10
481.8935317075127
20
-851.6430299645294
10
482.0248715503343
20
-851.1983754646708
10
482.15123776469227
20
-850.7522820103936
10
482.27261431035777
20
-850.3048050064067
10
482.3889860554341
20
-849.856000125189
10
482.50033879880095
20
-849.4059232914749
10
482.6066139740477
20
-848.9546202521419
10
482.7077791459069
20
-848.5021445021498
10
482.80389134476707
20
-848.0485689749582
10
482.89494049839095
20
-847.5939503574425
10
482.98091757511963
20
-847.1383454888398
10
483.06181460390826
20
-846.6818113386475
10
483.1376246937559
20
-846.2244049834849
10
483.2083420524658
20
-845.7661835829308
10
483.27396200466706
20
-845.3072043543634
10
483.3344810090332
20
-844.8475245468208
10
483.3898966746319
20
-844.3872014139135
10
483.4402077763418
20
-843.9262921858224
10
483.48541426927136
20
-843.4648540404112
10
483.52551730211997
20
-843.0029440735029
10
483.5604691045154
20
-842.5406157432801
10
483.5903237923359
20
-842.0779305256763
10
483.6150911245177
20
-841.6149453106268
10
483.6347773157079
20
-841.151716384458
10
483.6493898202199
20
-840.6882997844889
10
483.65893733743667
20
-840.2247512653412
10
483.66342981577907
20
-839.7611262648097
10
483.6639200197561
20
-839.5796772530564
0
LWPOLYLINE
5
52
330
38
100
AcDbEntity
8
0
100
AcDbPolyline
90
2
70
0
43
0
38
0
39
0
10
441.935456423646
20
-881.5900861681976
10
441.935456423646
20
-839.2977319340253
0
ENDBLK
5
3A
100
AcDbEntity
8
0
100
AcDbBlockEnd
0
BLOCK
5
55
330
54
100
AcDbEntity
8
0
100
AcDbBlockBegin
2
Window-2
70
0
10
0
20
0
30
0
3
Window-2
1

0
LWPOLYLINE
5
57
330
54
100
AcDbEntity
8
0
100
AcDbPolyline
90
6
70
0
43
0
38
0
39
0
10
424.60103536118584
20
-182.03121815298866
10
410.8264695281099
20
-198.03399121217774
10
417.5030700684471
20
-203.78097431351273
10
431.277635901523
20
-187.77820125432356
10
424.60103536118584
20
-182.03121815298866
10
424.60103536118584
20
-182.03121815298866
0
LWPOLYLINE
5
58
330
54
100
AcDbEntity
8
0
100
AcDbPolyline
90
2
70
0
43
0
38
0
39
0
10
427.9393124488747
20
-184.9047328861359
10
414.1647929807583
20
-200.90745958036547
0
ENDBLK
5
56
100
AcDbEntity
8
0
100
AcDbBlockEnd
0
BLOCK
5
5B
330
5A
100
AcDbEntity
8
0
100
AcDbBlockBegin
2
Double_Window-1
70
0
10
0
20
0
30
0
3
Double_Window-1
1

0
LWPOLYLINE
5
5D
330
5A
100
AcDbEntity
8
0
100
AcDbPolyline
90
6
70
0
43
0
38
0
39
0
10
290.2942197153817
20
-252.08551921765297
10
369.11465095247866
20
-252.08551921765297
10
369.11465095247866
20
-243.27617690291856
10
290.2942197153817
20
-243.27617690291856
10
290.2942197153817
20
-252.08551921765297
10
290.2942197153817
20
-252.08551921765297
0
LWPOLYLINE
5
5E
330
5A
100
AcDbEntity
8
0
100
AcDbPolyline
90
2
70
0
43
0
38
0
39
0
10
290.2942197153817
20
-247.68084806028577
10
369.11465095247866
20
-247.68084806028577
0
LWPOLYLINE
5
5F
330
5A
100
AcDbEntity
8
0
100
AcDbPolyline
90
2
70
0
43
0
38
0
39
0
10
329.7044353339302
20
-252.08551921765297
10
329.7044353339302
20
-243.27617690291856
0
ENDBLK
5
5C
100
AcDbEntity
8
0
100
AcDbBlockEnd
0
BLOCK
5
62
330
61
100
AcDbEntity
8
0
100
AcDbBlockBegin
2
Window-3
70
0
10
0
20
0
30
0
3
Window-3
1

0
LWPOLYLINE
5
64
330
61
100
AcDbEntity
8
0
100
AcDbPolyline
90
6
70
0
43
0
38
0
39
0
10
491.5088711758249
20
-839.0659071362691
10
505.4183590411949
20
-839.0659071362691
10
505.4183590411949
20
-830.2565648215348
10
491.5088711758249
20
-830.2565648215348
10
491.5088711758249
20
-839.0659071362691
10
491.5088711758249
20
-839.0659071362691
0
LWPOLYLINE
5
65
330
61
100
AcDbEntity
8
0
100
AcDbPolyline
90
2
70
0
43
0
38
0
39
0
10
491.5088711758249
20
-834.6612359789019
10
505.4183590411949
20
-834.6612359789019
0
ENDBLK
5
63
100
AcDbEntity
8
0
100
AcDbBlockEnd
0
BLOCK
5
68
330
67
100
AcDbEntity
8
0
100
AcDbBlockBegin
2
Window-4
70
0
10
0
20
0
30
0
3
Window-4
1

0
LWPOLYLINE
5
6A
330
67
100
AcDbEntity
8
0
100
AcDbPolyline
90
6
70
0
43
0
38
0
39
0
10
333.7428233108426
20
-881.2580203278917
10
384.7442788171994
20
-881.2580203278917
10
384.7442788171994
20
-872.4486780131572
10
333.7428233108426
20
-872.4486780131572
10
333.7428233108426
20
-881.2580203278917
10
333.7428233108426
20
-881.2580203278917
0
LWPOLYLINE
5
6B
330
67
100
AcDbEntity
8
0
100
AcDbPolyline
90
2
70
0
43
0
38
0
39
0
10
333.7428233108426
20
-876.8533491705246
10
384.7442788171994
20
-876.8533491705246
0
ENDBLK
5
69
100
AcDbEntity
8
0
100
AcDbBlockEnd
0
ENDSEC
0
SECTION
2
ENTITIES
0
INSERT
5
23
330
C
100
AcDbEntity
8
surface
100
AcDbBlockReference
2
surface-1
10
0
20
0
41
1
42
1
43
1
50
0
66
0
70
1
71
1
44
0
45
0
0
INSERT
5
29
330
C
100
AcDbEntity
8
object
100
AcDbBlockReference
2
Kitchen_bench-1
10
0
20
0
41
1
42
1
43
1
50
0
66
0
70
1
71
1
44
0
45
0
0
INSERT
5
30
330
C
100
AcDbEntity
8
wall
100
AcDbBlockReference
2
wall-1
10
0
20
0
41
1
42
1
43
1
50
0
66
0
70
1
71
1
44
0
45
0
0
INSERT
5
37
330
C
100
AcDbEntity
8
window-door
100
AcDbBlockReference
2
Window-1
10
0
20
0
41
1
42
1
43
1
50
0
66
0
70
1
71
1
44
0
45
0
0
INSERT
5
53
330
C
100
AcDbEntity
8
window-door
100
AcDbBlockReference
2
window-door-1
10
0
20
0
41
1
42
1
43
1
50
0
66
0
70
1
71
1
44
0
45
0
0
INSERT
5
59
330
C
100
AcDbEntity
8
window-door
100
AcDbBlockReference
2
Window-2
10
0
20
0
41
1
42
1
43
1
50
0
66
0
70
1
71
1
44
0
45
0
0
INSERT
5
60
330
C
100
AcDbEntity
8
window-door
100
AcDbBlockReference
2
Double_Window-1
10
0
20
0
41
1
42
1
43
1
50
0
66
0
70
1
71
1
44
0
45
0
0
INSERT
5
66
330
C
100
AcDbEntity
8
window-door
100
AcDbBlockReference
2
Window-3
10
0
20
0
41
1
42
1
43
1
50
0
66
0
70
1
71
1
44
0
45
0
0
INSERT
5
6C
330
C
100
AcDbEntity
8
window-door
100
AcDbBlockReference
2
Window-4
10
0
20
0
41
1
42
1
43
1
50
0
66
0
70
1
71
1
44
0
45
0
0
ENDSEC
0
SECTION
2
OBJECTS
0
DICTIONARY
5
A
330
0
100
AcDbDictionary
281
1
3
ACAD_GROUP
350
B
0
DICTIONARY
5
B
330
A
100
AcDbDictionary
281
0
0
ENDSEC
0
EOF