0
SECTION
2
HEADER
9
$ACADVER
1
AC1021
9
$HANDSEED
5
C6
9
$INSUNITS
70
0
9
$CLAYER
8
0
9
$VIEWCTR
10
0
20
0
0
ENDSEC
0
SECTION
2
CLASSES
0
ENDSEC
0
SECTION
2
TABLES
0
TABLE
2
VPORT
5
1
330
0
100
AcDbSymbolTable
70
1
0
VPORT
5
19
330
1
100
AcDbSymbolTableRecord
100
AcDbViewportTableRecord
2
*Active
70
0
10
0
20
0
11
1
21
1
12
0
22
0
13
0
23
0
14
10
24
10
15
10
25
10
16
0
26
0
36
1
17
0
27
0
37
0
40
200
41
2
42
50
43
0
44
0
50
0
51
0
71
0
72
100
73
1
74
3
75
0
76
1
77
0
78
0
281
0
65
1
110
0
120
0
130
0
111
1
121
0
131
0
112
0
122
1
132
0
79
0
146
0
348
10020
60
7
61
5
292
1
282
1
141
0
142
0
63
250
421
3358443
0
ENDTAB
0
TABLE
2
LTYPE
5
2
330
0
100
AcDbSymbolTable
70
3
0
LTYPE
5
12
330
2
100
AcDbSymbolTableRecord
100
AcDbLinetypeTableRecord
2
ByBlock
70
0
3

72
65
73
0
40
0
0
LTYPE
5
13
330
2
100
AcDbSymbolTableRecord
100
AcDbLinetypeTableRecord
2
ByLayer
70
0
3

72
65
73
0
40
0
0
LTYPE
5
14
330
2
100
AcDbSymbolTableRecord
100
AcDbLinetypeTableRecord
2
Continuous
70
0
3
Solid line
72
65
73
0
40
0
0
ENDTAB
0
TABLE
2
LAYER
5
3
330
0
100
AcDbSymbolTable
70
5
0
LAYER
5
15
330
3
100
AcDbSymbolTableRecord
100
AcDbLayerTableRecord
2
0
62
7
70
0
6
Continuous
390
1
0
LAYER
5
1A
330
3
100
AcDbSymbolTableRecord
100
AcDbLayerTableRecord
2
surface
62
7
70
0
6
Continuous
390
1
0
LAYER
5
25
330
3
100
AcDbSymbolTableRecord
100
AcDbLayerTableRecord
2
object
62
7
70
0
6
Continuous
390
1
0
LAYER
5
9F
330
3
100
AcDbSymbolTableRecord
100
AcDbLayerTableRecord
2
wall
62
7
70
0
6
Continuous
390
1
0
LAYER
5
B1
330
3
100
AcDbSymbolTableRecord
100
AcDbLayerTableRecord
2
window-door
62
7
70
0
6
Continuous
390
1
0
ENDTAB
0
TABLE
2
STYLE
5
4
330
0
100
AcDbSymbolTable
70
1
0
STYLE
5
16
330
4
100
AcDbSymbolTableRecord
100
AcDbTextStyleTableRecord
2
Standard
70
0
40
0
41
1
50
0
71
0
42
1
3
txt
4

0
ENDTAB
0
TABLE
2
VIEW
5
5
330
0
100
AcDbSymbolTable
70
0
0
ENDTAB
0
TABLE
2
UCS
5
6
330
0
100
AcDbSymbolTable
70
0
0
ENDTAB
0
TABLE
2
APPID
5
7
330
0
100
AcDbSymbolTable
70
1
0
APPID
5
17
330
7
100
AcDbSymbolTableRecord
100
AcDbRegAppTableRecord
2
ACAD
70
0
0
ENDTAB
0
TABLE
2
DIMSTYLE
5
8
330
0
100
AcDbSymbolTable
70
1
100
AcDbDimStyleTable
0
DIMSTYLE
105
18
330
8
100
AcDbSymbolTableRecord
100
AcDbDimStyleTableRecord
2
Standard
70
0
340
16
0
ENDTAB
0
TABLE
2
BLOCK_RECORD
5
9
330
0
100
AcDbSymbolTable
70
20
0
BLOCK_RECORD
5
C
330
9
100
AcDbSymbolTableRecord
100
AcDbBlockTableRecord
2
*Model_Space
70
0
280
1
281
0
0
BLOCK_RECORD
5
F
330
9
100
AcDbSymbolTableRecord
100
AcDbBlockTableRecord
2
*Paper_Space
70
0
280
1
281
0
0
BLOCK_RECORD
5
1B
330
9
100
AcDbSymbolTableRecord
100
AcDbBlockTableRecord
2
surface-1
70
0
280
1
281
0
0
BLOCK_RECORD
5
26
330
9
100
AcDbSymbolTableRecord
100
AcDbBlockTableRecord
2
Kitchen_bench-1
70
0
280
1
281
0
0
BLOCK_RECORD
5
2D
330
9
100
AcDbSymbolTableRecord
100
AcDbBlockTableRecord
2
Column-1
70
0
280
1
281
0
0
BLOCK_RECORD
5
32
330
9
100
AcDbSymbolTableRecord
100
AcDbBlockTableRecord
2
Water_heater-1
70
0
280
1
281
0
0
BLOCK_RECORD
5
37
330
9
100
AcDbSymbolTableRecord
100
AcDbBlockTableRecord
2
Wahsing_machine-1
70
0
280
1
281
0
0
BLOCK_RECORD
5
3C
330
9
100
AcDbSymbolTableRecord
100
AcDbBlockTableRecord
2
WC_tank-1
70
0
280
1
281
0
0
BLOCK_RECORD
5
45
330
9
100
AcDbSymbolTableRecord
100
AcDbBlockTableRecord
2
Straight_stair-1
70
0
280
1
281
0
0
BLOCK_RECORD
5
63
330
9
100
AcDbSymbolTableRecord
100
AcDbBlockTableRecord
2
Column-2
70
0
280
1
281
0
0
BLOCK_RECORD
5
68
330
9
100
AcDbSymbolTableRecord
100
AcDbBlockTableRecord
2
Column-3
70
0
280
1
281
0
0
BLOCK_RECORD
5
6D
330
9
100
AcDbSymbolTableRecord
100
AcDbBlockTableRecord
2
Washstand_cab-1
70
0
280
1
281
0
0
BLOCK_RECORD
5
78
330
9
100
AcDbSymbolTableRecord
100
AcDbBlockTableRecord
2
Single_sink-1
70
0
280
1
281
0
0
BLOCK_RECORD
5
81
330
9
100
AcDbSymbolTableRecord
100
AcDbBlockTableRecord
2
Column-4
70
0
280
1
281
0
0
BLOCK_RECORD
5
86
330
9
100
AcDbSymbolTableRecord
100
AcDbBlockTableRecord
2
Column-5
70
0
280
1
281
0
0
BLOCK_RECORD
5
8B
330
9
100
AcDbSymbolTableRecord
100
AcDbBlockTableRecord
2
Hatrack-1
70
0
280
1
281
0
0
BLOCK_RECORD
5
95
330
9
100
AcDbSymbolTableRecord
100
AcDbBlockTableRecord
2
Column-6
70
0
280
1
281
0
0
BLOCK_RECORD
5
9A
330
9
100
AcDbSymbolTableRecord
100
AcDbBlockTableRecord
2
Column-7
70
0
280
1
281
0
0
BLOCK_RECORD
5
A0
330
9
100
AcDbSymbolTableRecord
100
AcDbBlockTableRecord
2
wall-1
70
0
280
1
281
0
0
BLOCK_RECORD
5
B2
330
9
100
AcDbSymbolTableRecord
100
AcDbBlockTableRecord
2
window-door-1
70
0
280
1
281
0
0
ENDTAB
0
ENDSEC
0
SECTION
2
BLOCKS
0
BLOCK
5
D
330
C
100
AcDbEntity
8
0
100
AcDbBlockBegin
2
*Model_Space
70
0
10
0
20
0
30
0
3
*Model_Space
1

0
ENDBLK
5
E
100
AcDbEntity
8
0
100
AcDbBlockEnd
0
BLOCK
5
10
330
F
100
AcDbEntity
8
0
100
AcDbBlockBegin
2
*Paper_Space
70
0
10
0
20
0
30
0
3
*Paper_Space
1

0
ENDBLK
5
11
100
AcDbEntity
8
0
100
AcDbBlockEnd
0
BLOCK
5
1C
330
1B
100
AcDbEntity
8
0
100
AcDbBlockBegin
2
surface-1
70
0
10
0
20
0
30
0
3
surface-1
1

0
LWPOLYLINE
5
1E
330
1B
100
AcDbEntity
8
0
100
AcDbPolyline
90
5
70
0
43
0
38
0
39
0
10
581.9681065778833
20
-877.498684169504
10
516.8985149695591
20
-877.498684169504
10
516.8985149695591
20
-419.97811817347446
10
581.9681065778833
20
-419.97811817347446
10
581.9681065778833
20
-877.498684169504
0
LWPOLYLINE
5
1F
330
1B
100
AcDbEntity
8
0
100
AcDbPolyline
90
9
70
0
43
0
38
0
39
0
10
216.9683661499396
20
-253.74564586158363
10
411.6687847904723
20
-253.74564586158363
10
411.6687847904723
20
-419.97811817347446
10
337.4487818622274
20
-419.97811817347446
10
337.4487818622274
20
-348.80825235186984
10
281.0212453893838
20
-348.80825235186984
10
281.0212453893838
20
-327.96564878982844
10
216.9683661499396
20
-327.96564878982844
10
216.9683661499396
20
-253.74564586158363
0
LWPOLYLINE
5
20
330
1B
100
AcDbEntity
8
0
100
AcDbPolyline
90
13
70
0
43
0
38
0
39
0
10
337.4487818622274
20
-662.9723743358102
10
216.9683661499396
20
-662.9723743358102
10
216.9683661499396
20
-590.2774399608854
10
280.0045330205037
20
-590.2774399608854
10
280.0045330205037
20
-538.9334653324422
10
272.3791902539032
20
-538.9334653324422
10
272.3791902539032
20
-470.30538043303767
10
298.30535566034484
20
-470.30538043303767
10
298.30535566034484
20
-419.97811817347446
10
281.0212453893838
20
-419.97811817347446
10
281.0212453893838
20
-348.80825235186984
10
337.4487818622274
20
-348.80825235186984
10
337.4487818622274
20
-662.9723743358102
0
LWPOLYLINE
5
21
330
1B
100
AcDbEntity
8
0
100
AcDbPolyline
90
5
70
0
43
0
38
0
39
0
10
516.8985149695591
20
-419.97811817347446
10
411.6687847904723
20
-419.97811817347446
10
411.6687847904723
20
-253.74564586158363
10
516.8985149695591
20
-253.74564586158363
10
516.8985149695591
20
-419.97811817347446
0
LWPOLYLINE
5
22
330
1B
100
AcDbEntity
8
0
100
AcDbPolyline
90
10
70
0
43
0
38
0
39
0
10
216.9683661499396
20
-590.2774399608854
10
280.0045330205037
20
-590.2774399608854
10
280.0045330205037
20
-538.9334653324422
10
272.3791902539032
20
-538.9334653324422
10
272.3791902539032
20
-470.30538043303767
10
298.30535566034484
20
-470.30538043303767
10
298.30535566034484
20
-419.97811817347446
10
281.0212453893838
20
-419.97811817347446
10
216.9683661499396
20
-419.97811817347446
10
216.9683661499396
20
-590.2774399608854
0
LWPOLYLINE
5
23
330
1B
100
AcDbEntity
8
0
100
AcDbPolyline
90
6
70
0
43
0
38
0
39
0
10
216.9683661499396
20
-419.97811817347446
10
281.0212453893838
20
-419.97811817347446
10
281.0212453893838
20
-348.80825235186984
10
281.0212453893838
20
-327.96564878982844
10
216.9683661499396
20
-327.96564878982844
10
216.9683661499396
20
-419.97811817347446
0
ENDBLK
5
1D
100
AcDbEntity
8
0
100
AcDbBlockEnd
0
BLOCK
5
27
330
26
100
AcDbEntity
8
0
100
AcDbBlockBegin
2
Kitchen_bench-1
70
0
10
0
20
0
30
0
3
Kitchen_bench-1
1

0
LWPOLYLINE
5
29
330
26
100
AcDbEntity
8
0
100
AcDbPolyline
90
5
70
0
43
0
38
0
39
0
10
332.54024705212976
20
-562.226752388432
10
332.5399420384191
20
-590.3248695928937
10
320.25058378643666
20
-590.3247170860384
10
320.2508888001473
20
-562.2265998815767
10
332.54024705212976
20
-562.226752388432
0
LWPOLYLINE
5
2A
330
26
100
AcDbEntity
8
0
100
AcDbPolyline
90
5
70
0
43
0
38
0
39
0
10
409.19039588447174
20
-258.9130864764166
10
409.1900908707611
20
-289.4144575428185
10
329.74215294173496
20
-289.4136950085419
10
329.7424579554456
20
-258.91232394213995
10
409.19039588447174
20
-258.9130864764166
0
LWPOLYLINE
5
2B
330
26
100
AcDbEntity
8
0
100
AcDbPolyline
90
5
70
0
43
0
38
0
39
0
10
299.6959131672621
20
-284.2797042306451
10
274.38740052491505
20
-284.2797042306451
10
274.38740052491505
20
-258.91374733945634
10
299.6959131672621
20
-258.91374733945634
10
299.6959131672621
20
-284.2797042306451
0
ENDBLK
5
28
100
AcDbEntity
8
0
100
AcDbBlockEnd
0
BLOCK
5
2E
330
2D
100
AcDbEntity
8
0
100
AcDbBlockBegin
2
Column-1
70
0
10
0
20
0
30
0
3
Column-1
1

0
LWPOLYLINE
5
30
330
2D
100
AcDbEntity
8
0
100
AcDbPolyline
90
6
70
0
43
0
38
0
39
0
10
342.44104293590226
20
-701.2449355581284
10
350.0637930859622
20
-701.2449355581284
10
350.0637930859622
20
-708.7520346762283
10
342.44104293590226
20
-708.7520346762283
10
342.44104293590226
20
-701.2449355581284
10
342.44104293590226
20
-701.2449355581284
0
ENDBLK
5
2F
100
AcDbEntity
8
0
100
AcDbBlockEnd
0
BLOCK
5
33
330
32
100
AcDbEntity
8
0
100
AcDbBlockBegin
2
Water_heater-1
70
0
10
0
20
0
30
0
3
Water_heater-1
1

0
LWPOLYLINE
5
35
330
32
100
AcDbEntity
8
0
100
AcDbPolyline
90
186
70
0
43
0
38
0
39
0
10
271.5892047432834
20
-273.68027444259667
10
271.5807906909321
20
-274.18853782307224
10
271.55559058496624
20
-274.6962447203911
10
271.5135432146842
20
-275.2028347269294
10
271.45449774926124
20
-275.7077256796705
10
271.37853306861246
20
-276.2103489167573
10
271.2856472327678
20
-276.71012172114257
10
271.1758702757629
20
-277.2064579063509
10
271.04932031510555
20
-277.69878440593624
10
270.90609264452087
20
-278.1865203362095
10
270.74630968425174
20
-278.66908590063906
10
270.5702132514605
20
-279.1459408571308
10
270.37786061529425
20
-279.6164736571001
10
270.1695790473909
20
-280.0801746766827
10
269.94559997717
20
-280.53650123101744
10
269.7060800254775
20
-280.9848658598229
10
269.45137331909984
20
-281.42477981854216
10
269.1817714880078
20
-281.8557261300532
10
268.8975626384329
20
-282.277183054006
10
268.59901453921736
20
-282.6886067537166
10
268.2865236392903
20
-283.0895419473268
10
267.9604346710745
20
-283.47949762175136
10
267.62110691768
20
-283.8579901072187
10
267.2688906340378
20
-284.2245196989471
10
266.90417297211354
20
-284.5786111474565
10
266.5273862456289
20
-284.91983062982393
10
266.1389484326928
20
-285.2477250583919
10
265.73929331542763
20
-285.56185028712565
10
265.32886964324825
20
-285.86177009922665
10
264.9081082416184
20
-286.1470052377283
10
264.4775345933473
20
-286.4171987216578
10
264.0376514085724
20
-286.6719543302553
10
263.5889798772224
20
-286.91089267398104
10
263.1320590564918
20
-287.13365207589345
10
262.6674127928359
20
-287.3398122050636
10
262.19565625296116
20
-287.5291341100781
10
261.7173836592776
20
-287.7013321644431
10
261.2332003119717
20
-287.8561355508694
10
260.7437089842845
20
-287.99323246775737
10
260.24958027850096
20
-288.11253632984784
10
259.75145605258746
20
-288.21387535981796
10
259.24997822888133
20
-288.2970449560159
10
258.7458325078784
20
-288.36211774242327
10
258.23966256771075
20
-288.4089115039035
10
257.732144698556
20
-288.43760956367504
10
257.22392412053193
20
-288.44810599258636
10
257.1809670789364
20
-288.4482249430534
10
256.7156501083831
20
-288.4406445896433
10
256.2079672208481
20
-288.415034548704
10
255.70152445493954
20
-288.3712938822531
10
255.19698911476578
20
-288.3093164111413
10
254.6950112804811
20
-288.22921829667706
10
254.1962785232357
20
-288.1309180829371
10
253.7014237604316
20
-288.0146622166324
10
253.21110656933845
20
-287.8805485786126
10
252.72598589710887
20
-287.7287094235602
10
252.24666540819828
20
-287.55945050547416
10
251.7737581840317
20
-287.37302031285685
10
251.3078846842795
20
-287.1696488526061
10
250.8496190938875
20
-286.94967086994706
10
250.39950841045948
20
-286.7134553598947
10
249.95809562996715
20
-286.4613590166014
10
249.52590509908123
20
-286.1937583130831
10
249.1034746945476
20
-285.91100087929016
10
248.69127156056075
20
-285.6135326915987
10
248.28975719310526
20
-285.3017880720124
10
247.89938454161475
20
-284.9761995175075
10
247.52059005742117
20
-284.6372096477978
10
247.15381131998757
20
-284.2852530198409
10
246.79947337411568
20
-283.92077453416175
10
246.45793487865944
20
-283.54427637865274
10
246.12957192568967
20
-283.1562336406555
10
245.81474613699223
20
-282.757128753758
10
245.51383819796484
20
-282.34742770472815
10
245.22719103594528
20
-281.92762591236004
10
244.95508608215803
20
-281.4982559468559
10
244.69782512358657
20
-281.0598304389133
10
244.45574815616786
20
-280.6128412693463
10
244.2291207514244
20
-280.15782470608775
10
244.0181486255829
20
-279.69534148674774
10
243.82311130406458
20
-279.22591527523826
10
243.64424967564423
20
-278.7500910561927
10
243.48167060276245
20
-278.26846004337364
10
243.33566191400962
20
-277.78154931454804
10
243.20626599534134
20
-277.2899631233668
10
243.09366490750975
20
-276.7942600152745
10
242.9979029058293
20
-276.29503035427234
10
242.9190907557408
20
-275.7928456893207
10
242.8571610065548
20
-275.28830025494887
10
242.81226483415048
20
-274.7819545531673
10
242.78422267916795
20
-274.27439678688194
10
242.7729790906082
20
-273.7661884342896
10
242.77272941458946
20
-273.68027444259667
10
242.77854313179137
20
-273.2578858949755
10
242.80090286789036
20
-272.7500458345558
10
242.8401021777658
20
-272.2432276406198
10
242.89626353556955
20
-271.73800778050355
10
242.9693796843657
20
-271.2349622236468
10
243.05938772366912
20
-270.7346629628089
10
243.16633788919756
20
-270.2377098651057
10
243.29003868117834
20
-269.7446596119451
10
243.43048130422784
20
-269.25611440283336
10
243.58746360226294
20
-268.77263057408703
10
243.76082655683706
20
-268.2947751250616
10
243.95045196088927
20
-267.8231370372133
10
244.15603681781909
20
-267.3582339976582
10
244.3773970263292
20
-266.90063130525795
10
244.61431698389296
20
-266.4508878674888
10
244.86646208033065
20
-266.00950074768184
10
245.1335530796918
20
-265.5769932391852
10
245.41534934306986
20
-265.15391942074075
10
245.71149566399865
20
-264.7407642094257
10
246.02164300924002
20
-264.3380135150635
10
246.34544900122992
20
-263.9461596176211
10
246.68256869011748
20
-263.5656984472815
10
247.03265893982325
20
-263.19713786204574
10
247.3952884519174
20
-262.8409089048523
10
247.77005698312502
20
-262.4974741555301
10
248.15654908938848
20
-262.16728807372
10
248.55433362645377
20
-261.8507963026028
10
248.962998466836
20
-261.5484842946551
10
249.38204646823712
20
-261.26073904202786
10
249.81099035295037
20
-260.98796613226995
10
250.24933048240248
20
-260.73056425041
10
250.6965488044044
20
-260.48891562540206
10
251.15213397616034
20
-260.263437195545
10
251.61551445102927
20
-260.05444909467025
10
252.0861044421232
20
-259.86224620636324
10
252.5633126929561
20
-259.6871189235437
10
253.04655254370294
20
-259.52939506585193
10
253.5351902443608
20
-259.3892878880231
10
254.02857496443528
20
-259.26694288534253
10
254.5260758568078
20
-259.1625870960625
10
255.0270321711912
20
-259.0763339101974
10
255.53077146845405
20
-259.0081851392389
10
256.03664839410317
20
-258.9583235276228
10
256.54398346117716
20
-258.92655787825174
10
257.05213163347196
20
-258.9130046748513
10
257.1809670789364
20
-258.9123747777584
10
257.5604410162772
20
-258.9174343636059
10
258.06827011700886
20
-258.9399593508444
10
258.57496722787346
20
-258.9806478017447
10
259.07987311916713
20
-259.03952992246093
10
259.582326682812
20
-259.11658651064266
10
260.0816549759193
20
-259.2118132853928
10
260.5772171852755
20
-259.32501705993496
10
261.06833755967534
20
-259.45615884531657
10
261.55438274735974
20
-259.6050105462104
10
262.03473371552855
20
-259.77132299978734
10
262.50876756023877
20
-259.9548707474572
10
262.97585892725886
20
-260.1554287272697
10
263.43545417276675
20
-260.37261400752607
10
263.8869886691542
20
-260.60609643405667
10
264.3299162343884
20
-260.85552274927363
10
264.76368647655875
20
-261.12055541615223
10
265.1877941234785
20
-261.4007898637349
10
265.60176478412404
20
-261.6957925606273
10
266.0051254865301
20
-262.0051444547487
10
266.39742046879667
20
-262.32841479508227
10
266.77820358545637
20
-262.6651701535202
10
267.14701565309156
20
-263.01499530307694
10
267.503487278811
20
-263.37738644687056
10
267.84722535270316
20
-263.75187726689154
10
268.1778514138307
20
-264.1379939098736
10
268.4949939835532
20
-264.5352609561137
10
268.79824835744057
20
-264.94322817118933
10
269.0873348077836
20
-265.3613534480128
10
269.36193310038243
20
-265.7891332196631
10
269.6217359692446
20
-266.22605785509893
10
269.8663640444173
20
-266.6716560417279
10
270.09563096566956
20
-267.12534810885467
10
270.30928522918487
20
-267.58659877991784
10
270.5069995705951
20
-268.0549038151421
10
270.6886188855601
20
-268.5296820586029
10
270.85397625628934
20
-269.0103665701524
10
271.0027706860776
20
-269.4964332809868
10
271.1350068599303
20
-269.9872632622819
10
271.2504272399897
20
-270.48231762107935
10
271.3490612082454
20
-270.9809879351104
10
271.43071752458366
20
-271.4827181165476
10
271.49550268968187
20
-271.9869046554951
10
271.54327252785595
20
-272.49298718131706
10
271.5741561027345
20
-273.00037994925776
10
271.5882295539259
20
-273.5085175476626
10
271.5892047432834
20
-273.68027444259667
10
271.5892047432834
20
-273.68027444259667
0
ENDBLK
5
34
100
AcDbEntity
8
0
100
AcDbBlockEnd
0
BLOCK
5
38
330
37
100
AcDbEntity
8
0
100
AcDbBlockBegin
2
Wahsing_machine-1
70
0
10
0
20
0
30
0
3
Wahsing_machine-1
1

0
LWPOLYLINE
5
3A
330
37
100
AcDbEntity
8
0
100
AcDbPolyline
90
6
70
0
43
0
38
0
39
0
10
299.69845494818435
20
-258.9127306270875
10
329.7078897349037
20
-258.9127306270875
10
329.7078897349037
20
-289.41410169348944
10
299.69845494818435
20
-289.41410169348944
10
299.69845494818435
20
-258.9127306270875
10
299.69845494818435
20
-258.9127306270875
0
ENDBLK
5
39
100
AcDbEntity
8
0
100
AcDbBlockEnd
0
BLOCK
5
3D
330
3C
100
AcDbEntity
8
0
100
AcDbBlockBegin
2
WC_tank-1
70
0
10
0
20
0
30
0
3
WC_tank-1
1

0
LWPOLYLINE
5
3F
330
3C
100
AcDbEntity
8
0
100
AcDbPolyline
90
123
70
0
43
0
38
0
39
0
10
245.1060843011692
20
-347.783558790894
10
245.1060843011692
20
-346.46183271135
10
245.10667105014215
20
-346.25849135346635
10
245.11354442454743
20
-345.75018687612857
10
245.1288742585001
20
-345.24206852758607
10
245.15379722290137
20
-344.73433227615413
10
245.18965744762164
20
-344.2272539965317
10
245.23816773737403
20
-343.7212332812484
10
245.30150873008404
20
-343.2168604989628
10
245.38252432910804
20
-342.7150335254084
10
245.4849792184186
20
-342.21715826968017
10
245.6140612504024
20
-341.72554438374
10
245.77703800789655
20
-341.2441642940036
10
245.9843536221734
20
-340.7802821218825
10
246.25066089292054
20
-340.3478765191591
10
246.5938541846469
20
-339.9743591587541
10
247.02362301428195
20
-339.7066845168106
10
247.51650733751097
20
-339.592271763669
10
247.62366746899005
20
-339.5888570977207
10
262.43859008088907
20
-339.5888570977207
10
262.76594847356876
20
-339.6127239850331
10
263.25383258218994
20
-339.7504799312215
10
263.69080580326306
20
-340.0076383326921
10
264.05770129535927
20
-340.35818246365324
10
264.3549530438121
20
-340.76991677716626
10
264.59292893578527
20
-341.21879331914846
10
264.7832625057457
20
-341.6899876927922
10
264.93561488268824
20
-342.1748682259571
10
265.05739643984475
20
-342.6683540554109
10
265.1541771055504
20
-343.1673679611948
10
265.23019248335015
20
-343.66997775276894
10
265.28868273254875
20
-344.1749357886771
10
265.3321693379063
20
-344.6814123220244
10
265.3626654565802
20
-345.18884071026514
10
265.3817743348535
20
-345.69682815339644
10
265.3908337226742
20
-346.2050961935351
10
265.39193617001183
20
-346.46183271135
10
265.39193617001183
20
-347.783558790894
10
265.3882625692705
20
-348.238498124221
10
265.37571861583365
20
-348.746693125466
10
265.3545232677353
20
-349.25460108264076
10
265.32482176923645
20
-349.76208275656194
10
265.28666660361387
20
-350.26899901225573
10
265.23999988433627
20
-350.7752025547169
10
265.18476302616136
20
-351.28054250920667
10
265.12076750514166
20
-351.7848478153861
10
265.0478455071375
20
-352.28793944288014
10
264.96573805899015
20
-352.78961342246083
10
264.87414366517294
20
-353.28964187936214
10
264.772713961853
20
-353.78776779735546
10
264.66106212896443
20
-354.2837017432619
10
264.53876082025306
20
-354.7771163952437
10
264.4053278851602
20
-355.2676366951766
10
264.2602332070363
20
-355.7548335255273
10
264.1028979641528
20
-356.23821464340006
10
263.9326947176056
20
-356.7172143227385
10
263.7489488053876
20
-357.19118165309453
10
263.55094165045125
20
-357.659367531681
10
263.33791673729206
20
-358.12091052795085
10
263.1090891644351
20
-358.57482201595974
10
262.86365981574215
20
-359.01997127960925
10
262.6008352717773
20
-359.45507171615503
10
262.3198050536703
20
-359.8786354227568
10
262.0198505582681
20
-360.2890071860318
10
261.70044211899324
20
-360.6844176044981
10
261.3610535264067
20
-361.0628083032948
10
261.0015293276539
20
-361.42211161144735
10
260.6219256859217
20
-361.7601211822209
10
260.2226356742583
20
-362.0746211404862
10
259.8045048954874
20
-362.36359236363785
10
259.3686382738446
20
-362.62503826859586
10
258.9166818265835
20
-362.8575599761799
10
258.4504753925553
20
-363.060008054938
10
257.97207204642973
20
-363.23166899473813
10
257.4837104680983
20
-363.3725400515056
10
256.9875587477088
20
-363.48290388721085
10
256.4857327463681
20
-363.56366133337855
10
255.98014485017123
20
-363.6160041882123
10
255.47247542308682
20
-363.641295343011
10
255.2248124812112
20
-363.64427174542305
10
254.96420232604171
20
-363.639118734747
10
254.45689239584163
20
-363.60764621567364
10
253.95232539739655
20
-363.54634610357687
10
253.4524953992614
20
-363.4541116301125
10
252.95959378048798
20
-363.33009755172117
10
252.4759024143483
20
-363.1739845673614
10
252.00371363908985
20
-362.9859269278328
10
251.5451885282066
20
-362.7666493927161
10
251.10215988793578
20
-362.51753676232545
10
250.6762962631642
20
-362.24008980564344
10
250.26865134346946
20
-361.9364978052025
10
249.88010439335778
20
-361.60880679222714
10
249.5109423620787
20
-361.25941177104613
10
249.16131975000422
20
-360.8904547413815
10
248.83090475338952
20
-360.5041922532916
10
248.51940891481829
20
-360.1025084576527
10
248.22614880474464
20
-359.6873180985736
10
247.95046296680488
20
-359.2602495398007
10
247.691662886024
20
-358.8227362967894
10
247.44900234269298
20
-358.37606541677553
10
247.22170561887
20
-357.9213807487708
10
247.0090511357991
20
-357.4596635785746
10
246.81034714455754
20
-356.9917706264406
10
246.6249403481025
20
-356.51844885068226
10
246.45222133433276
20
-356.0403493613441
10
246.29162766992002
20
-355.55804013429827
10
246.14264535494365
20
-355.0720174037084
10
246.00480920108464
20
-354.58271573225977
10
245.8777025799021
20
-354.0905168323477
10
245.76095689542012
20
-353.59575725255013
10
245.65425106679172
20
-353.0987350636418
10
245.55731126084189
20
-352.5997156856134
10
245.46991108948262
20
-352.0989369977861
10
245.3918724827045
20
-351.5966138727162
10
245.32312511311036
20
-351.09293489068864
10
245.2635579590593
20
-350.5880879028078
10
245.21322870067027
20
-350.0822365301017
10
245.17220465074436
20
-349.5755458872136
10
245.14069746520258
20
-349.06817490837705
10
245.11902542420046
20
-348.56028938765286
10
245.10768416786507
20
-348.05206922619556
10
245.1060843011692
20
-347.783558790894
10
245.1060843011692
20
-347.783558790894
0
LWPOLYLINE
5
40
330
3C
100
AcDbEntity
8
0
100
AcDbPolyline
90
117
70
0
43
0
38
0
39
0
10
245.34816351619955
20
-347.1667193966945
10
245.34816351619955
20
-345.9331422795323
10
245.34950652919207
20
-345.64165498118666
10
245.3586779873816
20
-345.13338836042504
10
245.37754871886673
20
-344.6253914322283
10
245.40758075435446
20
-344.11793502243864
10
245.45056775602953
20
-343.6114160095644
10
245.50885625954882
20
-343.1064358721345
10
245.58551077618972
20
-342.6039270069098
10
245.68463429109835
20
-342.1053830233471
10
245.81192363166355
20
-341.6133120409278
10
245.97545816929767
20
-341.13214325612176
10
246.18679469565004
20
-340.67012997256296
10
246.46196610994568
20
-340.24343225580174
10
246.81882456943916
20
-339.88320595809404
10
247.26174744691727
20
-339.63808695671264
10
247.75952005876462
20
-339.5456943697547
10
247.81730033964325
20
-339.54478261652974
10
262.29335271899447
20
-339.54478261652974
10
262.5015901940495
20
-339.55357826431646
10
262.99824081536667
20
-339.65604914110696
10
263.4529932808372
20
-339.88004320199275
10
263.83915759050797
20
-340.2089185857431
10
264.15046246676786
20
-340.6099440754603
10
264.39605904954385
20
-341.0546068686731
10
264.5888721024072
20
-341.5247514143388
10
264.74018714950944
20
-342.00993766736457
10
264.8586426560014
20
-342.504223271335
10
264.95066856570907
20
-343.00413152960044
10
265.02103513182067
20
-343.5075612832779
10
265.0733666167298
20
-344.0131938060918
10
265.11042865937463
20
-344.5201806124988
10
265.13439962904886
20
-345.02795900861486
10
265.14700062092754
20
-345.5361496238819
10
265.1498569549815
20
-345.9331422795323
10
265.1498569549815
20
-347.1667193966945
10
265.1466093489232
20
-347.5695431521923
10
265.13354030956725
20
-348.07772313550686
10
265.1107275564574
20
-348.5855593682022
10
265.0783274587444
20
-349.09287434953904
10
265.03637365699717
20
-349.59948875141896
10
264.9847976728148
20
-350.1052139690995
10
264.92347992159625
20
-350.6098503272968
10
264.8522171157698
20
-351.11317827455355
10
264.77070572070204
20
-351.61494781974676
10
264.6786573035065
20
-352.11489071771996
10
264.5757063277356
20
-352.6127021556568
10
264.4613454807561
20
-353.1080158613228
10
264.33516392536944
20
-353.6004495347631
10
264.1965487293795
20
-354.0895273194596
10
264.0449577289212
20
-354.5747382157069
10
263.8796813562574
20
-355.05545760651853
10
263.70006933742434
20
-355.5310040404029
10
263.50532417051227
20
-356.00055324231306
10
263.2946883289171
20
-356.46318817635205
10
263.06734828705885
20
-356.9178436023309
10
262.82242755588527
20
-357.3632693879951
10
262.5591851421684
20
-357.7981123041491
10
262.2768197033315
20
-358.2207821269817
10
261.97461122276667
20
-358.62949145260023
10
261.6520789872907
20
-359.02235049413474
10
261.3088782450637
20
-359.39727878712574
10
260.94493038825544
20
-359.75209374644896
10
260.56046481983753
20
-360.0845577650081
10
260.15608395931156
20
-360.39247904452304
10
259.73285448058766
20
-360.6739216091653
10
259.2922000349645
20
-360.92720972109777
10
258.8358241225046
20
-361.15093369072696
10
258.36579968674823
20
-361.34435016674126
10
257.8842682115121
20
-361.5070278996533
10
257.39349046334314
20
-361.639233090346
10
256.8956187341171
20
-361.74156293077453
10
256.39267254737365
20
-361.8150524256202
10
255.88645484257574
20
-361.86096188963216
10
255.37854003754103
20
-361.8808154494615
10
255.2248124812112
20
-361.88195336082475
10
254.87027400619277
20
-361.8752460627349
10
254.36308936706504
20
-361.84181931870233
10
253.85872744854288
20
-361.7788514991889
10
253.35918318675505
20
-361.6850754216756
10
252.86663491094646
20
-361.5596592382274
10
252.3834134429903
20
-361.40209753748724
10
251.91179473289878
20
-361.2126161738761
10
251.4540353611113
20
-360.99174603613943
10
251.01204658446895
20
-360.7407999847042
10
250.58746934290744
20
-360.461395057873
10
250.18154995393732
20
-360.15550344242416
10
249.7951211758645
20
-359.8253191763268
10
249.42866063398822
20
-359.4730930004906
10
249.08223306149523
20
-359.1011374826382
10
248.75563311461497
20
-358.7116481201392
10
248.44843870255522
20
-358.30666901894506
10
248.1600884275314
20
-357.8880550545597
10
247.88995912429516
20
-357.4574522295366
10
247.6372289095874
20
-357.01640755400143
10
247.40120120482777
20
-356.5661984556078
10
247.181095842268
20
-356.107990864901
10
246.97618148750342
20
-355.6427879461467
10
246.78576527723823
20
-355.17146237192185
10
246.6091924090303
20
-354.69477557885705
10
246.44584264812568
20
-354.2133953195931
10
246.29519329275757
20
-353.727888982566
10
246.15670183734957
20
-353.2387744624982
10
246.0299761090844
20
-352.74647924097917
10
245.91458339465555
20
-352.2514042219961
10
245.8102203625992
20
-351.75388644172585
10
245.71662591229915
20
-351.2542304664678
10
245.6335727343848
20
-350.7527142663105
10
245.5609376708447
20
-350.2495832870231
10
245.49866804723237
20
-349.74506448303424
10
245.44678975843703
20
-349.2393716486901
10
245.40542258620587
20
-348.73271082715314
10
245.37488532679131
20
-348.2252826480291
10
245.3555829528857
20
-347.71730415898816
10
245.34821945538258
20
-347.20901403570195
10
245.34816351619955
20
-347.1667193966945
10
245.34816351619955
20
-347.1667193966945
0
LWPOLYLINE
5
41
330
3C
100
AcDbEntity
8
0
100
AcDbPolyline
90
113
70
0
43
0
38
0
39
0
10
245.34816351619955
20
-346.7261779272588
10
245.34816351619955
20
-345.5806481012416
10
245.35078652770534
20
-345.2011215554344
10
245.36313845180803
20
-344.6929249792737
10
245.3870086894091
20
-344.1851422555451
10
245.42426173110235
20
-343.6781703271777
10
245.47731316615534
20
-343.17261467684494
10
245.54930498092338
20
-342.66941880741524
10
245.64445407849226
20
-342.17010405890073
10
245.76858531259174
20
-341.6772316128449
10
245.9298759325594
20
-341.19531298059496
10
246.13993702040602
20
-340.73272793875384
10
246.41447879943212
20
-340.3056285656143
10
246.77039989887285
20
-339.94442054810844
10
247.2110396393768
20
-339.6949395364365
10
247.70688932591418
20
-339.5920168397441
10
247.81730033964325
20
-339.5888570977207
10
262.29335271899447
20
-339.5888570977207
10
262.4490668041625
20
-339.59346388738976
10
262.94912208440667
20
-339.6787430001615
10
263.41402814419257
20
-339.88102427712136
10
263.8155224588529
20
-340.19091258288535
10
264.1422304770117
20
-340.57937706205195
10
264.40008299931947
20
-341.01697271550955
10
264.60134676531095
20
-341.4835219346738
10
264.7577446937694
20
-341.9670713300893
10
264.8786140531905
20
-342.46075889853324
10
264.9709496961933
20
-342.96060193844943
10
265.0399808923378
20
-343.4642114844943
10
265.0896571550095
20
-343.97010851030853
10
265.12301250927544
20
-344.4773505405056
10
265.1423933901964
20
-344.985323321394
10
265.14970242167976
20
-345.49361648254455
10
265.1498569549815
20
-345.5806481012416
10
265.1498569549815
20
-346.7261779272588
10
265.14788779022206
20
-347.0186760836762
10
265.13538994525084
20
-347.5268679180983
10
265.11174565025306
20
-348.03466390634975
10
265.0771465361837
20
-348.54183158480686
10
265.0316885640136
20
-349.04814144503405
10
264.9752970449115
20
-349.55335003398505
10
264.90786553795215
20
-350.0572034980834
10
264.829093884137
20
-350.55940837343604
10
264.7387174562359
20
-351.0596541263925
10
264.6363436919577
20
-351.5575821845766
10
264.5215194158019
20
-352.0527861830284
10
264.393731862662
20
-352.5448030189388
10
264.25240977076476
20
-353.03310268958006
10
264.09692512829565
20
-353.51707678730924
10
263.9265962563535
20
-353.9960256041737
10
263.7406930471657
20
-354.46914392687916
10
263.53844533898166
20
-354.9355058036576
10
263.31905557557127
20
-355.3940488640057
10
263.0817170294064
20
-355.8435591957209
10
262.8256388994437
20
-356.282658347094
10
262.55007943290127
20
-356.70979471653595
10
262.25438774313045
20
-357.1232423596958
10
261.93805406897707
20
-357.5211109495375
10
261.6007667431976
20
-357.9013710280636
10
261.2424423494807
20
-358.261867119392
10
260.86337782383384
20
-358.6004770711863
10
260.4642027368533
20
-358.9151195406689
10
260.04592839306906
20
-359.2038809583486
10
259.6099426187275
20
-359.4651312456687
10
259.15793110251286
20
-359.6975555338449
10
258.69187586235216
20
-359.9003561540518
10
258.21393307932175
20
-360.0733044223984
10
257.72620119618085
20
-360.2163559198151
10
257.2308364225749
20
-360.3302184959285
10
256.7298071185005
20
-360.4158191600811
10
256.22489620111696
20
-360.4744010797093
10
255.71765046722768
20
-360.5071902976143
10
255.27320798996988
20
-360.51615280008974
10
255.20941581913905
20
-360.515911318034
10
254.70136812156048
20
-360.49992058888176
10
254.1948641095118
20
-360.457322523114
10
253.69151489735899
20
-360.3866550047577
10
253.1931508625137
20
-360.2867530355172
10
252.70176520654204
20
-360.15682230926967
10
252.21951654750595
20
-359.99628129187226
10
251.74851404207303
20
-359.80525414596485
10
251.29087790480366
20
-359.5841101682062
10
250.84851115800964
20
-359.3338146944358
10
250.42303401583527
20
-359.055771894578
10
250.01575470525276
20
-358.75168813076397
10
249.62761713570583
20
-358.42351302890074
10
249.2592035683034
20
-358.07332984276
10
248.91077777543467
20
-357.70324450577164
10
248.58228757803786
20
-357.31534751883913
10
248.27345513115472
20
-356.91161696749253
10
247.98383288873697
20
-356.49388440495136
10
247.71285030156
20
-356.0638201348011
10
247.45985906858218
20
-355.62292658626274
10
247.22418468756314
20
-355.17253414509184
10
247.00512382065443
20
-354.71382806179196
10
246.80197850437204
20
-354.24785214608727
10
246.61408652005525
20
-353.7755169581832
10
246.44082563810525
20
-353.2976187505653
10
246.28162186171588
20
-352.81485375521834
10
246.1359550965943
20
-352.32783151155047
10
246.00336315488022
20
-351.83708701356863
10
245.88344487179603
20
-351.3430916308763
10
245.77586301440715
20
-350.84626287382787
10
245.6803476045205
20
-350.3469731497049
10
245.59673861696538
20
-349.84555175528675
10
245.52492203239044
20
-349.3423058751797
10
245.4649167596564
20
-348.8375155602262
10
245.4168467988153
20
-348.3314495905826
10
245.381010137747
20
-347.82437118044066
10
245.35791734829965
20
-347.316554085829
10
245.34837340970762
20
-346.8083039914282
10
245.34816351619955
20
-346.7261779272588
10
245.34816351619955
20
-346.7261779272588
0
LWPOLYLINE
5
42
330
3C
100
AcDbEntity
8
0
100
AcDbPolyline
90
49
70
0
43
0
38
0
39
0
10
245.1060843011692
20
-336.9013304574416
10
245.1060843011692
20
-334.30195277954437
10
245.13508264587713
20
-333.8524413700471
10
245.2372466175333
20
-333.35492307447373
10
245.41076180688646
20
-332.8775701610762
10
245.65070132610282
20
-332.4298826879049
10
245.95048405871557
20
-332.0198205948636
10
246.3027289151476
20
-331.65380352384994
10
246.69979693062865
20
-331.3369398924274
10
247.13406100617922
20
-331.07332004646037
10
247.59790951598157
20
-330.86610976536997
10
248.0837651525653
20
-330.71763118600626
10
248.5840656431227
20
-330.6292492567374
10
249.07609192355366
20
-330.60111975682094
10
261.42187771200895
20
-330.60111975682094
10
261.7999327875413
20
-330.61336701096934
10
262.30327704307103
20
-330.6823573110939
10
262.7945798341434
20
-330.8116876409115
10
263.26630625021266
20
-331.00028700347934
10
263.7108761736098
20
-331.246138389833
10
264.1207148776466
20
-331.5463103000044
10
264.48820184929764
20
-331.8970315791939
10
264.8056754824471
20
-332.29356583547235
10
265.0656114710549
20
-332.7299558370735
10
265.2610874175632
20
-333.1987501665552
10
265.3865325915002
20
-333.6909157410894
10
265.43874104206486
20
-334.1961276869039
10
265.4403316787706
20
-334.30195277954437
10
265.4403316787706
20
-336.9013304574416
10
265.41557076120466
20
-337.2450591735783
10
265.2895385362093
20
-337.7365500006035
10
265.0636127919079
20
-338.19093336080243
10
264.7510779993388
20
-338.5908244327576
10
264.3677929150074
20
-338.92362668324876
10
263.9298811670294
20
-339.18043480740175
10
263.4532020505487
20
-339.35516171173816
10
262.9533713100685
20
-339.44434503131674
10
262.6806692959194
20
-339.4566844897663
10
247.8657466840204
20
-339.4566844897663
10
247.7031362003708
20
-339.45232008570787
10
247.20030909045653
20
-339.381917268632
10
246.71727519800567
20
-339.2255926161878
10
246.2696039902688
20
-338.98618443841525
10
245.87309717913934
20
-338.6692294484938
10
245.5438354842683
20
-338.28297181133524
10
245.29784328410096
20
-337.83911208978236
10
245.14924616379676
20
-337.3539582993873
10
245.1060843011692
20
-336.9013304574416
10
245.1060843011692
20
-336.9013304574416
0
LWPOLYLINE
5
43
330
3C
100
AcDbEntity
8
0
100
AcDbPolyline
90
17
70
0
43
0
38
0
39
0
10
256.24152485009125
20
-335.0068394648889
10
256.0880995732098
20
-335.4830214382356
10
255.69769284809968
20
-335.7990585448293
10
255.27320798996988
20
-335.88802407499725
10
255.20179253803528
20
-335.88566062129877
10
254.72270897411386
20
-335.7318598272471
10
254.38581477674455
20
-335.3600313227693
10
254.3048911298485
20
-335.0068394648889
10
254.31743600428368
20
-334.8646419751225
10
254.54983972809168
20
-334.42106058753916
10
254.9830126540306
20
-334.16595967046743
10
255.27320798996988
20
-334.125705690399
10
255.4862100066609
20
-334.1470919894866
10
255.93861694989408
20
-334.36670293907645
10
256.211200361546
20
-334.78720383147305
10
256.24152485009125
20
-335.0068394648889
10
256.24152485009125
20
-335.0068394648889
0
ENDBLK
5
3E
100
AcDbEntity
8
0
100
AcDbBlockEnd
0
BLOCK
5
46
330
45
100
AcDbEntity
8
0
100
AcDbBlockBegin
2
Straight_stair-1
70
0
10
0
20
0
30
0
3
Straight_stair-1
1

0
LWPOLYLINE
5
48
330
45
100
AcDbEntity
8
0
100
AcDbPolyline
90
5
70
0
43
0
38
0
39
0
10
522.2110404394311
20
-168.93368598120168
10
522.2110404394311
20
-420.06164109457796
10
581.8366456685872
20
-420.06164109457796
10
581.8366456685872
20
-168.93368598120168
10
522.2110404394311
20
-168.93368598120168
0
LWPOLYLINE
5
49
330
45
100
AcDbEntity
8
0
100
AcDbPolyline
90
2
70
0
43
0
38
0
39
0
10
522.2110404394311
20
-420.06164109457796
10
581.8366456685872
20
-420.06164109457796
0
LWPOLYLINE
5
4A
330
45
100
AcDbEntity
8
0
100
AcDbPolyline
90
2
70
0
43
0
38
0
39
0
10
522.2110404394311
20
-406.8443802991371
10
581.8366456685872
20
-406.8443802991371
0
LWPOLYLINE
5
4B
330
45
100
AcDbEntity
8
0
100
AcDbPolyline
90
2
70
0
43
0
38
0
39
0
10
522.2110404394311
20
-393.62711950369624
10
581.8366456685872
20
-393.62711950369624
0
LWPOLYLINE
5
4C
330
45
100
AcDbEntity
8
0
100
AcDbPolyline
90
2
70
0
43
0
38
0
39
0
10
522.2110404394311
20
-380.40985870825534
10
581.8366456685872
20
-380.40985870825534
0
LWPOLYLINE
5
4D
330
45
100
AcDbEntity
8
0
100
AcDbPolyline
90
2
70
0
43
0
38
0
39
0
10
522.2110404394311
20
-367.1925979128145
10
581.8366456685872
20
-367.1925979128145
0
LWPOLYLINE
5
4E
330
45
100
AcDbEntity
8
0
100
AcDbPolyline
90
2
70
0
43
0
38
0
39
0
10
522.2110404394311
20
-353.97533711737367
10
581.8366456685872
20
-353.97533711737367
0
LWPOLYLINE
5
4F
330
45
100
AcDbEntity
8
0
100
AcDbPolyline
90
2
70
0
43
0
38
0
39
0
10
522.2110404394311
20
-340.7580763219328
10
581.8366456685872
20
-340.7580763219328
0
LWPOLYLINE
5
50
330
45
100
AcDbEntity
8
0
100
AcDbPolyline
90
2
70
0
43
0
38
0
39
0
10
522.2110404394311
20
-327.54081552649194
10
581.8366456685872
20
-327.54081552649194
0
LWPOLYLINE
5
51
330
45
100
AcDbEntity
8
0
100
AcDbPolyline
90
2
70
0
43
0
38
0
39
0
10
522.2110404394311
20
-314.3235547310511
10
581.8366456685872
20
-314.3235547310511
0
LWPOLYLINE
5
52
330
45
100
AcDbEntity
8
0
100
AcDbPolyline
90
2
70
0
43
0
38
0
39
0
10
522.2110404394311
20
-301.1062939356102
10
581.8366456685872
20
-301.1062939356102
0
LWPOLYLINE
5
53
330
45
100
AcDbEntity
8
0
100
AcDbPolyline
90
2
70
0
43
0
38
0
39
0
10
522.2110404394311
20
-287.8890331401694
10
581.8366456685872
20
-287.8890331401694
0
LWPOLYLINE
5
54
330
45
100
AcDbEntity
8
0
100
AcDbPolyline
90
2
70
0
43
0
38
0
39
0
10
522.2110404394311
20
-274.67177234472854
10
581.8366456685872
20
-274.67177234472854
0
LWPOLYLINE
5
55
330
45
100
AcDbEntity
8
0
100
AcDbPolyline
90
2
70
0
43
0
38
0
39
0
10
522.2110404394311
20
-261.45451154928764
10
581.8366456685872
20
-261.45451154928764
0
LWPOLYLINE
5
56
330
45
100
AcDbEntity
8
0
100
AcDbPolyline
90
2
70
0
43
0
38
0
39
0
10
522.2110404394311
20
-248.2372507538468
10
581.8366456685872
20
-248.2372507538468
0
LWPOLYLINE
5
57
330
45
100
AcDbEntity
8
0
100
AcDbPolyline
90
2
70
0
43
0
38
0
39
0
10
522.2110404394311
20
-235.01998995840592
10
581.8366456685872
20
-235.01998995840592
0
LWPOLYLINE
5
58
330
45
100
AcDbEntity
8
0
100
AcDbPolyline
90
2
70
0
43
0
38
0
39
0
10
522.2110404394311
20
-221.80272916296508
10
581.8366456685872
20
-221.80272916296508
0
LWPOLYLINE
5
59
330
45
100
AcDbEntity
8
0
100
AcDbPolyline
90
2
70
0
43
0
38
0
39
0
10
522.2110404394311
20
-208.58546836752424
10
581.8366456685872
20
-208.58546836752424
0
LWPOLYLINE
5
5A
330
45
100
AcDbEntity
8
0
100
AcDbPolyline
90
2
70
0
43
0
38
0
39
0
10
522.2110404394311
20
-195.36820757208335
10
581.8366456685872
20
-195.36820757208335
0
LWPOLYLINE
5
5B
330
45
100
AcDbEntity
8
0
100
AcDbPolyline
90
2
70
0
43
0
38
0
39
0
10
522.2110404394311
20
-182.1509467766425
10
581.8366456685872
20
-182.1509467766425
0
LWPOLYLINE
5
5C
330
45
100
AcDbEntity
8
0
100
AcDbPolyline
90
2
70
0
43
0
38
0
39
0
10
522.2110404394311
20
-168.93368598120168
10
581.8366456685872
20
-168.93368598120168
0
LWPOLYLINE
5
5D
330
45
100
AcDbEntity
8
0
100
AcDbPolyline
90
2
70
0
43
0
38
0
39
0
10
522.2110404394311
20
-420.06164109457796
10
522.2110404394311
20
-168.93368598120168
0
LWPOLYLINE
5
5E
330
45
100
AcDbEntity
8
0
100
AcDbPolyline
90
2
70
0
43
0
38
0
39
0
10
581.8366456685872
20
-420.06164109457796
10
581.8366456685872
20
-168.93368598120168
0
LWPOLYLINE
5
5F
330
45
100
AcDbEntity
8
0
100
AcDbPolyline
90
2
70
0
43
0
38
0
39
0
10
552.0238430540091
20
-420.06164109457796
10
552.0238430540091
20
-168.93368598120168
0
LWPOLYLINE
5
60
330
45
100
AcDbEntity
8
0
100
AcDbPolyline
90
2
70
0
43
0
38
0
39
0
10
552.0238430540091
20
-168.93368598120168
10
536.9879380087341
20
-183.7094143312803
0
LWPOLYLINE
5
61
330
45
100
AcDbEntity
8
0
100
AcDbPolyline
90
2
70
0
43
0
38
0
39
0
10
552.0238430540091
20
-168.93368598120168
10
566.9302697791073
20
-183.84006187068138
0
ENDBLK
5
47
100
AcDbEntity
8
0
100
AcDbBlockEnd
0
BLOCK
5
64
330
63
100
AcDbEntity
8
0
100
AcDbBlockBegin
2
Column-2
70
0
10
0
20
0
30
0
3
Column-2
1

0
LWPOLYLINE
5
66
330
63
100
AcDbEntity
8
0
100
AcDbPolyline
90
6
70
0
43
0
38
0
39
0
10
217.87344350071666
20
-255.32271925257197
10
242.14429949938472
20
-255.32271925257197
10
242.14429949938472
20
-330.3723594738229
10
217.87344350071666
20
-330.3723594738229
10
217.87344350071666
20
-255.32271925257197
10
217.87344350071666
20
-255.32271925257197
0
ENDBLK
5
65
100
AcDbEntity
8
0
100
AcDbBlockEnd
0
BLOCK
5
69
330
68
100
AcDbEntity
8
0
100
AcDbBlockBegin
2
Column-3
70
0
10
0
20
0
30
0
3
Column-3
1

0
LWPOLYLINE
5
6B
330
68
100
AcDbEntity
8
0
100
AcDbPolyline
90
6
70
0
43
0
38
0
39
0
10
212.0680158744115
20
-667.1329138561227
10
222.9976738398722
20
-667.1329138561227
10
222.9976738398722
20
-709.3264771646454
10
212.0680158744115
20
-709.3264771646454
10
212.0680158744115
20
-667.1329138561227
10
212.0680158744115
20
-667.1329138561227
0
ENDBLK
5
6A
100
AcDbEntity
8
0
100
AcDbBlockEnd
0
BLOCK
5
6E
330
6D
100
AcDbEntity
8
0
100
AcDbBlockBegin
2
Washstand_cab-1
70
0
10
0
20
0
30
0
3
Washstand_cab-1
1

0
LWPOLYLINE
5
70
330
6D
100
AcDbEntity
8
0
100
AcDbPolyline
90
6
70
0
43
0
38
0
39
0
10
270.7466552031925
20
-417.5047111580814
10
242.52861677482136
20
-417.50445697998924
10
242.52882011729514
20
-399.868157544448
10
270.7468585456662
20
-399.86841172254026
10
270.7466552031925
20
-417.5047111580814
10
270.7466552031925
20
-417.5047111580814
0
LWPOLYLINE
5
71
330
6D
100
AcDbEntity
8
0
100
AcDbPolyline
90
72
70
0
43
0
38
0
39
0
10
266.30240209634394
20
-410.4501507153702
10
266.30235126072546
20
-415.91741980778585
10
266.29200427682883
20
-416.0414931320925
10
266.0479989088094
20
-416.4760920530693
10
265.58394458774944
20
-416.65781299276017
10
265.5616254643779
20
-416.6581456041335
10
247.67841743005425
20
-416.6579422616597
10
247.30162362281916
20
-416.55508369702005
10
246.98268787224507
20
-416.1719722897827
10
246.93774246932512
20
-415.91721646531215
10
246.93779330494354
20
-410.16780969053224
10
246.93825147782204
20
-410.0769715715851
10
246.95676374618066
20
-409.5690146900695
10
247.002697689641
20
-409.0628012155808
10
247.07613749673948
20
-408.55984178476837
10
247.17703092688066
20
-408.06166390958265
10
247.3051042638959
20
-407.5697724621422
10
247.4600295169359
20
-407.0856667676214
10
247.64135025790077
20
-406.6108162127847
10
247.8484568767733
20
-406.14663181495257
10
248.0806935644078
20
-405.69449573290075
10
248.33731475000667
20
-405.25574012230067
10
248.6174580852122
20
-404.8316160721592
10
248.92029490312015
20
-404.4233859042504
10
249.24485658699695
20
-404.0322065395861
10
249.59014802385468
20
-403.6591974428607
10
249.95517560558372
20
-403.3054783343191
10
250.33885744531176
20
-402.97208669552737
10
250.74006021993816
20
-402.66000028375873
10
251.15764904316782
20
-402.37020491884414
10
251.59041710837164
20
-402.1036099741608
10
252.03708488751155
20
-401.86102200388
10
252.49638495146817
20
-401.643296819944
10
252.96692709247014
20
-401.45107203788746
10
253.44733151418313
20
-401.2850245971011
10
253.93612844316598
20
-401.1456039717598
10
254.43186119462197
20
-401.0333104750723
10
254.93299996245344
20
-400.948338021328
10
255.43802929480924
20
-400.8908359681764
10
255.945434711609
20
-400.86080204813845
10
256.2145311366975
20
-400.8559444464335
10
256.9905368522452
20
-400.8559444464335
10
257.47024405270486
20
-400.8681245558043
10
257.97700014452676
20
-400.9076190798769
10
258.4808581568517
20
-400.9746099188699
10
258.98030040257026
20
-401.06904468309745
10
259.4738030060398
20
-401.19076430021124
10
259.95986247020323
20
-401.3394460170998
10
260.437025561541
20
-401.5145913172657
10
260.90382434624337
20
-401.71573704789625
10
261.35891324219887
20
-401.9421323734321
10
261.8009168076764
20
-402.1931185851641
10
262.22857339010625
20
-402.4678382418852
10
262.6406483692932
20
-402.76542208200163
10
263.03591651709394
20
-403.08499227404286
10
263.4132780543109
20
-403.42552118839666
10
263.77162317564444
20
-403.786008521585
10
264.109863639502
20
-404.1654231616246
10
264.42703401310655
20
-404.5626189509701
10
264.7221472780949
20
-404.9764667412282
10
264.99426072901247
20
-405.4057865817794
10
265.2425660890548
20
-405.84930154164925
10
265.46619092821925
20
-406.3057583061003
10
265.6644755939674
20
-406.7737791913941
10
265.8367175260071
20
-407.25199766742617
10
265.9824434032761
20
-407.7389519172098
10
266.10112570822173
20
-408.2331939645948
10
266.19252854798606
20
-408.73319973238904
10
266.25647145619575
20
-409.23745376897335
10
266.2929186085081
20
-409.744438494407
10
266.30240209634394
20
-410.1679621973875
10
266.30240209634394
20
-410.4501507153702
0
LWPOLYLINE
5
72
330
6D
100
AcDbEntity
8
0
100
AcDbPolyline
90
67
70
0
43
0
38
0
39
0
10
265.4911164615961
20
-410.4501507153702
10
265.4910656259776
20
-415.2119739306385
10
265.4036456392604
20
-415.5186982699616
10
265.0246043929835
20
-415.84090656065285
10
264.7856197488302
20
-415.88213988858575
10
248.4191432264018
20
-415.8819873817304
10
248.25508986086072
20
-415.8628089978135
10
247.8431726776092
20
-415.58393130904614
10
247.71374818487283
20
-415.1764906689646
10
247.71379902049125
20
-410.16780969053224
10
247.7157266758975
20
-410.0189737729748
10
247.74173573934516
20
-409.51135867363763
10
247.79806055905485
20
-409.0062092295222
10
247.88470896109385
20
-408.5053707327831
10
248.0014765734348
20
-408.01068757806905
10
248.14796469419358
20
-407.5239769172627
10
248.32363519542056
20
-407.04702141633095
10
248.527792191766
20
-406.5815464581285
10
248.75954782577145
20
-406.12917812640933
10
249.0180118707276
20
-405.6915197182952
10
249.302082333523
20
-405.27003070188937
10
249.6106853658907
20
-404.86615692610394
10
249.9426164262524
20
-404.48122591621365
10
250.29664433769565
20
-404.1165135433255
10
250.67150662296416
20
-403.77325086207975
10
251.0658413022498
20
-403.45254594450137
10
251.4783228291225
20
-403.15554346817567
10
251.90748119133542
20
-402.88319337085755
10
252.3518942438137
20
-402.6365186757719
10
252.81000613250058
20
-402.41632695149485
10
253.28026098490608
20
-402.22342399384837
10
253.7610441510199
20
-402.05850427924423
10
254.2506778804551
20
-401.922087723182
10
254.74746562113623
20
-401.81460257542403
10
255.249684763374
20
-401.73632237311523
10
255.75560407436703
20
-401.68734928494615
10
256.2635056454501
20
-401.6676003960924
10
256.39093073269817
20
-401.66717924556286
10
256.8846970946448
20
-401.66717924556286
10
257.2801161665633
20
-401.67444713138883
10
257.7871643654014
20
-401.70986654746093
10
258.29128027878335
20
-401.7748178678738
10
258.79070700727607
20
-401.8692822468317
10
259.28368697959957
20
-401.99305805098567
10
259.7684821675923
20
-402.14577687863124
10
260.2433843507737
20
-402.32693399065465
10
260.70670447239
20
-402.53594211178125
10
261.15685814590665
20
-402.77197530945716
10
261.5922406219079
20
-403.0342580044944
10
262.0113825103988
20
-403.3217826691451
10
262.41276925780005
20
-403.633614356795
10
262.79504252056574
20
-403.96860250788023
10
263.1567948454442
20
-404.32565308930185
10
263.49673010894355
20
-404.7035327382039
10
263.81358852541166
20
-405.1009616487778
10
264.10610456867846
20
-405.5166328851919
10
264.3731836987788
20
-405.9490865420675
10
264.6136736451359
20
-406.39687150114287
10
264.8266320101611
20
-406.85838494727795
10
265.01110801005905
20
-407.3320028956532
10
265.166396232005
20
-407.8159768698191
10
265.2917958318043
20
-408.30854183065287
10
265.38690903265297
20
-408.80783963593905
10
265.4514719455284
20
-409.3119992829703
10
265.48542257610234
20
-409.81914211983144
10
265.4911164615961
20
-410.1679621973875
10
265.4911164615961
20
-410.4501507153702
0
LWPOLYLINE
5
73
330
6D
100
AcDbEntity
8
0
100
AcDbPolyline
90
38
70
0
43
0
38
0
39
0
10
265.4911164615961
20
-410.4501507153702
10
265.04410772825463
20
-410.6922233711454
10
264.59188722442946
20
-410.9244121614846
10
264.13449680346696
20
-411.14624128830707
10
263.6720051233675
20
-411.35722657408564
10
263.2045099620135
20
-411.55687845035953
10
262.732137358568
20
-411.7446975937254
10
262.2550385952278
20
-411.9201618057117
10
261.7734227062218
20
-412.0828145706763
10
261.28752335066736
20
-412.23218317581666
10
260.79758913534
20
-412.36772926928097
10
260.3039514414104
20
-412.4890931944094
10
259.80693549839737
20
-412.59577832276307
10
259.3069388734688
20
-412.68748063965785
10
258.8043602690916
20
-412.7637700482527
10
258.2996576247009
20
-412.8244309494624
10
257.79329742646394
20
-412.8691931709898
10
257.2857721944597
20
-412.89786319413963
10
256.77759188003347
20
-412.9103738527645
10
256.269271433355
20
-412.9066136703029
10
255.76132958431316
20
-412.8866451808063
10
255.25427836344582
20
-412.85054607138477
10
254.74862120516158
20
-412.79843846145315
10
254.24483667494852
20
-412.7305708041816
10
253.74338790290525
20
-412.64717638979914
10
253.24470407128885
20
-412.5485838216063
10
252.74917780121748
20
-412.43517911724524
10
252.25717813711455
20
-412.3073342677242
10
251.76903323670155
20
-412.1654775908515
10
251.28502532283966
20
-412.0100883938361
10
250.805404971734
20
-411.84164056432274
10
250.33038429729956
20
-411.6606246135013
10
249.86015018998157
20
-411.46751263521315
10
249.39484371312517
20
-411.2628108349807
10
248.93456298463735
20
-411.04704367522714
10
248.47941704083243
20
-410.82064397665846
10
248.02943270970627
20
-410.5841496002033
10
247.7843080232731
20
-410.44999820851484
0
LWPOLYLINE
5
74
330
6D
100
AcDbEntity
8
0
100
AcDbPolyline
90
12
70
0
43
0
38
0
39
0
10
256.0733606242785
20
-409.8504429245863
10
256.2871792439061
20
-409.4081151605832
10
256.63773766024383
20
-409.286065888621
10
256.76667193923737
20
-409.3008656196687
10
257.1485373134751
20
-409.61014111617766
10
257.20211469620915
20
-409.8504429245863
10
257.1433150935877
20
-410.10148132231984
10
256.7550087648235
20
-410.40261511401377
10
256.63773766024383
20
-410.41481996055165
10
256.2779058874303
20
-410.2852136667899
10
256.0733606242785
20
-409.8504429245863
10
256.0733606242785
20
-409.8504429245863
0
LWPOLYLINE
5
75
330
6D
100
AcDbEntity
8
0
100
AcDbPolyline
90
12
70
0
43
0
38
0
39
0
10
256.63768682462535
20
-414.68277514263633
10
256.2878668304397
20
-414.3757284779204
10
256.28493846824244
20
-414.3300776218719
10
256.2849893038609
20
-410.2737002837511
10
256.55735932521566
20
-409.9302017286261
10
256.63773766024383
20
-409.9210027629866
10
256.96797703131244
20
-410.149577467848
10
256.99043518100837
20
-410.2737002837511
10
256.99043518100837
20
-414.3300776218719
10
256.79417529279783
20
-414.64625422980697
10
256.63768682462535
20
-414.68277514263633
10
256.63768682462535
20
-414.68277514263633
0
LWPOLYLINE
5
76
330
6D
100
AcDbEntity
8
0
100
AcDbPolyline
90
12
70
0
43
0
38
0
39
0
10
256.07330978866
20
-414.68277514263633
10
256.2871562870714
20
-414.24046252229385
10
256.63768682462535
20
-414.118398106671
10
256.76664724544685
20
-414.1332002045985
10
257.1485003791896
20
-414.44248504748924
10
257.20206386059067
20
-414.68277514263633
10
257.14328786684416
20
-414.9338331545179
10
256.75496909457075
20
-415.23494766126674
10
256.63768682462535
20
-415.24715217860165
10
256.27786136687655
20
-415.1175721869277
10
256.07330978866
20
-414.68277514263633
10
256.07330978866
20
-414.68277514263633
0
ENDBLK
5
6F
100
AcDbEntity
8
0
100
AcDbBlockEnd
0
BLOCK
5
79
330
78
100
AcDbEntity
8
0
100
AcDbBlockBegin
2
Single_sink-1
70
0
10
0
20
0
30
0
3
Single_sink-1
1

0
LWPOLYLINE
5
7B
330
78
100
AcDbEntity
8
0
100
AcDbPolyline
90
50
70
0
43
0
38
0
39
0
10
336.6924495310176
20
-258.9127306270875
10
361.55940399156
20
-258.9127306270875
10
361.60190062192044
20
-258.91308497757814
10
362.10611525096544
20
-258.97104312136406
10
362.5893227053697
20
-259.12634405441185
10
363.0342105843787
20
-259.37077392202326
10
363.4274352324063
20
-259.69189947657634
10
363.7595541787613
20
-260.0759700449143
10
364.0240645886554
20
-260.509439738338
10
364.2165296638018
20
-260.9793899562981
10
364.33426450482443
20
-261.4734157281287
10
364.3764596266021
20
-261.9795478214253
10
364.37661229448975
20
-262.01166992743396
10
364.37661229448975
20
-286.315162393143
10
364.3759900953112
20
-286.3806403085381
10
364.3288492859451
20
-286.88633359001983
10
364.2061493510522
20
-287.3791478303754
10
364.0088383328758
20
-287.84708212070984
10
363.7397178429479
20
-288.2777017589229
10
363.4033559543615
20
-288.6580574868561
10
363.00641025020593
20
-288.97456610293244
10
362.55854904934426
20
-289.21349541880426
10
362.0733996415578
20
-289.36260807260106
10
361.56848006740483
20
-289.4140741301455
10
361.55940399156
20
-289.41410169348944
10
336.6924495310176
20
-289.41410169348944
10
336.65902800926835
20
-289.4138832855194
10
336.1546129791261
20
-289.35769821405495
10
335.6708678954243
20
-289.2040880376371
10
335.2251638844225
20
-288.9611541207177
10
334.8309267865477
20
-288.6412751612869
10
334.4976466018335
20
-288.25821278859064
10
334.2318879010553
20
-287.82550688392934
10
334.03810448316267
20
-287.35609803313673
10
333.9190322230952
20
-286.86239277971424
10
333.87549540235
20
-286.3563753909605
10
333.8752412280878
20
-286.315162393143
10
333.8752412280878
20
-262.01166992743396
10
333.87570704900213
20
-261.95528214513104
10
333.92149552733406
20
-261.44946441976737
10
334.0428252131285
20
-260.95631008719783
10
334.2388106047599
20
-260.4878173257543
10
334.5066669749276
20
-260.0564081593413
10
334.8418796579816
20
-259.6750380202114
10
335.23781105005
20
-259.35726198897686
10
335.68486596986395
20
-259.11682761616174
10
336.16949466692336
20
-258.9660324414183
10
336.67423053236087
20
-258.91280064256887
10
336.6924495310176
20
-258.9127306270875
10
336.6924495310176
20
-258.9127306270875
0
LWPOLYLINE
5
7C
330
78
100
AcDbEntity
8
0
100
AcDbPolyline
90
35
70
0
43
0
38
0
39
0
10
338.9273866602897
20
-264.48838125802575
10
359.313384697467
20
-264.48838125802575
10
359.7651525660243
20
-264.5456905620993
10
360.2335708230298
20
-264.73904351033053
10
360.63489707009387
20
-265.0488047422497
10
360.94845019681134
20
-265.44741305681714
10
361.16201271648856
20
-265.9075392696904
10
361.2690596393911
20
-266.4034685692255
10
361.2820956929479
20
-266.6539786037403
10
361.2820956929479
20
-283.6310417392997
10
361.2814422679144
20
-283.68712094027956
10
361.2158197407631
20
-284.19023900568334
10
361.04259550035886
20
-284.66705245113303
10
360.76626904781017
20
-285.0923775255534
10
360.3966987529243
20
-285.43952695609414
10
359.9508487017438
20
-285.6805565898651
10
359.45635410951036
20
-285.79100304218167
10
359.313384697467
20
-285.7966390850142
10
338.9273866602897
20
-285.7966390850142
10
338.61545995878805
20
-285.76961630016973
10
338.13344487698294
20
-285.6133558319925
10
337.7106675157204
20
-285.3336921727476
10
337.37088514589266
20
-284.9572547094204
10
337.1282986912553
20
-284.5117795741824
10
336.9909110998839
20
-284.0234064971329
10
336.95867566480877
20
-283.6310417392997
10
336.95867566480877
20
-266.6539786037403
10
336.9955131252133
20
-266.23487008145133
10
337.13863618804214
20
-265.7481500869441
10
337.3866606121527
20
-265.30568531478434
10
337.73129994043484
20
-264.93370127057847
10
338.1579459423572
20
-264.65999829057336
10
338.6422246359182
20
-264.5109261876263
10
338.9273866602897
20
-264.48838125802575
10
338.9273866602897
20
-264.48838125802575
0
LWPOLYLINE
5
7D
330
78
100
AcDbEntity
8
0
100
AcDbPolyline
90
6
70
0
43
0
38
0
39
0
10
348.5269815047815
20
-261.43824415138556
10
349.71933093538564
20
-261.43824415138556
10
349.71933093538564
20
-275.9019943110734
10
348.5269815047815
20
-275.9019943110734
10
348.5269815047815
20
-261.43824415138556
10
348.5269815047815
20
-261.43824415138556
0
LWPOLYLINE
5
7E
330
78
100
AcDbEntity
8
0
100
AcDbPolyline
90
6
70
0
43
0
38
0
39
0
10
350.40144326366726
20
-261.5968512809309
10
352.3424488470962
20
-261.5968512809309
10
352.3424488470962
20
-263.73194725557903
10
350.40144326366726
20
-263.73194725557903
10
350.40144326366726
20
-261.5968512809309
10
350.40144326366726
20
-261.5968512809309
0
LWPOLYLINE
5
7F
330
78
100
AcDbEntity
8
0
100
AcDbPolyline
90
6
70
0
43
0
38
0
39
0
10
345.89278142825015
20
-261.5968512809309
10
347.8337870116791
20
-261.5968512809309
10
347.8337870116791
20
-263.73194725557903
10
345.89278142825015
20
-263.73194725557903
10
345.89278142825015
20
-261.5968512809309
10
345.89278142825015
20
-261.5968512809309
0
ENDBLK
5
7A
100
AcDbEntity
8
0
100
AcDbBlockEnd
0
BLOCK
5
82
330
81
100
AcDbEntity
8
0
100
AcDbBlockBegin
2
Column-4
70
0
10
0
20
0
30
0
3
Column-4
1

0
LWPOLYLINE
5
84
330
81
100
AcDbEntity
8
0
100
AcDbPolyline
90
6
70
0
43
0
38
0
39
0
10
214.83855707960967
20
-323.9868974410717
10
232.57342677931373
20
-323.9868974410717
10
232.57342677931373
20
-422.13065076524884
10
214.83855707960967
20
-422.13065076524884
10
214.83855707960967
20
-323.9868974410717
10
214.83855707960967
20
-323.9868974410717
0
ENDBLK
5
83
100
AcDbEntity
8
0
100
AcDbBlockEnd
0
BLOCK
5
87
330
86
100
AcDbEntity
8
0
100
AcDbBlockBegin
2
Column-5
70
0
10
0
20
0
30
0
3
Column-5
1

0
LWPOLYLINE
5
89
330
86
100
AcDbEntity
8
0
100
AcDbPolyline
90
6
70
0
43
0
38
0
39
0
10
343.7373512062244
20
-824.3993048005709
10
351.3601013562843
20
-824.3993048005709
10
351.3601013562843
20
-831.9064039186705
10
343.7373512062244
20
-831.9064039186705
10
343.7373512062244
20
-824.3993048005709
10
343.7373512062244
20
-824.3993048005709
0
ENDBLK
5
88
100
AcDbEntity
8
0
100
AcDbBlockEnd
0
BLOCK
5
8C
330
8B
100
AcDbEntity
8
0
100
AcDbBlockBegin
2
Hatrack-1
70
0
10
0
20
0
30
0
3
Hatrack-1
1

0
LWPOLYLINE
5
8E
330
8B
100
AcDbEntity
8
0
100
AcDbPolyline
90
4
70
0
43
0
38
0
39
0
10
222.21988887767893
20
-658.0028367835798
10
242.55413625528024
20
-658.0028367835798
10
242.55413625528024
20
-592.6790670830355
10
222.21988887767893
20
-592.6790670830355
0
LWPOLYLINE
5
8F
330
8B
100
AcDbEntity
8
0
100
AcDbPolyline
90
2
70
0
43
0
38
0
39
0
10
228.82851927539937
20
-658.0028367835798
10
228.82851927539937
20
-592.6790670830355
0
LWPOLYLINE
5
90
330
8B
100
AcDbEntity
8
0
100
AcDbPolyline
90
2
70
0
43
0
38
0
39
0
10
235.4371496731198
20
-658.0028367835798
10
235.4371496731198
20
-592.6790670830355
0
LWPOLYLINE
5
91
330
8B
100
AcDbEntity
8
0
100
AcDbPolyline
90
2
70
0
43
0
38
0
39
0
10
238.74146487198
20
-658.0028367835798
10
238.74146487198
20
-592.6790670830355
0
LWPOLYLINE
5
92
330
8B
100
AcDbEntity
8
0
100
AcDbPolyline
90
2
70
0
43
0
38
0
39
0
10
232.13283447425957
20
-658.0028367835798
10
232.13283447425957
20
-592.6790670830355
0
LWPOLYLINE
5
93
330
8B
100
AcDbEntity
8
0
100
AcDbPolyline
90
2
70
0
43
0
38
0
39
0
10
225.47336845809514
20
-658.0028367835798
10
225.67671093187116
20
-592.6790670830355
0
ENDBLK
5
8D
100
AcDbEntity
8
0
100
AcDbBlockEnd
0
BLOCK
5
96
330
95
100
AcDbEntity
8
0
100
AcDbBlockBegin
2
Column-6
70
0
10
0
20
0
30
0
3
Column-6
1

0
LWPOLYLINE
5
98
330
95
100
AcDbEntity
8
0
100
AcDbPolyline
90
6
70
0
43
0
38
0
39
0
10
508.48542345955025
20
-824.8009061862786
10
516.1081736096102
20
-824.8009061862786
10
516.1081736096102
20
-832.3080053043782
10
508.48542345955025
20
-832.3080053043782
10
508.48542345955025
20
-824.8009061862786
10
508.48542345955025
20
-824.8009061862786
0
ENDBLK
5
97
100
AcDbEntity
8
0
100
AcDbBlockEnd
0
BLOCK
5
9B
330
9A
100
AcDbEntity
8
0
100
AcDbBlockBegin
2
Column-7
70
0
10
0
20
0
30
0
3
Column-7
1

0
LWPOLYLINE
5
9D
330
9A
100
AcDbEntity
8
0
100
AcDbPolyline
90
6
70
0
43
0
38
0
39
0
10
272.55731826093097
20
-470.3875816280617
10
277.8747239501737
20
-470.3875816280617
10
277.8747239501737
20
-475.5893871209627
10
272.55731826093097
20
-475.5893871209627
10
272.55731826093097
20
-470.3875816280617
10
272.55731826093097
20
-470.3875816280617
0
ENDBLK
5
9C
100
AcDbEntity
8
0
100
AcDbBlockEnd
0
BLOCK
5
A1
330
A0
100
AcDbEntity
8
0
100
AcDbBlockBegin
2
wall-1
70
0
10
0
20
0
30
0
3
wall-1
1

0
LWPOLYLINE
5
A3
330
A0
100
AcDbEntity
8
0
100
AcDbPolyline
90
2
70
0
43
0
38
0
39
0
10
281.1993733964116
20
-420.06164109457796
10
298.48348366737275
20
-420.06164109457796
0
LWPOLYLINE
5
A4
330
A0
100
AcDbEntity
8
0
100
AcDbPolyline
90
2
70
0
43
0
38
0
39
0
10
517.0766429765869
20
-877.5822070906074
10
582.1462345849111
20
-877.5822070906074
0
LWPOLYLINE
5
A5
330
A0
100
AcDbEntity
8
0
100
AcDbPolyline
90
2
70
0
43
0
38
0
39
0
10
211.55457612812702
20
-708.2995976720765
10
211.55457612812702
20
-877.5822070906074
0
LWPOLYLINE
5
A6
330
A0
100
AcDbEntity
8
0
100
AcDbPolyline
90
2
70
0
43
0
38
0
39
0
10
298.48348366737275
20
-470.3889033541412
10
298.48348366737275
20
-420.06164109457796
0
LWPOLYLINE
5
A7
330
A0
100
AcDbEntity
8
0
100
AcDbPolyline
90
2
70
0
43
0
38
0
39
0
10
280.1826610275315
20
-590.3609628819888
10
280.1826610275315
20
-539.0169882535456
0
LWPOLYLINE
5
A8
330
A0
100
AcDbEntity
8
0
100
AcDbPolyline
90
2
70
0
43
0
38
0
39
0
10
409.30513187529994
20
-274.1634161602885
10
329.4932109182147
20
-274.1634161602885
0
LWPOLYLINE
5
A9
330
A0
100
AcDbEntity
8
0
100
AcDbPolyline
90
2
70
0
43
0
38
0
39
0
10
272.55731826093097
20
-274.1634161602885
10
298.48348366737275
20
-274.1634161602885
0
LWPOLYLINE
5
AA
330
A0
100
AcDbEntity
8
0
100
AcDbPolyline
90
2
70
0
43
0
38
0
39
0
10
582.1462345849111
20
-420.06164109457796
10
582.1462345849111
20
-877.5822070906074
0
LWPOLYLINE
5
AB
330
A0
100
AcDbEntity
8
0
100
AcDbPolyline
90
2
70
0
43
0
38
0
39
0
10
211.55457612812702
20
-877.5822070906074
10
517.0766429765869
20
-877.5822070906074
0
LWPOLYLINE
5
AC
330
A0
100
AcDbEntity
8
0
100
AcDbPolyline
90
2
70
0
43
0
38
0
39
0
10
582.1462345849111
20
-420.06164109457796
10
517.0766429765869
20
-420.06164109457796
0
LWPOLYLINE
5
AD
330
A0
100
AcDbEntity
8
0
100
AcDbPolyline
90
2
70
0
43
0
38
0
39
0
10
517.0766429765869
20
-708.2995976720765
10
517.0766429765869
20
-877.5822070906074
0
LWPOLYLINE
5
AE
330
A0
100
AcDbEntity
8
0
100
AcDbPolyline
90
9
70
0
43
0
38
0
39
0
10
280.1826610275315
20
-537.7460977924454
10
280.1826610275315
20
-540.2878787146456
10
271.2864277998309
20
-540.2878787146456
10
271.2864277998309
20
-469.1180128930411
10
298.48348366737275
20
-469.1180128930411
10
298.48348366737275
20
-471.65979381524124
10
273.82820872203115
20
-471.65979381524124
10
273.82820872203115
20
-537.7460977924454
10
280.1826610275315
20
-537.7460977924454
0
LWPOLYLINE
5
AF
330
A0
100
AcDbEntity
8
0
100
AcDbPolyline
90
51
70
0
43
0
38
0
39
0
10
522.1602048209872
20
-708.2995976720765
10
511.9930811321865
20
-708.2995976720765
10
511.9930811321865
20
-425.14520293897823
10
487.85124593312935
20
-425.14520293897823
10
487.85124593312935
20
-414.9780792501776
10
511.9930811321865
20
-414.9780792501776
10
511.9930811321865
20
-258.9127306270875
10
414.3886937197002
20
-258.9127306270875
10
414.3886937197002
20
-414.9780792501776
10
442.6075455179664
20
-414.9780792501776
10
442.6075455179664
20
-425.14520293897823
10
342.7104717136556
20
-425.14520293897823
10
342.7104717136556
20
-668.1394591013141
10
326.1787285956657
20
-668.1394591013141
10
326.1787285956657
20
-657.9723354125133
10
332.54334802485494
20
-657.9723354125133
10
332.54334802485494
20
-405.7971665591906
10
337.6269098692552
20
-405.7971665591906
10
337.6269098692552
20
-414.9780792501776
10
409.30513187529994
20
-414.9780792501776
10
409.30513187529994
20
-258.9127306270875
10
222.23005600136773
20
-258.9127306270875
10
222.23005600136773
20
-325.5073907887318
10
283.74115431861173
20
-325.5073907887318
10
283.74115431861173
20
-346.34999435077316
10
337.6269098692552
20
-346.34999435077316
10
337.6269098692552
20
-365.637027988428
10
332.54334802485494
20
-365.637027988428
10
332.54334802485494
20
-351.4335561951735
10
283.74115431861173
20
-351.4335561951735
10
283.74115431861173
20
-364.3458032799503
10
278.65759247421147
20
-364.3458032799503
10
278.65759247421147
20
-330.59095263313213
10
222.23005600136773
20
-330.59095263313213
10
222.23005600136773
20
-417.5198601723777
10
278.65759247421147
20
-417.5198601723777
10
278.65759247421147
20
-404.50594185071293
10
283.74115431861173
20
-404.50594185071293
10
283.74115431861173
20
-422.6034220167781
10
222.23005600136773
20
-422.6034220167781
10
222.23005600136773
20
-587.8191819597887
10
280.1826610275315
20
-587.8191819597887
10
280.1826610275315
20
-592.9027438041892
10
222.23005600136773
20
-592.9027438041892
10
222.23005600136773
20
-657.9723354125133
10
280.93502818050274
20
-657.9723354125133
10
280.93502818050274
20
-668.1394591013141
10
212.06293231256706
20
-668.1394591013141
10
212.06293231256706
20
-248.7456069382868
10
522.1602048209872
20
-248.7456069382868
10
522.1602048209872
20
-708.2995976720765
0
ENDBLK
5
A2
100
AcDbEntity
8
0
100
AcDbBlockEnd
0
BLOCK
5
B3
330
B2
100
AcDbEntity
8
0
100
AcDbBlockBegin
2
window-door-1
70
0
10
0
20
0
30
0
3
window-door-1
1

0
LWPOLYLINE
5
B5
330
B2
100
AcDbEntity
8
0
100
AcDbPolyline
90
5
70
0
43
0
38
0
39
0
10
283.4869762263917
20
-362.82073472663023
10
278.9117705664314
20
-362.82073472663023
10
278.9117705664314
20
-364.0916251877303
10
283.4869762263917
20
-364.0916251877303
10
283.4869762263917
20
-362.82073472663023
0
LWPOLYLINE
5
B6
330
B2
100
AcDbEntity
8
0
100
AcDbPolyline
90
5
70
0
43
0
38
0
39
0
10
283.4869762263917
20
-406.031010404033
10
278.9117705664314
20
-406.031010404033
10
278.9117705664314
20
-404.76011994293293
10
283.4869762263917
20
-404.76011994293293
10
283.4869762263917
20
-406.031010404033
0
LWPOLYLINE
5
B7
330
B2
100
AcDbEntity
8
0
100
AcDbPolyline
90
127
70
0
43
0
38
0
39
0
10
324.68446642712263
20
-364.0916251877303
10
324.6812362187128
20
-364.5999677394448
10
324.6718582193025
20
-365.10823331306506
10
324.6563232516804
20
-365.6163480914263
10
324.6344995101665
20
-366.12423192527615
10
324.60628243676354
20
-366.6318005658713
10
324.571886278556
20
-367.1389875897718
10
324.53130876537944
20
-367.64571818003463
10
324.4841919284389
20
-368.1518825945723
10
324.4308840259811
20
-368.6574318321938
10
324.3713942920198
20
-369.16229136594376
10
324.30542463384177
20
-369.66634511532703
10
324.2332055927185
20
-370.1695410974546
10
324.15482007678247
20
-370.67181375734776
10
324.06997635268397
20
-371.17303591267864
10
323.97889610751326
20
-371.6731620703458
10
323.88167985351004
20
-372.1721321944941
10
323.77799491879614
20
-372.6697983422251
10
323.6681503976596
20
-373.1661409209936
10
323.55218641200497
20
-373.6610899768775
10
323.4297728182411
20
-374.1544834750881
10
323.30130521036574
20
-374.6463349696736
10
323.16665945264606
20
-375.13653131199607
10
323.02573860121527
20
-375.6249607166122
10
322.8788303398941
20
-376.1116227918824
10
322.72566665351883
20
-376.59635245006956
10
322.5664474447907
20
-377.079126803141
10
322.4012663854214
20
-377.5598942386998
10
322.22984404916497
20
-378.03847186913924
10
322.0525712156051
20
-378.514913148271
10
321.86923157798606
20
-378.98905285146583
10
321.6799375115488
20
-379.4608469212053
10
321.4848430812568
20
-379.930272419229
10
321.2836606189162
20
-380.3971212324963
10
321.0767926806752
20
-380.8614784980059
10
320.8640028194653
20
-381.32315196086853
10
320.6454618339453
20
-381.78213099534366
10
320.4212446263863
20
-382.2383640795664
10
320.1911844044571
20
-382.6916789758778
10
319.9556272032297
20
-383.14216204797697
10
319.7142653359607
20
-383.5895618321353
10
319.4674320819938
20
-384.0339662976397
10
319.2150247569725
20
-384.4752285984182
10
318.95708665874304
20
-384.9132810351171
10
318.693796886903
20
-385.34813802270503
10
318.4249313560848
20
-385.77956998016856
10
318.1508655891653
20
-386.20771734075157
10
317.8713192439991
20
-386.6323064962765
10
317.5866005451737
20
-387.05344459832855
10
317.2966151780156
20
-387.4709735002924
10
317.00143443424236
20
-387.88484589979856
10
316.7011950362945
20
-388.2950633303348
10
316.39574803422465
20
-388.7014182323186
10
316.0854274763991
20
-389.10406385150674
10
315.76993221689327
20
-389.5026677279103
10
315.44964467657553
20
-389.8974309776416
10
315.1243874336427
20
-390.2881094885641
10
314.794339715051
20
-390.6747495766575
10
314.45952329750787
20
-391.0572674161277
10
314.11992639549237
20
-391.43554779652965
10
313.77575825772556
20
-391.8096740592836
10
313.42682725424436
20
-392.1793623397038
10
313.07347942176216
20
-392.5448313536526
10
312.7154733638022
20
-392.905738358083
10
312.3531178479959
20
-393.26227811280773
10
311.9863042145287
20
-393.6142293927924
10
311.61516599091476
20
-393.96161747469415
10
311.2397676671185
20
-394.304397368644
10
310.86007574599694
20
-394.64241536970326
10
310.4763199674006
20
-394.9758126524092
10
310.08830744710554
20
-395.3042462005046
10
309.6963722480875
20
-395.62798842701443
10
309.30032995775275
20
-395.94669301100674
10
308.9004273321309
20
-396.2605400426801
10
308.4966208003407
20
-396.56934773792705
10
308.08899433463466
20
-396.87309550313444
10
307.6776663122465
20
-397.1718115508324
10
307.26256402438
20
-397.4652604313727
10
306.8439499936329
20
-397.7536778809007
10
306.4216362732965
20
-398.03665034162714
10
305.9959223297876
20
-398.314480717168
10
305.5667202286479
20
-398.5868912184646
10
305.13416589367034
20
-398.85394689549497
10
304.6983344685865
20
-399.1156201956512
10
304.2592040930774
20
-399.37171899053953
10
303.81699964786594
20
-399.6224729399412
10
303.37156997665284
20
-399.86745190263906
10
302.92319028727604
20
-400.10698826558365
10
302.47180629084664
20
-400.3408137837126
10
302.01752805216347
20
-400.5689655295001
10
301.56046547197195
20
-400.79148705656536
10
301.10057039863375
20
-401.0080941766997
10
300.6380679828462
20
-401.2190766779896
10
300.1728843579573
20
-401.42407958763505
10
299.70519191545543
20
-401.6232922015719
10
299.2350463096932
20
-401.8166443031197
10
298.7624578910047
20
-402.0039467336334
10
298.2876123890693
20
-402.18545117192986
10
297.81045602263544
20
-402.36079037674716
10
297.3311593327477
20
-402.53019086341743
10
296.84978475247783
20
-402.6935936932201
10
296.3663423801232
20
-402.85077355568785
10
295.8810074924721
20
-403.0020085602871
10
295.39377172024376
20
-403.1470024608214
10
294.90475204258087
20
-403.28586057712045
10
294.41406289816996
20
-403.4187005509406
10
293.9216746425925
20
-403.54509713765566
10
293.42776980013105
20
-403.66542917852064
10
292.93240036349914
20
-403.77958326545007
10
292.43559941941703
20
-403.8873370779748
10
291.93751214695953
20
-403.9889781747978
10
291.4381826051293
20
-404.0843301231971
10
290.93767821331244
20
-404.17330934941236
10
290.43611921577644
20
-404.2561372243605
10
289.9335541264318
20
-404.3326248518847
10
289.43006026076205
20
-404.4027380709325
10
288.9257450655143
20
-404.4666759452778
10
288.42066809157166
20
-404.5242897954129
10
287.91490107208676
20
-404.57549285816344
10
287.4085463794768
20
-404.6205120271062
10
286.9016755984295
20
-404.65929771540544
10
286.39435012511524
20
-404.6915960196041
10
285.88666970080544
20
-404.7177179823855
10
285.37870889660076
20
-404.7376681395694
10
284.8705372290881
20
-404.7512281567829
10
284.3622374041695
20
-404.75852619656695
10
284.01597167191994
20
-404.76011994293293
0
LWPOLYLINE
5
B8
330
B2
100
AcDbEntity
8
0
100
AcDbPolyline
90
2
70
0
43
0
38
0
39
0
10
324.95923294481247
20
-364.0916251877303
10
283.74115431861173
20
-364.0916251877303
0
LWPOLYLINE
5
B9
330
B2
100
AcDbEntity
8
0
100
AcDbPolyline
90
5
70
0
43
0
38
0
39
0
10
489.3763144864495
20
-424.89102484675817
10
489.3763144864495
20
-415.23225734239765
10
488.1054240253494
20
-415.23225734239765
10
488.1054240253494
20
-424.89102484675817
10
489.3763144864495
20
-424.89102484675817
0
LWPOLYLINE
5
BA
330
B2
100
AcDbEntity
8
0
100
AcDbPolyline
90
5
70
0
43
0
38
0
39
0
10
441.0824769646464
20
-424.89102484675817
10
441.0824769646464
20
-415.23225734239765
10
442.35336742574646
20
-415.23225734239765
10
442.35336742574646
20
-424.89102484675817
10
441.0824769646464
20
-424.89102484675817
0
LWPOLYLINE
5
BB
330
B2
100
AcDbEntity
8
0
100
AcDbPolyline
90
143
70
0
43
0
38
0
39
0
10
488.1054240253494
20
-471.20639093433925
10
487.597077378864
20
-471.20361540639084
10
487.0887913588506
20
-471.19529677823556
10
486.58062676863847
20
-471.18142375120664
10
486.07264476751413
20
-471.16198640062447
10
485.564906833063
20
-471.1369761717245
10
485.0574747239856
20
-471.10638587399654
10
484.55041044345865
20
-471.0702096739789
10
484.04377620311107
20
-471.02844308655705
10
483.5376343876786
20
-470.98108296482957
10
483.03204752039835
20
-470.92812748859063
10
482.5270782292014
20
-470.86957615149294
10
482.0227892137557
20
-470.8054297469584
10
481.51924321341085
20
-470.7356903528943
10
481.0165029760865
20
-470.66036131528955
10
480.51463122815005
20
-470.57944723075485
10
480.01369064531616
20
-470.4929539280808
10
479.5137438246031
20
-470.4008884488829
10
479.0148532573745
20
-470.3032590274052
10
478.5170936019366
20
-470.2000173283299
10
478.0205297848876
20
-470.091170404573
10
477.5252121796035
20
-469.97678822452957
10
477.03120267444694
20
-469.856883776487
10
476.53856292800083
20
-469.7314711276667
10
476.0473543492036
20
-469.600565400304
10
475.55763807866026
20
-469.46418274740716
10
475.0694749711247
20
-469.32234032826335
10
474.5829255791465
20
-469.1750562837569
10
474.0980531423346
20
-469.0223403578913
10
473.6149600317689
20
-468.8640859961957
10
473.1336642065429
20
-468.70044875454363
10
472.65422488603724
20
-468.53145062450443
10
472.17670091834975
20
-468.35711445134024
10
471.7011507708322
20
-468.1774639094579
10
471.2276325216575
20
-467.9925234781028
10
470.7562038523822
20
-467.8023184173448
10
470.28694356251333
20
-467.60682386289085
10
469.8199349938159
20
-467.4060100972302
10
469.35519059706223
20
-467.200011854454
10
468.89276639794366
20
-466.9888574273278
10
468.43271799957495
20
-466.7725757712738
10
467.97510058052615
20
-466.5511964830568
10
467.5199688935961
20
-466.32474978004683
10
467.0674103927623
20
-466.0932025704554
10
466.6175002960525
20
-465.8565509152858
10
466.17024155179126
20
-465.6149268388663
10
465.7256871802879
20
-465.36836296222606
10
465.2838897781704
20
-465.11689242931396
10
464.84490152086994
20
-464.86054889034364
10
464.40877416554645
20
-464.5993664858665
10
463.9756535474859
20
-464.3332276444963
10
463.5455070229557
20
-464.06230931093484
10
463.1183779369378
20
-463.7866588717696
10
462.6943163696835
20
-463.50631237832334
10
462.2733720021712
20
-463.2213063010981
10
461.8555941208483
20
-462.93167751852747
10
461.44111908267234
20
-462.63734139581726
10
461.0299392100968
20
-462.33842003863305
10
460.6220749011362
20
-462.0349910119741
10
460.2175738677872
20
-461.7270928073055
10
459.8164834520196
20
-461.41476427712263
10
459.41885063076177
20
-461.09804462836365
10
459.02481985424936
20
-460.77685456159946
10
458.63437278437084
20
-460.45131816135125
10
458.2475253881739
20
-460.12151281504947
10
457.864323179286
20
-459.7874791628621
10
457.48481132844506
20
-459.4492581756313
10
457.1090346673011
20
-459.10689115252916
10
456.73715885830916
20
-458.7602909213678
10
456.3691278376489
20
-458.40961161806894
10
456.00496750688615
20
-458.05491497407985
10
455.6447213169837
20
-457.69624364964915
10
455.28843239263665
20
-457.33364062971367
10
454.93614539030887
20
-456.96714746052106
10
454.58804786987184
20
-456.5966727844545
10
454.2440377832096
20
-456.22240043061373
10
453.90415689707754
20
-455.84437475302406
10
453.56844665238657
20
-455.46264044017715
10
453.23694816274724
20
-455.07724251837084
10
452.9097227257902
20
-454.6882092940047
10
452.5869264226434
20
-454.2954933393036
10
452.26846559343846
20
-453.8992542985929
10
451.95437994420854
20
-453.4995386384557
10
451.6447088349066
20
-453.09639318385547
10
451.33949127384915
20
-452.6898651229703
10
451.03879275980273
20
-452.2799825420453
10
450.7427601023378
20
-451.866717600385
10
450.4512977621242
20
-451.4502174659909
10
450.1644431862869
20
-451.0305308750049
10
449.8822334289455
20
-450.6077069514104
10
449.6047051410617
20
-450.18179521196674
10
449.33190140652505
20
-449.7528412707824
10
449.06400934797125
20
-449.3208028627052
10
448.80090756421896
20
-448.8858314098272
10
448.5426308750083
20
-448.4479780848554
10
448.289213631366
20
-448.0072944742763
10
448.040689700739
20
-447.5638325818458
10
447.7970924513834
20
-447.1176448317021
10
447.5585624991427
20
-446.66872750194403
10
447.32508180740535
20
-446.21716388828503
10
447.09662535679934
20
-445.76303821769983
10
446.87322422208433
20
-445.3064046443838
10
446.65490888609406
20
-444.84731774928906
10
446.4417092198646
20
-444.3858325398989
10
446.23365446214495
20
-443.92200444931956
10
446.03090847843237
20
-443.45583128065044
10
445.8333882583545
20
-442.98742054860674
10
445.6410963340571
20
-442.51683979240823
10
445.4540590457535
20
-442.04414613006423
10
445.2723019865605
20
-441.56939708566773
10
445.09584997896604
20
-441.092650583345
10
444.9247270509393
20
-440.61396494024933
10
444.7590045422486
20
-440.13338255356547
10
444.59875584031306
20
-439.6509475080649
10
444.44390185576356
20
-439.1667544296619
10
444.29446301478185
20
-438.6808630940471
10
444.15045882214383
20
-438.19333361463345
10
444.0119078363316
20
-437.704226428989
10
443.8788276446744
20
-437.21360228413613
10
443.7512348385824
20
-436.72152222070184
10
443.6291449889376
20
-436.22804755590624
10
443.51262236914147
20
-435.7332284340759
10
443.40170242375973
20
-435.2371235363243
10
443.29632268306375
20
-434.7398128144262
10
443.1964941909091
20
-434.2413584212921
10
443.10222685022984
20
-433.74182267689963
10
443.0135294010702
20
-433.2412680440614
10
442.9304093992789
20
-432.7397571030547
10
442.8528731959407
20
-432.23735252512944
10
442.7809259176156
20
-431.73411704492065
10
442.7145714474592
20
-431.230113431789
10
442.65381240729573
20
-430.725404460122
10
442.59865014071386
20
-430.2200528786281
10
442.54908469725706
20
-429.7141213786677
10
442.5051148177731
20
-429.2076725616591
10
442.46679293868795
20
-428.70076503643855
10
442.4340596073648
20
-428.1934662159278
10
442.40690418355007
20
-427.6858384710128
10
442.3853198536001
20
-427.17794351559786
10
442.36929844465556
20
-426.6698427905773
10
442.3588304187148
20
-426.1615974268969
10
442.3539048682841
20
-425.653268208131
10
442.35336742574646
20
-425.4543343347363
0
LWPOLYLINE
5
BC
330
B2
100
AcDbEntity
8
0
100
AcDbPolyline
90
2
70
0
43
0
38
0
39
0
10
488.1054240253494
20
-471.5155223300972
10
488.1054240253494
20
-425.14520293897823
0
LWPOLYLINE
5
BD
330
B2
100
AcDbEntity
8
0
100
AcDbPolyline
90
5
70
0
43
0
38
0
39
0
10
279.4099596271826
20
-667.8852810090939
10
279.4099596271826
20
-658.2265135047332
10
280.6808500882828
20
-658.2265135047332
10
280.6808500882828
20
-667.8852810090939
10
279.4099596271826
20
-667.8852810090939
0
LWPOLYLINE
5
BE
330
B2
100
AcDbEntity
8
0
100
AcDbPolyline
90
5
70
0
43
0
38
0
39
0
10
327.7037971489858
20
-667.8852810090939
10
327.7037971489858
20
-658.2265135047332
10
326.43290668788575
20
-658.2265135047332
10
326.43290668788575
20
-667.8852810090939
10
327.7037971489858
20
-667.8852810090939
0
LWPOLYLINE
5
BF
330
B2
100
AcDbEntity
8
0
100
AcDbPolyline
90
143
70
0
43
0
38
0
39
0
10
280.6808500882828
20
-714.2006470966751
10
281.1891967347681
20
-714.1978715687264
10
281.6974827547816
20
-714.1895529405713
10
282.20564734499374
20
-714.1756799135426
10
282.71362934611807
20
-714.1562425629602
10
283.221367280569
20
-714.1312323340603
10
283.7287993896465
20
-714.1006420363324
10
284.23586367017356
20
-714.0644658363146
10
284.742497910521
20
-714.0226992488926
10
285.2486397259536
20
-713.9753391271654
10
285.75422659323374
20
-713.9223836509263
10
286.2591958844307
20
-713.8638323138287
10
286.7634848998764
20
-713.7996859092943
10
287.26703090022136
20
-713.7299465152303
10
287.7697711375456
20
-713.6546174776252
10
288.27164288548204
20
-713.5737033930907
10
288.77258346831593
20
-713.4872100904165
10
289.2725302890291
20
-713.3951446112185
10
289.7714208562577
20
-713.297515189741
10
290.2691805116957
20
-713.1942734906656
10
290.7657443287444
20
-713.0854265669086
10
291.2610619340286
20
-712.9710443868653
10
291.75507143918514
20
-712.8511399388226
10
292.24771118563126
20
-712.7257272900022
10
292.7389197644285
20
-712.5948215626397
10
293.2286360349718
20
-712.4584389097429
10
293.7167991425075
20
-712.3165964905993
10
294.2033485344857
20
-712.1693124460926
10
294.6882209712975
20
-712.016596520227
10
295.1713140818632
20
-711.8583421585315
10
295.6526099070893
20
-711.6947049168793
10
296.13204922759485
20
-711.5257067868401
10
296.60957319528234
20
-711.3513706136757
10
297.0851233427999
20
-711.1717200717935
10
297.5586415919747
20
-710.9867796404385
10
298.03007026125
20
-710.7965745796803
10
298.4993305511189
20
-710.6010800252266
10
298.9663391198162
20
-710.400266259566
10
299.43108351656997
20
-710.1942680167897
10
299.89350771568843
20
-709.9831135896634
10
300.35355611405714
20
-709.7668319336096
10
300.81117353310606
20
-709.5454526453925
10
301.2663052200361
20
-709.3190059423825
10
301.71886372086976
20
-709.087458732791
10
302.16877381757956
20
-708.8508070776215
10
302.61603256184094
20
-708.6091830012022
10
303.0605869333443
20
-708.3626191245619
10
303.50238433546156
20
-708.1111485916497
10
303.94137259276226
20
-707.8548050526795
10
304.37749994808576
20
-707.5936226482024
10
304.8106205661462
20
-707.3274838068319
10
305.2407670906764
20
-707.0565654732704
10
305.6678961766944
20
-706.7809150341054
10
306.09195774394857
20
-706.5005685406593
10
306.512902111461
20
-706.2155624634338
10
306.93067999278367
20
-705.925933680863
10
307.34515503095986
20
-705.6315975581529
10
307.7563349035354
20
-705.332676200969
10
308.1641992124959
20
-705.0292471743098
10
308.56870024584464
20
-704.721348969641
10
308.9697906616126
20
-704.4090204394583
10
309.36742348287044
20
-704.0923007906993
10
309.76145425938296
20
-703.7711107239352
10
310.15190132926136
20
-703.445574323687
10
310.53874872545816
20
-703.1157689773852
10
310.9219509343462
20
-702.7817353251978
10
311.301462785187
20
-702.4435143379667
10
311.677239446331
20
-702.1011473148649
10
312.04911525532304
20
-701.7545470837035
10
312.4171462759832
20
-701.4038677804047
10
312.78130660674594
20
-701.0491711364159
10
313.1415527966485
20
-700.6904998119849
10
313.4978417209953
20
-700.3278967920494
10
313.85012872332334
20
-699.9614036228568
10
314.19822624376025
20
-699.5909289467902
10
314.5422363304225
20
-699.2166565929494
10
314.88211721655455
20
-698.8386309153598
10
315.2178274612455
20
-698.4568966025126
10
315.54932595088485
20
-698.0714986807066
10
315.876551387842
20
-697.6824654563404
10
316.1993476909887
20
-697.2897495016393
10
316.51780852019374
20
-696.8935104609286
10
316.8318941694238
20
-696.4937948007914
10
317.1415652787256
20
-696.0906493461912
10
317.44678283978294
20
-695.684121285306
10
317.74748135382947
20
-695.2742387043809
10
318.0435140112943
20
-694.8609737627207
10
318.334976351508
20
-694.4444736283265
10
318.6218309273452
20
-694.0247870373407
10
318.9040406846865
20
-693.601963113746
10
319.18156897257063
20
-693.1760513743027
10
319.45437270710704
20
-692.7470974331181
10
319.72226476566084
20
-692.3150590250409
10
319.98536654941324
20
-691.8800875721629
10
320.2436432386239
20
-691.4422342471912
10
320.4970604822662
20
-691.0015506366119
10
320.7455844128931
20
-690.5580887441818
10
320.9891816622488
20
-690.1119009940378
10
321.2277116144895
20
-689.6629836642796
10
321.46119230622685
20
-689.2114200506207
10
321.68964875683287
20
-688.7572943800355
10
321.91304989154776
20
-688.3006608067196
10
322.131365227538
20
-687.8415739116247
10
322.3445648937676
20
-687.3800887022346
10
322.55261965148713
20
-686.9162606116554
10
322.75536563519984
20
-686.4500874429862
10
322.9528858552776
20
-685.9816767109426
10
323.1451777795751
20
-685.511095954744
10
323.33221506787856
20
-685.0384022923997
10
323.5139721270716
20
-684.5636532480034
10
323.69042413466616
20
-684.0869067456808
10
323.8615470626929
20
-683.608221102585
10
324.0272695713836
20
-683.1276387159012
10
324.18751827331914
20
-682.6452036704004
10
324.3423722578684
20
-682.1610105919976
10
324.49181109885035
20
-681.6751192563827
10
324.63581529148837
20
-681.1875897769692
10
324.7743662773006
20
-680.6984825913246
10
324.9074464689578
20
-680.2078584464718
10
325.0350392750497
20
-679.7157783830376
10
325.1571291246945
20
-679.2223037182418
10
325.2736517444906
20
-678.7274845964116
10
325.38457168987225
20
-678.23137969866
10
325.48995143056834
20
-677.734068976762
10
325.5897799227231
20
-677.2356145836277
10
325.68404726340225
20
-676.736078839235
10
325.7727447125619
20
-676.235524206397
10
325.8558647143533
20
-675.7340132653906
10
325.9334009176914
20
-675.231608687465
10
326.0053481960165
20
-674.7283732072563
10
326.0717026661729
20
-674.2243695941247
10
326.13246170633647
20
-673.7196606224577
10
326.1876239729181
20
-673.2143090409638
10
326.23718941637503
20
-672.7083775410035
10
326.2811592958591
20
-672.2019287239948
10
326.31948117494414
20
-671.6950211987742
10
326.3522145062674
20
-671.1877223782635
10
326.37936993008213
20
-670.6800946333485
10
326.400954260032
20
-670.1721996779336
10
326.4169756689764
20
-669.664098952913
10
326.4274436949173
20
-669.1558535892325
10
326.432369245348
20
-668.6475243704667
10
326.43290668788575
20
-668.448590497072
0
LWPOLYLINE
5
C0
330
B2
100
AcDbEntity
8
0
100
AcDbPolyline
90
2
70
0
43
0
38
0
39
0
10
280.6808500882828
20
-714.5097784924328
10
280.6808500882828
20
-668.1394591013141
0
LWPOLYLINE
5
C1
330
B2
100
AcDbEntity
8
0
100
AcDbPolyline
90
5
70
0
43
0
38
0
39
0
10
337.37273177703526
20
-407.32223511251067
10
332.7975261170749
20
-407.32223511251067
10
332.7975261170749
20
-406.0513446514106
10
337.37273177703526
20
-406.0513446514106
10
337.37273177703526
20
-407.32223511251067
0
LWPOLYLINE
5
C2
330
B2
100
AcDbEntity
8
0
100
AcDbPolyline
90
5
70
0
43
0
38
0
39
0
10
337.37273177703526
20
-364.1119594351079
10
332.7975261170749
20
-364.1119594351079
10
332.7975261170749
20
-365.382849896208
10
337.37273177703526
20
-365.382849896208
10
337.37273177703526
20
-364.1119594351079
0
LWPOLYLINE
5
C3
330
B2
100
AcDbEntity
8
0
100
AcDbPolyline
90
127
70
0
43
0
38
0
39
0
10
378.5702219777661
20
-406.0513446514106
10
378.566991784679
20
-405.5430020995624
10
378.5576138243448
20
-405.0347365251884
10
378.542078918524
20
-404.52662174493975
10
378.5202552839255
20
-404.01873790643833
10
378.4920383199533
20
-403.5111692596767
10
378.45764229054396
20
-403.0039822270346
10
378.4170649244769
20
-402.49725162509117
10
378.36994829565003
20
-401.9910871912781
10
378.31664057817954
20
-401.48553793411696
10
378.25715104411915
20
-400.9806783769284
10
378.1911816567025
20
-400.47662459219396
10
378.1189628459297
20
-399.97342857695185
10
378.040577571904
20
-399.47115587944626
10
377.9557341686632
20
-398.96993366991126
10
377.86465418857085
20
-398.4698074639168
10
377.76743820795855
20
-397.97083728668946
10
377.66375363194686
20
-397.4731710644215
10
377.553909400365
20
-396.97682842155564
10
377.4379457931841
20
-396.4818792767078
10
377.3155325005421
20
-395.9884857035458
10
377.1870651970023
20
-395.49663412953055
10
377.0524198362541
20
-395.0064376780546
10
376.91149929444225
20
-394.5180081839487
10
376.76459134324557
20
-394.0313460152417
10
376.61142806188764
20
-393.5466162292412
10
376.45220916283483
20
-393.0638417740094
10
376.28702850915795
20
-392.5830741987463
10
376.11560647852866
20
-392.1044964585895
10
375.9383339471493
20
-391.6280550671685
10
375.754994707886
20
-391.1539152100274
10
375.56570093491814
20
-390.6821210224862
10
375.3706068941565
20
-390.2126953622092
10
375.16942471374887
20
-389.74584642719054
10
374.9625570509195
20
-389.2814890391609
10
374.7497675596576
20
-388.81981540595376
10
374.5312268345208
20
-388.36083624748693
10
374.3070099807903
20
-387.90460298912694
10
374.0769500022054
20
-387.45128796912275
10
373.841393035646
20
-387.00080477458187
10
373.6000314937122
20
-386.5534048153044
10
373.35319845507183
20
-386.1090002302995
10
373.10079143423866
20
-385.66773775553634
10
372.8428535307871
20
-385.22968520407795
10
372.5795640405554
20
-384.794828045632
10
372.31069868307304
20
-384.36339597991616
10
372.03663307929344
20
-383.9352485151619
10
371.75708698023175
20
-383.510659197995
10
371.4723684223783
20
-383.08952100074265
10
371.18238327673873
20
-382.6719919449819
10
370.88720265159486
20
-382.2581194608256
10
370.58696345029205
20
-381.84790188608696
10
370.28151654460123
20
-381.44154691147
10
369.9711960730332
20
-381.0389012261191
10
369.65570097351724
20
-380.6402972236195
10
369.33541349782195
20
-380.2455339216348
10
369.01015639059017
20
-379.85485529796046
10
368.6801087156581
20
-379.46821517263777
10
368.3452924101723
20
-379.085697235002
10
368.00569553172943
20
-378.7074168333415
10
367.6615274832425
20
-378.3332904880687
10
367.312596484305
20
-377.96360220312744
10
366.95924864818096
20
-377.5981331929805
10
366.60124264816454
20
-377.23722613153603
10
366.2388871115513
20
-376.88068639810456
10
365.8720735162717
20
-376.5287350784814
10
365.50093525610293
20
-376.1813470356457
10
365.12553695219276
20
-375.8385671197737
10
364.7458449802947
20
-375.5005491756256
10
364.3620892048539
20
-375.16715188883245
10
363.97407662117394
20
-374.838718415354
10
363.5821413538322
20
-374.51497627181243
10
363.18609904559526
20
-374.19627171046113
10
362.78619634153654
20
-373.88242477884165
10
362.38238977941523
20
-373.5736171233255
10
361.9747632268926
20
-373.26986947458676
10
361.5634351635325
20
-372.97115348303555
10
361.1483327822144
20
-372.67770473449434
10
360.72971865593183
20
-372.38928742396115
10
360.30740488296533
20
-372.10631504234163
10
359.88169083983314
20
-371.82848481962293
10
359.4524886798989
20
-371.55607441114984
10
359.0199342428916
20
-371.289018899378
10
358.5841027545714
20
-371.02734570433404
10
358.144972276246
20
-370.77124708555743
10
357.70276772882835
20
-370.5204933167559
10
357.2573379917354
20
-370.2755144744352
10
356.808958201598
20
-370.035978300264
10
356.3575741388182
20
-369.8021529103506
10
355.9032958022053
20
-369.5740013594988
10
355.4462331565909
20
-369.35147996643195
10
354.9863379894142
20
-369.1348730452366
10
354.52383548254693
20
-368.9238907438926
10
354.05865179687817
20
-368.7188879725346
10
353.5909592689775
20
-368.5196755591109
10
353.1208136062338
20
-368.32632359585295
10
352.6482251087101
20
-368.1390213639686
10
352.17337953171113
20
-367.9575171224006
10
351.69622311645526
20
-367.7821780508893
10
351.2169263590404
20
-367.61277775528725
10
350.7355517355469
20
-367.4493750524363
10
350.2521093036322
20
-367.29219537276276
10
349.7667743606761
20
-367.1409605459529
10
349.2795385551583
20
-366.995966757518
10
348.79051883042484
20
-366.857108806823
10
348.2998296432107
20
-366.72426899173195
10
347.80744136442706
20
-366.5978724962817
10
347.313536487222
20
-366.4775405980775
10
346.81816703329434
20
-366.36338658564415
10
346.32136606216443
20
-366.25563289715654
10
345.82327876647423
20
-366.15399191444095
10
345.323949216163
20
-366.05864001017136
10
344.82344480789834
20
-365.9696608757997
10
344.3218857971849
20
-365.88683308106556
10
343.8193207065184
20
-365.81034546202187
10
343.31582683313127
20
-365.7402322975428
10
342.8115116327
20
-365.67629446457306
10
342.3064346623365
20
-365.6186805825035
10
341.8006676414245
20
-365.5674775324437
10
341.2943129490119
20
-365.5224583616086
10
340.7874421736608
20
-365.483672596838
10
340.28011670226715
20
-365.4513742594404
10
339.7724362804447
20
-365.4252522476939
10
339.264475478927
20
-365.40530202544176
10
338.75630381523706
20
-365.39174186651445
10
338.2480039916188
20
-365.3844437276087
10
337.9017272225635
20
-365.382849896208
0
LWPOLYLINE
5
C4
330
B2
100
AcDbEntity
8
0
100
AcDbPolyline
90
2
70
0
43
0
38
0
39
0
10
378.84498849545594
20
-406.0513446514106
10
337.6269098692552
20
-406.0513446514106
0
ENDBLK
5
B4
100
AcDbEntity
8
0
100
AcDbBlockEnd
0
ENDSEC
0
SECTION
2
ENTITIES
0
INSERT
5
24
330
C
100
AcDbEntity
8
surface
100
AcDbBlockReference
2
surface-1
10
0
20
0
41
1
42
1
43
1
50
0
66
0
70
1
71
1
44
0
45
0
0
INSERT
5
2C
330
C
100
AcDbEntity
8
object
100
AcDbBlockReference
2
Kitchen_bench-1
10
0
20
0
41
1
42
1
43
1
50
0
66
0
70
1
71
1
44
0
45
0
0
INSERT
5
31
330
C
100
AcDbEntity
8
object
100
AcDbBlockReference
2
Column-1
10
0
20
0
41
1
42
1
43
1
50
0
66
0
70
1
71
1
44
0
45
0
0
INSERT
5
36
330
C
100
AcDbEntity
8
object
100
AcDbBlockReference
2
Water_heater-1
10
0
20
0
41
1
42
1
43
1
50
0
66
0
70
1
71
1
44
0
45
0
0
INSERT
5
3B
330
C
100
AcDbEntity
8
object
100
AcDbBlockReference
2
Wahsing_machine-1
10
0
20
0
41
1
42
1
43
1
50
0
66
0
70
1
71
1
44
0
45
0
0
INSERT
5
44
330
C
100
AcDbEntity
8
object
100
AcDbBlockReference
2
WC_tank-1
10
0
20
0
41
1
42
1
43
1
50
0
66
0
70
1
71
1
44
0
45
0
0
INSERT
5
62
330
C
100
AcDbEntity
8
object
100
AcDbBlockReference
2
Straight_stair-1
10
0
20
0
41
1
42
1
43
1
50
0
66
0
70
1
71
1
44
0
45
0
0
INSERT
5
67
330
C
100
AcDbEntity
8
object
100
AcDbBlockReference
2
Column-2
10
0
20
0
41
1
42
1
43
1
50
0
66
0
70
1
71
1
44
0
45
0
0
INSERT
5
6C
330
C
100
AcDbEntity
8
object
100
AcDbBlockReference
2
Column-3
10
0
20
0
41
1
42
1
43
1
50
0
66
0
70
1
71
1
44
0
45
0
0
INSERT
5
77
330
C
100
AcDbEntity
8
object
100
AcDbBlockReference
2
Washstand_cab-1
10
0
20
0
41
1
42
1
43
1
50
0
66
0
70
1
71
1
44
0
45
0
0
INSERT
5
80
330
C
100
AcDbEntity
8
object
100
AcDbBlockReference
2
Single_sink-1
10
0
20
0
41
1
42
1
43
1
50
0
66
0
70
1
71
1
44
0
45
0
0
INSERT
5
85
330
C
100
AcDbEntity
8
object
100
AcDbBlockReference
2
Column-4
10
0
20
0
41
1
42
1
43
1
50
0
66
0
70
1
71
1
44
0
45
0
0
INSERT
5
8A
330
C
100
AcDbEntity
8
object
100
AcDbBlockReference
2
Column-5
10
0
20
0
41
1
42
1
43
1
50
0
66
0
70
1
71
1
44
0
45
0
0
INSERT
5
94
330
C
100
AcDbEntity
8
object
100
AcDbBlockReference
2
Hatrack-1
10
0
20
0
41
1
42
1
43
1
50
0
66
0
70
1
71
1
44
0
45
0
0
INSERT
5
99
330
C
100
AcDbEntity
8
object
100
AcDbBlockReference
2
Column-6
10
0
20
0
41
1
42
1
43
1
50
0
66
0
70
1
71
1
44
0
45
0
0
INSERT
5
9E
330
C
100
AcDbEntity
8
object
100
AcDbBlockReference
2
Column-7
10
0
20
0
41
1
42
1
43
1
50
0
66
0
70
1
71
1
44
0
45
0
0
INSERT
5
B0
330
C
100
AcDbEntity
8
wall
100
AcDbBlockReference
2
wall-1
10
0
20
0
41
1
42
1
43
1
50
0
66
0
70
1
71
1
44
0
45
0
0
INSERT
5
C5
330
C
100
AcDbEntity
8
window-door
100
AcDbBlockReference
2
window-door-1
10
0
20
0
41
1
42
1
43
1
50
0
66
0
70
1
71
1
44
0
45
0
0
ENDSEC
0
SECTION
2
OBJECTS
0
DICTIONARY
5
A
330
0
100
AcDbDictionary
281
1
3
ACAD_GROUP
350
B
0
DICTIONARY
5
B
330
A
100
AcDbDictionary
281
0
0
ENDSEC
0
EOF