0
SECTION
2
HEADER
9
$ACADVER
1
AC1021
9
$HANDSEED
5
13F
9
$INSUNITS
70
0
9
$CLAYER
8
0
9
$VIEWCTR
10
0
20
0
0
ENDSEC
0
SECTION
2
CLASSES
0
ENDSEC
0
SECTION
2
TABLES
0
TABLE
2
VPORT
5
1
330
0
100
AcDbSymbolTable
70
1
0
VPORT
5
19
330
1
100
AcDbSymbolTableRecord
100
AcDbViewportTableRecord
2
*Active
70
0
10
0
20
0
11
1
21
1
12
0
22
0
13
0
23
0
14
10
24
10
15
10
25
10
16
0
26
0
36
1
17
0
27
0
37
0
40
200
41
2
42
50
43
0
44
0
50
0
51
0
71
0
72
100
73
1
74
3
75
0
76
1
77
0
78
0
281
0
65
1
110
0
120
0
130
0
111
1
121
0
131
0
112
0
122
1
132
0
79
0
146
0
348
10020
60
7
61
5
292
1
282
1
141
0
142
0
63
250
421
3358443
0
ENDTAB
0
TABLE
2
LTYPE
5
2
330
0
100
AcDbSymbolTable
70
3
0
LTYPE
5
12
330
2
100
AcDbSymbolTableRecord
100
AcDbLinetypeTableRecord
2
ByBlock
70
0
3

72
65
73
0
40
0
0
LTYPE
5
13
330
2
100
AcDbSymbolTableRecord
100
AcDbLinetypeTableRecord
2
ByLayer
70
0
3

72
65
73
0
40
0
0
LTYPE
5
14
330
2
100
AcDbSymbolTableRecord
100
AcDbLinetypeTableRecord
2
Continuous
70
0
3
Solid line
72
65
73
0
40
0
0
ENDTAB
0
TABLE
2
LAYER
5
3
330
0
100
AcDbSymbolTable
70
5
0
LAYER
5
15
330
3
100
AcDbSymbolTableRecord
100
AcDbLayerTableRecord
2
0
62
7
70
0
6
Continuous
390
1
0
LAYER
5
1A
330
3
100
AcDbSymbolTableRecord
100
AcDbLayerTableRecord
2
surface
62
7
70
0
6
Continuous
390
1
0
LAYER
5
23
330
3
100
AcDbSymbolTableRecord
100
AcDbLayerTableRecord
2
object
62
7
70
0
6
Continuous
390
1
0
LAYER
5
EB
330
3
100
AcDbSymbolTableRecord
100
AcDbLayerTableRecord
2
wall
62
7
70
0
6
Continuous
390
1
0
LAYER
5
FE
330
3
100
AcDbSymbolTableRecord
100
AcDbLayerTableRecord
2
window-door
62
7
70
0
6
Continuous
390
1
0
ENDTAB
0
TABLE
2
STYLE
5
4
330
0
100
AcDbSymbolTable
70
1
0
STYLE
5
16
330
4
100
AcDbSymbolTableRecord
100
AcDbTextStyleTableRecord
2
Standard
70
0
40
0
41
1
50
0
71
0
42
1
3
txt
4

0
ENDTAB
0
TABLE
2
VIEW
5
5
330
0
100
AcDbSymbolTable
70
0
0
ENDTAB
0
TABLE
2
UCS
5
6
330
0
100
AcDbSymbolTable
70
0
0
ENDTAB
0
TABLE
2
APPID
5
7
330
0
100
AcDbSymbolTable
70
1
0
APPID
5
17
330
7
100
AcDbSymbolTableRecord
100
AcDbRegAppTableRecord
2
ACAD
70
0
0
ENDTAB
0
TABLE
2
DIMSTYLE
5
8
330
0
100
AcDbSymbolTable
70
1
100
AcDbDimStyleTable
0
DIMSTYLE
105
18
330
8
100
AcDbSymbolTableRecord
100
AcDbDimStyleTableRecord
2
Standard
70
0
340
16
0
ENDTAB
0
TABLE
2
BLOCK_RECORD
5
9
330
0
100
AcDbSymbolTable
70
34
0
BLOCK_RECORD
5
C
330
9
100
AcDbSymbolTableRecord
100
AcDbBlockTableRecord
2
*Model_Space
70
0
280
1
281
0
0
BLOCK_RECORD
5
F
330
9
100
AcDbSymbolTableRecord
100
AcDbBlockTableRecord
2
*Paper_Space
70
0
280
1
281
0
0
BLOCK_RECORD
5
1B
330
9
100
AcDbSymbolTableRecord
100
AcDbBlockTableRecord
2
surface-1
70
0
280
1
281
0
0
BLOCK_RECORD
5
24
330
9
100
AcDbSymbolTableRecord
100
AcDbBlockTableRecord
2
Kitchen_bench-1
70
0
280
1
281
0
0
BLOCK_RECORD
5
2C
330
9
100
AcDbSymbolTableRecord
100
AcDbBlockTableRecord
2
Two_seater_sofa-1
70
0
280
1
281
0
0
BLOCK_RECORD
5
35
330
9
100
AcDbSymbolTableRecord
100
AcDbBlockTableRecord
2
Wahsing_machine-1
70
0
280
1
281
0
0
BLOCK_RECORD
5
3F
330
9
100
AcDbSymbolTableRecord
100
AcDbBlockTableRecord
2
Table_with_six_chairs-1
70
0
280
1
281
0
0
BLOCK_RECORD
5
50
330
9
100
AcDbSymbolTableRecord
100
AcDbBlockTableRecord
2
Table_with_four_chairs-1
70
0
280
1
281
0
0
BLOCK_RECORD
5
5D
330
9
100
AcDbSymbolTableRecord
100
AcDbBlockTableRecord
2
Two_seater_sofa-2
70
0
280
1
281
0
0
BLOCK_RECORD
5
66
330
9
100
AcDbSymbolTableRecord
100
AcDbBlockTableRecord
2
TV-1
70
0
280
1
281
0
0
BLOCK_RECORD
5
6C
330
9
100
AcDbSymbolTableRecord
100
AcDbBlockTableRecord
2
Coffee_table-1
70
0
280
1
281
0
0
BLOCK_RECORD
5
71
330
9
100
AcDbSymbolTableRecord
100
AcDbBlockTableRecord
2
U_stair-1
70
0
280
1
281
0
0
BLOCK_RECORD
5
90
330
9
100
AcDbSymbolTableRecord
100
AcDbBlockTableRecord
2
object-1
70
0
280
1
281
0
0
BLOCK_RECORD
5
95
330
9
100
AcDbSymbolTableRecord
100
AcDbBlockTableRecord
2
Column-1
70
0
280
1
281
0
0
BLOCK_RECORD
5
9A
330
9
100
AcDbSymbolTableRecord
100
AcDbBlockTableRecord
2
Warderobe_2_door-1
70
0
280
1
281
0
0
BLOCK_RECORD
5
A0
330
9
100
AcDbSymbolTableRecord
100
AcDbBlockTableRecord
2
Fireplace-1
70
0
280
1
281
0
0
BLOCK_RECORD
5
A8
330
9
100
AcDbSymbolTableRecord
100
AcDbBlockTableRecord
2
Single_sink-1
70
0
280
1
281
0
0
BLOCK_RECORD
5
B3
330
9
100
AcDbSymbolTableRecord
100
AcDbBlockTableRecord
2
Two_seater_sofa-3
70
0
280
1
281
0
0
BLOCK_RECORD
5
BC
330
9
100
AcDbSymbolTableRecord
100
AcDbBlockTableRecord
2
Warderobe_2_door-2
70
0
280
1
281
0
0
BLOCK_RECORD
5
C2
330
9
100
AcDbSymbolTableRecord
100
AcDbBlockTableRecord
2
Refrigator_freezer-1
70
0
280
1
281
0
0
BLOCK_RECORD
5
CC
330
9
100
AcDbSymbolTableRecord
100
AcDbBlockTableRecord
2
Double_sink-1
70
0
280
1
281
0
0
BLOCK_RECORD
5
D6
330
9
100
AcDbSymbolTableRecord
100
AcDbBlockTableRecord
2
Induction_cooker_4-1
70
0
280
1
281
0
0
BLOCK_RECORD
5
E1
330
9
100
AcDbSymbolTableRecord
100
AcDbBlockTableRecord
2
Booklet-1
70
0
280
1
281
0
0
BLOCK_RECORD
5
E6
330
9
100
AcDbSymbolTableRecord
100
AcDbBlockTableRecord
2
Coffee_table-2
70
0
280
1
281
0
0
BLOCK_RECORD
5
EC
330
9
100
AcDbSymbolTableRecord
100
AcDbBlockTableRecord
2
wall-1
70
0
280
1
281
0
0
BLOCK_RECORD
5
FF
330
9
100
AcDbSymbolTableRecord
100
AcDbBlockTableRecord
2
window-door-1
70
0
280
1
281
0
0
BLOCK_RECORD
5
10F
330
9
100
AcDbSymbolTableRecord
100
AcDbBlockTableRecord
2
Window-1
70
0
280
1
281
0
0
BLOCK_RECORD
5
115
330
9
100
AcDbSymbolTableRecord
100
AcDbBlockTableRecord
2
Window-2
70
0
280
1
281
0
0
BLOCK_RECORD
5
11B
330
9
100
AcDbSymbolTableRecord
100
AcDbBlockTableRecord
2
Window-3
70
0
280
1
281
0
0
BLOCK_RECORD
5
121
330
9
100
AcDbSymbolTableRecord
100
AcDbBlockTableRecord
2
Window-4
70
0
280
1
281
0
0
BLOCK_RECORD
5
127
330
9
100
AcDbSymbolTableRecord
100
AcDbBlockTableRecord
2
Window-5
70
0
280
1
281
0
0
BLOCK_RECORD
5
12D
330
9
100
AcDbSymbolTableRecord
100
AcDbBlockTableRecord
2
Window-6
70
0
280
1
281
0
0
BLOCK_RECORD
5
133
330
9
100
AcDbSymbolTableRecord
100
AcDbBlockTableRecord
2
Window-7
70
0
280
1
281
0
0
BLOCK_RECORD
5
139
330
9
100
AcDbSymbolTableRecord
100
AcDbBlockTableRecord
2
Window-8
70
0
280
1
281
0
0
ENDTAB
0
ENDSEC
0
SECTION
2
BLOCKS
0
BLOCK
5
D
330
C
100
AcDbEntity
8
0
100
AcDbBlockBegin
2
*Model_Space
70
0
10
0
20
0
30
0
3
*Model_Space
1

0
ENDBLK
5
E
100
AcDbEntity
8
0
100
AcDbBlockEnd
0
BLOCK
5
10
330
F
100
AcDbEntity
8
0
100
AcDbBlockBegin
2
*Paper_Space
70
0
10
0
20
0
30
0
3
*Paper_Space
1

0
ENDBLK
5
11
100
AcDbEntity
8
0
100
AcDbBlockEnd
0
BLOCK
5
1C
330
1B
100
AcDbEntity
8
0
100
AcDbBlockBegin
2
surface-1
70
0
10
0
20
0
30
0
3
surface-1
1

0
LWPOLYLINE
5
1E
330
1B
100
AcDbEntity
8
0
100
AcDbPolyline
90
9
70
0
43
0
38
0
39
0
10
683.6425649340408
20
-876.3072502154314
10
423.7932651726689
20
-876.3072502154314
10
423.7932651726689
20
-762.3263563253256
10
115.09501088696578
20
-762.3263563253256
10
115.09501088696578
20
-501.1201411604998
10
294.88630184457304
20
-501.1201411604998
10
294.88630184457304
20
-357.287108394414
10
683.6425649340408
20
-357.287108394414
10
683.6425649340408
20
-876.3072502154314
0
LWPOLYLINE
5
1F
330
1B
100
AcDbEntity
8
0
100
AcDbPolyline
90
11
70
0
43
0
38
0
39
0
10
683.6425649340408
20
-357.287108394414
10
115.09501088696578
20
-357.287108394414
10
115.09501088696578
20
-237.2000951887669
10
193.79610428727688
20
-237.87855289049372
10
277.9248593014026
20
-217.52482183868915
10
315.24003289637767
20
-201.92029469897227
10
366.802818227616
20
-186.9942252609822
10
413.6163996467665
20
-186.9942252609822
10
540.487989869682
20
-174.78198662989945
10
683.6425649340408
20
-174.78198662989945
10
683.6425649340408
20
-357.287108394414
0
LWPOLYLINE
5
20
330
1B
100
AcDbEntity
8
0
100
AcDbPolyline
90
5
70
0
43
0
38
0
39
0
10
115.09501088696578
20
-876.3072502154314
10
423.7932651726689
20
-876.3072502154314
10
423.7932651726689
20
-762.3263563253256
10
115.09501088696578
20
-762.3263563253256
10
115.09501088696578
20
-876.3072502154314
0
LWPOLYLINE
5
21
330
1B
100
AcDbEntity
8
0
100
AcDbPolyline
90
5
70
0
43
0
38
0
39
0
10
115.09501088696578
20
-501.1201411604998
10
294.88630184457304
20
-501.1201411604998
10
294.88630184457304
20
-357.287108394414
10
115.09501088696578
20
-357.287108394414
10
115.09501088696578
20
-501.1201411604998
0
ENDBLK
5
1D
100
AcDbEntity
8
0
100
AcDbBlockEnd
0
BLOCK
5
25
330
24
100
AcDbEntity
8
0
100
AcDbBlockBegin
2
Kitchen_bench-1
70
0
10
0
20
0
30
0
3
Kitchen_bench-1
1

0
LWPOLYLINE
5
27
330
24
100
AcDbEntity
8
0
100
AcDbPolyline
90
5
70
0
43
0
38
0
39
0
10
160.61402716545143
20
-757.332093491374
10
119.90656506184223
20
-757.332093491374
10
119.90656506184223
20
-716.6246313877648
10
160.61402716545143
20
-716.6246313877648
10
160.61402716545143
20
-757.332093491374
0
LWPOLYLINE
5
28
330
24
100
AcDbEntity
8
0
100
AcDbPolyline
90
5
70
0
43
0
38
0
39
0
10
160.61199179234626
20
-675.9219184880678
10
119.90452968873706
20
-675.9219184880678
10
119.90452968873706
20
-504.7104036264978
10
160.61199179234626
20
-504.7104036264978
10
160.61199179234626
20
-675.9219184880678
0
LWPOLYLINE
5
29
330
24
100
AcDbEntity
8
0
100
AcDbPolyline
90
5
70
0
43
0
38
0
39
0
10
365.72943029771403
20
-545.3140617017427
10
160.61402716545143
20
-545.3140617017427
10
160.61402716545143
20
-504.60659959813364
10
365.72943029771403
20
-504.60659959813364
10
365.72943029771403
20
-545.3140617017427
0
LWPOLYLINE
5
2A
330
24
100
AcDbEntity
8
0
100
AcDbPolyline
90
5
70
0
43
0
38
0
39
0
10
270.5988051923862
20
-405.0497164467401
10
229.89134308877703
20
-405.0497164467401
10
229.89134308877703
20
-362.46754002171934
10
270.5988051923862
20
-362.46754002171934
10
270.5988051923862
20
-405.0497164467401
0
ENDBLK
5
26
100
AcDbEntity
8
0
100
AcDbBlockEnd
0
BLOCK
5
2D
330
2C
100
AcDbEntity
8
0
100
AcDbBlockBegin
2
Two_seater_sofa-1
70
0
10
0
20
0
30
0
3
Two_seater_sofa-1
1

0
LWPOLYLINE
5
2F
330
2C
100
AcDbEntity
8
0
100
AcDbPolyline
90
6
70
0
43
0
38
0
39
0
10
597.3451198763455
20
-871.3135301476414
10
587.4808198136288
20
-871.3134623018711
10
587.4813625797901
20
-815.8267490069254
10
597.3456626425068
20
-815.8268846984658
10
597.3451198763455
20
-871.3135301476414
10
597.3451198763455
20
-871.3135301476414
0
LWPOLYLINE
5
30
330
2C
100
AcDbEntity
8
0
100
AcDbPolyline
90
6
70
0
43
0
38
0
39
0
10
488.83754780338046
20
-871.3124446153186
10
478.9732477406637
20
-871.3123767695483
10
478.9737905068251
20
-815.8256634746026
10
488.83809056954186
20
-815.825799166143
10
488.83754780338046
20
-871.3124446153186
10
488.83754780338046
20
-871.3124446153186
0
LWPOLYLINE
5
31
330
2C
100
AcDbEntity
8
0
100
AcDbPolyline
90
6
70
0
43
0
38
0
39
0
10
587.4808198136288
20
-871.3134623018711
10
488.83754780338046
20
-871.3124446153186
10
488.8381584153121
20
-812.1266442390179
10
587.4813625797901
20
-812.1276619255707
10
587.4808198136288
20
-871.3134623018711
10
587.4808198136288
20
-871.3134623018711
0
LWPOLYLINE
5
32
330
2C
100
AcDbEntity
8
0
100
AcDbPolyline
90
2
70
0
43
0
38
0
39
0
10
587.4808876593988
20
-860.2161332120361
10
488.8376834949208
20
-860.2151155254835
0
LWPOLYLINE
5
33
330
2C
100
AcDbEntity
8
0
100
AcDbPolyline
90
2
70
0
43
0
38
0
39
0
10
538.1593195000451
20
-860.2156582916448
10
538.1597944204361
20
-812.1271870051794
0
ENDBLK
5
2E
100
AcDbEntity
8
0
100
AcDbBlockEnd
0
BLOCK
5
36
330
35
100
AcDbEntity
8
0
100
AcDbBlockBegin
2
Wahsing_machine-1
70
0
10
0
20
0
30
0
3
Wahsing_machine-1
1

0
LWPOLYLINE
5
38
330
35
100
AcDbEntity
8
0
100
AcDbPolyline
90
5
70
0
43
0
38
0
39
0
10
174.71237820733472
20
-362.46971108636484
10
215.41984031094393
20
-362.46971108636484
10
215.41984031094393
20
-403.177173189974
10
174.71237820733472
20
-403.177173189974
10
174.71237820733472
20
-362.46971108636484
0
LWPOLYLINE
5
39
330
35
100
AcDbEntity
8
0
100
AcDbPolyline
90
81
70
0
43
0
38
0
39
0
10
203.20760167986117
20
-382.82344213816947
10
203.17977655855742
20
-383.50113767335137
10
203.09603761160616
20
-384.1742093731461
10
202.95642204281182
20
-384.83794210593595
10
202.76167197534556
20
-385.48763821116285
10
202.5131148048328
20
-386.1187109778709
10
202.21260770637303
20
-386.7267655360162
10
201.86243077288088
20
-387.30763784658717
10
201.46519567973826
20
-387.85740418957863
10
201.02376779506926
20
-388.37236290551783
10
200.54122392789571
20
-388.8490100848016
10
200.0209021032416
20
-389.2841017550813
10
199.46630974875688
20
-389.6745708247984
10
198.88116962906855
20
-390.0175711325607
10
198.2694374960696
20
-390.3105219425957
10
197.63532972768888
20
-390.55123304725333
10
196.98326726825928
20
-390.7379121084826
10
196.31785080770192
20
-390.869274064423
10
195.6438015719238
20
-390.94475084654
10
195.0661092591393
20
-390.96493455889123
10
194.96581642324946
20
-390.96430779887595
10
194.28851099294354
20
-390.9282517669688
10
193.6165169370417
20
-390.8362638664183
10
192.95456828022623
20
-390.68841614250465
10
192.3073432168108
20
-390.48560523385646
10
191.67940143592057
20
-390.2292417618908
10
191.07510424323215
20
-389.9212481654028
10
190.49857987226932
20
-389.56395568893544
10
189.95374340214545
20
-389.1599836683337
10
189.44424529587974
20
-388.71226520930173
10
188.97352471644297
20
-388.2239391323573
10
188.54482704865762
20
-387.6983354489749
10
188.16122658604985
20
-387.138969556409
10
187.82548469918754
20
-386.5496363487122
10
187.54012120828287
20
-385.93433028514704
10
187.30729906350166
20
-385.29728532398354
10
187.12872740110464
20
-384.64295757379494
10
187.00557651133443
20
-383.97597225079704
10
186.93841821864856
20
-383.30104299082444
10
186.92461683841748
20
-382.82344213816947
10
186.92706919072714
20
-382.6228712734982
10
186.97136247859692
20
-381.9460553689392
10
187.07165821344933
20
-381.2752521060026
10
187.2276591670493
20
-380.61517792163517
10
187.43848058574991
20
-379.97051586337335
10
187.7026054205914
20
-379.3457966323754
10
188.01805709665666
20
-378.74535724374135
10
188.38244059790856
20
-378.17328859135495
10
188.79305867078227
20
-377.6334444757369
10
189.2469660358504
20
-377.12945175512306
10
189.7410255140877
20
-376.66475129966176
10
190.27186437780642
20
-376.2425548380515
10
190.83589298900978
20
-375.86584626535495
10
191.42931807746743
20
-375.5373911205116
10
192.04810948305993
20
-375.25966449140725
10
192.68799781988952
20
-375.03477203413746
10
193.34449576050423
20
-374.864350480425
10
194.01295287728004
20
-374.7494577573346
10
194.68865457333317
20
-374.6905739662165
10
195.0661092591393
20
-374.6819497174476
10
195.3669143611757
20
-374.6874279513651
10
196.0431392724583
20
-374.73997829237277
10
196.7126513920848
20
-374.84855986713586
10
197.37073433896188
20
-375.01275348381847
10
198.01272771452864
20
-375.23156155975704
10
198.6341232271551
20
-375.50340939431277
10
199.2306256549047
20
-375.8262409275605
10
199.79817761861153
20
-376.19761997793177
10
200.33295871165984
20
-376.61481277907666
10
200.83133319785412
20
-377.07488268370236
10
201.28994825736464
20
-377.57459486818567
10
201.70562143052473
20
-378.1105568542469
10
202.07537569364513
20
-378.67916997205924
10
202.39646395013506
20
-379.2766141118752
10
202.66649724270098
20
-379.8988009648213
10
202.8834388005887
20
-380.54142829354356
10
203.04571709052175
20
-381.1999875663774
10
203.15231573379663
20
-381.86981809492914
10
203.20295097437338
20
-382.546188624545
10
203.20760167986117
20
-382.82344213816947
10
203.20760167986117
20
-382.82344213816947
0
LWPOLYLINE
5
3A
330
35
100
AcDbEntity
8
0
100
AcDbPolyline
90
2
70
0
43
0
38
0
39
0
10
180.68280598253074
20
-383.0948252188602
10
189.57060187515208
20
-388.8617156835382
0
LWPOLYLINE
5
3B
330
35
100
AcDbEntity
8
0
100
AcDbPolyline
90
2
70
0
43
0
38
0
39
0
10
200.49377087295386
20
-376.78516859280074
10
209.4494125357479
20
-382.55205905747874
0
LWPOLYLINE
5
3C
330
35
100
AcDbEntity
8
0
100
AcDbPolyline
90
2
70
0
43
0
38
0
39
0
10
195.33749233983002
20
-397.206745414778
10
201.10438280450802
20
-388.251103751984
0
LWPOLYLINE
5
3D
330
35
100
AcDbEntity
8
0
100
AcDbPolyline
90
2
70
0
43
0
38
0
39
0
10
189.02783571377063
20
-377.3279347541823
10
194.72688040827592
20
-368.4401388615609
0
ENDBLK
5
37
100
AcDbEntity
8
0
100
AcDbBlockEnd
0
BLOCK
5
40
330
3F
100
AcDbEntity
8
0
100
AcDbBlockBegin
2
Table_with_six_chairs-1
70
0
10
0
20
0
30
0
3
Table_with_six_chairs-1
1

0
LWPOLYLINE
5
42
330
3F
100
AcDbEntity
8
0
100
AcDbPolyline
90
5
70
0
43
0
38
0
39
0
10
617.7995340510863
20
-225.0073961394939
10
617.7995340510863
20
-231.79197315676214
10
589.9827682802868
20
-231.79197315676214
10
589.9827682802868
20
-225.0073961394939
10
617.7995340510863
20
-225.0073961394939
0
LWPOLYLINE
5
43
330
3F
100
AcDbEntity
8
0
100
AcDbPolyline
90
5
70
0
43
0
38
0
39
0
10
617.7995340510863
20
-231.79197315676214
10
620.6490563983391
20
-250.11033110338627
10
587.4046290137248
20
-250.11033110338627
10
589.9284916641486
20
-231.79197315676214
10
617.7995340510863
20
-231.79197315676214
0
LWPOLYLINE
5
44
330
3F
100
AcDbEntity
8
0
100
AcDbPolyline
90
5
70
0
43
0
38
0
39
0
10
570.511032240727
20
-225.05488817861476
10
570.511032240727
20
-231.83946519588295
10
542.6942664699272
20
-231.83946519588295
10
542.6942664699272
20
-225.05488817861476
10
570.511032240727
20
-225.05488817861476
0
LWPOLYLINE
5
45
330
3F
100
AcDbEntity
8
0
100
AcDbPolyline
90
5
70
0
43
0
38
0
39
0
10
570.511032240727
20
-231.83946519588295
10
573.3605545879795
20
-250.15782314250708
10
540.1161272033655
20
-250.15782314250708
10
542.6399898537893
20
-231.83946519588295
10
570.511032240727
20
-231.83946519588295
0
LWPOLYLINE
5
46
330
3F
100
AcDbEntity
8
0
100
AcDbPolyline
90
5
70
0
43
0
38
0
39
0
10
523.8331423619218
20
-225.05488817861476
10
523.8331423619218
20
-231.83946519588295
10
496.0163765911222
20
-231.83946519588295
10
496.0163765911222
20
-225.05488817861476
10
523.8331423619218
20
-225.05488817861476
0
LWPOLYLINE
5
47
330
3F
100
AcDbEntity
8
0
100
AcDbPolyline
90
5
70
0
43
0
38
0
39
0
10
523.8331423619218
20
-231.83946519588295
10
526.6826647091743
20
-250.15782314250708
10
493.43823732456013
20
-250.15782314250708
10
495.9620999749839
20
-231.83946519588295
10
523.8331423619218
20
-231.83946519588295
0
LWPOLYLINE
5
48
330
3F
100
AcDbEntity
8
0
100
AcDbPolyline
90
5
70
0
43
0
38
0
39
0
10
617.7995340510863
20
-313.2068973639805
10
617.7995340510863
20
-319.99147438124874
10
589.9827682802868
20
-319.99147438124874
10
589.9827682802868
20
-313.2068973639805
10
617.7995340510863
20
-313.2068973639805
0
LWPOLYLINE
5
49
330
3F
100
AcDbEntity
8
0
100
AcDbPolyline
90
5
70
0
43
0
38
0
39
0
10
589.9827682802868
20
-313.2068973639805
10
587.133245933034
20
-294.88853941735636
10
620.3776733176483
20
-294.88853941735636
10
617.867379821259
20
-313.2068973639805
10
589.9827682802868
20
-313.2068973639805
0
LWPOLYLINE
5
4A
330
3F
100
AcDbEntity
8
0
100
AcDbPolyline
90
5
70
0
43
0
38
0
39
0
10
570.5931256226359
20
-313.2068973639805
10
570.5931256226359
20
-319.99147438124874
10
542.7621122400999
20
-319.99147438124874
10
542.7621122400999
20
-313.2068973639805
10
570.5931256226359
20
-313.2068973639805
0
LWPOLYLINE
5
4B
330
3F
100
AcDbEntity
8
0
100
AcDbPolyline
90
5
70
0
43
0
38
0
39
0
10
542.707835623962
20
-313.2068973639805
10
539.8583132767092
20
-294.88853941735636
10
573.1034191190251
20
-294.88853941735636
10
570.5931256226359
20
-313.2068973639805
10
542.707835623962
20
-313.2068973639805
0
LWPOLYLINE
5
4C
330
3F
100
AcDbEntity
8
0
100
AcDbPolyline
90
5
70
0
43
0
38
0
39
0
10
495.94853082094943
20
-313.2068973639805
10
493.09900847369676
20
-294.88853941735636
10
526.3434358583108
20
-294.88853941735636
10
523.8195732078873
20
-313.2068973639805
10
495.94853082094943
20
-313.2068973639805
0
LWPOLYLINE
5
4D
330
3F
100
AcDbEntity
8
0
100
AcDbPolyline
90
5
70
0
43
0
38
0
39
0
10
523.7795442034853
20
-313.2068973639805
10
523.7795442034853
20
-319.99147438124874
10
495.94853082094943
20
-319.99147438124874
10
495.94853082094943
20
-313.2068973639805
10
523.7795442034853
20
-313.2068973639805
0
LWPOLYLINE
5
4E
330
3F
100
AcDbEntity
8
0
100
AcDbPolyline
90
5
70
0
43
0
38
0
39
0
10
627.9763995769886
20
-241.9688386826644
10
627.9763995769886
20
-303.03003183807823
10
485.50028221435645
20
-303.03003183807823
10
485.50028221435645
20
-241.9688386826644
10
627.9763995769886
20
-241.9688386826644
0
ENDBLK
5
41
100
AcDbEntity
8
0
100
AcDbBlockEnd
0
BLOCK
5
51
330
50
100
AcDbEntity
8
0
100
AcDbBlockBegin
2
Table_with_four_chairs-1
70
0
10
0
20
0
30
0
3
Table_with_four_chairs-1
1

0
LWPOLYLINE
5
53
330
50
100
AcDbEntity
8
0
100
AcDbPolyline
90
5
70
0
43
0
38
0
39
0
10
359.1305471534084
20
-621.225608415634
10
359.1305471534084
20
-627.1664554350348
10
336.1604118206645
20
-627.1664554350348
10
336.1604118206645
20
-621.225608415634
10
359.1305471534084
20
-621.225608415634
0
LWPOLYLINE
5
54
330
50
100
AcDbEntity
8
0
100
AcDbPolyline
90
5
70
0
43
0
38
0
39
0
10
359.1305471534084
20
-627.1248659779187
10
361.46647702045385
20
-643.1649629621443
10
334.10258176555686
20
-643.1649629621443
10
336.1715385269728
20
-627.1248659779187
10
359.1305471534084
20
-627.1248659779187
0
LWPOLYLINE
5
55
330
50
100
AcDbEntity
8
0
100
AcDbPolyline
90
5
70
0
43
0
38
0
39
0
10
320.75433355870274
20
-621.225608415634
10
320.75433355870274
20
-627.1664554350348
10
297.95109882058364
20
-627.1664554350348
10
297.95109882058364
20
-621.225608415634
10
320.75433355870274
20
-621.225608415634
0
LWPOLYLINE
5
56
330
50
100
AcDbEntity
8
0
100
AcDbPolyline
90
5
70
0
43
0
38
0
39
0
10
320.75433355870274
20
-627.1664554350348
10
323.09026342574816
20
-643.2065524192601
10
295.83756738816425
20
-643.2065524192601
10
297.9065919953503
20
-627.1664554350348
10
320.75433355870274
20
-627.1664554350348
0
LWPOLYLINE
5
57
330
50
100
AcDbEntity
8
0
100
AcDbPolyline
90
5
70
0
43
0
38
0
39
0
10
359.1305471534084
20
-698.7113805348417
10
359.1305471534084
20
-704.6521597084723
10
336.32731241528927
20
-704.6521597084723
10
336.32731241528927
20
-698.7113805348417
10
359.1305471534084
20
-698.7113805348417
0
LWPOLYLINE
5
58
330
50
100
AcDbEntity
8
0
100
AcDbPolyline
90
5
70
0
43
0
38
0
39
0
10
336.32731241528927
20
-698.7113805348417
10
333.9913147024737
20
-682.6712835506164
10
361.2440107400576
20
-682.6712835506164
10
359.17505397864164
20
-698.7113805348417
10
336.32731241528927
20
-698.7113805348417
0
LWPOLYLINE
5
59
330
50
100
AcDbEntity
8
0
100
AcDbPolyline
90
5
70
0
43
0
38
0
39
0
10
297.95109882058364
20
-698.7113805348417
10
295.61510110776806
20
-682.6712835506164
10
322.867797145352
20
-682.6712835506164
10
320.798840383936
20
-698.7113805348417
10
297.95109882058364
20
-698.7113805348417
0
LWPOLYLINE
5
5A
330
50
100
AcDbEntity
8
0
100
AcDbPolyline
90
5
70
0
43
0
38
0
39
0
10
320.75433355870274
20
-698.7113805348417
10
320.75433355870274
20
-704.6521597084723
10
297.93936150234373
20
-704.6521597084723
10
297.93936150234373
20
-698.7113805348417
10
320.75433355870274
20
-698.7113805348417
0
LWPOLYLINE
5
5B
330
50
100
AcDbEntity
8
0
100
AcDbPolyline
90
5
70
0
43
0
38
0
39
0
10
370.25406471053014
20
-636.3330974430658
10
370.25406471053014
20
-689.8001778515109
10
286.8275134176917
20
-689.8001778515109
10
286.8275134176917
20
-636.3330974430658
10
370.25406471053014
20
-636.3330974430658
0
ENDBLK
5
52
100
AcDbEntity
8
0
100
AcDbBlockEnd
0
BLOCK
5
5E
330
5D
100
AcDbEntity
8
0
100
AcDbBlockBegin
2
Two_seater_sofa-2
70
0
10
0
20
0
30
0
3
Two_seater_sofa-2
1

0
LWPOLYLINE
5
60
330
5D
100
AcDbEntity
8
0
100
AcDbPolyline
90
6
70
0
43
0
38
0
39
0
10
477.3180823315309
20
-648.0693301506171
10
487.1824502400179
20
-648.0693301506171
10
487.1824502400179
20
-703.5559755997924
10
477.3180823315309
20
-703.5559755997924
10
477.3180823315309
20
-648.0693301506171
10
477.3180823315309
20
-648.0693301506171
0
LWPOLYLINE
5
61
330
5D
100
AcDbEntity
8
0
100
AcDbPolyline
90
6
70
0
43
0
38
0
39
0
10
585.8256544044959
20
-648.0693301506171
10
595.6899544672128
20
-648.0693301506171
10
595.6899544672128
20
-703.5559755997924
10
585.8256544044959
20
-703.5559755997924
10
585.8256544044959
20
-648.0693301506171
10
585.8256544044959
20
-648.0693301506171
0
LWPOLYLINE
5
62
330
5D
100
AcDbEntity
8
0
100
AcDbPolyline
90
6
70
0
43
0
38
0
39
0
10
487.1824502400179
20
-648.0693301506171
10
585.8256544044959
20
-648.0693301506171
10
585.8256544044959
20
-707.2551305269176
10
487.1824502400179
20
-707.2551305269176
10
487.1824502400179
20
-648.0693301506171
10
487.1824502400179
20
-648.0693301506171
0
LWPOLYLINE
5
63
330
5D
100
AcDbEntity
8
0
100
AcDbPolyline
90
2
70
0
43
0
38
0
39
0
10
487.1824502400179
20
-659.166659240452
10
585.8256544044959
20
-659.166659240452
0
LWPOLYLINE
5
64
330
5D
100
AcDbEntity
8
0
100
AcDbPolyline
90
2
70
0
43
0
38
0
39
0
10
536.5040183993717
20
-659.166659240452
10
536.5040183993717
20
-707.2551305269176
0
ENDBLK
5
5F
100
AcDbEntity
8
0
100
AcDbBlockEnd
0
BLOCK
5
67
330
66
100
AcDbEntity
8
0
100
AcDbBlockBegin
2
TV-1
70
0
10
0
20
0
30
0
3
TV-1
1

0
LWPOLYLINE
5
69
330
66
100
AcDbEntity
8
0
100
AcDbPolyline
90
5
70
0
43
0
38
0
39
0
10
678.2798995680519
20
-680.142061084349
10
678.2786783441886
20
-800.5180972709315
10
651.1403702751159
20
-800.5178258878511
10
651.1415914989791
20
-680.1417897012684
10
678.2798995680519
20
-680.142061084349
0
LWPOLYLINE
5
6A
330
66
100
AcDbEntity
8
0
100
AcDbPolyline
90
7
70
0
43
0
38
0
39
0
10
661.9958970400555
20
-785.4709231331833
10
661.9967790350679
20
-695.1888959932464
10
667.4244406488824
20
-695.1889638390167
10
667.424304957342
20
-709.7343506605675
10
667.4236264996402
20
-775.4396546300716
10
667.42355865387
20
-785.4709909789535
10
661.9958970400555
20
-785.4709231331833
0
ENDBLK
5
68
100
AcDbEntity
8
0
100
AcDbBlockEnd
0
BLOCK
5
6D
330
6C
100
AcDbEntity
8
0
100
AcDbBlockBegin
2
Coffee_table-1
70
0
10
0
20
0
30
0
3
Coffee_table-1
1

0
LWPOLYLINE
5
6F
330
6C
100
AcDbEntity
8
0
100
AcDbPolyline
90
6
70
0
43
0
38
0
39
0
10
192.3542459795671
20
-835.3701980255578
10
192.3542459795671
20
-791.8868940811035
10
229.36119624064764
20
-791.8868940811035
10
229.36119624064764
20
-835.3701980255578
10
192.3542459795671
20
-835.3701980255578
10
192.3542459795671
20
-835.3701980255578
0
ENDBLK
5
6E
100
AcDbEntity
8
0
100
AcDbBlockEnd
0
BLOCK
5
72
330
71
100
AcDbEntity
8
0
100
AcDbBlockBegin
2
U_stair-1
70
0
10
0
20
0
30
0
3
U_stair-1
1

0
LWPOLYLINE
5
74
330
71
100
AcDbEntity
8
0
100
AcDbPolyline
90
8
70
0
43
0
38
0
39
0
10
539.7724883774408
20
-362.1301430066506
10
539.7724883774408
20
-430.07564646148643
10
539.7724883774408
20
-498.0211499163224
10
610.3320893570301
20
-498.0211499163224
10
678.2775928118658
20
-498.0211499163224
10
678.2775928118658
20
-362.1301430066506
10
610.3320893570301
20
-362.1301430066506
10
539.7724883774408
20
-362.1301430066506
0
LWPOLYLINE
5
75
330
71
100
AcDbEntity
8
0
100
AcDbPolyline
90
2
70
0
43
0
38
0
39
0
10
678.2775928118658
20
-498.0211499163224
10
610.3320893570301
20
-498.0211499163224
0
LWPOLYLINE
5
76
330
71
100
AcDbEntity
8
0
100
AcDbPolyline
90
2
70
0
43
0
38
0
39
0
10
678.2775928118658
20
-362.1301430066506
10
610.3320893570301
20
-362.1301430066506
0
LWPOLYLINE
5
77
330
71
100
AcDbEntity
8
0
100
AcDbPolyline
90
2
70
0
43
0
38
0
39
0
10
678.2775928118658
20
-362.1301430066506
10
678.2775928118658
20
-498.0211499163224
0
LWPOLYLINE
5
78
330
71
100
AcDbEntity
8
0
100
AcDbPolyline
90
2
70
0
43
0
38
0
39
0
10
592.6921891121328
20
-362.1301430066506
10
592.6921891121328
20
-430.07564646148643
0
LWPOLYLINE
5
79
330
71
100
AcDbEntity
8
0
100
AcDbPolyline
90
2
70
0
43
0
38
0
39
0
10
575.0522888672356
20
-362.1301430066506
10
575.0522888672356
20
-430.07564646148643
0
LWPOLYLINE
5
7A
330
71
100
AcDbEntity
8
0
100
AcDbPolyline
90
2
70
0
43
0
38
0
39
0
10
557.4123886223381
20
-362.1301430066506
10
557.4123886223381
20
-430.07564646148643
0
LWPOLYLINE
5
7B
330
71
100
AcDbEntity
8
0
100
AcDbPolyline
90
2
70
0
43
0
38
0
39
0
10
539.7724883774408
20
-362.1301430066506
10
539.7724883774408
20
-430.07564646148643
0
LWPOLYLINE
5
7C
330
71
100
AcDbEntity
8
0
100
AcDbPolyline
90
2
70
0
43
0
38
0
39
0
10
610.3320893570301
20
-362.1301430066506
10
539.7724883774408
20
-362.1301430066506
0
LWPOLYLINE
5
7D
330
71
100
AcDbEntity
8
0
100
AcDbPolyline
90
2
70
0
43
0
38
0
39
0
10
592.6921891121328
20
-430.07564646148643
10
592.6921891121328
20
-498.0211499163224
0
LWPOLYLINE
5
7E
330
71
100
AcDbEntity
8
0
100
AcDbPolyline
90
2
70
0
43
0
38
0
39
0
10
575.0522888672356
20
-430.07564646148643
10
575.0522888672356
20
-498.0211499163224
0
LWPOLYLINE
5
7F
330
71
100
AcDbEntity
8
0
100
AcDbPolyline
90
2
70
0
43
0
38
0
39
0
10
557.4123886223381
20
-430.07564646148643
10
557.4123886223381
20
-498.0211499163224
0
LWPOLYLINE
5
80
330
71
100
AcDbEntity
8
0
100
AcDbPolyline
90
2
70
0
43
0
38
0
39
0
10
539.7724883774408
20
-430.07564646148643
10
539.7724883774408
20
-498.0211499163224
0
LWPOLYLINE
5
81
330
71
100
AcDbEntity
8
0
100
AcDbPolyline
90
2
70
0
43
0
38
0
39
0
10
610.3320893570301
20
-430.07564646148643
10
539.7724883774408
20
-430.07564646148643
0
LWPOLYLINE
5
82
330
71
100
AcDbEntity
8
0
100
AcDbPolyline
90
2
70
0
43
0
38
0
39
0
10
610.3320893570301
20
-498.0211499163224
10
539.7724883774408
20
-498.0211499163224
0
LWPOLYLINE
5
83
330
71
100
AcDbEntity
8
0
100
AcDbPolyline
90
2
70
0
43
0
38
0
39
0
10
610.3320893570301
20
-430.07564646148643
10
610.3320893570301
20
-498.5998743358952
0
LWPOLYLINE
5
84
330
71
100
AcDbEntity
8
0
100
AcDbPolyline
90
2
70
0
43
0
38
0
39
0
10
610.3320893570301
20
-430.07564646148643
10
649.0041783554589
20
-497.0576721341001
0
LWPOLYLINE
5
85
330
71
100
AcDbEntity
8
0
100
AcDbPolyline
90
2
70
0
43
0
38
0
39
0
10
610.3320893570301
20
-430.07564646148643
10
677.3141150296435
20
-468.7477354599152
0
LWPOLYLINE
5
86
330
71
100
AcDbEntity
8
0
100
AcDbPolyline
90
2
70
0
43
0
38
0
39
0
10
610.3320893570301
20
-430.07564646148643
10
678.8563172314389
20
-430.07564646148643
0
LWPOLYLINE
5
87
330
71
100
AcDbEntity
8
0
100
AcDbPolyline
90
2
70
0
43
0
38
0
39
0
10
610.3320893570301
20
-430.07564646148643
10
677.3141150296435
20
-391.40355746305767
0
LWPOLYLINE
5
88
330
71
100
AcDbEntity
8
0
100
AcDbPolyline
90
2
70
0
43
0
38
0
39
0
10
610.3320893570301
20
-430.07564646148643
10
649.0041783554589
20
-363.0936207888729
0
LWPOLYLINE
5
89
330
71
100
AcDbEntity
8
0
100
AcDbPolyline
90
2
70
0
43
0
38
0
39
0
10
610.3320893570301
20
-430.07564646148643
10
610.3320893570301
20
-361.55141858707765
0
LWPOLYLINE
5
8A
330
71
100
AcDbEntity
8
0
100
AcDbPolyline
90
2
70
0
43
0
38
0
39
0
10
644.3048410844481
20
-396.10289473406857
10
539.7724883774408
20
-396.10289473406857
0
LWPOLYLINE
5
8B
330
71
100
AcDbEntity
8
0
100
AcDbPolyline
90
2
70
0
43
0
38
0
39
0
10
644.3048410844481
20
-464.0483981889043
10
539.7724883774408
20
-464.0483981889043
0
LWPOLYLINE
5
8C
330
71
100
AcDbEntity
8
0
100
AcDbPolyline
90
2
70
0
43
0
38
0
39
0
10
644.3048410844481
20
-396.10289473406857
10
644.3048410844481
20
-464.0483981889043
0
LWPOLYLINE
5
8D
330
71
100
AcDbEntity
8
0
100
AcDbPolyline
90
2
70
0
43
0
38
0
39
0
10
539.7724883774408
20
-396.10289473406857
10
556.6099766985058
20
-378.9689203973489
0
LWPOLYLINE
5
8E
330
71
100
AcDbEntity
8
0
100
AcDbPolyline
90
2
70
0
43
0
38
0
39
0
10
539.7724883774408
20
-396.10289473406857
10
556.7588303182647
20
-413.08930452066255
0
ENDBLK
5
73
100
AcDbEntity
8
0
100
AcDbBlockEnd
0
BLOCK
5
91
330
90
100
AcDbEntity
8
0
100
AcDbBlockBegin
2
object-1
70
0
10
0
20
0
30
0
3
object-1
1

0
LWPOLYLINE
5
93
330
90
100
AcDbEntity
8
0
100
AcDbPolyline
90
5
70
0
43
0
38
0
39
0
10
496.749110908987
20
-494.39031567976104
10
496.749110908987
20
-536.3244971538625
10
540.7778948456298
20
-536.3244971538625
10
540.7778948456298
20
-494.39031567976104
10
496.749110908987
20
-494.39031567976104
0
ENDBLK
5
92
100
AcDbEntity
8
0
100
AcDbBlockEnd
0
BLOCK
5
96
330
95
100
AcDbEntity
8
0
100
AcDbBlockBegin
2
Column-1
70
0
10
0
20
0
30
0
3
Column-1
1

0
LWPOLYLINE
5
98
330
95
100
AcDbEntity
8
0
100
AcDbPolyline
90
6
70
0
43
0
38
0
39
0
10
496.749110908987
20
-494.39031567976104
10
540.7778269998596
20
-494.39031567976104
10
540.7778269998596
20
-536.3244971538625
10
496.749110908987
20
-536.3244971538625
10
496.749110908987
20
-494.39031567976104
10
496.749110908987
20
-494.39031567976104
0
ENDBLK
5
97
100
AcDbEntity
8
0
100
AcDbBlockEnd
0
BLOCK
5
9B
330
9A
100
AcDbEntity
8
0
100
AcDbBlockBegin
2
Warderobe_2_door-1
70
0
10
0
20
0
30
0
3
Warderobe_2_door-1
1

0
LWPOLYLINE
5
9D
330
9A
100
AcDbEntity
8
0
100
AcDbPolyline
90
6
70
0
43
0
38
0
39
0
10
298.07634211232244
20
-362.46971108636484
10
340.62127120951834
20
-362.46971108636484
10
340.62127120951834
20
-403.177173189974
10
298.07634211232244
20
-403.177173189974
10
298.07634211232244
20
-362.46971108636484
10
298.07634211232244
20
-362.46971108636484
0
LWPOLYLINE
5
9E
330
9A
100
AcDbEntity
8
0
100
AcDbPolyline
90
2
70
0
43
0
38
0
39
0
10
319.34884058380544
20
-362.46971108636484
10
319.34884058380544
20
-403.177173189974
0
ENDBLK
5
9C
100
AcDbEntity
8
0
100
AcDbBlockEnd
0
BLOCK
5
A1
330
A0
100
AcDbEntity
8
0
100
AcDbBlockBegin
2
Fireplace-1
70
0
10
0
20
0
30
0
3
Fireplace-1
1

0
LWPOLYLINE
5
A3
330
A0
100
AcDbEntity
8
0
100
AcDbPolyline
90
5
70
0
43
0
38
0
39
0
10
496.749110908987
20
-536.319951487261
10
540.827083029005
20
-536.319951487261
10
540.827083029005
20
-573.0697662793871
10
496.749110908987
20
-573.0697662793871
10
496.749110908987
20
-536.319951487261
0
LWPOLYLINE
5
A4
330
A0
100
AcDbEntity
8
0
100
AcDbPolyline
90
2
70
0
43
0
38
0
39
0
10
516.6944104243521
20
-551.6323347406142
10
521.102214420931
20
-551.6323347406142
0
LWPOLYLINE
5
A5
330
A0
100
AcDbEntity
8
0
100
AcDbPolyline
90
2
70
0
43
0
38
0
39
0
10
516.6944104243521
20
-545.8136101075243
10
521.102214420931
20
-545.8136101075243
0
LWPOLYLINE
5
A6
330
A0
100
AcDbEntity
8
0
100
AcDbPolyline
90
2
70
0
43
0
38
0
39
0
10
516.6944104243521
20
-563.8822956199131
10
516.6944104243521
20
-545.5073543009648
0
ENDBLK
5
A2
100
AcDbEntity
8
0
100
AcDbBlockEnd
0
BLOCK
5
A9
330
A8
100
AcDbEntity
8
0
100
AcDbBlockBegin
2
Single_sink-1
70
0
10
0
20
0
30
0
3
Single_sink-1
1

0
LWPOLYLINE
5
AB
330
A8
100
AcDbEntity
8
0
100
AcDbPolyline
90
26
70
0
43
0
38
0
39
0
10
231.5001698368818
20
-362.41746984333184
10
268.9899784442814
20
-362.41746984333184
10
269.48406967317146
20
-362.50260448908404
10
270.0542478854931
20
-362.860567986988
10
270.43756456977036
20
-363.4153371287693
10
270.5952948847484
20
-364.07152028174704
10
270.5988051923862
20
-364.189465668702
10
270.5988051923862
20
-401.3529361215711
10
270.59851434764386
20
-401.38662253812805
10
270.46984961191106
20
-402.0491726807166
10
270.11317867073325
20
-402.6215454724326
10
269.56266113099053
20
-403.0093400508446
10
268.9899784442814
20
-403.1249319469411
10
231.5001698368818
20
-403.1249319469411
10
230.9218981696531
20
-403.0070552579337
10
230.37283262831284
20
-402.6171921748905
10
230.01811457039696
20
-402.04359914210517
10
229.89153899267956
20
-401.38064059949846
10
229.89134308877703
20
-401.3529361215711
10
229.89134308877703
20
-364.189465668702
10
229.8952203239918
20
-364.06554883163113
10
230.05502221191568
20
-363.4098720446065
10
230.44021463979868
20
-362.85641164924647
10
231.01173764551078
20
-362.50061931702993
10
231.5001698368818
20
-362.41746984333184
10
231.5001698368818
20
-362.41746984333184
0
LWPOLYLINE
5
AC
330
A8
100
AcDbEntity
8
0
100
AcDbPolyline
90
37
70
0
43
0
38
0
39
0
10
235.01302027911277
20
-370.49715476742637
10
265.34435382982247
20
-370.49715476742637
10
265.54339202783336
20
-370.50534959000964
10
266.20279570597273
20
-370.65519718950776
10
266.7966141822131
20
-370.9791274906716
10
267.2881925733338
20
-371.4441999278154
10
267.6551850188081
20
-372.01301270942423
10
267.8846917322046
20
-372.6499886158021
10
267.9708666025295
20
-373.32164531235895
10
267.97161343398943
20
-373.39091255683167
10
267.97161343398943
20
-394.9314018204968
10
267.9700384482132
20
-395.0322700026591
10
267.87716835402756
20
-395.703028705388
10
267.64108828894206
20
-396.33759248898144
10
267.2679600367862
20
-396.9023908660658
10
266.7710277021768
20
-397.36171952468675
10
266.17321753443014
20
-397.6781918291296
10
265.51190537798544
20
-397.8193596743484
10
265.34435382982247
20
-397.8251596099021
10
235.01302027911277
20
-397.8251596099021
10
234.9814436479963
20
-397.82494857114426
10
234.31321534494833
20
-397.7213729113499
10
233.69914286896176
20
-397.43787238976955
10
233.17974106482916
20
-397.00420042440766
10
232.78046356266992
20
-396.4576209430482
10
232.51617777496432
20
-395.83430112921695
10
232.39443159873167
20
-395.1681981220774
10
232.38576067494586
20
-394.9314018204968
10
232.38576067494586
20
-373.39091255683167
10
232.44383440763409
20
-372.7830097291871
10
232.64480282126965
20
-372.1364407276763
10
232.9849877583677
20
-371.5511637446178
10
233.4529862059644
20
-371.0623008014382
10
234.02870966019145
20
-370.7070925729909
10
234.67865980210712
20
-370.5203779055259
10
235.01302027911277
20
-370.49715476742637
10
235.01302027911277
20
-370.49715476742637
0
LWPOLYLINE
5
AD
330
A8
100
AcDbEntity
8
0
100
AcDbPolyline
90
6
70
0
43
0
38
0
39
0
10
249.38899621254274
20
-366.27036328566834
10
250.97570523957125
20
-366.27036328566834
10
250.97570523957125
20
-385.4942587267872
10
249.38899621254274
20
-385.4942587267872
10
249.38899621254274
20
-366.27036328566834
10
249.38899621254274
20
-366.27036328566834
0
LWPOLYLINE
5
AE
330
A8
100
AcDbEntity
8
0
100
AcDbPolyline
90
6
70
0
43
0
38
0
39
0
10
245.47029237313876
20
-366.25414814659706
10
248.64364258142558
20
-366.25414814659706
10
248.64364258142558
20
-369.7493586885832
10
245.47029237313876
20
-369.7493586885832
10
245.47029237313876
20
-366.25414814659706
10
245.47029237313876
20
-366.25414814659706
0
LWPOLYLINE
5
AF
330
A8
100
AcDbEntity
8
0
100
AcDbPolyline
90
6
70
0
43
0
38
0
39
0
10
246.56993661609755
20
-367.4083403887748
10
247.52927580633929
20
-367.4083403887748
10
247.52927580633929
20
-368.4650382592143
10
246.56993661609755
20
-368.4650382592143
10
246.56993661609755
20
-367.4083403887748
10
246.56993661609755
20
-367.4083403887748
0
LWPOLYLINE
5
B0
330
A8
100
AcDbEntity
8
0
100
AcDbPolyline
90
6
70
0
43
0
38
0
39
0
10
251.72105887068824
20
-366.25414814659706
10
254.89440907897517
20
-366.25414814659706
10
254.89440907897517
20
-369.7493586885832
10
251.72105887068824
20
-369.7493586885832
10
251.72105887068824
20
-366.25414814659706
10
251.72105887068824
20
-366.25414814659706
0
LWPOLYLINE
5
B1
330
A8
100
AcDbEntity
8
0
100
AcDbPolyline
90
6
70
0
43
0
38
0
39
0
10
252.82070311364714
20
-367.4083403887748
10
253.78004230388882
20
-367.4083403887748
10
253.78004230388882
20
-368.4650382592143
10
252.82070311364714
20
-368.4650382592143
10
252.82070311364714
20
-367.4083403887748
10
252.82070311364714
20
-367.4083403887748
0
ENDBLK
5
AA
100
AcDbEntity
8
0
100
AcDbBlockEnd
0
BLOCK
5
B4
330
B3
100
AcDbEntity
8
0
100
AcDbBlockBegin
2
Two_seater_sofa-3
70
0
10
0
20
0
30
0
3
Two_seater_sofa-3
1

0
LWPOLYLINE
5
B6
330
B3
100
AcDbEntity
8
0
100
AcDbPolyline
90
6
70
0
43
0
38
0
39
0
10
122.47791975138682
20
-868.6059411515898
10
122.47791975138682
20
-860.6905786828536
10
167.0017064272094
20
-860.6905786828536
10
167.0017064272094
20
-868.6059411515898
10
122.47791975138682
20
-868.6059411515898
10
122.47791975138682
20
-868.6059411515898
0
LWPOLYLINE
5
B7
330
B3
100
AcDbEntity
8
0
100
AcDbPolyline
90
6
70
0
43
0
38
0
39
0
10
122.47791975138682
20
-781.5371575328011
10
122.47791975138682
20
-773.621862909835
10
167.0017064272094
20
-773.621862909835
10
167.0017064272094
20
-781.5371575328011
10
122.47791975138682
20
-781.5371575328011
10
122.47791975138682
20
-781.5371575328011
0
LWPOLYLINE
5
B8
330
B3
100
AcDbEntity
8
0
100
AcDbPolyline
90
6
70
0
43
0
38
0
39
0
10
122.47791975138682
20
-860.6905786828536
10
122.47791975138682
20
-781.5371575328011
10
169.96995887226421
20
-781.5371575328011
10
169.96995887226421
20
-860.6905786828536
10
122.47791975138682
20
-860.6905786828536
10
122.47791975138682
20
-860.6905786828536
0
LWPOLYLINE
5
B9
330
B3
100
AcDbEntity
8
0
100
AcDbPolyline
90
2
70
0
43
0
38
0
39
0
10
131.38267708655133
20
-860.6905786828536
10
131.38267708655133
20
-781.5371575328011
0
LWPOLYLINE
5
BA
330
B3
100
AcDbEntity
8
0
100
AcDbPolyline
90
2
70
0
43
0
38
0
39
0
10
131.38267708655133
20
-821.1139020307123
10
169.96995887226421
20
-821.1139020307123
0
ENDBLK
5
B5
100
AcDbEntity
8
0
100
AcDbBlockEnd
0
BLOCK
5
BD
330
BC
100
AcDbEntity
8
0
100
AcDbBlockBegin
2
Warderobe_2_door-2
70
0
10
0
20
0
30
0
3
Warderobe_2_door-2
1

0
LWPOLYLINE
5
BF
330
BC
100
AcDbEntity
8
0
100
AcDbPolyline
90
6
70
0
43
0
38
0
39
0
10
340.62242458761125
20
-362.46971108636484
10
383.1673536848072
20
-362.46971108636484
10
383.1673536848072
20
-403.177173189974
10
340.62242458761125
20
-403.177173189974
10
340.62242458761125
20
-362.46971108636484
10
340.62242458761125
20
-362.46971108636484
0
LWPOLYLINE
5
C0
330
BC
100
AcDbEntity
8
0
100
AcDbPolyline
90
2
70
0
43
0
38
0
39
0
10
361.8949230590944
20
-362.46971108636484
10
361.8949230590944
20
-403.177173189974
0
ENDBLK
5
BE
100
AcDbEntity
8
0
100
AcDbBlockEnd
0
BLOCK
5
C3
330
C2
100
AcDbEntity
8
0
100
AcDbBlockBegin
2
Refrigator_freezer-1
70
0
10
0
20
0
30
0
3
Refrigator_freezer-1
1

0
LWPOLYLINE
5
C5
330
C2
100
AcDbEntity
8
0
100
AcDbPolyline
90
5
70
0
43
0
38
0
39
0
10
365.861051091849
20
-504.613384175151
10
420.1376672299945
20
-504.613384175151
10
420.1376672299945
20
-545.32084627876
10
365.861051091849
20
-545.32084627876
10
365.861051091849
20
-504.613384175151
0
LWPOLYLINE
5
C6
330
C2
100
AcDbEntity
8
0
100
AcDbPolyline
90
24
70
0
43
0
38
0
39
0
10
386.2147821436536
20
-518.1825382096872
10
386.10329865121304
20
-518.8485870240593
10
385.7791798570866
20
-519.4410287509625
10
385.2794593616348
20
-519.895321487309
10
384.6586986518012
20
-520.1611564552538
10
384.1794090384731
20
-520.2179113148677
10
383.98500952311366
20
-520.2087397966491
10
383.3327349756052
20
-520.0339773756693
10
382.7739504228695
20
-519.6547261899502
10
382.36925836186487
20
-519.1140700607032
10
382.16427549594863
20
-518.4706559963927
10
382.1440359332926
20
-518.1825382096872
10
382.18079940960087
20
-517.7954762831266
10
382.4174059314542
20
-517.1630051684829
10
382.8481536602016
20
-516.6428582728827
10
383.42492691488127
20
-516.2915900988521
10
384.0850637627512
20
-516.149320406327
10
384.1794090384731
20
-516.1471651045067
10
384.755583828203
20
-516.2298665738101
10
385.3624455100639
20
-516.5260812184486
10
385.8393030014626
20
-517.004318558214
10
386.1337476145771
20
-517.6120410646563
10
386.2147821436536
20
-518.1825382096872
10
386.2147821436536
20
-518.1825382096872
0
LWPOLYLINE
5
C7
330
C2
100
AcDbEntity
8
0
100
AcDbPolyline
90
2
70
0
43
0
38
0
39
0
10
403.1762246868241
20
-527.002488332136
10
403.1762246868241
20
-536.5008961563115
0
LWPOLYLINE
5
C8
330
C2
100
AcDbEntity
8
0
100
AcDbPolyline
90
2
70
0
43
0
38
0
39
0
10
399.78393617819
20
-535.8224384545847
10
406.56851319545814
20
-527.6809460338627
0
LWPOLYLINE
5
C9
330
C2
100
AcDbEntity
8
0
100
AcDbPolyline
90
2
70
0
43
0
38
0
39
0
10
399.78393617819
20
-527.6809460338627
10
406.56851319545814
20
-535.8224384545847
0
LWPOLYLINE
5
CA
330
C2
100
AcDbEntity
8
0
100
AcDbPolyline
90
2
70
0
43
0
38
0
39
0
10
372.6456281091171
20
-538.536269261492
10
413.3530902127264
20
-511.39796119241913
0
ENDBLK
5
C4
100
AcDbEntity
8
0
100
AcDbBlockEnd
0
BLOCK
5
CD
330
CC
100
AcDbEntity
8
0
100
AcDbBlockBegin
2
Double_sink-1
70
0
10
0
20
0
30
0
3
Double_sink-1
1

0
LWPOLYLINE
5
CF
330
CC
100
AcDbEntity
8
0
100
AcDbPolyline
90
25
70
0
43
0
38
0
39
0
10
162.1320762730652
20
-504.62016875216824
10
220.18430952132053
20
-504.62016875216824
10
220.47741727820681
20
-504.65000263188693
10
221.0880317620161
20
-504.93205531050654
10
221.516712828168
20
-505.45072719954436
10
221.6751903219888
20
-506.10421789800836
10
221.6752203208652
20
-506.11325061635847
10
221.6752203208652
20
-543.8344811458171
10
221.66733310135976
20
-544.097686796837
10
221.52863260412585
20
-544.758332324953
10
221.0553101920387
20
-545.2178151150006
10
220.38835916902917
20
-545.3234912747112
10
219.980975748113
20
-545.3276308557774
10
162.10500581076627
20
-545.3276308557774
10
162.04103608450475
20
-545.3276022148216
10
161.3665634453476
20
-545.2722720600225
10
160.8319660249457
20
-544.885980658277
10
160.63946781742203
20
-544.2404445488389
10
160.61402716545143
20
-543.7666353756442
10
160.61402716545143
20
-506.11325061635847
10
160.71407850471934
20
-505.5817813090969
10
161.09195705854728
20
-505.0250884202864
10
161.67288295275262
20
-504.6858281760655
10
162.10500581076627
20
-504.62016875216824
10
162.1320762730652
20
-504.62016875216824
0
LWPOLYLINE
5
D0
330
CC
100
AcDbEntity
8
0
100
AcDbPolyline
90
18
70
0
43
0
38
0
39
0
10
167.729962924243
20
-512.6828922337195
10
189.00985658467482
20
-512.7508058496624
10
189.41131661368496
20
-512.8893246208961
10
189.84484427806314
20
-513.400506387527
10
189.95867968053977
20
-513.9045231714488
10
189.95867968053977
20
-536.7083006757293
10
189.9023153222313
20
-537.1245006712304
10
189.53848136229198
20
-537.6836506405402
10
189.00985658467482
20
-537.862085843286
10
167.729962924243
20
-537.862085843286
10
167.22319530947533
20
-537.6999120090388
10
166.84532668761
20
-537.1505968029549
10
166.78113982837806
20
-536.7083006757293
10
166.78113982837806
20
-513.8366774012763
10
166.83873645624857
20
-513.4162603186367
10
167.2048451599157
20
-512.8586662686087
10
167.729962924243
20
-512.6828922337195
10
167.729962924243
20
-512.6828922337195
0
LWPOLYLINE
5
D1
330
CC
100
AcDbEntity
8
0
100
AcDbPolyline
90
18
70
0
43
0
38
0
39
0
10
193.14390289860688
20
-512.6828922337195
10
214.4237965590388
20
-512.7508058496624
10
214.83707328797811
20
-512.8551080477673
10
215.27124442634982
20
-513.359102901949
10
215.3726196549037
20
-513.9045231714488
10
215.3726196549037
20
-536.7083006757293
10
215.3261198646142
20
-537.0884160897324
10
214.98160345931706
20
-537.660247709093
10
214.4237965590388
20
-537.862085843286
10
193.14390289860688
20
-537.862085843286
10
192.6679381817712
20
-537.7211440520955
10
192.27088684949234
20
-537.1861711084314
10
192.195079802742
20
-536.7083006757293
10
192.195079802742
20
-513.8366774012763
10
192.24268376820788
20
-513.4523275282679
10
192.5894556883403
20
-512.8819283926507
10
193.14390289860688
20
-512.6828922337195
10
193.14390289860688
20
-512.6828922337195
0
LWPOLYLINE
5
D2
330
CC
100
AcDbEntity
8
0
100
AcDbPolyline
90
45
70
0
43
0
38
0
39
0
10
187.31561201192267
20
-508.2714924113216
10
187.99027909852032
20
-508.33902785182767
10
188.64955013540782
20
-508.4967493041342
10
189.28539137003332
20
-508.73286819964625
10
189.92220162048824
20
-508.9661116975872
10
190.58706554740604
20
-509.09556726783086
10
191.26477636539136
20
-509.10154020755834
10
191.93796607127211
20
-509.01960248446215
10
192.60215806743412
20
-508.8818237662709
10
193.25777822938278
20
-508.7075036659292
10
193.90618246633323
20
-508.5079150903958
10
194.54866405024654
20
-508.28997237759114
10
194.6009586588354
20
-508.2714924113216
10
195.2194597689808
20
-508.32665969554756
10
195.8329445935628
20
-508.60596378101246
10
196.28576132438178
20
-509.10495543047995
10
196.5218545696228
20
-509.73727436409223
10
196.5386883136582
20
-510.4126467135813
10
196.33965906829928
20
-511.05792124443377
10
195.92607666725087
20
-511.5903564888045
10
195.3371353205124
20
-511.9176793861324
10
194.66772830399879
20
-512.0068160041392
10
194.6009586588354
20
-512.0042309946823
10
193.9971414331754
20
-511.90674743267283
10
193.32686617877988
20
-511.80170610402666
10
192.65530240543188
20
-511.70531014749787
10
191.98110458799812
20
-511.6299283488475
10
191.30359554466116
20
-511.5978911446894
10
190.62581644862985
20
-511.62384884740567
10
189.95059808152797
20
-511.68965776290514
10
189.27693719297054
20
-511.7701702297945
10
188.60355120878944
20
-511.85297177810577
10
187.92990995249386
20
-511.9336656731646
10
187.31561201192267
20
-512.0042309946823
10
187.25661816665456
20
-511.9926562407649
10
186.61460129221604
20
-511.7789395669752
10
186.0658636687097
20
-511.38578226573094
10
185.70129733445958
20
-510.81885450390774
10
185.57516010179705
20
-510.1560265906791
10
185.67820124472763
20
-509.48841685422104
10
185.98779444041293
20
-508.8882176346987
10
186.4907957687654
20
-508.4400498746938
10
187.1383912425935
20
-508.2629412286938
10
187.31561201192267
20
-508.2714924113216
10
187.31561201192267
20
-508.2714924113216
0
LWPOLYLINE
5
D3
330
CC
100
AcDbEntity
8
0
100
AcDbPolyline
90
6
70
0
43
0
38
0
39
0
10
189.48423420972222
20
-508.67870272389797
10
192.66945742778933
20
-508.67870272389797
10
192.66945742778933
20
-511.3934155258176
10
189.48423420972222
20
-511.3934155258176
10
189.48423420972222
20
-508.67870272389797
10
189.48423420972222
20
-508.67870272389797
0
LWPOLYLINE
5
D4
330
CC
100
AcDbEntity
8
0
100
AcDbPolyline
90
7
70
0
43
0
38
0
39
0
10
190.63639107879476
20
-510.1717845880882
10
191.22885103906435
20
-509.98665210624785
10
191.517368404487
20
-510.1717845880882
10
191.517368404487
20
-528.496248654028
10
191.23502572678768
20
-528.6577716233048
10
190.63639107879476
20
-528.496248654028
10
190.63639107879476
20
-510.1717845880882
0
ENDBLK
5
CE
100
AcDbEntity
8
0
100
AcDbBlockEnd
0
BLOCK
5
D7
330
D6
100
AcDbEntity
8
0
100
AcDbBlockBegin
2
Induction_cooker_4-1
70
0
10
0
20
0
30
0
3
Induction_cooker_4-1
1

0
LWPOLYLINE
5
D9
330
D6
100
AcDbEntity
8
0
100
AcDbPolyline
90
6
70
0
43
0
38
0
39
0
10
119.90656506184223
20
-716.6246313877648
10
119.90656506184223
20
-675.9171692841558
10
158.67560566584774
20
-675.9171692841558
10
158.67560566584774
20
-716.6246313877648
10
119.90656506184223
20
-716.6246313877648
10
119.90656506184223
20
-716.6246313877648
0
LWPOLYLINE
5
DA
330
D6
100
AcDbEntity
8
0
100
AcDbPolyline
90
6
70
0
43
0
38
0
39
0
10
158.67560566584774
20
-712.8931140282673
10
158.67560566584774
20
-679.6486866436533
10
160.61402716545143
20
-679.6486866436533
10
160.61402716545143
20
-712.8931140282673
10
158.67560566584774
20
-712.8931140282673
10
158.67560566584774
20
-712.8931140282673
0
LWPOLYLINE
5
DB
330
D6
100
AcDbEntity
8
0
100
AcDbPolyline
90
6
70
0
43
0
38
0
39
0
10
121.19889129209145
20
-715.2677159843113
10
121.19889129209145
20
-677.2740846876093
10
153.50636859062092
20
-677.2740846876093
10
153.50636859062092
20
-715.2677159843113
10
121.19889129209145
20
-715.2677159843113
10
121.19889129209145
20
-715.2677159843113
0
LWPOLYLINE
5
DC
330
D6
100
AcDbEntity
8
0
100
AcDbPolyline
90
52
70
0
43
0
38
0
39
0
10
129.598808251401
20
-682.3625174505605
10
130.27488356151582
20
-682.4116538520818
10
130.9365546671056
20
-682.5588597774433
10
131.56970588248402
20
-682.8009612643721
10
132.1615730586413
20
-683.1314419851963
10
132.70122295121377
20
-683.5417336024705
10
133.17955845323098
20
-684.0221403924236
10
133.5890173791783
20
-684.5624771094886
10
133.92342778788355
20
-685.152228314872
10
134.17782479476
20
-685.7806644568411
10
134.3486958916264
20
-686.4367643622161
10
134.4342029532449
20
-687.1093503455088
10
134.44496376906557
20
-687.4509502135115
10
134.43453626597858
20
-687.7873665244108
10
134.3496697339387
20
-688.4600341627611
10
134.17944901180095
20
-689.1163032348179
10
133.9256791165339
20
-689.7449937662193
10
133.59185571796968
20
-690.3350782949481
10
133.18293899963408
20
-690.875825073982
10
132.70510881303863
20
-691.3567335426014
10
132.16590003403502
20
-691.7676049651616
10
131.57439683563013
20
-692.0987385421554
10
130.94150995782167
20
-692.3415298921916
10
130.28000954354144
20
-692.4895003017045
10
129.60398818551533
20
-692.5393682824672
10
129.598808251401
20
-692.5393829764628
10
128.92785940005024
20
-692.4909878739047
10
128.2660282412494
20
-692.3445079601202
10
127.63261154072643
20
-692.1031048656346
10
127.04038998202765
20
-691.7732597988047
10
126.5003099265005
20
-691.3635335282395
10
126.02149786811236
20
-690.8836020637405
10
125.6114860810979
20
-690.3436854757126
10
125.27649354483862
20
-689.7542647731582
10
125.02147202025083
20
-689.1260819450922
10
124.84996877144908
20
-688.4701475606548
10
124.76381002724128
20
-687.7976457312191
10
124.75272057950673
20
-687.4509502135115
10
124.76283616682849
20
-687.1196305857907
10
124.84705979978031
20
-686.4468826741681
10
125.0166217655572
20
-685.7904429006435
10
125.269776284962
20
-685.161503584201
10
125.60300372146702
20
-684.5710816354119
10
126.01138357169845
20
-684.0299290089415
10
126.4887137681435
20
-683.548524353015
10
127.02748913929327
20
-683.137083316403
10
127.6186400888601
20
-682.8053193164922
10
128.25126475416675
20
-682.5618456465238
10
128.91260090215223
20
-682.4131449399338
10
129.58856720607224
20
-682.3625465013561
10
129.598808251401
20
-682.3625174505605
10
129.598808251401
20
-682.3625174505605
0
LWPOLYLINE
5
DD
330
D6
100
AcDbEntity
8
0
100
AcDbPolyline
90
61
70
0
43
0
38
0
39
0
10
145.1064516313113
20
-681.3448308979703
10
145.78325761793576
20
-681.3857625724938
10
146.45006495780257
20
-681.5086336561687
10
147.09691818770676
20
-681.7118935424285
10
147.71447328572566
20
-681.9918467803659
10
148.29437542982964
20
-682.343248367225
10
148.8293403747582
20
-682.7599060191721
10
149.31317362208551
20
-683.2350001162931
10
149.74056765390213
20
-683.7614586979805
10
150.10698877545366
20
-684.3320473648967
10
150.4086351975851
20
-684.9393806532448
10
150.64245873836944
20
-685.57591701814
10
150.8062711034534
20
-686.2339644445381
10
150.8989000655991
20
-686.9057466256158
10
150.9217839758926
20
-687.4509502135115
10
150.9204351031558
20
-687.5835542821908
10
150.87117840945638
20
-688.2599078128267
10
150.75065294532976
20
-688.9272453216843
10
150.5592729324709
20
-689.5778065327161
10
150.29863529180773
20
-690.2038396162823
10
149.9712578853672
20
-690.797697386749
10
149.58050729589633
20
-691.3519065016701
10
149.13046445279906
20
-691.8591361873962
10
148.6259534057461
20
-692.3122046787103
10
148.07263032039577
20
-692.7041428899192
10
147.4770903165267
20
-693.0283240866715
10
146.84702247995455
20
-693.2788366027792
10
146.1912116951077
20
-693.4510051506604
10
145.51929823080872
20
-693.5419169455333
10
145.1064516313113
20
-693.557069529053
10
144.84130943881053
20
-693.5508168609881
10
144.1672117558079
20
-693.4778306494854
10
143.50704358256695
20
-693.3232077214532
10
142.87057520061984
20
-693.0894386777177
10
142.26681686000614
20
-692.780840062147
10
141.7036829203157
20
-692.4031400279569
10
141.1880063411826
20
-691.962825578375
10
140.72566020567882
20
-691.4667881028388
10
140.3216068829268
20
-690.9222050882256
10
139.9800889232842
20
-690.3363675375697
10
139.7046415880218
20
-689.7167088355884
10
139.49797954554595
20
-689.0708401782888
10
139.36191709850755
20
-688.4064968714249
10
139.29716630840488
20
-687.7314530325591
10
139.29111928673007
20
-687.4509502135115
10
139.30326007087677
20
-687.0533293778449
10
139.38035539350966
20
-686.3795858434698
10
139.5286977662471
20
-685.7178790591868
10
139.74738433400694
20
-685.0759832723568
10
140.03448242544317
20
-684.4616368036845
10
140.38707667900957
20
-683.8824002439553
10
140.80153078136993
20
-683.3456928961534
10
141.2734737000457
20
-682.8587811129496
10
141.79778982263434
20
-682.4287950914118
10
142.3684713633658
20
-682.0626035674857
10
142.97848440702512
20
-681.7665683284895
10
143.61971322241106
20
-681.5461971518021
10
144.283006680376
20
-681.4055806533945
10
144.9584922342773
20
-681.3467900431433
10
145.1064516313113
20
-681.3448308979703
10
145.1064516313113
20
-681.3448308979703
0
LWPOLYLINE
5
DE
330
D6
100
AcDbEntity
8
0
100
AcDbPolyline
90
61
70
0
43
0
38
0
39
0
10
129.598808251401
20
-698.9847311428675
10
130.27561424887847
20
-699.0256626981352
10
130.94242174564795
20
-699.1485329887266
10
131.58927560355176
20
-699.3517909288821
10
132.2068322125005
20
-699.6317408753744
10
132.7867371248979
20
-699.983137920794
10
133.32170642025096
20
-700.3997900092966
10
133.8055455170197
20
-700.8748781671429
10
134.23294680515858
20
-701.4013308643605
10
134.59937625613958
20
-701.9719141814232
10
134.90103159728204
20
-702.5792430374884
10
135.13486385735746
20
-703.2157761898254
10
135.29868431591825
20
-703.8738215809508
10
135.39132019853184
20
-704.5456027859593
10
135.41420844175246
20
-705.090850458409
10
135.41286033157905
20
-705.2234102575114
10
135.36360717583864
20
-705.8997640272273
10
135.2430836225186
20
-706.5671018727226
10
135.05170425487967
20
-707.2176632664748
10
134.79106669572218
20
-707.8436963843656
10
134.4636888914552
20
-708.4375539351006
10
134.07293834748913
20
-708.9917630727944
10
133.62289636295594
20
-709.4989935328963
10
133.11838674119502
20
-709.9520636442487
10
132.56506585000295
20
-710.3440049750143
10
131.9695287483517
20
-710.6681915489539
10
131.33946370333973
20
-710.918711169403
10
130.68365526232805
20
-711.0908887294213
10
130.01174318247695
20
-711.1818109453764
10
129.598808251401
20
-711.1969697739503
10
129.33375451658844
20
-711.1907211173848
10
128.6596559956693
20
-711.117742881218
10
127.99948632797992
20
-710.9631264521629
10
127.36301575512528
20
-710.7293633659772
10
126.75925453112654
20
-710.420770348845
10
126.19611654968196
20
-710.0430763207289
10
125.68043422590455
20
-709.6027685702982
10
125.21808087053705
20
-709.1067377896836
10
124.81401870407382
20
-708.5621613145802
10
124.47249054326124
20
-707.9763296931176
10
124.1970324587461
20
-707.3566757687297
10
123.99035908888874
20
-706.7108107393103
10
123.85428611544194
20
-706.0464695827291
10
123.7895262927118
20
-705.3714266198851
10
123.78347590681977
20
-705.090850458409
10
123.79561265590087
20
-704.6933029237564
10
123.87270191009281
20
-704.0195587152921
10
124.02103959332902
20
-703.3578508896856
10
124.23972236651929
20
-702.7159538242393
10
124.52681667812453
20
-702.1016056002882
10
124.8794070500694
20
-701.5223666727629
10
125.29385683345618
20
-700.9856559789423
10
125.76579487341422
20
-700.4987394618786
10
126.29010541502686
20
-700.0687466104466
10
126.86078161117291
20
-699.7025467173685
10
127.47078978709413
20
-699.4065014509117
10
128.1120147510727
20
-699.1861191163407
10
128.77530588642753
20
-699.0454918025384
10
129.45079059308705
20
-698.9866918534524
10
129.598808251401
20
-698.9847311428675
10
129.598808251401
20
-698.9847311428675
0
LWPOLYLINE
5
DF
330
D6
100
AcDbEntity
8
0
100
AcDbPolyline
90
52
70
0
43
0
38
0
39
0
10
145.75261474643594
20
-700.0024176954578
10
146.4286900345786
20
-700.0515542987666
10
147.09036082057867
20
-700.1987615627461
10
147.7235108122975
20
-700.4408661705547
10
148.31537512650414
20
-700.7713519572712
10
148.85502002077993
20
-701.1816501022322
10
149.33334837379084
20
-701.6620639879368
10
149.74279808515894
20
-702.2024076813886
10
150.07719814220167
20
-702.7921647590294
10
150.33158446230232
20
-703.42060524107
10
150.5024457941421
20
-704.076707715607
10
150.58794477759676
20
-704.7492947613318
10
150.59870241833028
20
-705.090850458409
10
150.58827238972736
20
-705.4273109672451
10
150.50340289484234
20
-706.0999782544659
10
150.33318081031013
20
-706.7562469931911
10
150.0794108278551
20
-707.3849374879442
10
149.74558771810587
20
-707.9750221675652
10
149.33667085008045
20
-708.5157688217355
10
148.85883930442083
20
-708.9966759183872
10
148.31962803004717
20
-709.4075440102404
10
147.72812151901104
20
-709.7386715696969
10
147.0952313806102
20
-709.9814543308171
10
146.43372838420504
20
-710.1294130765132
10
145.7577061284731
20
-710.1792687785603
10
145.75261474643594
20
-710.17928322136
10
145.08157804572454
20
-710.1308776605165
10
144.41974828099234
20
-709.9843912211761
10
143.78633299281654
20
-709.7429843236639
10
143.19411250866233
20
-709.413137305897
10
142.65403330269083
20
-709.0034099223406
10
142.17522205814277
20
-708.5234776513742
10
141.7652116306267
20
-707.9835600367392
10
141.4302209823644
20
-707.3941382715263
10
141.17520208291808
20
-706.7659543860811
10
141.00370197290817
20
-706.1100191846081
10
140.91754680865057
20
-705.4375168953104
10
140.90645922877144
20
-705.090850458409
10
140.9165765434359
20
-704.7595017410626
10
141.00080399797577
20
-704.0867543054362
10
141.17037012951494
20
-703.4303156158244
10
141.42352896843283
20
-702.8013780458732
10
141.7567612567512
20
-702.2109588439473
10
142.1651459511097
20
-701.6698098850588
10
142.64248088808506
20
-701.1884099359074
10
143.1812603523348
20
-700.7769742618759
10
143.77241428790745
20
-700.4452155592587
10
144.4050406291683
20
-700.2017461680873
10
145.06637722814958
20
-700.0530472924524
10
145.74234343028212
20
-700.0024468313861
10
145.75261474643594
20
-700.0024176954578
10
145.75261474643594
20
-700.0024176954578
0
ENDBLK
5
D8
100
AcDbEntity
8
0
100
AcDbBlockEnd
0
BLOCK
5
E2
330
E1
100
AcDbEntity
8
0
100
AcDbBlockBegin
2
Booklet-1
70
0
10
0
20
0
30
0
3
Booklet-1
1

0
LWPOLYLINE
5
E4
330
E1
100
AcDbEntity
8
0
100
AcDbPolyline
90
6
70
0
43
0
38
0
39
0
10
678.2811886376851
20
-545.5957573394999
10
678.2801709511325
20
-646.5163404713644
10
651.1418628820597
20
-646.5160690882835
10
651.1428805686123
20
-545.5954859564192
10
678.2811886376851
20
-545.5957573394999
10
678.2811886376851
20
-545.5957573394999
0
ENDBLK
5
E3
100
AcDbEntity
8
0
100
AcDbBlockEnd
0
BLOCK
5
E7
330
E6
100
AcDbEntity
8
0
100
AcDbBlockBegin
2
Coffee_table-2
70
0
10
0
20
0
30
0
3
Coffee_table-2
1

0
LWPOLYLINE
5
E9
330
E6
100
AcDbEntity
8
0
100
AcDbPolyline
90
6
70
0
43
0
38
0
39
0
10
500.60817831640924
20
-793.8317609288736
10
500.60817831640924
20
-725.4622214104584
10
572.9561937977505
20
-725.4622214104584
10
572.9561937977505
20
-793.8317609288736
10
500.60817831640924
20
-793.8317609288736
10
500.60817831640924
20
-793.8317609288736
0
ENDBLK
5
E8
100
AcDbEntity
8
0
100
AcDbBlockEnd
0
BLOCK
5
ED
330
EC
100
AcDbEntity
8
0
100
AcDbBlockBegin
2
wall-1
70
0
10
0
20
0
30
0
3
wall-1
1

0
LWPOLYLINE
5
EF
330
EC
100
AcDbEntity
8
0
100
AcDbPolyline
90
2
70
0
43
0
38
0
39
0
10
277.64798071332785
20
-217.61899176768878
10
314.96315430830293
20
-202.0144646279719
0
LWPOLYLINE
5
F0
330
EC
100
AcDbEntity
8
0
100
AcDbPolyline
90
2
70
0
43
0
38
0
39
0
10
114.81813229889104
20
-237.29426511776654
10
193.5192256992022
20
-237.97272281949336
0
LWPOLYLINE
5
F1
330
EC
100
AcDbEntity
8
0
100
AcDbPolyline
90
2
70
0
43
0
38
0
39
0
10
413.3395210586919
20
-187.0883951899819
10
540.2111112816071
20
-174.87615655889914
0
LWPOLYLINE
5
F2
330
EC
100
AcDbEntity
8
0
100
AcDbPolyline
90
2
70
0
43
0
38
0
39
0
10
610.0922545594697
20
-174.87615655889914
10
683.3656863459662
20
-174.87615655889914
0
LWPOLYLINE
5
F3
330
EC
100
AcDbEntity
8
0
100
AcDbPolyline
90
2
70
0
43
0
38
0
39
0
10
314.96315430830293
20
-202.0144646279719
10
366.52593963954126
20
-187.0883951899819
0
LWPOLYLINE
5
F4
330
EC
100
AcDbEntity
8
0
100
AcDbPolyline
90
2
70
0
43
0
38
0
39
0
10
114.81813229889104
20
-357.3812783234137
10
114.81813229889104
20
-237.29426511776654
0
LWPOLYLINE
5
F5
330
EC
100
AcDbEntity
8
0
100
AcDbPolyline
90
2
70
0
43
0
38
0
39
0
10
193.5192256992022
20
-237.97272281949336
10
277.64798071332785
20
-217.61899176768878
0
LWPOLYLINE
5
F6
330
EC
100
AcDbEntity
8
0
100
AcDbPolyline
90
2
70
0
43
0
38
0
39
0
10
610.0922545594697
20
-174.87615655889914
10
540.2111112816071
20
-174.87615655889914
0
LWPOLYLINE
5
F7
330
EC
100
AcDbEntity
8
0
100
AcDbPolyline
90
2
70
0
43
0
38
0
39
0
10
683.3656863459662
20
-174.87615655889914
10
683.3656863459662
20
-357.3812783234137
0
LWPOLYLINE
5
F8
330
EC
100
AcDbEntity
8
0
100
AcDbPolyline
90
2
70
0
43
0
38
0
39
0
10
366.52593963954126
20
-187.0883951899819
10
413.3395210586919
20
-187.0883951899819
0
LWPOLYLINE
5
F9
330
EC
100
AcDbEntity
8
0
100
AcDbPolyline
90
7
70
0
43
0
38
0
39
0
10
116.5142765532081
20
-762.4205262543253
10
116.5142765532081
20
-874.7052758901141
10
423.51638658459416
20
-874.7052758901141
10
423.51638658459416
20
-878.0975643987481
10
113.12198804457404
20
-878.0975643987481
10
113.12198804457404
20
-762.4205262543253
10
116.5142765532081
20
-762.4205262543253
0
LWPOLYLINE
5
FA
330
EC
100
AcDbEntity
8
0
100
AcDbPolyline
90
7
70
0
43
0
38
0
39
0
10
541.9072555359242
20
-429.97625240818337
10
541.9072555359242
20
-496.1258783265484
10
683.3656863459662
20
-496.1258783265484
10
683.3656863459662
20
-499.5181668351825
10
538.5149670272901
20
-499.5181668351825
10
538.5149670272901
20
-429.97625240818337
10
541.9072555359242
20
-429.97625240818337
0
LWPOLYLINE
5
FB
330
EC
100
AcDbEntity
8
0
100
AcDbPolyline
90
11
70
0
43
0
38
0
39
0
10
688.4541191089172
20
-881.4898529073821
10
418.42795382164303
20
-881.4898529073821
10
418.42795382164303
20
-860.0505895328147
10
428.6048193475453
20
-860.0505895328147
10
428.6048193475453
20
-871.3129873814798
10
678.277253583015
20
-871.3129873814798
10
678.277253583015
20
-362.46971108636484
10
470.01109288393315
20
-362.46971108636484
10
470.01109288393315
20
-352.2928455604626
10
688.4541191089172
20
-352.2928455604626
10
688.4541191089172
20
-881.4898529073821
0
LWPOLYLINE
5
FC
330
EC
100
AcDbEntity
8
0
100
AcDbPolyline
90
25
70
0
43
0
38
0
39
0
10
409.6283574302461
20
-362.46971108636484
10
298.0017117651325
20
-362.46971108636484
10
298.0017117651325
20
-426.69930170884294
10
291.21713474786424
20
-426.69930170884294
10
291.21713474786424
20
-362.46971108636484
10
119.90656506184223
20
-362.46971108636484
10
119.90656506184223
20
-497.8220225808654
10
291.21713474786424
20
-497.8220225808654
10
291.21713474786424
20
-480.2974601452617
10
298.0017117651325
20
-480.2974601452617
10
298.0017117651325
20
-497.8220225808654
10
426.9086750932283
20
-497.8220225808654
10
426.9086750932283
20
-555.4909272276452
10
420.12409807596003
20
-555.4909272276452
10
420.12409807596003
20
-504.60659959813364
10
119.90656506184223
20
-504.60659959813364
10
119.90656506184223
20
-757.332093491374
10
428.6048193475453
20
-757.332093491374
10
428.6048193475453
20
-799.6678540791277
10
418.42795382164303
20
-799.6678540791277
10
418.42795382164303
20
-767.5089590172763
10
109.72969953593991
20
-767.5089590172763
10
109.72969953593991
20
-352.2928455604626
10
409.6283574302461
20
-352.2928455604626
10
409.6283574302461
20
-362.46971108636484
0
ENDBLK
5
EE
100
AcDbEntity
8
0
100
AcDbBlockEnd
0
BLOCK
5
100
330
FF
100
AcDbEntity
8
0
100
AcDbBlockBegin
2
window-door-1
70
0
10
0
20
0
30
0
3
window-door-1
1

0
LWPOLYLINE
5
102
330
FF
100
AcDbEntity
8
0
100
AcDbPolyline
90
5
70
0
43
0
38
0
39
0
10
297.66248291426905
20
-482.3328332504422
10
291.55636359872767
20
-482.3328332504422
10
291.55636359872767
20
-480.6366889961251
10
297.66248291426905
20
-480.6366889961251
10
297.66248291426905
20
-482.3328332504422
0
LWPOLYLINE
5
103
330
FF
100
AcDbEntity
8
0
100
AcDbPolyline
90
5
70
0
43
0
38
0
39
0
10
297.66248291426905
20
-424.66392860366244
10
291.55636359872767
20
-424.66392860366244
10
291.55636359872767
20
-426.36007285797956
10
297.66248291426905
20
-426.36007285797956
10
297.66248291426905
20
-424.66392860366244
0
LWPOLYLINE
5
104
330
FF
100
AcDbEntity
8
0
100
AcDbPolyline
90
127
70
0
43
0
38
0
39
0
10
352.64510213683155
20
-480.6366889961251
10
352.64079108594825
20
-479.9582494886038
10
352.62827515792384
20
-479.2799127160583
10
352.6075421033799
20
-478.601777194995
10
352.5784160429005
20
-477.9239498913037
10
352.540757375391
20
-477.2465432459417
10
352.49485205983507
20
-476.56964590694116
10
352.44069706503666
20
-475.89335772532314
10
352.3778146989213
20
-475.21782515785975
10
352.3066696384572
20
-474.5431136118577
10
352.2272742582281
20
-473.86932254695245
10
352.13923079511886
20
-473.1966068747426
10
352.0428467835182
20
-472.52503599104165
10
351.93823294288353
20
-471.8546973772504
10
351.8250000126441
20
-471.18576075614845
10
351.7034436789981
20
-470.5182868733115
10
351.57369817221337
20
-469.85235583906075
10
351.4353196075404
20
-469.18816507730406
10
351.2887202994412
20
-468.5257407790363
10
351.1339540060033
20
-467.8651762584039
10
350.9705798920872
20
-467.20668782068964
10
350.7991260292752
20
-466.550257351835
10
350.6194268640096
20
-465.8960358275521
10
350.4313527737356
20
-465.2441725038245
10
350.2352878216704
20
-464.59466787182686
10
350.030874437827
20
-463.9477422188407
10
349.818379160639
20
-463.3034261715995
10
349.597927260783
20
-462.6617885282274
10
349.3691455512536
20
-462.0230734626438
10
349.13255569968817
20
-461.38720959135634
10
348.88786915369116
20
-460.75441737279124
10
348.63523562214374
20
-460.1247557104279
10
348.3748609900115
20
-459.4982551103537
10
348.10636106038424
20
-458.8751934358797
10
347.83027322398
20
-458.2554570071599
10
347.54628205083776
20
-457.63930234686273
10
347.25461521831295
20
-457.0267437619074
10
346.95537296273204
20
-456.4178498851482
10
346.64833240906603
20
-455.81285072108943
10
346.3339555153656
20
-455.2116309421437
10
346.01183177213613
20
-454.61452608256883
10
345.68240570979634
20
-454.02141888212935
10
345.3455405500996
20
-453.4325051762484
10
345.00129381420766
20
-452.84787546897866
10
344.64990479229925
20
-452.26751036803324
10
344.29107415721535
20
-451.6917164331581
10
343.9253032167725
20
-451.1203061625085
10
343.5522179476219
20
-450.55364463439076
10
343.1722294586199
20
-449.99158900850733
10
342.7852121241849
20
-449.43435018217593
10
342.3912608462045
20
-448.8819914561422
10
341.99055833737486
20
-448.3345106120335
10
341.5829055695366
20
-447.79218483612595
10
341.1687484875869
20
-447.25480951808123
10
340.7476852908059
20
-446.7228282739997
10
340.3202261365684
20
-446.19597287066546
10
339.88613445794385
20
-445.67456892350214
10
339.4456492354787
20
-445.15855480023407
10
338.99879974672746
20
-444.6480421935593
10
338.54557005322863
20
-444.1431850485606
10
338.08623962639126
20
-443.64387195247053
10
337.6205525139955
20
-443.15048194004675
10
337.1489706425743
20
-442.66272301772784
10
336.67117193487655
20
-442.1810525218444
10
336.1875682882533
20
-441.70521070950446
10
335.6980148679686
20
-441.2354926442186
10
335.20268970281035
20
-440.7718647778451
10
334.7016790368663
20
-440.31438696791776
10
334.19493799485105
20
-439.8632645373296
10
333.6827733563568
20
-439.4183088863842
10
333.1649275352136
20
-438.9799779947637
10
332.6418464577221
20
-438.5479082031839
10
332.11328407871025
20
-438.122561623674
10
331.57956957338
20
-437.70369808972265
10
331.04064493655125
20
-437.29156002855615
10
330.4966220989183
20
-436.8861751075579
10
329.9476591845978
20
-436.48750549105654
10
329.39365902441364
20
-436.09586559445694
10
328.83497205114315
20
-435.71094070983446
10
328.271347489105
20
-435.3332826866568
10
327.7031848894616
20
-434.9624874447664
10
327.13036701113487
20
-434.5989255460109
10
326.55307514730714
20
-434.2425103507284
10
325.9714096950975
20
-433.8932784539855
10
325.385341374888
20
-433.55148644745765
10
324.7951703685796
20
-433.21682773593267
10
324.20069498899556
20
-432.88987630420064
10
323.60228243648083
20
-432.5701887166725
10
322.99986034896943
20
-432.25812280402744
10
322.3935755320706
20
-431.95362925880426
10
321.78357474604627
20
-431.65664978349486
10
321.16979364588775
20
-431.36756382677703
10
320.5525327617743
20
-431.0859845489866
10
319.93169354722374
20
-430.8123856170559
10
319.3075060044994
20
-430.54651455990387
10
318.6800444812894
20
-430.288464923386
10
318.0493227241702
20
-430.0384893242643
10
317.41558864419494
20
-429.7962517861817
10
316.778770494308
20
-429.56224235121914
10
316.13909582045903
20
-429.3361588712814
10
315.49664800390536
20
-429.11807984396665
10
314.8514404677063
20
-428.9083061311772
10
314.2037071656547
20
-428.7064664837821
10
313.55343695172047
20
-428.5129561941914
10
312.90078589976724
20
-428.3276348604915
10
312.2459067650002
20
-428.15034539612947
10
311.58876000411493
20
-427.9816552563529
10
310.92958917445475
20
-427.8210589941278
10
310.2684637047458
20
-427.66870780555365
10
309.6054277165837
20
-427.52489855904213
10
308.9406749856505
20
-427.3892473962449
10
308.27426432816713
20
-427.26198970605395
10
307.6062856924603
20
-427.14323718399334
10
306.93689957283664
20
-427.0326943068247
10
306.2661707279474
20
-426.9306130972016
10
305.5942023195213
20
-426.83703930408336
10
304.92113775907455
20
-426.75170717567056
10
304.2470565321777
20
-426.67481506102143
10
303.57205435630146
20
-426.60647891261175
10
302.89626786763847
20
-426.5463958367815
10
302.2197926090635
20
-426.4946319325912
10
301.5427105081969
20
-426.45152621964604
10
300.8651546866212
20
-426.41666349819894
10
300.18722466724984
20
-426.3900377142458
10
299.5090132289262
20
-426.3719401784187
10
298.8306307469661
20
-426.36220000272994
10
298.368485998686
20
-426.36007285797956
0
LWPOLYLINE
5
105
330
FF
100
AcDbEntity
8
0
100
AcDbPolyline
90
2
70
0
43
0
38
0
39
0
10
353.0118085246149
20
-480.6366889961251
10
298.0017117651325
20
-480.6366889961251
0
LWPOLYLINE
5
106
330
FF
100
AcDbEntity
8
0
100
AcDbPolyline
90
5
70
0
43
0
38
0
39
0
10
472.0464659891135
20
-352.63207441132596
10
472.0464659891135
20
-362.13048223550146
10
470.3503217347965
20
-362.13048223550146
10
470.3503217347965
20
-352.63207441132596
10
472.0464659891135
20
-352.63207441132596
0
LWPOLYLINE
5
107
330
FF
100
AcDbEntity
8
0
100
AcDbPolyline
90
5
70
0
43
0
38
0
39
0
10
407.59298432506563
20
-352.63207441132596
10
407.59298432506563
20
-362.13048223550146
10
409.28912857938275
20
-362.13048223550146
10
409.28912857938275
20
-352.63207441132596
10
407.59298432506563
20
-352.63207441132596
0
LWPOLYLINE
5
108
330
FF
100
AcDbEntity
8
0
100
AcDbPolyline
90
143
70
0
43
0
38
0
39
0
10
470.3503217347965
20
-291.23165240504875
10
469.6718767625279
20
-291.23535665488504
10
468.993512703009
20
-291.24645878664336
10
468.315310705026
20
-291.264973879647
10
467.6373523924287
20
-291.2909151794824
10
466.95971981387237
20
-291.3242941034308
10
466.28249539319125
20
-291.36512024802533
10
465.60576188050055
20
-291.4134013986686
10
464.9296023041182
20
-291.4691435412421
10
464.25409992339206
20
-291.53235087563496
10
463.5793381825153
20
-291.60302583111445
10
462.90540066540717
20
-291.6811690834563
10
462.2323710517275
20
-291.76677957375153
10
461.56033307409547
20
-291.8598545288023
10
460.8893704765688
20
-291.96038948301555
10
460.2195669744405
20
-292.0683783017043
10
459.55100621540174
20
-292.18381320570086
10
458.8837717421156
20
-292.3066847971891
10
458.2179469562365
20
-292.43698208665705
10
457.5536314975532
20
-292.57476958294575
10
456.8909120178112
20
-292.7200378731574
10
456.2298557458666
20
-292.8726935767097
10
455.57054527860265
20
-293.03271935929234
10
454.91306290623555
20
-293.2000964466386
10
454.25749058580374
20
-293.3748046564488
10
453.6039099162245
20
-293.55682243074176
10
452.9524021149154
20
-293.746126868546
10
452.3030479959687
20
-293.9426937588394
10
451.6559319596557
20
-294.14651009716914
10
451.0111906315346
20
-294.3577180922931
10
450.36884798000716
20
-294.57611013764676
10
449.7289830399042
20
-294.80165688304294
10
449.09167435053774
20
-295.0343278389458
10
448.45699994307296
20
-295.2740914092342
10
447.8250373292714
20
-295.52091492364025
10
447.19586349156754
20
-295.7747646697995
10
446.5695835966415
20
-296.0356738318688
10
445.946308873321
20
-296.3036820711616
10
445.3260559385422
20
-296.5786095700915
10
444.7088995648032
20
-296.86041856882576
10
444.09491396062657
20
-297.14907042314275
10
443.484172767933
20
-297.44452563287723
10
442.8767490604044
20
-297.74674386959833
10
442.2727595550719
20
-298.0557692979672
10
441.67230463873483
20
-298.3716071750124
10
441.0753882462589
20
-298.6940812996265
10
440.48208113912705
20
-299.02314813542876
10
439.89245351337155
20
-299.3587634481438
10
439.3065750028912
20
-299.70088232783047
10
438.72451468335595
20
-300.04945921013666
10
438.1464671881267
20
-300.4046510071149
10
437.57238895052245
20
-300.7662215664387
10
437.0023378192282
20
-301.1341076454524
10
436.4363806318934
20
-301.5082611296679
10
435.8745836932923
20
-301.88863334515565
10
435.31701278165536
20
-302.2751750735568
10
434.7638498804626
20
-302.66799926938927
10
434.21508474317756
20
-303.0669429691018
10
433.67074459321253
20
-303.4719026536013
10
433.1308931075178
20
-303.8828269517592
10
432.5955934692019
20
-304.299664010612
10
432.06490837418556
20
-304.722361504153
10
431.53903060732665
20
-305.15102526626356
10
431.0179356943817
20
-305.5854896923906
10
430.5016449451469
20
-306.02565150042597
10
429.9902191026046
20
-306.4714564515591
10
429.4837184521145
20
-306.92284986565744
10
428.9822028264843
20
-307.3797766243956
10
428.485893320632
20
-307.84235306872654
10
427.99471511117173
20
-308.3103734871689
10
427.5087027666154
20
-308.7837554922604
10
427.0279142770915
20
-309.26244214916954
10
426.552407197288
20
-309.74637608973046
10
426.0822411262075
20
-310.2355018658689
10
425.6176663832984
20
-310.7299414044555
10
425.15854677403314
20
-311.22944936517086
10
424.7049380407785
20
-311.7339665526497
10
424.25689549102555
20
-312.24343332514445
10
423.8144739954469
20
-312.75778959006703
10
423.3777553625279
20
-313.27699756938887
10
422.946947899843
20
-313.801120560735
10
422.52192660791076
20
-314.32994550104945
10
422.1027444788361
20
-314.8634103755246
10
421.68945404284074
20
-315.40145269105363
10
421.28210736084867
20
-315.9440094697805
10
420.8807918482277
20
-316.49104322749633
10
420.48570343862974
20
-317.0425911206962
10
420.0967146242238
20
-317.59845673736265
10
419.7138753823511
20
-318.15857503370955
10
419.33723516584297
20
-318.7228804483333
10
418.96684288947216
20
-319.2913068956276
10
418.60275605346743
20
-319.86379349850665
10
418.2452243937368
20
-320.4403966645027
10
417.89408588694045
20
-321.02091430404226
10
417.54938700388374
20
-321.60527812147274
10
417.2111735898208
20
-322.19341926890775
10
416.8794908446153
20
-322.7852683415674
10
416.55438330190503
20
-323.38075537362687
10
416.2360386291271
20
-323.97988533237526
10
415.924432754423
20
-324.5825470504459
10
415.61953228666613
20
-325.18862811760124
10
415.3213786985695
20
-325.79805625906175
10
415.030012672855
20
-326.4107586304945
10
414.74547407573283
20
-327.0266618183128
10
414.46780192955595
20
-327.64569184088924
10
414.1972149310017
20
-328.2678516302313
10
413.93360229352385
20
-328.8929976960289
10
413.67696739655065
20
-329.52103989970345
10
413.4273453940181
20
-330.1519020109377
10
413.18477044277876
20
-330.7855072574501
10
412.9492756711956
20
-331.4217783330709
10
412.72089314725775
20
-332.060637407092
10
412.4997180817973
20
-332.70202789576905
10
412.28584841846344
20
-333.3458909630853
10
412.0791786037226
20
-333.992100320265
10
411.879735898579
20
-334.6405761900202
10
411.6875463343193
20
-335.2912383443352
10
411.5026346792959
20
-335.94400612257317
10
411.32502440575007
20
-336.598798451096
10
411.1547376567585
20
-337.2555338644185
10
410.99179521339005
20
-337.91413052791023
10
410.8362828556263
20
-338.5745215184069
10
410.6882478881708
20
-339.23662851945534
10
410.5476069382433
20
-339.9003448265457
10
410.41437474509377
20
-340.56558748972674
10
410.28856452528584
20
-341.2322733360774
10
410.1701879433776
20
-341.90031900204696
10
410.05925508348736
20
-342.5696409673164
10
409.9557744218419
20
-343.2401555901526
10
409.8597528004039
20
-343.9117791442281
10
409.77119540167524
20
-344.58442785687015
10
409.69010572477106
20
-345.25801794869795
10
409.61648556285974
20
-345.9324656746008
10
409.550334982062
20
-346.6076873660069
10
409.49165230190005
20
-347.2835994743811
10
409.4405075045989
20
-347.9601237797322
10
409.39682124402174
20
-348.63717031204015
10
409.3605793195707
20
-349.3146558304414
10
409.33177263768226
20
-349.99249797088663
10
409.3103902907696
20
-350.6706147336892
10
409.2964195493117
20
-351.3489245328231
10
409.2898458560483
20
-352.0273462458675
10
409.28912857938275
20
-352.2928455604626
0
LWPOLYLINE
5
109
330
FF
100
AcDbEntity
8
0
100
AcDbPolyline
90
2
70
0
43
0
38
0
39
0
10
470.3503217347965
20
-290.7546287949647
10
470.3503217347965
20
-351.8158219503784
0
LWPOLYLINE
5
10A
330
FF
100
AcDbEntity
8
0
100
AcDbPolyline
90
5
70
0
43
0
38
0
39
0
10
418.7671826725064
20
-862.0859626379952
10
428.2655904966819
20
-862.0859626379952
10
428.2655904966819
20
-860.3898183836782
10
418.7671826725064
20
-860.3898183836782
10
418.7671826725064
20
-862.0859626379952
0
LWPOLYLINE
5
10B
330
FF
100
AcDbEntity
8
0
100
AcDbPolyline
90
5
70
0
43
0
38
0
39
0
10
418.7671826725064
20
-797.6324809739472
10
428.2655904966819
20
-797.6324809739472
10
428.2655904966819
20
-799.3286252282642
10
418.7671826725064
20
-799.3286252282642
10
418.7671826725064
20
-797.6324809739472
0
LWPOLYLINE
5
10C
330
FF
100
AcDbEntity
8
0
100
AcDbPolyline
90
143
70
0
43
0
38
0
39
0
10
357.36676066622925
20
-860.3898183836782
10
357.3704648978509
20
-859.7113734112613
10
357.38156698306847
20
-859.0330093508971
10
357.4000820023072
20
-858.3548073507861
10
357.4260232022686
20
-857.6768490342286
10
357.4594020013581
20
-856.9992164493649
10
357.5002279972419
20
-856.3219920195506
10
357.54850897646196
20
-855.6452584944586
10
357.60425092604254
20
-854.969098902
10
357.6674580470188
20
-854.293596501152
10
357.73813276980337
20
-853.618834735774
10
357.81627577131616
20
-852.9448971894865
10
357.9018859937889
20
-852.2718675416866
10
357.99496066515854
20
-851.5998295247659
10
358.0954953209601
20
-850.9288668825895
10
358.2034838276256
20
-850.2590633302923
10
358.3189184070955
20
-849.5905025154411
10
358.4417896626498
20
-848.9232679806073
10
358.57208660585826
20
-848.2574431273865
10
358.7098736426513
20
-847.5931275733756
10
358.8551415658856
20
-846.9304080127226
10
359.00779689550103
20
-846.2693516540555
10
359.16782229819586
20
-845.6100410943257
10
359.3351990006908
20
-844.9525586238465
10
359.5099068216512
20
-844.2969861997799
10
359.69192420403687
20
-843.6434054211918
10
359.8812282477938
20
-842.9918975056739
10
360.07779474279
20
-842.3425432675147
10
360.28161055820095
20
-841.6954270663325
10
360.4928181566758
20
-841.050685607664
10
360.711209806828
20
-840.4083428213282
10
360.93675615924457
20
-839.7684777424379
10
361.1694267251359
20
-839.1311689106051
10
361.409189909096
20
-838.4964943573107
10
361.65601304154205
20
-837.8645315946455
10
361.9098624107633
20
-837.2353576053865
10
362.1707710661656
20
-836.6090774992983
10
362.438778940329
20
-835.9858026183722
10
362.7137060810688
20
-835.3655495244448
10
362.99551472907484
20
-834.7483929903997
10
363.2841662406152
20
-834.1344072251511
10
363.57962111598334
20
-833.5236658710171
10
363.8818390271743
20
-832.9162420020803
10
364.1908640045231
20
-832.3122522659357
10
364.5067015756902
20
-831.7117971881139
10
364.82917540445527
20
-831.114880635469
10
365.158241954733
20
-830.5215733698915
10
365.49385699251224
20
-829.9319455878183
10
365.83597560808613
20
-829.3460669235501
10
366.1845522373072
20
-828.7640064531549
10
366.53974366397125
20
-828.1859587306544
10
366.90131399421483
20
-827.6118803483216
10
367.26919985567775
20
-827.041829076458
10
367.6433531339563
20
-826.4758717530838
10
368.0237251551785
20
-825.9140746833366
10
368.4102667010164
20
-825.3565036457999
10
368.80309060594135
20
-824.8033405382037
10
369.2020341482784
20
-824.2545752860228
10
369.6069936870777
20
-823.7102350274661
10
370.01791785113716
20
-823.1703834397886
10
370.43475478739794
20
-822.6350837063892
10
370.8574521697347
20
-822.1043985234653
10
371.28611572214396
20
-821.5785205858645
10
371.7205800613721
20
-821.0574255999888
10
372.16074179342405
20
-820.5411347857914
10
372.6065466792866
20
-820.0297088864654
10
373.0579400386069
20
-819.5232081875636
10
373.51486675282234
20
-819.0216925220695
10
373.97744306425005
20
-818.5253828926166
10
374.4454634599078
20
-818.034204661001
10
374.91884545164856
20
-817.5481923032951
10
375.39753210434077
20
-817.0674038097247
10
375.8814660495063
20
-816.5918967350567
10
376.37059175011194
20
-816.1217305850926
10
376.8650313119229
20
-815.6571558661949
10
377.36453930365127
20
-815.198036290265
10
377.8690565295754
20
-814.7444275996645
10
378.3785233475838
20
-814.2963851018574
10
378.892879664717
20
-813.8539636674698
10
379.4120876255751
20
-813.4172450123742
10
379.93621068321323
20
-812.9864376296596
10
380.46503569533144
20
-812.5614164266863
10
380.9985006467303
20
-812.1422343954246
10
381.53654304390926
20
-811.7289440659415
10
382.0790999086167
20
-811.3215974989848
10
382.62613369035506
20
-810.9202820189053
10
383.1776816786465
20
-810.5251937413648
10
383.7335473935055
20
-810.1362050668818
10
384.293665790753
20
-809.7533659725366
10
384.85797130859606
20
-809.3767259108806
10
385.4263978610425
20
-809.0063337963857
10
385.9988845150386
20
-808.6422470404652
10
386.57548779034283
20
-808.284715556254
10
387.15600553995506
20
-807.9335772309641
10
387.74036946786197
20
-807.5888785350226
10
388.32851072582395
20
-807.2506653132878
10
388.9203599087179
20
-806.9189827652106
10
389.51584705038425
20
-806.5938754239992
10
390.1149770728221
20
-806.2755308712028
10
390.7176388994713
20
-805.9639252058441
10
391.32372007360533
20
-805.6590249503843
10
391.93314832015943
20
-805.3608715770442
10
392.5458507945279
20
-805.06950576804
10
393.16175408286614
20
-804.7849673890635
10
393.7807842033033
20
-804.5072954619366
10
394.40294405198057
20
-804.2367086000563
10
395.0280902106361
20
-803.9730961820771
10
395.6561325038477
20
-803.7164615038093
10
396.28699470112207
20
-803.4668397186172
10
396.92060003001876
20
-803.2242649827749
10
397.55687118422753
20
-802.9887704240602
10
398.19573033291755
20
-802.7603881098714
10
398.83712086488737
20
-802.5392131698188
10
399.48098399959184
20
-802.325343708276
10
400.12719341997484
20
-802.1186740903672
10
400.77566934870566
20
-801.9192315764947
10
401.4263315577454
20
-801.7270421973419
10
402.0790993864543
20
-801.54213072066
10
402.73389176121117
20
-801.3645206180893
10
403.3906272165679
20
-801.1942340321104
10
404.0492239179511
20
-801.0312917431986
10
404.7096149240296
20
-800.8757794514886
10
405.3717219557149
20
-800.7277446194544
10
406.03543828959386
20
-800.5871037946213
10
406.7006809758537
20
-800.4538717156768
10
407.367366841731
20
-800.328061598633
10
408.03541252385213
20
-800.209685107508
10
408.70473450209323
20
-800.0987523258912
10
409.3752491349342
20
-799.9952717294946
10
410.0468726962794
20
-799.8992501597818
10
410.7195214137036
20
-799.810692798769
10
411.39311150809107
20
-799.7296031451046
10
412.0675592346118
20
-799.6559829915063
10
412.7427809249893
20
-799.5898324036636
10
413.4186930309991
20
-799.5311497006869
10
414.09521732736874
20
-799.4800047848844
10
414.77226385646503
20
-799.4363184685787
10
415.4497493713373
20
-799.4000764715349
10
416.1275915082953
20
-799.3712696998693
10
416.8057082680214
20
-799.349887245698
10
417.4840180648677
20
-799.3359163792272
10
418.16243977679875
20
-799.3293425429497
10
418.42795382164303
20
-799.3286252282642
0
LWPOLYLINE
5
10D
330
FF
100
AcDbEntity
8
0
100
AcDbPolyline
90
2
70
0
43
0
38
0
39
0
10
356.88973705614507
20
-860.3898183836782
10
417.95093021155884
20
-860.3898183836782
0
ENDBLK
5
101
100
AcDbEntity
8
0
100
AcDbBlockEnd
0
BLOCK
5
110
330
10F
100
AcDbEntity
8
0
100
AcDbBlockBegin
2
Window-1
70
0
10
0
20
0
30
0
3
Window-1
1

0
LWPOLYLINE
5
112
330
10F
100
AcDbEntity
8
0
100
AcDbPolyline
90
6
70
0
43
0
38
0
39
0
10
435.7421943697114
20
-881.1506240565188
10
523.9416955941981
20
-881.1506240565188
10
523.9416955941981
20
-871.6522162323433
10
435.7421943697114
20
-871.6522162323433
10
435.7421943697114
20
-881.1506240565188
10
435.7421943697114
20
-881.1506240565188
0
LWPOLYLINE
5
113
330
10F
100
AcDbEntity
8
0
100
AcDbPolyline
90
2
70
0
43
0
38
0
39
0
10
435.7421943697114
20
-876.4014201444311
10
523.9416955941981
20
-876.4014201444311
0
ENDBLK
5
111
100
AcDbEntity
8
0
100
AcDbBlockEnd
0
BLOCK
5
116
330
115
100
AcDbEntity
8
0
100
AcDbBlockBegin
2
Window-2
70
0
10
0
20
0
30
0
3
Window-2
1

0
LWPOLYLINE
5
118
330
115
100
AcDbEntity
8
0
100
AcDbPolyline
90
6
70
0
43
0
38
0
39
0
10
610.4179142562984
20
-881.1506240565188
10
671.4791074117122
20
-881.1506240565188
10
671.4791074117122
20
-871.6522162323433
10
610.4179142562984
20
-871.6522162323433
10
610.4179142562984
20
-881.1506240565188
10
610.4179142562984
20
-881.1506240565188
0
LWPOLYLINE
5
119
330
115
100
AcDbEntity
8
0
100
AcDbPolyline
90
2
70
0
43
0
38
0
39
0
10
610.4179142562984
20
-876.4014201444311
10
671.4791074117122
20
-876.4014201444311
0
ENDBLK
5
117
100
AcDbEntity
8
0
100
AcDbBlockEnd
0
BLOCK
5
11C
330
11B
100
AcDbEntity
8
0
100
AcDbBlockBegin
2
Window-3
70
0
10
0
20
0
30
0
3
Window-3
1

0
LWPOLYLINE
5
11E
330
11B
100
AcDbEntity
8
0
100
AcDbPolyline
90
6
70
0
43
0
38
0
39
0
10
558.597314998404
20
-352.63207441132596
10
477.1823907911856
20
-352.63207441132596
10
477.1823907911856
20
-362.13048223550146
10
558.597314998404
20
-362.13048223550146
10
558.597314998404
20
-352.63207441132596
10
558.597314998404
20
-352.63207441132596
0
LWPOLYLINE
5
11F
330
11B
100
AcDbEntity
8
0
100
AcDbPolyline
90
2
70
0
43
0
38
0
39
0
10
558.597314998404
20
-357.3812783234137
10
477.1823907911856
20
-357.3812783234137
0
ENDBLK
5
11D
100
AcDbEntity
8
0
100
AcDbBlockEnd
0
BLOCK
5
122
330
121
100
AcDbEntity
8
0
100
AcDbBlockBegin
2
Window-4
70
0
10
0
20
0
30
0
3
Window-4
1

0
LWPOLYLINE
5
124
330
121
100
AcDbEntity
8
0
100
AcDbPolyline
90
6
70
0
43
0
38
0
39
0
10
646.5593560272862
20
-352.63207441132596
10
565.1444318200677
20
-352.63207441132596
10
565.1444318200677
20
-362.13048223550146
10
646.5593560272862
20
-362.13048223550146
10
646.5593560272862
20
-352.63207441132596
10
646.5593560272862
20
-352.63207441132596
0
LWPOLYLINE
5
125
330
121
100
AcDbEntity
8
0
100
AcDbPolyline
90
2
70
0
43
0
38
0
39
0
10
646.5593560272862
20
-357.3812783234137
10
565.1444318200677
20
-357.3812783234137
0
ENDBLK
5
123
100
AcDbEntity
8
0
100
AcDbBlockEnd
0
BLOCK
5
128
330
127
100
AcDbEntity
8
0
100
AcDbBlockBegin
2
Window-5
70
0
10
0
20
0
30
0
3
Window-5
1

0
LWPOLYLINE
5
12A
330
127
100
AcDbEntity
8
0
100
AcDbPolyline
90
6
70
0
43
0
38
0
39
0
10
527.0829547531932
20
-881.1506240565188
10
608.4978789604115
20
-881.1506240565188
10
608.4978789604115
20
-871.6522162323433
10
527.0829547531932
20
-871.6522162323433
10
527.0829547531932
20
-881.1506240565188
10
527.0829547531932
20
-881.1506240565188
0
LWPOLYLINE
5
12B
330
127
100
AcDbEntity
8
0
100
AcDbPolyline
90
2
70
0
43
0
38
0
39
0
10
527.0829547531932
20
-876.4014201444311
10
608.4978789604115
20
-876.4014201444311
0
ENDBLK
5
129
100
AcDbEntity
8
0
100
AcDbBlockEnd
0
BLOCK
5
12E
330
12D
100
AcDbEntity
8
0
100
AcDbBlockBegin
2
Window-6
70
0
10
0
20
0
30
0
3
Window-6
1

0
LWPOLYLINE
5
130
330
12D
100
AcDbEntity
8
0
100
AcDbPolyline
90
6
70
0
43
0
38
0
39
0
10
211.8240144917918
20
-767.169730166413
10
123.62451326730519
20
-767.169730166413
10
123.62451326730519
20
-757.6713223422375
10
211.8240144917918
20
-757.6713223422375
10
211.8240144917918
20
-767.169730166413
10
211.8240144917918
20
-767.169730166413
0
LWPOLYLINE
5
131
330
12D
100
AcDbEntity
8
0
100
AcDbPolyline
90
2
70
0
43
0
38
0
39
0
10
211.8240144917918
20
-762.4205262543253
10
123.62451326730519
20
-762.4205262543253
0
ENDBLK
5
12F
100
AcDbEntity
8
0
100
AcDbBlockEnd
0
BLOCK
5
134
330
133
100
AcDbEntity
8
0
100
AcDbBlockBegin
2
Window-7
70
0
10
0
20
0
30
0
3
Window-7
1

0
LWPOLYLINE
5
136
330
133
100
AcDbEntity
8
0
100
AcDbPolyline
90
6
70
0
43
0
38
0
39
0
10
304.05355446453564
20
-767.169730166413
10
215.85405324004904
20
-767.169730166413
10
215.85405324004904
20
-757.6713223422375
10
304.05355446453564
20
-757.6713223422375
10
304.05355446453564
20
-767.169730166413
10
304.05355446453564
20
-767.169730166413
0
LWPOLYLINE
5
137
330
133
100
AcDbEntity
8
0
100
AcDbPolyline
90
2
70
0
43
0
38
0
39
0
10
304.05355446453564
20
-762.4205262543253
10
215.85405324004904
20
-762.4205262543253
0
ENDBLK
5
135
100
AcDbEntity
8
0
100
AcDbBlockEnd
0
BLOCK
5
13A
330
139
100
AcDbEntity
8
0
100
AcDbBlockBegin
2
Window-8
70
0
10
0
20
0
30
0
3
Window-8
1

0
LWPOLYLINE
5
13C
330
139
100
AcDbEntity
8
0
100
AcDbPolyline
90
6
70
0
43
0
38
0
39
0
10
394.36984371841
20
-767.169730166413
10
306.17034249392333
20
-767.169730166413
10
306.17034249392333
20
-757.6713223422375
10
394.36984371841
20
-757.6713223422375
10
394.36984371841
20
-767.169730166413
10
394.36984371841
20
-767.169730166413
0
LWPOLYLINE
5
13D
330
139
100
AcDbEntity
8
0
100
AcDbPolyline
90
2
70
0
43
0
38
0
39
0
10
394.36984371841
20
-762.4205262543253
10
306.17034249392333
20
-762.4205262543253
0
ENDBLK
5
13B
100
AcDbEntity
8
0
100
AcDbBlockEnd
0
ENDSEC
0
SECTION
2
ENTITIES
0
INSERT
5
22
330
C
100
AcDbEntity
8
surface
100
AcDbBlockReference
2
surface-1
10
0
20
0
41
1
42
1
43
1
50
0
66
0
70
1
71
1
44
0
45
0
0
INSERT
5
2B
330
C
100
AcDbEntity
8
object
100
AcDbBlockReference
2
Kitchen_bench-1
10
0
20
0
41
1
42
1
43
1
50
0
66
0
70
1
71
1
44
0
45
0
0
INSERT
5
34
330
C
100
AcDbEntity
8
object
100
AcDbBlockReference
2
Two_seater_sofa-1
10
0
20
0
41
1
42
1
43
1
50
0
66
0
70
1
71
1
44
0
45
0
0
INSERT
5
3E
330
C
100
AcDbEntity
8
object
100
AcDbBlockReference
2
Wahsing_machine-1
10
0
20
0
41
1
42
1
43
1
50
0
66
0
70
1
71
1
44
0
45
0
0
INSERT
5
4F
330
C
100
AcDbEntity
8
object
100
AcDbBlockReference
2
Table_with_six_chairs-1
10
0
20
0
41
1
42
1
43
1
50
0
66
0
70
1
71
1
44
0
45
0
0
INSERT
5
5C
330
C
100
AcDbEntity
8
object
100
AcDbBlockReference
2
Table_with_four_chairs-1
10
0
20
0
41
1
42
1
43
1
50
0
66
0
70
1
71
1
44
0
45
0
0
INSERT
5
65
330
C
100
AcDbEntity
8
object
100
AcDbBlockReference
2
Two_seater_sofa-2
10
0
20
0
41
1
42
1
43
1
50
0
66
0
70
1
71
1
44
0
45
0
0
INSERT
5
6B
330
C
100
AcDbEntity
8
object
100
AcDbBlockReference
2
TV-1
10
0
20
0
41
1
42
1
43
1
50
0
66
0
70
1
71
1
44
0
45
0
0
INSERT
5
70
330
C
100
AcDbEntity
8
object
100
AcDbBlockReference
2
Coffee_table-1
10
0
20
0
41
1
42
1
43
1
50
0
66
0
70
1
71
1
44
0
45
0
0
INSERT
5
8F
330
C
100
AcDbEntity
8
object
100
AcDbBlockReference
2
U_stair-1
10
0
20
0
41
1
42
1
43
1
50
0
66
0
70
1
71
1
44
0
45
0
0
INSERT
5
94
330
C
100
AcDbEntity
8
object
100
AcDbBlockReference
2
object-1
10
0
20
0
41
1
42
1
43
1
50
0
66
0
70
1
71
1
44
0
45
0
0
INSERT
5
99
330
C
100
AcDbEntity
8
object
100
AcDbBlockReference
2
Column-1
10
0
20
0
41
1
42
1
43
1
50
0
66
0
70
1
71
1
44
0
45
0
0
INSERT
5
9F
330
C
100
AcDbEntity
8
object
100
AcDbBlockReference
2
Warderobe_2_door-1
10
0
20
0
41
1
42
1
43
1
50
0
66
0
70
1
71
1
44
0
45
0
0
INSERT
5
A7
330
C
100
AcDbEntity
8
object
100
AcDbBlockReference
2
Fireplace-1
10
0
20
0
41
1
42
1
43
1
50
0
66
0
70
1
71
1
44
0
45
0
0
INSERT
5
B2
330
C
100
AcDbEntity
8
object
100
AcDbBlockReference
2
Single_sink-1
10
0
20
0
41
1
42
1
43
1
50
0
66
0
70
1
71
1
44
0
45
0
0
INSERT
5
BB
330
C
100
AcDbEntity
8
object
100
AcDbBlockReference
2
Two_seater_sofa-3
10
0
20
0
41
1
42
1
43
1
50
0
66
0
70
1
71
1
44
0
45
0
0
INSERT
5
C1
330
C
100
AcDbEntity
8
object
100
AcDbBlockReference
2
Warderobe_2_door-2
10
0
20
0
41
1
42
1
43
1
50
0
66
0
70
1
71
1
44
0
45
0
0
INSERT
5
CB
330
C
100
AcDbEntity
8
object
100
AcDbBlockReference
2
Refrigator_freezer-1
10
0
20
0
41
1
42
1
43
1
50
0
66
0
70
1
71
1
44
0
45
0
0
INSERT
5
D5
330
C
100
AcDbEntity
8
object
100
AcDbBlockReference
2
Double_sink-1
10
0
20
0
41
1
42
1
43
1
50
0
66
0
70
1
71
1
44
0
45
0
0
INSERT
5
E0
330
C
100
AcDbEntity
8
object
100
AcDbBlockReference
2
Induction_cooker_4-1
10
0
20
0
41
1
42
1
43
1
50
0
66
0
70
1
71
1
44
0
45
0
0
INSERT
5
E5
330
C
100
AcDbEntity
8
object
100
AcDbBlockReference
2
Booklet-1
10
0
20
0
41
1
42
1
43
1
50
0
66
0
70
1
71
1
44
0
45
0
0
INSERT
5
EA
330
C
100
AcDbEntity
8
object
100
AcDbBlockReference
2
Coffee_table-2
10
0
20
0
41
1
42
1
43
1
50
0
66
0
70
1
71
1
44
0
45
0
0
INSERT
5
FD
330
C
100
AcDbEntity
8
wall
100
AcDbBlockReference
2
wall-1
10
0
20
0
41
1
42
1
43
1
50
0
66
0
70
1
71
1
44
0
45
0
0
INSERT
5
10E
330
C
100
AcDbEntity
8
window-door
100
AcDbBlockReference
2
window-door-1
10
0
20
0
41
1
42
1
43
1
50
0
66
0
70
1
71
1
44
0
45
0
0
INSERT
5
114
330
C
100
AcDbEntity
8
window-door
100
AcDbBlockReference
2
Window-1
10
0
20
0
41
1
42
1
43
1
50
0
66
0
70
1
71
1
44
0
45
0
0
INSERT
5
11A
330
C
100
AcDbEntity
8
window-door
100
AcDbBlockReference
2
Window-2
10
0
20
0
41
1
42
1
43
1
50
0
66
0
70
1
71
1
44
0
45
0
0
INSERT
5
120
330
C
100
AcDbEntity
8
window-door
100
AcDbBlockReference
2
Window-3
10
0
20
0
41
1
42
1
43
1
50
0
66
0
70
1
71
1
44
0
45
0
0
INSERT
5
126
330
C
100
AcDbEntity
8
window-door
100
AcDbBlockReference
2
Window-4
10
0
20
0
41
1
42
1
43
1
50
0
66
0
70
1
71
1
44
0
45
0
0
INSERT
5
12C
330
C
100
AcDbEntity
8
window-door
100
AcDbBlockReference
2
Window-5
10
0
20
0
41
1
42
1
43
1
50
0
66
0
70
1
71
1
44
0
45
0
0
INSERT
5
132
330
C
100
AcDbEntity
8
window-door
100
AcDbBlockReference
2
Window-6
10
0
20
0
41
1
42
1
43
1
50
0
66
0
70
1
71
1
44
0
45
0
0
INSERT
5
138
330
C
100
AcDbEntity
8
window-door
100
AcDbBlockReference
2
Window-7
10
0
20
0
41
1
42
1
43
1
50
0
66
0
70
1
71
1
44
0
45
0
0
INSERT
5
13E
330
C
100
AcDbEntity
8
window-door
100
AcDbBlockReference
2
Window-8
10
0
20
0
41
1
42
1
43
1
50
0
66
0
70
1
71
1
44
0
45
0
0
ENDSEC
0
SECTION
2
OBJECTS
0
DICTIONARY
5
A
330
0
100
AcDbDictionary
281
1
3
ACAD_GROUP
350
B
0
DICTIONARY
5
B
330
A
100
AcDbDictionary
281
0
0
ENDSEC
0
EOF