<svg xmlns:svg="http://www.w3.org/2000/svg" xmlns="http://www.w3.org/2000/svg" width="90cm" height="60cm" viewBox="0 0 90 60" version="1.1" style="overflow: visible">
  
 <path fill="#ffffff" stroke="#000000" stroke-width="1" d="M 2.2,0 H 87.8 C 89,0 90,1 90,2.2 V 57.8 C 90,60 89,60 87.5,60 H 2.2 C 1,60 0,60 0,57.7 V 2.2 C 0,1 1,0 2.2,0 Z" id="path1"/>
 <path fill="#ffffff" stroke="#000000" stroke-width="1" d="m 48.2,12 h 36.6 c 1,0 1.7,0.9 1.7,2.1 v 40.3 c 0,1.2 -0.7,2.1 -1.7,2.1 H 48.2 c -1,0 -1.7,-0.9 -1.7,-2.1 V 14.1 c 0,-1.2 0.7,-2.1 1.7,-2.1 z" id="path2"/>
 <path fill="#ffffff" stroke="#000000" stroke-width="1" d="m 44.2,3.9 1.1,-0.5 c 0.5,-0.2 1,0 1.2,0.4 L 55.3,22 c 0.2,0.5 0,1 -0.4,1.2 l -1.1,0.5 c -0.5,0.2 -1,0 -1.2,-0.4 L 43.8,5.1 c -0.2,-0.5 0,-1 0.4,-1.2 z" id="path3"/>
 <path fill="#ffffff" stroke="#000000" stroke-width="1" d="m 39.5,6.2 3.2,-1.6 c 0.4,-0.2 0.9,0 1.1,0.4 l 1.6,3.2 c 0.2,0.4 0,0.9 -0.4,1.1 l -3.2,1.6 c -0.4,0.2 -0.9,0 -1.1,-0.4 L 39.1,7.3 c -0.2,-0.4 0,-0.9 0.4,-1.1 z" id="path4"/>
 <path fill="#ffffff" stroke="#000000" stroke-width="1" d="m 46.7,2.7 3.2,-1.6 c 0.4,-0.2 0.9,0 1.1,0.4 l 1.6,3.2 c 0.2,0.4 0,0.9 -0.4,1.1 l -3.1,1.5 c -0.3,0.2 -0.9,0 -1,-0.3 L 46.5,3.7 c -0.2,-0.4 0,-0.9 0.4,-1.1 z" id="path5"/>
 <circle fill="#ffffff" stroke="#000000" stroke-width="1" cx="53.5" cy="35" r="3" id="circle1"/>
 <circle fill="#ffffff" stroke="#000000" stroke-width="1" cx="53.5" cy="35" r="1.5" id="circle2"/>
 <path fill="#ffffff" stroke="#000000" stroke-width="1" d="M 3.1,6.4 H 36.6 c 0.6,0 1.1,0.5 1.1,1.1 0,0.6 -0.5,1.1 -1.1,1.1 H 3.1 c -0.6,0 -1.1,-0.5 -1.1,-1.1 0,-0.6 0.5,-1.1 1.1,-1.1 z" id="path6"/>
 <path fill="#ffffff" stroke="#000000" stroke-width="1" d="M 3.1,51.4 H 36.6 c 0.6,0 1.1,0.5 1.1,1.1 0,0.6 -0.5,1.1 -1.1,1.1 H 3.1 C 2.5,53.6 2,53.1 2,52.5 2,51.9 2.5,51.4 3.1,51.4 Z" id="path7"/>
 <path fill="#ffffff" stroke="#000000" stroke-width="1" d="M 3.1,43.9 H 40.9 c 0.6,0 1.1,0.5 1.1,1.1 0,0.6 -0.5,1.1 -1.1,1.1 H 3.1 c -0.6,0 -1.1,-0.5 -1.1,-1.1 0,-0.6 0.5,-1.1 1.1,-1.1 z" id="path8"/>
 <path fill="#ffffff" stroke="#000000" stroke-width="1" d="M 3.1,36.4 H 40.9 c 0.6,0 1.1,0.5 1.1,1.1 0,0.6 -0.5,1.1 -1.1,1.1 H 3.1 c -0.6,0 -1.1,-0.5 -1.1,-1.1 0,-0.6 0.5,-1.1 1.1,-1.1 z" id="path9"/>
 <path fill="#ffffff" stroke="#000000" stroke-width="1" d="M 3.1,28.9 H 40.9 c 0.6,0 1.1,0.5 1.1,1.1 0,0.6 -0.5,1.1 -1.1,1.1 H 3.1 c -0.6,0 -1.1,-0.5 -1.1,-1.1 0,-0.6 0.5,-1.1 1.1,-1.1 z" id="path10"/>
 <path fill="#ffffff" stroke="#000000" stroke-width="1" d="M 3.1,21.4 H 40.9 c 0.6,0 1.1,0.5 1.1,1.1 0,0.6 -0.5,1.1 -1.1,1.1 H 3.1 c -0.6,0 -1.1,-0.5 -1.1,-1.1 0,-0.6 0.5,-1.1 1.1,-1.1 z" id="path11"/>
 <path fill="#ffffff" stroke="#000000" stroke-width="1" d="M 3.1,13.9 H 40.9 c 0.6,0 1.1,0.5 1.1,1.1 0,0.6 -0.5,1.1 -1.1,1.1 H 3.1 c -0.6,0 -1.1,-0.5 -1.1,-1.1 0,-0.6 0.5,-1.1 1.1,-1.1 z" id="path12"/>
</svg>